<svg xmlns="http://www.w3.org/2000/svg" viewBox="0 0 142.92 66"><defs><style>.cls-1,.cls-2{fill:none;}.cls-2{stroke:#ca2e55;stroke-miterlimit:10;}</style></defs><g id="Layer_2" data-name="Layer 2"><g id="Layer_1-2" data-name="Layer 1"><path class="cls-1" d="M71,65.94c-22.64,0-45.28,0-67.92.06-2.48,0-3-.56-3-3Q.18,33,0,3C0,.55.56,0,3,0Q71.46.14,139.88,0c2.48,0,3.05.55,3,3q-.18,30,0,60c0,2.45-.56,3-3,3C116.91,65.89,93.93,65.94,71,65.94ZM94.68,7c-6.6-.46-12.11,2.68-18,3.86-11.51,2.3-22.23,7-33.42,10.36C32.81,24.26,32,31.6,36.93,39.38a76.66,76.66,0,0,0,10,12.71C50.46,55.71,54.41,56.63,59,56c3.24-.47,6.44-1.26,9.66-1.87,18.16-3.46,35.69-10,54.58-10,6.61,0,9.88-4,9.65-9.37-.33-7.62-8.73-18.1-16.09-19.84a36.63,36.63,0,0,1-13.07-5.53A12.34,12.34,0,0,0,94.68,7Z"/><path class="cls-2" d="M94.68,7a12.34,12.34,0,0,1,9.08,2.34,36.63,36.63,0,0,0,13.07,5.53c7.36,1.74,15.76,12.22,16.09,19.84.23,5.32-3,9.37-9.65,9.37-18.89,0-36.42,6.57-54.58,10-3.22.61-6.42,1.4-9.66,1.87-4.62.68-8.57-.24-12.11-3.86a76.66,76.66,0,0,1-10-12.71C32,31.6,32.81,24.26,43.22,21.19c11.19-3.31,21.91-8.06,33.42-10.36C82.57,9.65,88.08,6.51,94.68,7Zm6.55,4.87h0c-.38-.88-1.15-1-2-1l0,0c-.67-1.09-1.34-1-2,0l-1,0-3,0c-2.06-1.77-4.21-.89-6.4-.27-5.11,1.45-10.25,2.85-15.38,4.27-10.06,1.73-19.3,6.09-29,8.91-1.89.55-2.05,2.36-2.87,3.92-2.2,4.17,2.28,6.35,2.1,9.71-1.06.13-2.35.78-1.73,1.71,2.74,4.13,4.08,9.61,10,10.94a4.74,4.74,0,0,0,3.48,1c1.71.45,3.71-.53,5.17,1.08-1.19.25-2.5.29-3.05,1.87,2.17.16,4.21.28,6.05-1,3.89-1.14,8.22-.49,11.82-2.81l1.05,0a18.26,18.26,0,0,0,5.34-.53c11.07-2.78,21.7-7.66,33.62-6.57,2.44.22,5.12-.74,7.75-.86,1.81-.09,3.64-.61,3.9-2.93-.28-2.28,1.21-4,2-5.88,2.26,1,3.3.35,2.29-2-.88-2.05-1.58-4.25-3.29-5.86-1.74-2.49-2.23-6.83-7.09-4.69l-3.87-.11c1.1-1.77.75-2.69-1.41-3.31a36.19,36.19,0,0,1-5.49-2.61,5.93,5.93,0,0,0-5-2h0A1.79,1.79,0,0,0,101.23,11.84Z"/><path class="cls-2" d="M103.21,12.82a5.93,5.93,0,0,1,5,2c-.44,1.43-2.18,0-2.91,1.54a22.73,22.73,0,0,0,9.81,4.38l3.87.11c.15,1.38,0,2.47-1.69,2.91s-3.08,1.08-3.3,3c-4.37,1.95-9.2,2.33-13.67,3.88s-10.52,1.11-11.45,8.15c-.26,1.9-3,2.43-4.26.51-1.95-3-4.13-2-6.45-1.09Q64.53,43.33,51,48.48c-4.06-2.89-5.66-7.81-9.29-11.06.19-3.36-4.29-5.54-2.09-9.71.82-1.56,1-3.37,2.87-3.92,9.72-2.82,19-7.18,29-8.91,0,.36,0,.73,0,1.09C62.16,20.62,51.75,22.36,42,26.75c1.31,1.05,2,.5,2.81.28,13.32-3.83,26.42-8.38,40-11.6,2.75-.65,7.19-.38,8.49-4.58l0,0,3,0a5.89,5.89,0,0,0,6,3.91C104,14.8,103.42,13.72,103.21,12.82ZM85,33.82c-.87-2.37-6.3-1.22-3.76-5,1.8-2.68.63-3.71-1.3-5.05-2.37-1.67-5.1-1.64-6.64.39-.94,1.24-4.07,4.66,1.08,5.61,1,.19,2.5.5,2.48,1.93s-1.3,1.67-2.49,1.79-2.63-.17-2.69,1.42c-.08,1.81,1.83,1.87,2.91,2C78.52,37.43,81.5,34.9,85,33.82Z"/><path class="cls-2" d="M51,48.48q13.57-5.13,27.16-10.25c2.32-.87,4.5-1.86,6.45,1.09,1.26,1.92,4,1.39,4.26-.51.93-7,6.92-6.58,11.45-8.15s9.3-1.93,13.67-3.88l9.1-.34v1.17c-7,2.72-14.29,4.07-21.53,5.68-4.72,1.06-4.31,2.5-1.45,5.14l.45,1.73c-6.72,1.51-13.34,7-20.24.44-9.4,1.81-17.88,6.11-26.66,9.6-.08.29-.16.57-.23.86a4.74,4.74,0,0,1-3.48-1Z"/><path class="cls-2" d="M80.28,40.6c6.9,6.55,13.52,1.07,20.24-.44l9.61-.78a6.13,6.13,0,0,0,3.91-.94l3.06,0,3,0a10,10,0,0,1,5,.9c-.27,2.32-2.1,2.84-3.91,2.93-2.63.12-5.31,1.08-7.75.86C101.47,42,90.84,46.87,79.77,49.65a18.26,18.26,0,0,1-5.34.53c0-2.08,1.82-1.63,3-2.19,1.4-.65,3.72-.17,3.87-2.66C81,43.75,80.62,42.18,80.28,40.6Z"/><path class="cls-2" d="M51,48.48l-1.05,1.59C44,48.74,42.69,43.26,40,39.13c-.62-.93.67-1.58,1.72-1.71C45.3,40.67,46.9,45.59,51,48.48Z"/><path class="cls-2" d="M123.05,26.44l-9.1.34c.22-2,1.73-2.61,3.3-3s1.84-1.53,1.69-2.91c4.86-2.14,5.35,2.2,7.09,4.69C125,25.7,123.83,25.46,123.05,26.44Z"/><path class="cls-2" d="M71.43,16c0-.36,0-.73,0-1.09,5.13-1.42,10.27-2.82,15.38-4.27,2.19-.62,4.34-1.5,6.4.27l0,0C85.91,12.24,79.09,15.87,71.43,16Z"/><path class="cls-2" d="M81.31,45.33c-.15,2.49-2.47,2-3.87,2.66-1.19.56-3,.11-3,2.19l-1.05,0c-2.08.41-3.92-.66-5.88-1h0C71.55,46,76.56,46.13,81.31,45.33Z"/><path class="cls-2" d="M115.07,20.73a22.73,22.73,0,0,1-9.81-4.38c.73-1.55,2.47-.11,2.91-1.54a36.19,36.19,0,0,0,5.49,2.61C115.82,18,116.17,19,115.07,20.73Z"/><path class="cls-2" d="M123.05,26.44c.78-1,2-.74,3-.91,1.71,1.61,2.41,3.81,3.29,5.86,1,2.37,0,3-2.29,2a1.94,1.94,0,0,0-1-1.89c.07-2.08-.4-3.76-3-3.91Z"/><path class="cls-2" d="M126,31.52a1.94,1.94,0,0,1,1,1.89c-.78,1.92-2.27,3.6-2,5.88a10,10,0,0,0-5-.9Z"/><path class="cls-2" d="M53.39,51.06c.07-.29.15-.57.23-.86,4.67.36,9.17-1.68,13.87-1h0l-6,2.93-2.93,0C57.1,50.53,55.1,51.51,53.39,51.06Z"/><path class="cls-2" d="M61.49,52.16l6-2.93c2,.32,3.8,1.39,5.88,1-3.6,2.32-7.93,1.67-11.82,2.81A6.36,6.36,0,0,0,61.49,52.16Z"/><path class="cls-2" d="M103.21,12.82c.21.9.83,2-.93,2a5.89,5.89,0,0,1-6-3.91l1,0h2l0,0a2,2,0,0,0,2,1h0a1.84,1.84,0,0,0,2,1Z"/><path class="cls-2" d="M61.49,52.16a6.36,6.36,0,0,1,.07.86c-1.84,1.27-3.88,1.15-6.05,1,.55-1.58,1.86-1.62,3.05-1.87Z"/><path class="cls-2" d="M99.24,10.87h-2C97.9,9.86,98.57,9.78,99.24,10.87Z"/><path class="cls-2" d="M101.21,11.84a2,2,0,0,1-2-1C100.06,10.84,100.83,11,101.21,11.84Z"/><path class="cls-2" d="M103.2,12.82a1.84,1.84,0,0,1-2-1A1.79,1.79,0,0,1,103.2,12.82Z"/><path class="cls-2" d="M85,33.82c-3.54,1.08-6.52,3.61-10.41,3.09-1.08-.15-3-.21-2.91-2,.06-1.59,1.59-1.3,2.69-1.42s2.48-.35,2.49-1.79-1.45-1.74-2.48-1.93c-5.15-.95-2-4.37-1.08-5.61,1.54-2,4.27-2.06,6.64-.39,1.93,1.34,3.1,2.37,1.3,5.05C78.74,32.6,84.17,31.45,85,33.82Z"/><path class="cls-2" d="M71.43,16c7.66-.1,14.48-3.73,21.84-5.12-1.3,4.2-5.74,3.93-8.49,4.58C71.25,18.65,58.15,23.2,44.83,27c-.77.22-1.5.77-2.81-.28C51.75,22.36,62.16,20.62,71.43,16Z"/><path class="cls-2" d="M126,31.52l-5.94,6.87-3,0c-1-1.3-2-1.25-3,0a6.13,6.13,0,0,1-3.91.94c-1.4-2.43-2.4-6-5.91-1.76-1,1.24-2.73.7-4.15.81-2.86-2.64-3.27-4.08,1.45-5.14,7.24-1.61,14.58-3,21.53-5.68C125.6,27.76,126.07,29.44,126,31.52Z"/><path class="cls-2" d="M67.49,49.22c-4.7-.7-9.2,1.34-13.87,1,8.78-3.49,17.26-7.79,26.66-9.6.34,1.58.68,3.15,1,4.73C76.56,46.13,71.55,46,67.49,49.22Z"/><path class="cls-2" d="M100.07,38.43c1.42-.11,3.13.43,4.15-.81,3.51-4.23,4.51-.67,5.91,1.76l-9.61.78Z"/><path class="cls-2" d="M114,38.44c1-1.27,2-1.32,3,0Z"/></g></g></svg>