<svg xmlns="http://www.w3.org/2000/svg" viewBox="0 0 129.6 94.8"><defs><style>.cls-1,.cls-2{fill:none;}.cls-2{stroke:#ca2e55;stroke-miterlimit:10;}</style></defs><g id="Layer_2" data-name="Layer 2"><g id="Layer_1-2" data-name="Layer 1"><path class="cls-1" d="M64.8,94.77q-31.78,0-63.57,0C.2,94.8,0,94.6,0,93.58Q.06,47.4,0,1.22C0,.2.2,0,1.23,0Q64.8,0,128.37,0c1,0,1.23.2,1.23,1.22q-.06,46.19,0,92.36c0,1-.2,1.22-1.23,1.22Q96.59,94.74,64.8,94.77Zm-36.6-42c-3-.23-5,1.17-6.31,3.82l-.53.41c-.41-.1-.64,0-.66.49l-.6.6c-.43,0-.6.24-.48.66l-.46.79a.51.51,0,0,0-.46.7c-.58.68-.13.93.48,1.1a2,2,0,0,0,2.72,1.38,4.88,4.88,0,0,1,2.46,0,6.43,6.43,0,0,0,4.72-.64,1.38,1.38,0,0,1,1.41-.19A2.65,2.65,0,0,0,33,61.74c1.41-1.29,3-2.35,4.49-3.51s3-2.74,5.31-2.92c.73-.05,1.46.71,2.12,0,1.71-1.78,3.92-2.45,6.22-3,1.38-.34,2.19,0,2.2,1.39a1.07,1.07,0,0,0,1,1.21,9.77,9.77,0,0,1,4.28,1.41,3,3,0,0,0,2.73.18,1.81,1.81,0,0,1,2,.09c.28.24.65,0,1,0,2.2-.38,4.37-2.08,6.65-.21a.59.59,0,0,0,.44,0c1.31-.31,2.48-1.37,4-.78.1,0,.34-.35.55-.45.82-.4,1.65-.57,2.23.36.76,1.22,1.68,1.63,3,.75a1,1,0,0,1,.71-.13c1.73.4,3.6.48,4.89,1.93,1.9,2.12,4.43,2.35,7,2.22a3.91,3.91,0,0,0,3.73-2.4l.93-.92c.41.07.62-.12.64-.52l1.19-.94c.48,0,1,.11,1.3-.43l.84-.08a2.2,2.2,0,0,0,2.71-.89,11,11,0,0,1,2.27-1.7.51.51,0,0,0,.75-.36l1-.51c.41.13.63,0,.7-.44a18.52,18.52,0,0,1,1.54-1.4c1.06-.79,1.34-2.24,2.49-2.92a40.56,40.56,0,0,1,3.81-2,5.13,5.13,0,0,0,2.73-3c.32-.81.69-1.69-.05-2.52-2-2.26-3.93-3.73-7.06-1a3.33,3.33,0,0,1-2.81,1.12,1.54,1.54,0,0,1,.28-1.76c1.21-.54,1.42-1.7.6-3.31l0-1.48a13.59,13.59,0,0,0,1.61-4.74l.16-1c1.15-1.19,1.31-2.74,1.54-4.25.15-1-.31-1.38-1.3-1.24a11.66,11.66,0,0,1-4,.22,36.59,36.59,0,0,0-5.58-.88,16.63,16.63,0,0,1-6.39-1.7c-2.14-1-4.57-1.87-6.92-.1-.56.42-1,.26-1-.58.08-1.32-.51-2.23-1.82-2.22s-1.82-1.31-3-1a.45.45,0,0,0-.27.12c-1,1.47-2.57,1.23-4,1.2a2.91,2.91,0,0,0-1.72.79c-2.38,1.67-4.49,3.63-7.32,4.8-2.6,1.08-5.15,2.5-7.74,3.68S58.21,28.35,56,30.34l-.11,0a3.14,3.14,0,0,0-2,.9l-.29.18A21,21,0,0,0,48.5,35.3l-.88.42a6.25,6.25,0,0,0-4,1.61.13.13,0,0,0-.18.09,2.57,2.57,0,0,0-1.48.93,3.89,3.89,0,0,0-1.49.94A4.51,4.51,0,0,0,38,40.94a.2.2,0,0,0-.22.14.59.59,0,0,0-.68.46.17.17,0,0,0-.22.11c-1.77.5-3,1.85-4.48,2.78a2.49,2.49,0,0,0-1.1,3.08,6.57,6.57,0,0,1,.28,2.14c.06.55-.45.76-.69,1.13C29.58,50.89,29.12,52.11,28.2,52.72Z"/><path class="cls-2" d="M113.09,27.22l-.16,1c-.25,0-.54,0-.65.23-.52,1.22-1,2.43-1.5,3.67a.57.57,0,0,0,.54.84l0,1.48c.3,2.43-1.38,2.78-3.17,3a2.47,2.47,0,0,0-.29.06c-2,.48-3.87.84-5.59-.68a1.45,1.45,0,0,0-1.42-.17,92.2,92.2,0,0,1-12.29,2.9A65.51,65.51,0,0,0,76.79,42.1a2.34,2.34,0,0,1-2.3-.2,3,3,0,0,0-2.36-.63h-.59l-.82-.08c-.08-.58-.28-1.16-1-1.06a4,4,0,0,1-3.33-1.23l-2.37-.74c-.57-1-1.1-.27-1.31.17-.55,1.2-1.45,2.33-1.36,3.72s-.69,1.46-1.67,1.3a2,2,0,0,1-1.69-2,2.06,2.06,0,0,0-3-1.58,26.11,26.11,0,0,1-3.38,1.52c-3.66,1-6.81,3.11-10.1,4.91-1.58.87-3.09,1.85-5,1h-.06l0-.88c.36-.21.25-.49.13-.77a2.18,2.18,0,0,1,1.51-3.11c1.84-.64,3-2.13,4.41-3.22a13.93,13.93,0,0,1,4.17-2.21,9.61,9.61,0,0,0,5.09-3.55h0A1.72,1.72,0,0,0,53.58,32v-.57l.29-.18c.95.55,1.55.28,2-.9l.12,0c.57.31,1,.05,1.5-.28,3-2.07,6.51-2.79,9.66-4.4,3-1.52,6.22-2.51,8.81-4.8,1.56-1.38,3-3.12,5.36-3.17a5.13,5.13,0,0,0,2.35-.28,3.35,3.35,0,0,1,4.94,1.85c.25.58.43,1.23,1.38,1,3.74-1.06,7.17.33,10.61,1.47a3.12,3.12,0,0,0,1.2.2,15.24,15.24,0,0,1,4.06.19c2,.53,4.23.2,6.16,1.21.07,0,.19,0,.29,0,1.45-.16,1.62.08,1.11,1.48C113.17,25.53,112.64,26.3,113.09,27.22Z"/><path class="cls-2" d="M98.38,57l-.93.92c-.48.34-1,.71-1.46,1a6.94,6.94,0,0,1-7.57-.6,16,16,0,0,0-5.22-2.78c-2-.61-4.06-.92-5.68-2.34.49-.51,1,0,1.34.13a4.16,4.16,0,0,0,4.82-.64,7.6,7.6,0,0,1,2.19-1.17,20.33,20.33,0,0,0,5.4-2.93,27.58,27.58,0,0,1,3.06-1.94c.64-.38,1.65,0,2-.82a2.65,2.65,0,0,1,2.13-1.61,3.83,3.83,0,0,0,2-1.25,2.27,2.27,0,0,1,2.92-.58,1.93,1.93,0,0,0,1.56.07c.69-.3,1-1.62,2.1-.81.87-1.2,2.67-.93,3.49-2.2a3.33,3.33,0,0,0,2.81-1.12c3.13-2.77,5-1.3,7.06,1,.74.83.37,1.71.05,2.52a5.13,5.13,0,0,1-2.73,3,40.56,40.56,0,0,0-3.81,2c-1.15.68-1.43,2.13-2.49,2.92a18.52,18.52,0,0,0-1.54,1.4.63.63,0,0,0-.7.44l-1,.51a.61.61,0,0,0-.75.36,11,11,0,0,0-2.27,1.7l-2.71.89-.84.08a1,1,0,0,0-1.3.43L99,56.49A.62.62,0,0,0,98.38,57Z"/><path class="cls-2" d="M110.48,39.46c-.82,1.27-2.62,1-3.49,2.2-1.12-.81-1.41.51-2.1.81a1.93,1.93,0,0,1-1.56-.07,2.27,2.27,0,0,0-2.92.58,3.83,3.83,0,0,1-2,1.25,2.65,2.65,0,0,0-2.13,1.61c-.31.86-1.32.44-2,.82a27.58,27.58,0,0,0-3.06,1.94,20.33,20.33,0,0,1-5.4,2.93,7.6,7.6,0,0,0-2.19,1.17,4.16,4.16,0,0,1-4.82.64c-.37-.16-.85-.64-1.34-.13l-.6,0c-.1-.64-.61-.58-1-.55A9.85,9.85,0,0,1,72.42,52c-2-.58-3.93-.94-6.09.41s-5,2.46-8,1.28c-1.23-.49-2.41-1.06-3.6-1.62l-.33-1c.61-.78,1.62-.61,2.39-1a18.16,18.16,0,0,1,8.26-1.83,2.13,2.13,0,0,1,1.32.18c1.07.72,2,.17,2.82-.43.28-.19.55-.42.84-.61.45-.3,1.42-.09,1.34-.85-.06-.61-1-.54-1.48-.77-1.35-.57-2.93-.91-2.33-3.06.21-.75-.65-1.31-1.21-1.44s-.48.71-.62,1.14-.17.78-.31,1.15c-.39,1-1.42.77-2.18,1-.56.15-1-.38-1-.9a4.79,4.79,0,0,1,.82-3.48,4.86,4.86,0,0,0,2.38.27c.77-.09,1.47-.4.94-1.43a4,4,0,0,0,3.33,1.23c.67-.1.87.48,1,1.06-.52.18-.8-.3-1.21-.42s-.9-.1-1,.53a2.07,2.07,0,0,0,1,2.18,1.73,1.73,0,0,0,2.06-.17c.82-.72.32-1.36,0-2h.59a2.74,2.74,0,0,1,.94,2.88c-.21.74.17,1.15,1,.92a7.08,7.08,0,0,1,2.62-.66A4,4,0,0,0,79,44.17c3.38-1.66,7.13-2.05,10.62-3.26a10.26,10.26,0,0,1,5-.4c2.3.4,4.55-.6,6.78.14.41.13.71-.32,1.06-.48a22.83,22.83,0,0,1,8.27-2.47A1.54,1.54,0,0,0,110.48,39.46Z"/><path class="cls-2" d="M30.86,50.78c.24-.37.75-.58.69-1.13,1-2.13,3-2.15,5-2.41h.06c.06.48-.37,1.29.4,1.35,1.86.15,3.8.52,5.41-1a1.27,1.27,0,0,1,2,.09,2.82,2.82,0,0,0,2.78,1c1.36-.16,1.24.59.84,1.3a1.61,1.61,0,0,0-.07,1.79l0,.52-1.39.43a10.49,10.49,0,0,0-2.3.94c-1.26.68-2.72.68-4,1.17,0-1.06-1.49-.24-1.56-1.22a7.46,7.46,0,0,0,5.6-2.48,10.63,10.63,0,0,0-2.94.14c-2,.47-3.09.11-4.25-1.46a1.7,1.7,0,0,0-2.07-.7,1.63,1.63,0,0,0-1,1.66c0,.84.77,1,1.53,1.05.17,0,.33.19.49.29-1.09.22-.83,1.29-1.19,2-.7,1.32-.15,2.15,1.35,2.19.44,0,.88,0,1.32,0a11.42,11.42,0,0,1-3.2,2.16c-1.15.71-2.48,1-3.68,1.57l-1.05.25a6.67,6.67,0,0,1-3.06.18,5.39,5.39,0,0,0-4.74.53,1,1,0,0,1-1.4-.39c-.35-.62-.06-1,.38-1.41a4.64,4.64,0,0,0,1.8-2.58,1.12,1.12,0,0,1,.93-.57,5.63,5.63,0,0,0,3-2l1.48-.66C29.71,53.46,29.92,51.67,30.86,50.78Z"/><path class="cls-2" d="M46.49,52.67l1.39-.43a3.64,3.64,0,0,0,3.43-1.6l.5,0a6.12,6.12,0,0,0,2,.31l.59.11.33,1c-.52.9-.48,1.44.76,1.57a7.29,7.29,0,0,1,3,.72c2.88,1.74,5.56.17,8.3-.28.33,0,.41-.38.53-.67.45-1.17,1.22-1.2,2.26-.71,1.63.78,3.63,0,5.21,1.15.11.08.49-.09.66-.24.43-.35,1-.24,1.42-.39l.6,0c1.62,1.42,3.73,1.73,5.68,2.34a16,16,0,0,1,5.22,2.78,6.94,6.94,0,0,0,7.57.6c.51-.29,1-.66,1.46-1a3.91,3.91,0,0,1-3.73,2.4c-2.55.13-5.08-.1-7-2.22-1.29-1.45-3.16-1.53-4.89-1.93a1,1,0,0,0-.71.13c-1.29.88-2.21.47-3-.75-.58-.93-1.41-.76-2.23-.36-.21.1-.45.49-.55.45-1.52-.59-2.69.47-4,.78a.59.59,0,0,1-.44,0c-2.28-1.87-4.45-.17-6.65.21-.34,0-.71.25-1,0a1.81,1.81,0,0,0-2-.09,3,3,0,0,1-2.73-.18,9.77,9.77,0,0,0-4.28-1.41,1.07,1.07,0,0,1-1-1.21c0-1.34-.82-1.73-2.2-1.39-2.3.57-4.51,1.24-6.22,3-.66.68-1.39-.08-2.12,0-2.28.18-3.67,1.66-5.31,2.92S34.39,60.45,33,61.74a2.65,2.65,0,0,1-2.49.15,1.38,1.38,0,0,0-1.41.19,6.43,6.43,0,0,1-4.72.64,4.88,4.88,0,0,0-2.46,0,2,2,0,0,1-2.72-1.38,3.42,3.42,0,0,0,4.08-.38c.52-.43,1-.22,1.62.15a3.67,3.67,0,0,0,4.6-.89l1.05-.25a2.52,2.52,0,0,0,3.35-.54,6.26,6.26,0,0,1,2.1-1.1,5.4,5.4,0,0,0,2.68-2.63l1.49-.87c1.32-.49,2.78-.49,4-1.17C45.45,54.53,45.89,53.4,46.49,52.67Z"/><path class="cls-2" d="M110.76,37.7a22.83,22.83,0,0,0-8.27,2.47c-.35.16-.65.61-1.06.48-2.23-.74-4.48.26-6.78-.14a10.26,10.26,0,0,0-5,.4c-3.49,1.21-7.24,1.6-10.62,3.26a4,4,0,0,1-2.31.24,7.08,7.08,0,0,0-2.62.66c-.84.23-1.22-.18-1-.92a2.74,2.74,0,0,0-.94-2.88,3,3,0,0,1,2.36.63,2.34,2.34,0,0,0,2.3.2A65.51,65.51,0,0,1,88.6,39.52a92.2,92.2,0,0,0,12.29-2.9,1.45,1.45,0,0,1,1.42.17c1.72,1.52,3.64,1.16,5.59.68a2.47,2.47,0,0,1,.29-.06c1.79-.24,3.47-.59,3.17-3C112.18,36,112,37.16,110.76,37.7Z"/><path class="cls-2" d="M113.09,27.22c-.45-.92.08-1.69.38-2.49.51-1.4.34-1.64-1.11-1.48-.1,0-.22.08-.29,0-1.93-1-4.12-.68-6.16-1.21a15.24,15.24,0,0,0-4.06-.19,3.12,3.12,0,0,1-1.2-.2c-3.44-1.14-6.87-2.53-10.61-1.47-1,.27-1.13-.38-1.38-1a3.35,3.35,0,0,0-4.94-1.85,5.13,5.13,0,0,1-2.35.28c-2.4,0-3.8,1.79-5.36,3.17-2.59,2.29-5.84,3.28-8.81,4.8-3.15,1.61-6.71,2.33-9.66,4.4-.48.33-.93.59-1.5.28,2.17-2,4.81-3.07,7.46-4.27s5.14-2.6,7.74-3.68c2.83-1.17,4.94-3.13,7.32-4.8a2.91,2.91,0,0,1,1.72-.79c1.48,0,3,.27,4-1.2a.45.45,0,0,1,.27-.12c1.2-.32,1.84,1,3,1s1.9.9,1.82,2.22c0,.84.44,1,1,.58,2.35-1.77,4.78-.91,6.92.1a16.63,16.63,0,0,0,6.39,1.7,36.59,36.59,0,0,1,5.58.88,11.66,11.66,0,0,0,4-.22c1-.14,1.45.26,1.3,1.24C114.4,24.48,114.24,26,113.09,27.22Z"/><path class="cls-2" d="M51.79,33.5a9.61,9.61,0,0,1-5.09,3.55,13.93,13.93,0,0,0-4.17,2.21c-1.45,1.09-2.57,2.58-4.41,3.22a2.18,2.18,0,0,0-1.51,3.11c.12.28.23.56-.13.77A3.6,3.6,0,0,0,34,44.15a3.23,3.23,0,0,1,1.49-1.32c.52-.31,1.28-.36,1.36-1.18a.17.17,0,0,1,.22-.11c.39.09.65,0,.68-.46a.2.2,0,0,1,.22-.14l.66,0c.43,0,.86,0,.91-.59.26-.4.94-.45.9-1.1a3.89,3.89,0,0,1,1.49-.94c.83.22,1.18-.32,1.48-.93a.13.13,0,0,1,.18-.09,14.47,14.47,0,0,0,4-1.61l.88-.42C49.77,35,50.51,33.77,51.79,33.5Z"/><path class="cls-2" d="M36.85,41.65c-.08.82-.84.87-1.36,1.18A3.23,3.23,0,0,0,34,44.15a3.6,3.6,0,0,1,2.48,2.21l0,.88c-1.92.26-4,.28-5,2.41a6.57,6.57,0,0,0-.28-2.14,2.49,2.49,0,0,1,1.1-3.08C33.86,43.5,35.08,42.15,36.85,41.65Z"/><path class="cls-2" d="M29.48,60.17a3.67,3.67,0,0,1-4.6.89c-.57-.37-1.1-.58-1.62-.15a3.42,3.42,0,0,1-4.08.38c-.61-.17-1.06-.42-.48-1.1a.57.57,0,0,0,.46-.7l.46-.79A.6.6,0,0,0,20.1,58l.6-.6a.61.61,0,0,0,.66-.49l.53-.41.57,0a4.64,4.64,0,0,1-1.8,2.58c-.44.37-.73.79-.38,1.41a1,1,0,0,0,1.4.39,5.39,5.39,0,0,1,4.74-.53A6.67,6.67,0,0,0,29.48,60.17Z"/><path class="cls-2" d="M22.46,56.5l-.57,0c1.27-2.65,3.3-4,6.31-3.82l-.35.51-1.48.66a3.17,3.17,0,0,0-3,2A1.12,1.12,0,0,0,22.46,56.5Z"/><path class="cls-2" d="M111.32,32.91a.57.57,0,0,1-.54-.84c.46-1.24,1-2.45,1.5-3.67.11-.24.4-.25.65-.23A13.59,13.59,0,0,1,111.32,32.91Z"/><path class="cls-2" d="M51.79,33.5c-1.28.27-2,1.52-3.29,1.8a21,21,0,0,1,5.09-3.86V32c-.89.15-1.32.85-1.79,1.49Z"/><path class="cls-2" d="M27.85,53.23l.35-.51c.92-.61,1.38-1.83,2.66-1.94C29.92,51.67,29.71,53.46,27.85,53.23Z"/><path class="cls-2" d="M47.62,35.72a14.47,14.47,0,0,1-4,1.61A6.25,6.25,0,0,1,47.62,35.72Z"/><path class="cls-2" d="M38.63,41l-.66,0a4.51,4.51,0,0,1,2.47-1.65c0,.65-.64.7-.9,1.1A.87.87,0,0,0,38.63,41Z"/><path class="cls-2" d="M55.92,30.36c-.49,1.18-1.09,1.45-2,.9A3.14,3.14,0,0,1,55.92,30.36Z"/><path class="cls-2" d="M102.35,55l2.71-.89A2.2,2.2,0,0,1,102.35,55Z"/><path class="cls-2" d="M43.41,37.42c-.3.61-.65,1.15-1.48.93A2.57,2.57,0,0,1,43.41,37.42Z"/><path class="cls-2" d="M100.21,55.55a1,1,0,0,1,1.3-.43C101.21,55.66,100.69,55.56,100.21,55.55Z"/><path class="cls-2" d="M109.13,51.58a.63.63,0,0,1,.7-.44C109.76,51.55,109.54,51.71,109.13,51.58Z"/><path class="cls-2" d="M107.33,52.45a.61.61,0,0,1,.75-.36A.51.51,0,0,1,107.33,52.45Z"/><path class="cls-2" d="M98.38,57a.62.62,0,0,1,.64-.52C99,56.89,98.79,57.08,98.38,57Z"/><path class="cls-2" d="M20.1,58a.6.6,0,0,1-.48.66C19.5,58.28,19.67,58.07,20.1,58Z"/><path class="cls-2" d="M19.16,59.49a.57.57,0,0,1-.46.7A.51.51,0,0,1,19.16,59.49Z"/><path class="cls-2" d="M37.75,41.08c0,.44-.29.55-.68.46A.59.59,0,0,1,37.75,41.08Z"/><path class="cls-2" d="M21.36,57a.61.61,0,0,1-.66.49C20.72,57,21,56.85,21.36,57Z"/><path class="cls-2" d="M54.44,51l-.59-.11,0-1.56,3-1.8a23.55,23.55,0,0,0,2.65-.89c.48-.23,1.27-.44,1.16-1.16s-.89-.58-1.46-.64a2.24,2.24,0,0,1-.73-.12c-1.42-.6-2.45.11-3.43,1H53.89c-.33-.87-.26-1.51.78-1.83a7.66,7.66,0,0,0,1.43-.78c.61-.35,1.32-.68.89-1.58s-1-.86-1.87-.67c-1.89.42-3.6,1.38-5.49,1.78-.37.08-.82.15-.84.69l-.58,0a.86.86,0,0,0-.64.85c-.39.42-1.24.38-1.2,1.22-.18.13-.29.37-.15.5,1.56,1.35,3,2.92,5.24,3.1v0l.35,1.51-.5,0a1.73,1.73,0,0,0-1.48.26c-.58.36-1.13.92-1.93.82A1.61,1.61,0,0,1,48,49.93c.4-.71.52-1.46-.84-1.3a2.82,2.82,0,0,1-2.78-1,1.27,1.27,0,0,0-2-.09c-1.61,1.53-3.55,1.16-5.41,1-.77-.06-.34-.87-.4-1.35,1.91.84,3.42-.14,5-1,3.29-1.8,6.44-3.87,10.1-4.91a26.11,26.11,0,0,0,3.38-1.52,2.06,2.06,0,0,1,3,1.58,2,2,0,0,0,1.69,2c1,.16,1.75.1,1.67-1.3s.81-2.52,1.36-3.72c.21-.44.74-1.15,1.31-.17-.55.52-.58,1.3-.95,1.9a4.79,4.79,0,0,0-.82,3.48c0,.52.42,1,1,.9.76-.2,1.79.07,2.18-1,.14-.37.18-.77.31-1.15s0-1.28.62-1.14,1.42.69,1.21,1.44c-.6,2.15,1,2.49,2.33,3.06.53.23,1.42.16,1.48.77.08.76-.89.55-1.34.85-.29.19-.56.42-.84.61-.87.6-1.75,1.15-2.82.43a2.13,2.13,0,0,0-1.32-.18A18.16,18.16,0,0,0,56.83,50C56.06,50.4,55.05,50.23,54.44,51Z"/><path class="cls-2" d="M71.54,41.26c.34.68.84,1.32,0,2a1.73,1.73,0,0,1-2.06.17,2.07,2.07,0,0,1-1-2.18c.06-.63.48-.68,1-.53s.69.6,1.21.42Z"/><path class="cls-2" d="M63.12,40.05c.37-.6.4-1.38.95-1.9l2.37.74c.53,1-.17,1.34-.94,1.43A4.86,4.86,0,0,1,63.12,40.05Z"/><path class="cls-2" d="M51.79,33.5c.47-.64.9-1.34,1.79-1.49A1.72,1.72,0,0,1,51.79,33.5Z"/><path class="cls-2" d="M76.92,53.18c-.46.15-1,0-1.42.39-.17.15-.55.32-.66.24-1.58-1.15-3.58-.37-5.21-1.15-1-.49-1.81-.46-2.26.71-.12.29-.2.62-.53.67-2.74.45-5.42,2-8.3.28a7.29,7.29,0,0,0-3-.72c-1.24-.13-1.28-.67-.76-1.57,1.19.56,2.37,1.13,3.6,1.62,3,1.18,5.67.15,8-1.28s4.09-1,6.09-.41a9.85,9.85,0,0,0,3.46.67C76.31,52.6,76.82,52.54,76.92,53.18Z"/><path class="cls-2" d="M35.93,52.06c-.16-.1-.32-.28-.49-.29-.76,0-1.51-.21-1.53-1.05a1.63,1.63,0,0,1,1-1.66,1.7,1.7,0,0,1,2.07.7c1.16,1.57,2.26,1.93,4.25,1.46a10.63,10.63,0,0,1,2.94-.14,7.46,7.46,0,0,1-5.6,2.48C37.69,53.09,37.32,51.67,35.93,52.06Z"/><path class="cls-2" d="M35.93,52.06c1.39-.39,1.76,1,2.66,1.5.07,1,1.56.16,1.56,1.22l-1.49.87a1.44,1.44,0,0,0-1.25.54c-.44,0-.88,0-1.32,0-1.5,0-2.05-.87-1.35-2.19C35.1,53.35,34.84,52.28,35.93,52.06Z"/><path class="cls-2" d="M37.41,56.19a1.44,1.44,0,0,1,1.25-.54A5.4,5.4,0,0,1,36,58.28a6.26,6.26,0,0,0-2.1,1.1,2.52,2.52,0,0,1-3.35.54c1.2-.59,2.53-.86,3.68-1.57A11.42,11.42,0,0,0,37.41,56.19Z"/><path class="cls-2" d="M47.9,51.72c.8.1,1.35-.46,1.93-.82a1.73,1.73,0,0,1,1.48-.26,3.64,3.64,0,0,1-3.43,1.6C47.89,52.07,47.89,51.9,47.9,51.72Z"/><path class="cls-2" d="M23.39,55.93a3.17,3.17,0,0,1,3-2A5.63,5.63,0,0,1,23.39,55.93Z"/><path class="cls-2" d="M46.49,52.67c-.6.73-1,1.86-2.3.94A10.49,10.49,0,0,1,46.49,52.67Z"/><path class="cls-2" d="M51.81,50.59c-.12-.5-.23-1-.35-1.51a7.62,7.62,0,0,0,2.42.26l0,1.56A6.12,6.12,0,0,1,51.81,50.59Z"/><path class="cls-2" d="M38.63,41a.87.87,0,0,1,.91-.59C39.49,41,39.06,41,38.63,41Z"/><path class="cls-2" d="M53.88,49.34a7.62,7.62,0,0,1-2.42-.26v0c-.77-1-1-2.76-2.94-2.19-.2.06-.56-.34-.82-.56-.41-.35-.7-.87-1.33-.85,0-.84.81-.8,1.2-1.22.62,0,.62-.42.64-.85l.58,0a10.76,10.76,0,0,1,1.61,0c.63.1,1.36.31,1.35,1.1,0,1.75,1,1.63,2.14,1.25h1.17c.89.06,1.84-.12,2.58.61-.24.43-.83.61-.77,1.19Z"/><path class="cls-2" d="M53.89,45.75c-1.18.38-2.15.5-2.14-1.25,0-.79-.72-1-1.35-1.1a10.76,10.76,0,0,0-1.61,0c0-.54.47-.61.84-.69,1.89-.4,3.6-1.36,5.49-1.78.88-.19,1.48-.13,1.87.67s-.28,1.23-.89,1.58a7.66,7.66,0,0,1-1.43.78C53.63,44.24,53.56,44.88,53.89,45.75Z"/><path class="cls-2" d="M56.87,47.54c-.06-.58.53-.76.77-1.19-.74-.73-1.69-.55-2.58-.61,1-.9,2-1.61,3.43-1a2.24,2.24,0,0,0,.73.12c.57.06,1.34-.18,1.46.64s-.68.93-1.16,1.16A23.55,23.55,0,0,1,56.87,47.54Z"/><path class="cls-2" d="M46.37,45.46c.63,0,.92.5,1.33.85.26.22.62.62.82.56,2-.57,2.17,1.19,2.94,2.19-2.25-.18-3.68-1.75-5.24-3.1C46.08,45.83,46.19,45.59,46.37,45.46Z"/><path class="cls-2" d="M48.21,43.39c0,.43,0,.87-.64.85A.86.86,0,0,1,48.21,43.39Z"/><path class="cls-1" d="M64.8,94.77q-31.78,0-63.57,0C.2,94.8,0,94.6,0,93.58Q.06,47.4,0,1.22C0,.2.2,0,1.23,0Q64.8,0,128.37,0c1,0,1.23.2,1.23,1.22q-.06,46.19,0,92.36c0,1-.2,1.22-1.23,1.22Q96.59,94.74,64.8,94.77Zm-10.07-75-.57,1.18c-1.84,1.12-3.36,2.8-5.63,3.17a3.34,3.34,0,0,1-2.19-.8,5.17,5.17,0,0,0-5.21-1.62,12.4,12.4,0,0,0-1.71.49,29.73,29.73,0,0,1-5.09,1.58,6,6,0,0,0-4.41,4.69,1.33,1.33,0,0,1-1.41.61,2.72,2.72,0,0,0-2.89,1.71,9.6,9.6,0,0,0-1,4.7c0,.19,0,.46.12.56,1.22,1,1.2,2.48,1.54,3.87a10.45,10.45,0,0,1,.3,5.51,1,1,0,0,0,.16,1.11c1.05,1.16,1,2.5.68,3.92a3.6,3.6,0,0,0,.92,3.71,2,2,0,0,1,.59,2.17A1.46,1.46,0,0,0,29,57.58,2.11,2.11,0,0,1,29,59.82c-1.41,3-2.76,6-4.13,9.07a2.44,2.44,0,0,0-.18,1.74l-.41.5c-1.3.53-2,1.38-1.58,2.87a2.79,2.79,0,0,1-.13,1.59C22.16,77.05,23.84,80,25,80.13a40.77,40.77,0,0,0,12.23,0,3.71,3.71,0,0,0,3-2.74,1.32,1.32,0,0,1,.12-.2A4.1,4.1,0,0,0,42.92,76c1.67-1.53,2.4-3.69,3.77-5.42a.35.35,0,0,0,.05-.2l5.93-2.54.6-.28a7.59,7.59,0,0,0,2.42-.93l1-.38a2,2,0,0,0,1.13-.48l1.14-.45a13.91,13.91,0,0,1,4-.32l8.61.25A4.13,4.13,0,0,0,74.82,64l2.12-2.07c3-.7,4.53-3.56,7.1-4.93.5-.26.32-1.25.69-1.86a2.85,2.85,0,0,0-.11-3.34,64,64,0,0,1-3.81-6l-.3-.6c-.06-.19-.11-.38-.17-.56-1.23-4.44-4.07-8.38-4.11-13.19a2.06,2.06,0,0,0-.29-.84,34.46,34.46,0,0,1-3-8.42,1.61,1.61,0,0,0-.49-1.28l-.38-1.41a15.18,15.18,0,0,0-.52-3.06c-.62-4.3-4.38-6.4-8.39-5.56-1.28.27-2.61.37-3.92.54h-.59c-.54,0-1.08.08-1.61.06-1,0-1.47.4-1.31,1.42l0,2.72-.05,1.49a1.44,1.44,0,0,0-.31,1.16C54.61,18.52,54.8,19.18,54.73,19.73Z"/><path class="cls-2" d="M53.27,67.53l-.6.28c-.13-.27-.37-.22-.59-.2-.44-.47-.53-.13-.59.26A16.21,16.21,0,0,0,47,69.68a3,3,0,0,0-1.31.19L34.93,74.13c-2,.8-2.93.25-2.61-1.57a5.27,5.27,0,0,0-.33-2,8.08,8.08,0,0,1-.49-3c.52-3,.87-6,1.4-8.91a36.74,36.74,0,0,0,.45-8.27A51.28,51.28,0,0,0,32.16,42c-.69-3.25-1.76-6.51-1-9.92,1.11-1.26,2.72-1.55,4.15-2.17a.64.64,0,0,0,.73-.38l.78-.2a2,2,0,0,0,1.61-.72l.49-.17A28.36,28.36,0,0,0,45,26.48l1.62,0c1,.81,2,.55,3.07.24l1.16-.14a1.76,1.76,0,0,0,2.3-1c.44-1.08.73-2.21,1.09-3.33.8-.61,1-1.61,1.47-2.4l.27-.27.89-.09c.16.09.35.29.48.25,2.94-.76,5.87-1.55,8.8-2.34l.87.09c.25.65.57.7,1,.12a5.09,5.09,0,0,1,2,.79,1.55,1.55,0,0,0,0,.23c.06.73.9,1,1.07,1.57.87,3.1,2.57,5.93,3.29,9A77.52,77.52,0,0,0,79,42.58c.38.88.32,2.13,1.51,2.58l.3.6c-.49,1.17.32,2,.78,2.94.74,1.45,1.91,2.63,2.58,4.13.3.69.51,1.52,0,1.93-.86.61-1.38,1.61-2.16,2.11C80.27,58,79.1,59.6,77.44,60.7c-.31.21-1.14.48-.5,1.2L74.82,64l.07-.07,0-.08c-.06-.21-.21-.4-.41-.33a5.24,5.24,0,0,1-4.32-.44c-2.62-1.46-5.07-.55-7.56.22-.58.18-1.33.18-1.51,1l-.58.06c-.43-.49-.52-.11-.62.25-.32.22-.82.22-.92.72l-1.14.45c-.06-.33-.19-.56-.58-.39s-.69.38-.55.87l-1,.38A1.66,1.66,0,0,0,53.27,67.53Z"/><path class="cls-2" d="M31.15,32c-.75,3.41.32,6.67,1,9.92a51.28,51.28,0,0,1,1.19,8.33,36.74,36.74,0,0,1-.45,8.27c-.53,2.95-.88,5.94-1.4,8.91a8.08,8.08,0,0,0,.49,3,5.27,5.27,0,0,1,.33,2c-.32,1.82.6,2.37,2.61,1.57l10.76-4.26A3,3,0,0,1,47,69.68c-.09.22-.18.44-.26.67a.35.35,0,0,1-.05.2l-.58,0c-.47-.47-.54-.09-.6.29l0,0c-.65-.16-.9.58-1.45.63-.83-.18-1,.54-1.28,1a4.06,4.06,0,0,1-1.75,2.11c-.48.21-1.14,0-1.5.5A4.2,4.2,0,0,1,35.75,77c-1.6-.06-3.63,1.09-4.55-1.37-.13-.36-.57-.34-.91-.15s-.58.5-.89.52c-1,.1-2,.88-2.88-.08-.62-.65-1.11-1.47-.58-2.28A3.11,3.11,0,0,0,26,70.83l0-.26c.65-.06.61-.5.55-1l.05-.54c.6,0,.61-.45.6-.89h0c.09,0,.26,0,.27-.08.61-2.36,2.15-4.17,3.47-6.12a3.48,3.48,0,0,0,.46-2.77c0-.39,0-.78,0-1.17,0-2.37.29-4.77-.85-7a5.75,5.75,0,0,1-.65-4.57,2.07,2.07,0,0,0-.41-1.67,7.14,7.14,0,0,1-.91-4.43,3.75,3.75,0,0,0-.88-3.25c-.8-.94-1.62-1.89-1.37-3.29a.53.53,0,0,0-.51-.62l0-1.17A2.07,2.07,0,0,0,27,30.55l3.8-.68C31.07,30.6,30.57,31.41,31.15,32Z"/><path class="cls-2" d="M31.15,32c-.58-.63-.08-1.44-.38-2.17l-3.8.68-.38-.11c.68-.84,1.65-.78,2.58-.85.75-.06,1.37-.22.75-1.17a6,6,0,0,1,4.41-4.69,29.73,29.73,0,0,0,5.09-1.58,12.4,12.4,0,0,1,1.71-.49,5.17,5.17,0,0,1,5.21,1.62,3.34,3.34,0,0,0,2.19.8c.93.68,2.2,1,2.32,2.48l-1.16.14c-1-.6-2-.3-3.07-.24l-1.62,0a2.15,2.15,0,0,0-1.85.22c-1.39.63-3.11.45-4.24,1.7l-.49.17c-.66-.05-1.3,0-1.61.72l-.78.2c-.42-.21-.63,0-.73.38C33.87,30.49,32.26,30.78,31.15,32ZM47,24.92a2.21,2.21,0,0,0-2.12-1c-.26,0-.48.12-.5.42s.19.61.37.54C45.45,24.61,46.12,25.37,47,24.92Zm-7.75.42c-.08-.24.11-.76-.51-.75a.54.54,0,0,0-.58.52c0,.39.13.79.59.86S39.21,25.76,39.22,25.34Zm4.22-1c-.08,0-.19.06-.22.12s0,.15.05.23.18-.06.22-.13S43.46,24.39,43.44,24.31Z"/><path class="cls-2" d="M67,17.43l-.87-.09a.9.9,0,0,0-1.08-.25c-2.74.76-5.47,1.55-8.2,2.34l-.89.09c-.24-.41-.2-1-.64-1.29a1.44,1.44,0,0,1,.31-1.16c1.1-.74,2.53,0,3.67-.8.13-.09.79.23.81-.41s-.48-.53-.94-.57c-1.18-.1-2.3.49-3.49.29l0-2.72a3.13,3.13,0,0,1,2.4-.93c.32.05.51-.21.52-.55h.59c.18.94.94.58,1.44.56A13.32,13.32,0,0,0,63,11.56a7.06,7.06,0,0,1,7.69,3.91c.56,1.3.24,2.53-.75,2.87a5.09,5.09,0,0,0-2-.79A1.27,1.27,0,0,0,67,17.43ZM61.4,15.91h.85c1.88.14,3.48-.81,5.26-1.17-1.38-.55-2.83-.14-4.17-.82a1.59,1.59,0,0,0-2,.76c-.4.32-.3.78-.35,1.2-.18.13-.28.34-.05.44S61.33,16.13,61.4,15.91Z"/><path class="cls-2" d="M26.06,70.57l0,.26c-.82.34-1.19,1.14-1.72,1.76-.21.24-.48.72-.14.93,1.35.86,1.09,2.5,1.87,3.66s1.5,1.76,2.88,1.36a6.54,6.54,0,0,1,3.51,0,3.59,3.59,0,0,0,2,.23c2-.6,4.37-.46,5.95-2.28l0,.62a1.32,1.32,0,0,0-.12.2c-1.55,2-3.91,2.09-6.1,2.43-2.85.45-5.68-.54-8.54-.31-.5,0-.75-.36-1-.73-1.22-1.63-.33-3.82-1.5-5.47-.22-.31.2-.72.46-1s.72-.57.63-1.11l.41-.5c.48-.07.59-.48.74-.84,1.34-3.24,2.94-6.37,4.43-9.54,1.07-2.25-.08-4.58-.44-6.85,0,0-.05-.09-.09-.11-1.41-1-1.21-2.36-1-3.76.18-.93.47-2-.06-2.77-1.24-1.76-.53-3.7-.82-5.54.33.13.36.41.42.71.26,1.12-.14,2.64.42,3.3,1.48,1.76.43,3.63.75,5.39.08.43-.05,1,.35,1.24,1.54,1.13,1.52,2.64,1.27,4.32-.09.61-.17,1.52.76,1.86,0,.39,0,.78,0,1.17-1.06,1.88-2.06,3.8-3.21,5.63a6.29,6.29,0,0,0-1,3.34h0a.84.84,0,0,0-.6.89c0,.18,0,.36-.05.54C26,69.71,26,70.12,26.06,70.57Z"/><path class="cls-2" d="M27.45,41.22c.29,1.84-.42,3.78.82,5.54.53.74.24,1.84.06,2.77-.26,1.4-.46,2.77,1,3.76,0,0,.09.06.09.11.36,2.27,1.51,4.6.44,6.85-1.49,3.17-3.09,6.3-4.43,9.54-.15.36-.26.77-.74.84a2.44,2.44,0,0,1,.18-1.74c1.37-3,2.72-6.07,4.13-9.07A2.11,2.11,0,0,0,29,57.58a1.46,1.46,0,0,1-.12-1.29,2,2,0,0,0-.59-2.17,3.6,3.6,0,0,1-.92-3.71c.29-1.42.37-2.76-.68-3.92a1,1,0,0,1-.16-1.11,10.45,10.45,0,0,0-.3-5.51c-.34-1.39-.32-2.84-1.54-3.87-.12-.1-.1-.37-.12-.56a9.6,9.6,0,0,1,1-4.7A2.72,2.72,0,0,1,28.51,29a1.33,1.33,0,0,0,1.41-.61c.62.95,0,1.11-.75,1.17-.93.07-1.9,0-2.58.85-.48.42-1.11.77-.73,1.58,0,.39,0,.78,0,1.17-.27.32-.19.72-.23,1.09-.57.49-.6,1,0,1.42l1,1.43c.5.91,0,2.07.76,2.92Z"/><path class="cls-2" d="M80.51,45.16c-1.19-.45-1.13-1.7-1.51-2.58a77.52,77.52,0,0,1-4.62-13.41c-.72-3.1-2.42-5.93-3.29-9-.17-.59-1-.84-1.07-1.57.84,0,1.17,1.1,2.07.89l.38,1.41c0,.49-.29,1.09.49,1.28a34.46,34.46,0,0,0,3,8.42,2.06,2.06,0,0,1,.29.84c0,4.81,2.88,8.75,4.11,13.19C80.4,44.78,80.45,45,80.51,45.16Z"/><path class="cls-2" d="M76.94,61.9c-.64-.72.19-1,.5-1.2C79.1,59.6,80.27,58,82,56.87c.78-.5,1.3-1.5,2.16-2.11.56-.41.35-1.24,0-1.93-.67-1.5-1.84-2.68-2.58-4.13-.46-.91-1.27-1.77-.78-2.94a64,64,0,0,0,3.81,6,2.85,2.85,0,0,1,.11,3.34c-.37.61-.19,1.6-.69,1.86C81.47,58.34,80,61.2,76.94,61.9Z"/><path class="cls-2" d="M24.23,71.13c.09.54-.35.78-.63,1.11s-.68.72-.46,1c1.17,1.65.28,3.84,1.5,5.47.28.37.53.77,1,.73,2.86-.23,5.69.76,8.54.31,2.19-.34,4.55-.41,6.1-2.43a3.71,3.71,0,0,1-3,2.74,40.77,40.77,0,0,1-12.23,0c-1.2-.17-2.88-3.08-2.52-4.54A2.79,2.79,0,0,0,22.65,74C22.19,72.51,22.93,71.66,24.23,71.13Z"/><path class="cls-2" d="M60.46,64.32l.58,0A7.7,7.7,0,0,0,62.89,64c1.07-.21,2-1.29,3.2-.68,2.84,1.42,5.77,1.29,8.75.54l0,.08-.07.07a4.13,4.13,0,0,1-3.32,1.25L62.89,65a13.91,13.91,0,0,0-4,.32c.1-.5.6-.5.92-.72A.62.62,0,0,0,60.46,64.32Z"/><path class="cls-2" d="M72.09,19.46c-.9.21-1.23-.92-2.07-.89a1.55,1.55,0,0,1,0-.23c1-.34,1.31-1.57.75-2.87A7.06,7.06,0,0,0,63,11.56a13.32,13.32,0,0,1-2.33.38c-.5,0-1.26.38-1.44-.56,1.31-.17,2.64-.27,3.92-.54,4-.84,7.77,1.26,8.39,5.56A15.18,15.18,0,0,1,72.09,19.46Z"/><path class="cls-2" d="M50.85,26.56c-.12-1.44-1.39-1.8-2.32-2.48,2.27-.37,3.79-2,5.63-3.17l.08,1.28c-.36,1.12-.65,2.25-1.09,3.33A1.76,1.76,0,0,1,50.85,26.56Z"/><path class="cls-2" d="M40.43,77.15l0-.62h0A3.06,3.06,0,0,0,42,75.75c1.74-1.21,2.28-3.29,3.56-4.84l0,0c.26,0,.5,0,.6-.29l.58,0c-1.37,1.73-2.1,3.89-3.77,5.42A4.1,4.1,0,0,1,40.43,77.15Z"/><path class="cls-2" d="M55.7,15.58c1.19.2,2.31-.39,3.49-.29.46,0,1-.09.94.57s-.68.32-.81.41c-1.14.8-2.57.06-3.67.8Z"/><path class="cls-2" d="M46.74,70.35c.08-.23.17-.45.26-.67a16.21,16.21,0,0,1,4.49-1.81.63.63,0,0,0,.59-.26c.22,0,.46-.07.59.2Z"/><path class="cls-2" d="M58.67,11.38c0,.34-.2.6-.52.55a3.13,3.13,0,0,0-2.4.93c-.16-1,.3-1.45,1.31-1.42C57.59,11.46,58.13,11.41,58.67,11.38Z"/><path class="cls-2" d="M54.24,22.19l-.08-1.28.57-1.18,1,.06C55.2,20.58,55,21.58,54.24,22.19Z"/><path class="cls-2" d="M53.27,67.53a1.66,1.66,0,0,1,2.42-.93A7.59,7.59,0,0,1,53.27,67.53Z"/><path class="cls-2" d="M55.71,19.79l-1-.06c.07-.55-.12-1.21.61-1.5.44.32.4.88.64,1.29Z"/><path class="cls-2" d="M56.65,66.22c-.14-.49.17-.71.55-.87s.52.06.58.39A2,2,0,0,1,56.65,66.22Z"/><path class="cls-2" d="M73,22.15c-.78-.19-.48-.79-.49-1.28A1.61,1.61,0,0,1,73,22.15Z"/><path class="cls-2" d="M74.84,63.82c-3,.75-5.91.88-8.75-.54-1.21-.61-2.13.47-3.2.68a7.7,7.7,0,0,1-1.85.31c.18-.82.93-.82,1.51-1,2.49-.77,4.94-1.68,7.56-.22a5.24,5.24,0,0,0,4.32.44C74.63,63.42,74.78,63.61,74.84,63.82Z"/><path class="cls-2" d="M56.87,19.43c2.73-.79,5.46-1.58,8.2-2.34a.9.9,0,0,1,1.08.25c-2.93.79-5.86,1.58-8.8,2.34C57.22,19.72,57,19.52,56.87,19.43Z"/><path class="cls-2" d="M38.91,28.4c1.13-1.25,2.85-1.07,4.24-1.7A2.15,2.15,0,0,1,45,26.48,28.36,28.36,0,0,1,38.91,28.4Z"/><path class="cls-2" d="M46.62,26.46c1-.06,2.09-.36,3.07.24C48.64,27,47.58,27.27,46.62,26.46Z"/><path class="cls-2" d="M36.81,29.29c.31-.74.95-.77,1.61-.72A2,2,0,0,1,36.81,29.29Z"/><path class="cls-2" d="M67,17.43a1.27,1.27,0,0,1,1,.12C67.59,18.13,67.27,18.08,67,17.43Z"/><path class="cls-2" d="M52.08,67.61a.63.63,0,0,1-.59.26C51.55,67.48,51.64,67.14,52.08,67.61Z"/><path class="cls-2" d="M35.3,29.87c.1-.41.31-.59.73-.38A.64.64,0,0,1,35.3,29.87Z"/><path class="cls-2" d="M60.46,64.32a.62.62,0,0,1-.62.25C59.94,64.21,60,63.83,60.46,64.32Z"/><path class="cls-2" d="M40.4,76.53c-1.58,1.82-3.9,1.68-5.95,2.28a3.59,3.59,0,0,1-2-.23,6.54,6.54,0,0,0-3.51,0c-1.38.4-2.11-.21-2.88-1.36s-.52-2.8-1.87-3.66c-.34-.21-.07-.69.14-.93.53-.62.9-1.42,1.72-1.76a3.11,3.11,0,0,1-.09,2.83c-.53.81,0,1.63.58,2.28.91,1,1.92.18,2.88.08.31,0,.59-.34.89-.52s.78-.21.91.15c.92,2.46,2.95,1.31,4.55,1.37a4.2,4.2,0,0,0,3.81-1.86c.36-.52,1-.29,1.5-.5a4.06,4.06,0,0,0,1.75-2.11c.26-.47.45-1.19,1.28-1a7.51,7.51,0,0,1-3.09,4,1,1,0,0,0-.59,1Z"/><path class="cls-2" d="M26.6,37.13l-1-1.43a2,2,0,0,0,0-1.42c0-.37,0-.77.23-1.09a.53.53,0,0,1,.51.62c-.25,1.4.57,2.35,1.37,3.29a3.75,3.75,0,0,1,.88,3.25,7.14,7.14,0,0,0,.91,4.43,2.07,2.07,0,0,1,.41,1.67A5.75,5.75,0,0,0,30.57,51c1.14,2.25.86,4.65.85,7-.93-.34-.85-1.25-.76-1.86.25-1.68.27-3.19-1.27-4.32-.4-.29-.27-.81-.35-1.24-.32-1.76.73-3.63-.75-5.39-.56-.66-.16-2.18-.42-3.3-.06-.3-.09-.58-.42-.71l-.09-1.17A2.19,2.19,0,0,0,26.6,37.13Z"/><path class="cls-2" d="M27.27,68.18a6.29,6.29,0,0,1,1-3.34c1.15-1.83,2.15-3.75,3.21-5.63A3.48,3.48,0,0,1,31,62c-1.32,2-2.86,3.76-3.47,6.12C27.53,68.15,27.36,68.15,27.27,68.18Z"/><path class="cls-2" d="M40.41,76.52a1,1,0,0,1,.59-1,7.51,7.51,0,0,0,3.09-4c.55-.05.8-.79,1.45-.63-1.28,1.55-1.82,3.63-3.56,4.84A3.06,3.06,0,0,1,40.41,76.52Z"/><path class="cls-2" d="M25.86,32c-.38-.81.25-1.16.73-1.58l.38.11A2.07,2.07,0,0,1,25.86,32Z"/><path class="cls-2" d="M26.06,70.57c0-.45,0-.86.55-1C26.67,70.07,26.71,70.51,26.06,70.57Z"/><path class="cls-2" d="M26.66,69.07a.84.84,0,0,1,.6-.89C27.27,68.62,27.26,69.05,26.66,69.07Z"/><path class="cls-2" d="M46.11,70.59c-.1.3-.34.31-.6.29C45.57,70.5,45.64,70.12,46.11,70.59Z"/><path class="cls-2" d="M47,24.92c-.85.45-1.52-.31-2.25,0-.18.07-.38-.26-.37-.54s.24-.39.5-.42A2.21,2.21,0,0,1,47,24.92Z"/><path class="cls-2" d="M39.22,25.34c0,.42-.12.69-.5.63s-.59-.47-.59-.86a.54.54,0,0,1,.58-.52C39.33,24.58,39.14,25.1,39.22,25.34Z"/><path class="cls-2" d="M43.44,24.31c0,.08.08.18.05.22s-.15.09-.22.13-.08-.18-.05-.23S43.36,24.35,43.44,24.31Z"/><path class="cls-2" d="M61.37,14.67a1.59,1.59,0,0,1,2-.76c1.34.68,2.79.27,4.17.82-1.78.36-3.38,1.31-5.26,1.17C62.25,15.27,62.34,14.59,61.37,14.67Z"/><path class="cls-2" d="M61.37,14.67c1-.08.88.6.88,1.23H61.4l-.38,0C61.07,15.45,61,15,61.37,14.67Z"/><path class="cls-2" d="M61,15.87l.38,0c-.07.22-.12.54-.43.4S60.84,16,61,15.87Z"/><path class="cls-2" d="M26.6,37.13a2.19,2.19,0,0,1,.76,2.92C26.62,39.2,27.1,38,26.6,37.13Z"/><path class="cls-2" d="M25.61,34.28a2,2,0,0,1,0,1.42C25,35.24,25,34.77,25.61,34.28Z"/></g></g></svg>