<svg xmlns="http://www.w3.org/2000/svg" viewBox="0 0 252 243"><defs><style>.cls-1,.cls-2{fill:none;}.cls-2{stroke:#ca2e55;stroke-miterlimit:10;}</style></defs><g id="Layer_2" data-name="Layer 2"><g id="Layer_1-2" data-name="Layer 1"><path class="cls-1" d="M126,.08Q187.22.08,248.43,0c3,0,3.57.6,3.57,3.57q-.15,117.93,0,235.86c0,3-.6,3.57-3.57,3.57Q126,242.85,3.57,243c-3,0-3.57-.6-3.57-3.56Q.15,121.5,0,3.57C0,.6.6,0,3.57,0Q64.79.18,126,.08ZM75.77,41.85,75.59,40C73,32.72,71.65,25,68.21,18c-2.95-6-8.15-9-14.82-8.92-5.13.08-10.71,4.71-12,10.28-1.16,4.83-.78,9.9-.16,14.81a98.26,98.26,0,0,1,0,26.15C39.69,70.53,38.49,81,40.21,91c3.92,22.69,8.81,45.23,14,67.67,2.43,10.45,7.46,19.93,19.8,21.47,8.37,1.05,16.39-1.13,23.74-5.35,2.34-1.34,5.49-1.91,5.88-5.42l2-2c2.57-.11,3-2.24,3.83-4,3-6.53,2.31-13.35.86-19.95-4.74-21.57-9.56-43.14-15-64.55-1.73-6.86-3.91-14-9.52-19.14C83.62,53.08,80.67,46.91,75.77,41.85Z"/><path class="cls-2" d="M103.65,169.33c-.39,3.51-3.54,4.08-5.88,5.42C90.42,179,82.4,181.15,74,180.1c-12.34-1.54-17.37-11-19.8-21.47-5.21-22.44-10.1-45-14-67.67-1.72-10-.52-20.43.94-30.62a98.26,98.26,0,0,0,0-26.15c-.62-4.91-1-10,.16-14.81,1.34-5.57,6.92-10.2,12-10.28,6.67-.1,11.87,3,14.82,8.92,3.44,7,4.76,14.7,7.38,22-2-.35-2.34-2.07-2.86-3.6C71.11,31.61,69.6,26.77,67.85,22c-.93-2.53-1.74-5.36-5-6l-1-1c-3.8-5.23-10.9-5.25-14-.05l-2,2c-3.31,1.42-2.86,4.47-2.89,7.13-.13,10.34,1.69,20.63,1,31,0,.55.51,1.14.79,1.72l-.09,1.89c-2.94,1.61-1.93,3.82-.91,6l-.08,1.93c-3.28,3.08-1.87,6.59-.91,10v8C40.43,91,43,97,44.3,102.91c.64,3-.27,6.81,3.31,8.76l.15,1.88a2.36,2.36,0,0,0-.76,2.7c4,14,4.94,28.61,9.19,42.51.63,2.07.57,4.79,3.38,5.65l1.37,3.72a2.69,2.69,0,0,0,1.8,3.15c1.53,2.8,4.57,3.46,7,5,3.34,2.84,12.43,2.89,16,.08a30.2,30.2,0,0,0,15.78-7.15Z"/><path class="cls-2" d="M85.83,59.67c5.61,5.15,7.79,12.28,9.52,19.14,5.42,21.41,10.24,43,15,64.55,1.45,6.6,2.1,13.42-.86,19.95-.8,1.77-1.26,3.9-3.83,4-.08-.74-.15-1.47-.23-2.21l.21-.8c2.5-.91,2.89-2.69,2-5l.2-1.88c2.71-3.08,2.83-6.14-.08-9.17l-.12-1.91c1.45-4.87.12-9.13-2.84-13l-.21-1.88c1.49-1.29.49-1.74-.72-2.12l-.23-1.86c1.5-1.53,1-2.5-.85-3.09l-.19-1.88c.55-6.54-2.18-12.54-3.19-18.82-.55-3.47-.4-7.48-3.54-10.16l-.23-1.88c1.49-1.32.44-1.74-.75-2.12l-.27-1.85c1.5-1.31.48-1.75-.73-2.13l-.28-1.85c1.51-1.3.49-1.74-.71-2.13l-.25-1.86c1.71-1.63.1-3.19-.41-4.47-2-5.2-4.39-10.27-6.63-15.39Z"/><path class="cls-2" d="M62.84,16c3.27.68,4.08,3.51,5,6,1.75,4.75,3.26,9.59,4.88,14.38.52,1.53.83,3.25,2.86,3.6l.18,1.85C76,45.61,79.56,48.17,79.49,52c-1.94-.46-2.25-2.27-3-3.67a116.51,116.51,0,0,1-9.76-23.78c-.64-2.16-.8-5.08-4-5.53a3.13,3.13,0,0,1-.37-.6Z"/><path class="cls-2" d="M79.49,52c.07-3.87-3.49-6.43-3.72-10.19,4.9,5.06,7.85,11.23,10.06,17.82l-.2.17L83.54,59h0c0-2-.44-3.71-2.79-4.13Z"/><path class="cls-2" d="M105.41,165.11c.08.74.15,1.47.23,2.21l-2,2-2.15-.15A5.06,5.06,0,0,1,105.41,165.11Z"/><path class="cls-2" d="M105.41,165.11a5.06,5.06,0,0,0-3.91,4.07,30.2,30.2,0,0,1-15.78,7.15l-16-.08c-2.45-1.51-5.49-2.17-7-5,.18-1.49,0-2.81-1.8-3.15-.46-1.24-.91-2.48-1.36-3.72-2.83-9.83-4.95-19.81-6.85-29.86-1.34-7.05-1.92-14.33-5-21l-.15-1.88c1.24-2-2.15-4.18.3-6.09,1.79,1.56,1.63,3.87,2.13,5.88,4.06,16.16,6.3,32.72,10.69,48.83,2,7.42,12.31,16.38,21.81,13.57,3.33-1,6.78-1.61,10-2.81,10.5-3.89,14-13,12.61-20-3.24-17.05-7.12-34-10.75-51-3-13.87-6.17-27.62-13.93-39.84C72.38,47.47,66.8,33.57,62.69,19.06c3.22.45,3.38,3.37,4,5.53a116.51,116.51,0,0,0,9.76,23.78c.77,1.4,1.08,3.21,3,3.67l1.24,2.77c.22,1.85.68,3.55,2.79,4.13h0c2.08,7.33,6.5,13.65,9.12,20.75.08.62.17,1.24.25,1.86a1.66,1.66,0,0,0,.71,2.13c.09.61.19,1.23.28,1.86a1.65,1.65,0,0,0,.73,2.12c.09.62.18,1.24.26,1.86a1.58,1.58,0,0,0,.76,2.11c.07.63.15,1.25.23,1.88q1.73,8.9,3.48,17.8c.75,3.82.86,7.83,3.25,11.18.06.62.12,1.25.19,1.89-.25,1.17-.41,2.32.85,3.08.08.62.15,1.24.23,1.86a1.55,1.55,0,0,0,.72,2.12l.21,1.88c.4,4.47,1,8.9,2.84,13l.12,1.91c0,3.06,0,6.11.08,9.17-.07.63-.14,1.25-.2,1.88-1.47,1.34-1.72,3.17-2,5Z"/><path class="cls-2" d="M47.76,113.55c3.05,6.67,3.63,14,5,21,1.9,10,4,20,6.85,29.86-2.82-.86-2.76-3.58-3.39-5.65C51.94,144.86,51,130.24,47,116.25A2.36,2.36,0,0,1,47.76,113.55Z"/><path class="cls-2" d="M44.74,56.81c-.28-.58-.82-1.17-.79-1.72.65-10.37-1.17-20.66-1-31,0-2.66-.42-5.71,2.89-7.13.39,2-2.41,4.06.12,6l-.09,5c-1.55,1.07-1.14,2.75-.9,4.08,1.2,6.55.92,13.15,1,19.74A2.17,2.17,0,0,0,47,53.84l-.24,2.91Z"/><path class="cls-2" d="M47.91,105.58c-2.45,1.91.94,4.12-.3,6.09-3.58-2-2.67-5.8-3.31-8.76C43,97,40.43,91,42.75,84.68l1.94.07c.07,1.3.13,2.61.19,3.91-1.35,2.22-2.07,4.36.74,6.08l.28,1.88c-2,3-.55,5.12,1.68,7.09Z"/><path class="cls-2" d="M45.92,23c-2.53-1.95.27-4-.12-6l2-2a15.21,15.21,0,0,1,14,0l1,1c-.17.82-.35,1.65-.52,2.48C53.21,14.31,51.18,14.87,45.92,23Z"/><path class="cls-2" d="M69.76,176.25l16,.08C82.19,179.14,73.1,179.09,69.76,176.25Z"/><path class="cls-2" d="M61.83,15a15.21,15.21,0,0,0-14,0C50.93,9.72,58,9.74,61.83,15Z"/><path class="cls-2" d="M42.75,76.71c-1-3.46-2.37-7,.91-10,.74,1.62-.68,3.76,1.26,5.08l-.24,4.9Z"/><path class="cls-2" d="M42.75,76.71l1.93-.07a15.19,15.19,0,0,1,0,8.11l-1.94-.07Z"/><path class="cls-2" d="M44.92,71.74c-1.94-1.32-.52-3.46-1.26-5.08,0-.64.05-1.29.08-1.93l2,0C46.06,67.12,46.71,69.57,44.92,71.74Z"/><path class="cls-2" d="M45.74,64.71l-2,0c-1-2.21-2-4.42.92-6,.6,1.3-.47,3.12,1.25,4.08Z"/><path class="cls-2" d="M45.91,62.78c-1.72-1-.65-2.78-1.25-4.08,0-.63.05-1.26.08-1.89l2-.06C47.1,58.85,47.76,61,45.91,62.78Z"/><path class="cls-2" d="M60.94,168.13c1.84.34,2,1.66,1.8,3.15A2.69,2.69,0,0,1,60.94,168.13Z"/><path class="cls-2" d="M102.62,122.5c-2.39-3.35-2.5-7.36-3.25-11.18q-1.75-8.89-3.48-17.8c3.14,2.68,3,6.69,3.54,10.16C100.44,110,103.17,116,102.62,122.5Z"/><path class="cls-2" d="M92.67,79.7c-2.62-7.1-7-13.42-9.12-20.75l2.08.89C87.87,65,90.24,70,92.26,75.23,92.77,76.51,94.38,78.07,92.67,79.7Z"/><path class="cls-2" d="M107.66,146.37c-1.89-4.14-2.44-8.57-2.84-13C107.78,137.24,109.11,141.5,107.66,146.37Z"/><path class="cls-2" d="M107.86,157.45c0-3.06-.06-6.11-.08-9.17C110.69,151.31,110.57,154.37,107.86,157.45Z"/><path class="cls-2" d="M105.62,164.31c.32-1.81.57-3.64,2-5C108.51,161.62,108.12,163.4,105.62,164.31Z"/><path class="cls-2" d="M103.66,127.47c-1.26-.76-1.1-1.91-.85-3.08C104.7,125,105.16,125.94,103.66,127.47Z"/><path class="cls-2" d="M93.63,83.69a1.66,1.66,0,0,1-.71-2.13C94.12,82,95.14,82.39,93.63,83.69Z"/><path class="cls-2" d="M94.64,87.67a1.65,1.65,0,0,1-.73-2.12C95.12,85.92,96.14,86.36,94.64,87.67Z"/><path class="cls-2" d="M95.66,91.64a1.58,1.58,0,0,1-.76-2.11C96.1,89.9,97.15,90.32,95.66,91.64Z"/><path class="cls-2" d="M104.61,131.45a1.55,1.55,0,0,1-.72-2.12C105.1,129.71,106.1,130.16,104.61,131.45Z"/><path class="cls-2" d="M45.91,62.78c1.85-1.79,1.19-3.93.82-6L47,53.84A47.36,47.36,0,0,0,45.83,28l.09-5c5.26-8.1,7.29-8.66,16.4-4.51a3.13,3.13,0,0,0,.37.6c4.11,14.51,9.69,28.41,17.8,41.17,7.76,12.22,11,26,13.93,39.84,3.63,17,7.51,33.9,10.75,51,1.35,7.07-2.11,16.14-12.61,20-3.24,1.2-6.69,1.83-10,2.81-9.5,2.81-19.8-6.15-21.81-13.57C56.34,144.18,54.1,127.62,50,111.46c-.5-2-.34-4.32-2.13-5.88l-.33-1.87c.07-2.52.05-5-1.68-7.09-.09-.63-.19-1.26-.28-1.88.45-2.12,1.06-4.25-.74-6.08-.06-1.3-.12-2.61-.19-3.91a15.19,15.19,0,0,0,0-8.11l.24-4.9c1.79-2.17,1.14-4.62.82-7C45.79,64.07,45.85,63.43,45.91,62.78Zm55.68,89.27c0-.31-.34-1.94-.44-3.58-.35-6.29-3.68-12-4.29-18-1.14-11.2-4.51-21.89-6.36-32.92-1.21-7.22-3.61-14.27-5.8-21.3C82.86,70.35,81.43,64.4,75,60.94c-2.76-1.48-3.79-5.9-7.52-7.29-1-.38-.81-2.07-.41-3.2a5.85,5.85,0,0,0,.35-3.35C66,40.26,64.52,33.47,60.84,27.36c-1.17-1.95-1.49-4.93-4.55-4.2A6.83,6.83,0,0,0,50.94,29a17.42,17.42,0,0,0,.26,5.43c1.3,7.07,1,14.23.36,21.27-1.27,13.48-3.14,27-.59,40.4,1,5,.45,10.53,5.86,14.51,3.86,2.83,6.94,7.8,3.29,13.49a2.2,2.2,0,0,0,.59,3.13c2.3,1.29,2.65,3.77,2.56,5.6C63,138,61,143,63.88,148.13c.68,1.24,0,3.39,1.1,5.08a7.57,7.57,0,0,1,1.21,5.59c-1.15,7.06,3.2,12.08,10.54,12.43,6.13.29,11.74-1.62,17-4.54S101.84,159.51,101.59,152.05Z"/><path class="cls-2" d="M83.52,58.94c-2.11-.58-2.57-2.28-2.79-4.13C83.08,55.23,83.49,57,83.52,58.94Z"/><path class="cls-2" d="M45.83,28A47.36,47.36,0,0,1,47,53.84a2.17,2.17,0,0,1-1.08-2.06c0-6.59.24-13.19-1-19.74C44.69,30.71,44.28,29,45.83,28Z"/><path class="cls-2" d="M45.9,96.62c1.73,2.08,1.75,4.57,1.68,7.09C45.35,101.74,43.91,99.59,45.9,96.62Z"/><path class="cls-2" d="M44.88,88.66c1.8,1.83,1.19,4,.74,6.08C42.81,93,43.53,90.88,44.88,88.66Z"/><path class="cls-2" d="M101.59,152.05c.25,7.46-2.64,11.78-7.83,14.64s-10.9,4.83-17,4.54c-7.34-.35-11.69-5.37-10.54-12.43A7.57,7.57,0,0,0,65,153.21c-1.1-1.69-.42-3.84-1.1-5.08C61,143,63,138,63.27,132.83c.09-1.83-.26-4.31-2.56-5.6a2.2,2.2,0,0,1-.59-3.13c3.65-5.69.57-10.66-3.29-13.49-5.41-4-4.91-9.49-5.86-14.51-2.55-13.45-.68-26.92.59-40.4.66-7,.94-14.2-.36-21.27A17.42,17.42,0,0,1,50.94,29a6.83,6.83,0,0,1,5.35-5.84c3.06-.73,3.38,2.25,4.55,4.2,3.68,6.11,5.13,12.9,6.57,19.74a5.85,5.85,0,0,1-.35,3.35c-.4,1.13-.61,2.82.41,3.2C71.2,55,72.23,59.46,75,60.94c6.44,3.46,7.87,9.41,9.71,15.29,2.19,7,4.59,14.08,5.8,21.3,1.85,11,5.22,21.72,6.36,32.92.61,6,3.94,11.73,4.29,18C101.25,150.11,101.55,151.74,101.59,152.05Z"/><path class="cls-1" d="M126,242.93q-61,0-121.92,0c-2.7,0-4,0-4-3.59Q.21,121.45,0,3.52C0,.38.85,0,3.65,0Q126.07.15,248.48,0c3.14,0,3.5.84,3.49,3.64q-.12,117.93,0,235.87c0,3.14-.84,3.5-3.64,3.49Q187.16,242.85,126,242.93ZM13.21,186.36c-4.13.52-5.53,3.66-6.66,7-2.09,6.2-1.39,12.44.43,18.46,2.65,8.74,8,15.21,17.33,17.36,12.64,2.89,24.54,9.35,38.1,7.75a235.27,235.27,0,0,0,33.76-6.52,225.9,225.9,0,0,0,51.9-21.27,44.61,44.61,0,0,0,12.69-10.2c7.71-9.28,10.59-19.66,7.81-31.78-2.12-9.25.39-17.32,9.18-22.53,4.12-2.44,8.06-5.19,12.23-7.54,12.31-7,24.47-14.14,35.9-22.49,3.89-2.84,7.61-6,9.36-10.66,1.57-4.18,1.23-8-2.53-11.18-3.54-3-7.26-3.93-11.42-1.92-3.23,1.55-6.23,3.57-9.41,5.23-7.75,4-14.53,9.73-22.57,13.24-5.89,2.57-11.81,5.07-17.21,8.65-10.16,6.74-21,10.8-33.59,9.65-11.79-1.08-23.31,1.47-34.74,4.25C92,134.74,81,139.94,69.92,144.6c-18,7.57-35.78,15.84-49.2,30.7-2.91,3.22-7.47,5.72-7.51,11Z"/><path class="cls-2" d="M13.21,186.34c0-5.32,4.6-7.82,7.51-11,13.42-14.86,31.19-23.13,49.2-30.7,11.1-4.66,22-9.86,33.85-12.74,11.43-2.78,23-5.33,34.74-4.25,12.62,1.15,23.43-2.91,33.59-9.65,5.4-3.58,11.32-6.08,17.21-8.65,8-3.51,14.82-9.2,22.57-13.24,3.18-1.66,6.18-3.68,9.41-5.23,4.16-2,7.88-1.12,11.42,1.92,3.76,3.22,4.1,7,2.53,11.18-1.75,4.69-5.47,7.82-9.36,10.66-11.43,8.35-23.59,15.54-35.9,22.49-4.17,2.35-8.11,5.1-12.23,7.54-8.79,5.21-11.3,13.28-9.18,22.53,2.78,12.12-.1,22.5-7.81,31.78a44.61,44.61,0,0,1-12.69,10.2,225.9,225.9,0,0,1-51.9,21.27,235.27,235.27,0,0,1-33.76,6.52c-13.56,1.6-25.46-4.86-38.1-7.75C14.93,227,9.63,220.56,7,211.82c-1.82-6-2.52-12.26-.43-18.46,1.13-3.34,2.53-6.48,6.66-7a13.43,13.43,0,0,1-.77,2.24C5.85,200.1,7.24,211,16,221c3.81,4.38,8.72,5.62,13.83,6.76,8.14,1.81,15.65,5.73,24.27,6.14A98.37,98.37,0,0,0,75,232.38c2.91-.49,7.51.51,9.26-3.79l1.46,0c1,1,2.11.4,3.21.15a189.41,189.41,0,0,0,29.09-9.4c4.49-1.83,9.52-2.69,13-6.51l3.57-1.54c3.23-.72,6.26-1.81,8.26-4.71a1.09,1.09,0,0,0,.68-.28,1.88,1.88,0,0,0,2.33-1.67,1.13,1.13,0,0,0,.67-.31,1.92,1.92,0,0,0,2.32-1.68,1.1,1.1,0,0,0,.63-.35,1.85,1.85,0,0,0,2.26-1.79,1,1,0,0,0,.6-.38c5.9.52,6.17-4.4,7.78-8a2.13,2.13,0,0,0,.24-.85,2.58,2.58,0,0,0,2-1.23,24.14,24.14,0,0,0,3.28-18c-3.39-17.82-1.32-23.85,11.22-31.36,10.63-6.36,21.56-12.24,32.09-18.77,7.27-4.51,14.71-8.92,20.55-15.39,2.27-2.52,3.16-5.35,1.49-8.64a6.35,6.35,0,0,0-7.53-3.45A56.84,56.84,0,0,0,199,108.47L195,111.3a190,190,0,0,0-28.31,14c-7.67,4.62-15.86,7.84-24.95,6.55-7.84-1.12-15.47-.33-23.17.83-16.12,2.43-31.38,7.88-46.23,14.19-18.06,7.67-36.1,15.68-49.82,30.65C19.63,180.65,17,184.11,13.21,186.34Z"/><path class="cls-2" d="M146.55,204.3a1.13,1.13,0,0,1-.67.31c-1.63-.63-2.43-.11-2.33,1.67a1.09,1.09,0,0,1-.68.28c-3.52.23-6.76.95-8.26,4.71L131,212.8c-1.34-1-2.47-.09-3.67.36-11.15,4.1-21.84,9.51-33.71,11.53-2.93.51-6,1.28-8,3.88l-1.46,0c-6.3-1-12.26,1.45-18.44,1.89-7.43.54-15.21,2-21.79-1.91-4.86-2.86-9.86-3.82-15-4.95-11.75-2.57-15.83-11.06-15.89-18.53,2.06.11,2.15,1.94,2.48,3.23,2.62,10.05,10.48,12.57,19.36,13.7l4,.09a3,3,0,0,0,3,1.94h0c1,3.26,4,2.36,6.18,2.88,10.39,2.55,20.66.26,30.84-1.52,22-3.85,43.23-10.55,62.25-22.5,10.56-6.63,20.51-14.47,18.35-29.58-.5-3.42-1.1-6.82-1.68-10.22-.95-5.54-.92-11,2.93-15.52,2.88-3.39,4.6-7.69,8.28-10.45a2.14,2.14,0,0,0,1-2.59c-.68-1.55-1.85-.66-3-.53-8.65,1.06-17.2,2.95-26,2.52-6.45-.31-12.92,0-19.38-.1-3-.06-6,2.54-9,.13a54.37,54.37,0,0,1,26.59-2.65c7.75,1,15.22.48,22.17-3.06,10.58-5.39,21-11.11,31.47-16.7,1.13-.61,2.55-1.06,2.13-2.86l4.07-2.83c1.48.57,2.57-.43,3.67-1,5-2.84,9.95-5.84,15-8.63,2.66-1.47,5.91-2.25,8,.29,2.29,2.73.81,5.62-1.6,7.86a77.53,77.53,0,0,1-7.79,6.88c-13.1,9.33-27.38,16.7-41.15,24.91-12.8,7.63-15.8,13.75-13,28.3,1.24,6.41,1.91,12.76-.51,19.05-.64,1.67-1.93,3.16-1.33,5.14a2.13,2.13,0,0,1-.24.85c-3.63,1.67-6.52,4.06-7.78,8a1,1,0,0,1-.6.38c-1.6-.47-2.39.08-2.26,1.79a1,1,0,0,1-.64.34C147.23,202,146.42,202.51,146.55,204.3Z"/><path class="cls-2" d="M13.09,205.09c.06,7.47,4.14,16,15.89,18.53,5.17,1.13,10.17,2.09,15,4.95,6.58,3.87,14.36,2.45,21.79,1.91,6.18-.44,12.14-2.84,18.44-1.89-1.75,4.3-6.35,3.3-9.26,3.79a98.37,98.37,0,0,1-20.93,1.52c-8.62-.41-16.13-4.33-24.27-6.14-5.11-1.14-10-2.38-13.83-6.76-8.71-10-10.1-20.9-3.51-32.4a13.43,13.43,0,0,0,.77-2.24v0c3.76-2.23,6.42-5.69,9.28-8.82,13.72-15,31.76-23,49.82-30.65,14.85-6.31,30.11-11.76,46.23-14.19,7.7-1.16,15.33-2,23.17-.83,9.09,1.29,17.28-1.93,24.95-6.55a190,190,0,0,1,28.31-14c.42,1.8-1,2.25-2.13,2.86-10.48,5.59-20.89,11.31-31.47,16.7-7,3.54-14.42,4.07-22.17,3.06a54.37,54.37,0,0,0-26.59,2.65l-1.86.18c-.94-.33-1.71-.22-2.15.79l-1.85.16c-9.93,2-19.53,4.88-28,10.66a221.63,221.63,0,0,0-33.3,15.76c-8.38,4.74-16.12,9.94-21.35,18.24-6.19,2.62-9.23,7.7-10.89,13.88C13,199.19,10.91,202.11,13.09,205.09Z"/><path class="cls-2" d="M160.38,191.22c-.6-2,.69-3.47,1.33-5.14,2.42-6.29,1.75-12.64.51-19.05-2.8-14.55.2-20.67,13-28.3,13.77-8.21,28.05-15.58,41.15-24.91a77.53,77.53,0,0,0,7.79-6.88c2.41-2.24,3.89-5.13,1.6-7.86-2.13-2.54-5.38-1.76-8-.29-5.06,2.79-10,5.79-15,8.63-1.1.62-2.19,1.62-3.67,1a56.84,56.84,0,0,1,24.42-14.12A6.35,6.35,0,0,1,231,97.8c1.67,3.29.78,6.12-1.49,8.64-5.84,6.47-13.28,10.88-20.55,15.39-10.53,6.53-21.46,12.41-32.09,18.77-12.54,7.51-14.61,13.54-11.22,31.36a24.14,24.14,0,0,1-3.28,18A2.58,2.58,0,0,1,160.38,191.22Z"/><path class="cls-2" d="M85.7,228.57c2-2.6,5-3.37,8-3.88,11.87-2,22.56-7.43,33.71-11.53,1.2-.45,2.33-1.36,3.67-.36-3.52,3.83-8.55,4.69-13,6.52a189.41,189.41,0,0,1-29.09,9.4C87.81,229,86.73,229.6,85.7,228.57Z"/><path class="cls-2" d="M152.36,200.1c1.26-4,4.15-6.36,7.78-8C158.53,195.7,158.26,200.62,152.36,200.1Z"/><path class="cls-2" d="M134.61,211.27c1.5-3.76,4.74-4.48,8.26-4.71C140.87,209.46,137.84,210.55,134.61,211.27Z"/><path class="cls-2" d="M149.5,202.27c-.13-1.71.66-2.26,2.26-1.79A1.85,1.85,0,0,1,149.5,202.27Z"/><path class="cls-2" d="M146.55,204.3c-.13-1.79.68-2.3,2.31-1.69A1.91,1.91,0,0,1,146.55,204.3Z"/><path class="cls-2" d="M143.55,206.28c-.1-1.78.7-2.3,2.33-1.67A1.88,1.88,0,0,1,143.55,206.28Z"/><path class="cls-2" d="M24.08,182.36c5.23-8.3,13-13.5,21.35-18.24a221.63,221.63,0,0,1,33.3-15.76,1.39,1.39,0,0,0,2.08.46c4.79-2.52,10-3.95,15-5.87,3.69-1.41,8.47-1.17,11-5.25l1.85-.16c1.34,1.43,1.77.39,2.15-.79l1.86-.18c3,2.41,6-.19,9-.13,6.46.12,12.93-.21,19.38.1,8.83.43,17.38-1.46,26-2.52,1.11-.13,2.28-1,3,.53a2.14,2.14,0,0,1-1,2.59c-3.68,2.76-5.4,7.06-8.28,10.45-3.85,4.53-3.88,10-2.93,15.52.58,3.4,1.18,6.8,1.68,10.22,2.16,15.11-7.79,22.95-18.35,29.58-19,12-40.2,18.65-62.25,22.5-10.18,1.78-20.45,4.07-30.84,1.52-2.14-.52-5.22.38-6.18-2.88,5.4,1.81,9.62.75,12.29-4.72a6.76,6.76,0,0,1,2.61-2.23c4.29-2.7,8.72-5.2,12.92-8,4.53-3.05,8.86-5.61,14.46-2.19a5.61,5.61,0,0,0,5.29-.33c4.72-2.74,9.9-4.23,14.15-8.38,5.21-5.08,12-8.55,18.22-12.61,9.85-6.47,17.87-14.48,21.85-25.87,1.11-3.15-1.22-4.82-3.55-3.92-3.84,1.47-8.08,1-11.75,3.45-4,2.6-8.4.44-9.86-4.14-2.73-8.61-5.85-9.69-13.5-4.61-1.51,1-3.4,1.92-4.2,3.38-2,3.74-5,4.45-9,4.66-5.27.28-11.1,1.14-12.36,7.69A53.75,53.75,0,0,0,79,176.83c.11,8.74-1.75,11.29-10.75,11.3-3,0-5.88.52-7.88,2.42-5.06,4.8-11.95,4.2-17.86,6.25-4,1.37-8.25,1.41-12.37,3.77s-6,5.42-5.83,9.33a9.85,9.85,0,0,0,6.51,9.2c1.48.57,3.9.35,4.08,2.92-8.88-1.13-16.74-3.65-19.36-13.7-.33-1.29-.42-3.12-2.48-3.23-2.18-3-.09-5.9.09-8.85,3.88-2.59,7.66-5.42,12.8-3.13a1.92,1.92,0,0,0,2.77-1.24,2,2,0,0,0-1.31-2.38C23.6,188.33,23.84,185.37,24.08,182.36ZM46.77,186C48.56,181.74,48,178,51,175.85c1.1-.8,2.33-1.45,1.51-3.11a2.61,2.61,0,0,0-2.41-1.44c-1.48-.08-2.72.48-3.08,1.93C46.1,177,45.18,180.76,46.77,186Z"/><path class="cls-2" d="M34.93,222c-.18-2.57-2.6-2.35-4.08-2.92a9.85,9.85,0,0,1-6.51-9.2c-.15-3.91,1.67-7,5.83-9.33s8.38-2.4,12.37-3.77c5.91-2.05,12.8-1.45,17.86-6.25,2-1.9,4.89-2.42,7.88-2.42,9,0,10.86-2.56,10.75-11.3a53.75,53.75,0,0,1,.44-10.62c1.26-6.55,7.09-7.41,12.36-7.69,4-.21,6.93-.92,9-4.66.8-1.46,2.69-2.38,4.2-3.38,7.65-5.08,10.77-4,13.5,4.61,1.46,4.58,5.89,6.74,9.86,4.14,3.67-2.41,7.91-2,11.75-3.45,2.33-.9,4.66.77,3.55,3.92-4,11.39-12,19.4-21.85,25.87-6.19,4.06-13,7.53-18.22,12.61-4.25,4.15-9.43,5.64-14.15,8.38a5.61,5.61,0,0,1-5.29.33c-5.6-3.42-9.93-.86-14.46,2.19-4.2,2.82-8.63,5.32-12.92,8a6.76,6.76,0,0,0-2.61,2.23c-2.67,5.47-6.89,6.53-12.29,4.72h0c-.44-1.5-.29-3.91-3-1.94Zm62.7-48.44c0,2.39.06,4.29,2.54,4.51s6.5-3.68,6.41-6.35c0-1.73-.34-3.5-2.72-3C100.87,169.39,97.42,169.67,97.63,173.58Z"/><path class="cls-2" d="M38.9,222.11c2.69-2,2.54.44,3,1.94A3,3,0,0,1,38.9,222.11Z"/><path class="cls-2" d="M24.08,182.36c-.24,3-.48,6,3.36,7.13a2,2,0,0,1,1.31,2.38A1.92,1.92,0,0,1,26,193.11c-5.14-2.29-8.92.54-12.8,3.13C14.85,190.06,17.89,185,24.08,182.36Z"/><path class="cls-2" d="M106.75,137.7c-2.49,4.08-7.27,3.84-11,5.25-5,1.92-10.19,3.35-15,5.87a1.39,1.39,0,0,1-2.08-.46C87.22,142.58,96.82,139.7,106.75,137.7Z"/><path class="cls-2" d="M110.75,136.75c-.38,1.18-.81,2.22-2.15.79C109,136.53,109.81,136.42,110.75,136.75Z"/><path class="cls-2" d="M46.77,186c-1.59-5.19-.67-9,.25-12.72.36-1.45,1.6-2,3.08-1.93a2.61,2.61,0,0,1,2.41,1.44c.82,1.66-.41,2.31-1.51,3.11C48,178,48.56,181.74,46.77,186Z"/><path class="cls-2" d="M97.63,173.58c-.21-3.91,3.24-4.19,6.23-4.83,2.38-.51,2.67,1.26,2.72,3,.09,2.67-3.84,6.58-6.41,6.35S97.65,176,97.63,173.58Z"/></g></g></svg>