<svg xmlns="http://www.w3.org/2000/svg" viewBox="0 0 364.5 420.9"><defs><style>.cls-1,.cls-2{fill:none;}.cls-2{stroke:#ca2e55;stroke-miterlimit:10;}</style></defs><g id="Layer_2" data-name="Layer 2"><g id="Layer_1-2" data-name="Layer 1"><path class="cls-1" d="M0,210.45Q0,105.92,0,1.38C0,.25.25,0,1.38,0Q182.25,0,363.12,0c1.13,0,1.38.25,1.38,1.38q0,209.07,0,418.14c0,1.13-.25,1.38-1.38,1.38q-180.87,0-361.74,0c-1.13,0-1.38-.25-1.38-1.38Q0,315,0,210.45Zm127.67,15a11.67,11.67,0,0,1-4.86,1.8c-2.34.11-4.67.28-7,.59-3.79.52-7.62.68-11.22,2.33-4.1,1.89-8.27,2.95-12.7.58-2.91-1.56-6.05-2.67-9-4.25-.48-.26-1-.71-1.51-.43-1.36.68-2.85,1.13-3.69,2.62-1,1.77-2.21,3.43-3.26,5.18-1.75,2.9-3.56,5.73-5.59,8.46-1.52,2.05-2.29,4.64-4.61,6.12-.26.17-.38.57-.57.86-1.44,2.13-2.6,4.43-4.17,6.51-2.88,3.81-4.81,8.25-7.69,12.08a1.52,1.52,0,0,0-.05,1.58,10.09,10.09,0,0,1,.64,2.75c.69,4.1,1.51,8.15,3.9,11.68a3.23,3.23,0,0,1,.42,3c-.82,2.34-1.56,4.71-2.36,7.06a173.73,173.73,0,0,0-5.84,20c-.09.42-.42.66-.62,1-2.84,4.6-4.12,9.52-2.77,14.85.64,2.52,1.25,4.91,3.3,7.09a15.1,15.1,0,0,0,6.89,4.64,30.33,30.33,0,0,1,9.36,4.48c3.94,2.72,8.09,2.26,12,.88a7.1,7.1,0,0,1,5.72.06,4,4,0,0,0,4.47-.63c2.07-1.81,4.5-3.13,6.48-5.05,1.44-1.4,2.13-1.23,3.36.37.09.12.19.23.27.36,2.14,3.3,4.55,6.4,6.86,9.58a2.06,2.06,0,0,0,1.35.83c4.91,1.06,9.69,1.11,14.06-1.92a3,3,0,0,1,2.12-.45,7.68,7.68,0,0,1,4.32,1.83c2,1.6,4.56,1.92,6.73,3.09a6.29,6.29,0,0,0,5.29.61A31.4,31.4,0,0,0,146,351.8c5.07-3.69,10.88-6.26,15.54-10.55a1.85,1.85,0,0,0,.78-2.09c-1.09-4.86-2.21-9.72-3.16-14.62-1.65-8.51-2.45-17.19-4.83-25.56-1.24-4.33-1.67-8.92-4.13-12.89-1.27-2.06-1.66-4.46-2.16-6.79-.62-2.86-.49-5.87-1.75-8.61C139.49,255.91,132.66,241.14,127.7,225.47Z"/><path class="cls-2" d="M127.7,225.47c5,15.67,11.79,30.44,18.61,45.22,1.26,2.74,1.13,5.75,1.75,8.61.5,2.33.89,4.73,2.16,6.79,2.46,4,2.89,8.56,4.13,12.89,2.38,8.37,3.18,17,4.83,25.56.95,4.9,2.07,9.76,3.16,14.62a1.85,1.85,0,0,1-.78,2.09c-4.66,4.29-10.47,6.86-15.54,10.55a31.4,31.4,0,0,1-8.24,3.81,6.29,6.29,0,0,1-5.29-.61c-2.17-1.17-4.77-1.49-6.73-3.09a7.68,7.68,0,0,0-4.32-1.83,3,3,0,0,0-2.12.45c-4.37,3-9.15,3-14.06,1.92a2.06,2.06,0,0,1-1.35-.83c-2.31-3.18-4.72-6.28-6.86-9.58-.08-.13-.18-.24-.27-.36-1.23-1.6-1.92-1.77-3.36-.37-2,1.92-4.41,3.24-6.48,5.05a4,4,0,0,1-4.47.63,7.1,7.1,0,0,0-5.72-.06c-3.91,1.38-8.06,1.84-12-.88a30.33,30.33,0,0,0-9.36-4.48,15.1,15.1,0,0,1-6.89-4.64c-2-2.18-2.66-4.57-3.3-7.09-1.35-5.33-.07-10.25,2.77-14.85.2-.33.53-.57.62-1a173.73,173.73,0,0,1,5.84-20c.8-2.35,1.54-4.72,2.36-7.06a3.23,3.23,0,0,0-.42-3c-2.39-3.53-3.21-7.58-3.9-11.68a10.09,10.09,0,0,0-.64-2.75,1.52,1.52,0,0,1,.05-1.58c2.88-3.83,4.81-8.27,7.69-12.08,1.57-2.08,2.73-4.38,4.17-6.51.19-.29.31-.69.57-.86,2.32-1.48,3.09-4.07,4.61-6.12,2-2.73,3.84-5.56,5.59-8.46,1-1.75,2.25-3.41,3.26-5.18.84-1.49,2.33-1.94,3.69-2.62.56-.28,1,.17,1.51.43,2.91,1.58,6,2.69,9,4.25,4.43,2.37,8.6,1.31,12.7-.58,3.6-1.65,7.43-1.81,11.22-2.33,2.32-.31,4.65-.48,7-.59A11.67,11.67,0,0,0,127.7,225.47Z"/><path class="cls-1" d="M0,210.48q0-104.53,0-209C0,.15.34,0,1.49,0Q182.26,0,363,0c1.21,0,1.46.22,1.46,1.45q0,209,0,418c0,1.35-.38,1.5-1.57,1.5q-180.77,0-361.54,0c-1.11,0-1.38-.23-1.38-1.37Q.06,315,0,210.48Zm314-92.06h0a23.09,23.09,0,0,0,3.86-5.09l.32-.37a4.73,4.73,0,0,0,1.5-1.73l.3-.36c.78-.73,1.72-1.38,1.64-2.63a32.88,32.88,0,0,0-.6-4.28c-1.11-5.4-2-10.86-3.87-16.07-.81-2.22-1.59-4.53-3.52-6.14-1.75-1.46-3.56-2.87-5.3-4.35-4-3.41-8.75-5.56-13.51-7.51-7.49-3.08-14.06-7.65-20.73-12A24.68,24.68,0,0,0,267,54.08a2.59,2.59,0,0,1-1.46-.87c-2.17-2.7-5.12-4.38-8-6.22a4,4,0,0,0-3.71-.32c-1.89.72-3.92,1-5.71,2.06a13,13,0,0,1-3.41.89c-2.19.6-4.53,1.06-6.24,2.8-2.74,1.68-5,4.09-8.29,4.91-3.88-.6-7.75-1.33-11.65-1.74-2.34-.25-4.88-.8-6.9,1.24-.3.29-.93.29-1.42.34a55.92,55.92,0,0,0-7,1.36c-2.83.65-5.81.93-8.18,2.89l-.52.29a7.85,7.85,0,0,1-4.23,1.42,13.75,13.75,0,0,0-5.06,1l-5.44,2.73c-2.05.85-4.2,1.54-5.92,3-.42.27-.84.52-1.24.81-3.9,2.86-7.25,6.38-11.19,9.2A35.59,35.59,0,0,0,151.3,91.12a12.47,12.47,0,0,1-2.91,3.35c-.44.31-1.11.53-1.28,1-.78,2-2.55,2.93-4.21,4a2.26,2.26,0,0,0-1.34,1.94,3.38,3.38,0,0,1-1.39,1.85c-2.93,2.4-6.13,4.48-8.54,7.48a10.92,10.92,0,0,1-2.19,2.42,33.58,33.58,0,0,0-7.42,7.11c-1.64,2-3.1,4.29-5.3,5.83a1.35,1.35,0,0,0-.61,1.54,31.23,31.23,0,0,1,.1,4.93,2.48,2.48,0,0,1-1.57,2.77,1.87,1.87,0,0,0-1,1,34.48,34.48,0,0,0-2.74,7.4c-.84,3.5-.93,7.11-1.39,10.66-.48,3.75-1.48,7.46-1.26,11.28a4.76,4.76,0,0,1-.92,2.65,8.24,8.24,0,0,0-1.26,5.78,5.35,5.35,0,0,1-.09,2.21c-.54,2.43-1.19,4.87-1.48,7.3-.56,4.57-1.65,9-2.39,13.54-.67,4-1.24,8.06-2,12-.53,2.65-.27,5.36-1,8a5.11,5.11,0,0,0,.19,3.68,14.54,14.54,0,0,0,8.39,7.44c3.2,1.12,6.59.89,9.92.49l.89,0a20.67,20.67,0,0,0,5.41-.88l.59-.08a12.49,12.49,0,0,0,3.38-.48c.64-.22.93-.45.47-1.13-1.84-2.77-2.75-5.95-3.84-9-1.64-4.69-2.84-9.42-2.33-14.48.32-3.21.65-6.44.83-9.65a82.45,82.45,0,0,0-.34-14.05,16.26,16.26,0,0,1,1-7c.76-2.36,1.71-4.64,2.48-7,1.11-3.36,2.61-6.52,5.78-8.61,3.37-2.21,6.29-4.89,7.45-9a12.45,12.45,0,0,1,1.22-2.38c.75-1.4,1.86-2.68,2.09-4.26.8-5.55,4.61-9,8.46-12.43a1.42,1.42,0,0,1,.67-.3,10.84,10.84,0,0,0,3.46-1.7c2.42-1.47,4.87-2.91,7.39-4.23a4.76,4.76,0,0,0,2-1.84,8.08,8.08,0,0,1,7.22-4,35.21,35.21,0,0,1,8.16.86c2.37.56,4.73,1.16,7.11,1.7,4.09.93,8.3,1.25,12.24,3,3.45,1.53,7.09,2.63,10.67,3.86a5.81,5.81,0,0,1,2.23,1.41q5.9,5.86,11.83,11.68a14,14,0,0,0,2.2,2c9.32,5.76,18.67,11.48,28,17.24.61.37,1.09.42,1.57-.11.93-1,1.79-1,2.67.09.72.9,1.22.76,1.82-.26a59.45,59.45,0,0,1,4.66-7.3c2.78-3.45,6.76-4.76,11-5.32a13.91,13.91,0,0,1,5.63.94,23.68,23.68,0,0,0,2.41.64,8.54,8.54,0,0,0,4.06,1.15,1.57,1.57,0,0,0,1.81-.88,6.67,6.67,0,0,1,3-2.94c1.67-.79,3.52-1.5,4.1-3.58a4.51,4.51,0,0,0,.87-3.37c.08-1.3.17-2.6.25-3.9.43-.23.92-.36,1.09-.9.49-1.58,1.75-2.24,3.19-2.76.94-.34,2-.49,2.62-1.45l0,0a1,1,0,0,0,.88-.57l.32-.34a6.12,6.12,0,0,0,2.05-1.77,2,2,0,0,0,.95-.94,1,1,0,0,0,.6-.84,3.06,3.06,0,0,0,.93-1.18,1.72,1.72,0,0,0,.85-1A12.21,12.21,0,0,0,314.09,118.42Z"/><path class="cls-2" d="M117.52,228.76c-3.33.4-6.72.63-9.92-.49a14.54,14.54,0,0,1-8.39-7.44,5.11,5.11,0,0,1-.19-3.68c.74-2.63.48-5.34,1-8,.81-4,1.38-8,2-12,.74-4.52,1.83-9,2.39-13.54.29-2.43.94-4.87,1.48-7.3a5.35,5.35,0,0,0,.09-2.21,8.24,8.24,0,0,1,1.26-5.78,4.76,4.76,0,0,0,.92-2.65c-.22-3.82.78-7.53,1.26-11.28.46-3.55.55-7.16,1.39-10.66a34.48,34.48,0,0,1,2.74-7.4,1.87,1.87,0,0,1,1-1,2.48,2.48,0,0,0,1.57-2.77,31.23,31.23,0,0,0-.1-4.93,1.35,1.35,0,0,1,.61-1.54c2.2-1.54,3.66-3.79,5.3-5.83a33.58,33.58,0,0,1,7.42-7.11,10.92,10.92,0,0,0,2.19-2.42c2.41-3,5.61-5.08,8.54-7.48a3.38,3.38,0,0,0,1.39-1.85A12.22,12.22,0,0,0,147,98.14a4.46,4.46,0,0,1,2.6-1.3c.12.09.22.22.35.26,1.47.44,5.19-1.8,6.09-3.15.34-.5-.05-.86-.53-1-.83-.17-1.34-.82-2-1.22s-.61-.64-.19-1.18c1.21-1.5,2.28-3.11,3.56-4.54.61-.69,1.17-1.86,2.27-1.69a3.92,3.92,0,0,0,3.36-1.28h.6c.47.46.54.08.6-.29.55-.2,1.11-.37,1.63-.61S166.84,82,167,81c.78-.07,1.56-.31,2.32-.39,2-.21,3.76-1.22,5.77-1.16.59.4,1.15.58,1.51-.28,1.78.36,3.68,0,5.36.89a.55.55,0,0,0,.63.56l.56,0a.57.57,0,0,0,.63.56l.28,0c.05.26.14.49.42.56,2.4.62,4.42,2.27,7,2.49.49,0,1.76.27.41,1.21-.5.35-.27.69.23.82a8.51,8.51,0,0,1,2.94,1.7c.38.3,1,.62,1.21-.11a1.5,1.5,0,0,1,1.25-1.09c-.51-.64-1-1.34-1.55-2a7.13,7.13,0,0,0-3.48-2.45,1.71,1.71,0,0,1-1.19-.61.85.85,0,0,0-.91-.88l-.29,0c0-.58-.46-.6-.89-.6-.44-.25-1-.36-1.21-.89L188,78h.84c.11.36.21.7.63.25,2.22,0,4.17,1.08,6.29,1.5.65,1,1.35,1.88,2.71,1.79l.87,0c.36,1.19,1.4,1.09,2.31,1.15,2.48.17,4.86-.72,7.34-.78a3.42,3.42,0,0,0,2.36-.71h.9c3.52.48,6.84,1.77,10.27,2.62a8.65,8.65,0,0,0-5.17-2.33,1.25,1.25,0,0,1,1-1.17,6.1,6.1,0,0,1,5.15.61,3.41,3.41,0,0,0,3.14.39c2.12-.76,3.89-.52,5.29,1.39.29.4.86.89,1.23.38.69-.93,1.26-.37,1.9-.09a3.58,3.58,0,0,0,1.53.58c.33,0,.77.16.95-.21s-.27-.56-.53-.75a35.76,35.76,0,0,0-3.67-2.53c-2.44-1.28-4.82-2.26-6.77.1a1.35,1.35,0,0,1-1.79.2,11.13,11.13,0,0,0-7.72-.61c-.73.17-1.75.08-2.11,1.1-.92.18-1.77-.37-2.68-.29l-1.52-.31h-.54c-2.19-.6-4.43-.9-6.66-1.28-5.92-1-11.93-1-17.87-1.67-1.72-.21-3.44.45-5.19.27-1.22,0-2.45-.06-3.67-.12-.65,0-1.49-.1-1.24-1a3.45,3.45,0,0,1,5.12-2,6.39,6.39,0,0,0,2.81.75c3.49.24,6.89-.73,10.36-.65a.62.62,0,0,0,.71-.59h.9c0,.43.3.68.69.58a19,19,0,0,1,3.68-.33c.28,0,.38-.28.42-.54h3c0,.24.07.5.38.54s.47-.23.52-.54h2.1c.76.37,1.53.71,2.09-.31,2.1-.26,4.2.15,6.29,0,.5.94,1,.94,1.51,0H217c.06.32.2.55.56.57a19.87,19.87,0,0,1,3.36.17c.06,0,.19-.29.28-.45H223l4.19.33c0,.21.05.5.36.43.11,0,.17-.28.25-.43h.88c0,.41,0,.84.6.84s.6-.4.62-.81l1.49.25c.78.8,3.34,1.09,4.16.46,0,0,0-.09,0-.14h.59c.5.88.79.94,1.2.26a46.68,46.68,0,0,1,5,.49,68.51,68.51,0,0,1,7.28,1.32,6.7,6.7,0,0,0,3.59,2.39h0c0,.43,0,.87.61.89h0c-.06,1,.43,1,1.14.64a1.56,1.56,0,0,1,.92.91c-.08.24-.26.5-.21.7.28,1.09.6,2.15-.72,2.84a.41.41,0,0,0,0,.66c1,.89,1.15,2.19,1.58,3.34,1,2.77,1.89,5.6,1.23,8.63a1.48,1.48,0,0,0,.14,1.16,11.1,11.1,0,0,1,1.06,2.92c.19.62.28,1.41,1.15,1.58a6.18,6.18,0,0,1,1.79,3c-.45.47-.08.54.3.61a2.4,2.4,0,0,1,.31,1.49c-.09.12-.27.25-.25.35.55,3,.77,6.1,3,8.53a25.14,25.14,0,0,1,3.84,4.68c1.14,2.09,2.64,4,3.41,6.28.43,1.29.58,2.58,1.92,3.27.4.21.77.81,1.27.23a1,1,0,0,0,0-1.35,5.2,5.2,0,0,1-1-2.16,1.39,1.39,0,0,1,1.13-1.78c.92-.18,1.34.46,1.38,1.34,0,.4,0,.8,0,1.2s.08.62.48.62.68-.25.63-.51c-.24-1.31.87-2,1.28-3,0-.54-.1-1.07-.16-1.61a10,10,0,0,1,.16-4.68.93.93,0,0,1,.92.8c.27,1,.61,2,.85,3s.54,1.52,1.62,1a1.1,1.1,0,0,1,.7-.13c1.28.37,1.17-.55.88-1.14a6.91,6.91,0,0,1-.48-3.19v-9a1,1,0,0,0,0-1.5v-.9c1.45-.78,1.83-.57,1.78,1.16a20.22,20.22,0,0,0,.92,4.83c.38,3.34-.8,6.57-.6,9.9-.92.3-.65,1-.74,2a3.34,3.34,0,0,0,1-2q.6-2.68,1.21-5.39c.9-.14,1.2-.72,1.2-1.57,0-.41-.16-1,.47-1.08a1.07,1.07,0,0,1,1.12.56.91.91,0,0,1-.26,1.31c-1.65,1.25-1.12,2.82-.74,4.38a11.48,11.48,0,0,1,0,1.76c-.25,1.74.29,2.93,2.12,3.33a1.77,1.77,0,0,0,1.49,1.51c.34.89,1.79,1.09,1.49,2.39-.86,1.34-.28,2.93-.71,4.31a61.48,61.48,0,0,1-2.71,7.5c-1.48,3.21-2.26,3.47-5.73,2.9-.34,0-.69,0-1-.06.09-1.4,1.19-.91,1.79-.77a1.57,1.57,0,0,0,1.79-.57,14.75,14.75,0,0,0,3.52-5.86c.7-2.26.71-4.68,1.81-6.85a1.37,1.37,0,0,0-1-2.08,5.17,5.17,0,0,1-3.11-1.83,2.65,2.65,0,0,0-2.85-.79,10,10,0,0,1-2.46.39c-1.46,0-3.14-.46-3.82,1.55-.08.23-.52.31-.69.54-.52.67-1.67.57-2,1.24-.76,1.67-2.37,2.83-2.48,4.94-.15,3-.48,5.87,1.13,8.57-4.26.56-8.24,1.87-11,5.32a59.45,59.45,0,0,0-4.66,7.3c-.6,1-1.1,1.16-1.82.26-.88-1.09-1.74-1.1-2.67-.09-.48.53-1,.48-1.57.11-9.33-5.76-18.68-11.48-28-17.24a14,14,0,0,1-2.2-2q-5.93-5.82-11.83-11.68a5.81,5.81,0,0,0-2.23-1.41c-3.58-1.23-7.22-2.33-10.67-3.86-3.94-1.74-8.15-2.06-12.24-3-2.38-.54-4.74-1.14-7.11-1.7a35.21,35.21,0,0,0-8.16-.86,8.08,8.08,0,0,0-7.22,4,4.76,4.76,0,0,1-2,1.84c-2.52,1.32-5,2.76-7.39,4.23a10.84,10.84,0,0,1-3.46,1.7,1.42,1.42,0,0,0-.67.3c-3.85,3.44-7.66,6.88-8.46,12.43-.23,1.58-1.34,2.86-2.09,4.26a12.45,12.45,0,0,0-1.22,2.38c-1.16,4.11-4.08,6.79-7.45,9-3.17,2.09-4.67,5.25-5.78,8.61-.77,2.35-1.72,4.63-2.48,7a16.26,16.26,0,0,0-1,7,82.45,82.45,0,0,1,.34,14.05c-.18,3.21-.51,6.44-.83,9.65-.51,5.06.69,9.79,2.33,14.48,1.09,3.09,2,6.27,3.84,9,.46.68.17.91-.47,1.13a12.49,12.49,0,0,1-3.38.48c0-.55.51-.54.86-.67,1.74-.61,1.82-.78,1.1-2.52-1.56-3.82-3.48-7.5-4.21-11.64a53.57,53.57,0,0,1-1.07-7.35c-.23-6.46,1.19-12.85.64-19.32-.15-1.78.13-3.6-.35-5.35-.79-2.87.06-5.66.79-8.31a107.24,107.24,0,0,1,4.08-11,18.24,18.24,0,0,1,1.81-3.4c.95-1.43,2.91-1.84,3.4-3.64.07-.25.43-.19.67-.08.86.36,1.37-.25,2-.68,1.57-1.1,2.16-2.91,3.18-4.38.52-.74,1-2.14.67-2.7-.9-1.43-.05-2.48.47-3.42a25.71,25.71,0,0,1,2.68-4.38,4.09,4.09,0,0,0,1-2.58,5.91,5.91,0,0,1,1.35-3.53,16.36,16.36,0,0,1,5.17-5,1,1,0,0,0,.63-.94.83.83,0,0,0-.89-.67c-2.24.19-4.45-.68-6.68-.24a12.67,12.67,0,0,1-4.16.11,10.83,10.83,0,0,0-3.68,0,6.9,6.9,0,0,1-4.49-.45,1.85,1.85,0,0,0-1.57-.27c-1.65.64-3.42.49-5.13.74a26.85,26.85,0,0,1-4.75.35c-.88,0-1.06.51-.74,1.33a3.66,3.66,0,0,0,2.21,2.27c.76.27,1.12.61.17,1.27-.68.47-1.46,1.57-.9,2.11,1.09,1,.12,1.48-.26,2.05a6.33,6.33,0,0,0-1.35,2.29,4.08,4.08,0,0,1-1.72,2.7c-1.53,1.19-1.69,3.39-3.36,4.44-.06,0-.07.19-.08.29a43.88,43.88,0,0,0-.32,5.5c.07.82.09,1.26,1.24.87a1.74,1.74,0,0,1,2.33,1.17c.14.68.52.87,1.06,1.06s1,.26.94.82a1.45,1.45,0,0,1-1.09,1.12c-2.14.73-2.84.45-4.07-1.5-.12-.19-.21-.47-.56-.33a1.8,1.8,0,0,0,0,1.42,2.75,2.75,0,0,1-.12,2c-1.35,2.57-.72,5.58-1.83,8.22-.17.39.11,1,.16,1.45.15,1.45.62,2.89-.3,4.29a2.44,2.44,0,0,0,0,2.93,1.54,1.54,0,0,1-.11,1.71,1.65,1.65,0,0,0-.34,1.11c.16,3.37.15,3.41-1.06,6.75a.58.58,0,0,0,0,.43c1,2-.4,3.73-.41,5.62a8.58,8.58,0,0,1-1.14,3.45c-.41.91-1.78,1.08-1.56,2.15a3.92,3.92,0,0,1-.75,3.24c-.76,1.17.53,2.75.14,4.2,1.59,1.2,0,2.51.13,3.76-2,.42-1.59,2.23-2,3.57a5.9,5.9,0,0,1-.34.82c-.54,1.07-.9,2.08.11,3.15.47.51,0,1.18-.34,1.61-1.51,1.79-1.58,2.78-.5,4.75.59,1.05,1.48,2,1.92,3,1,2.31,3.1,2.93,5,3.88,2.47,1.22,5.16.85,7.78.91C116.4,228.46,117,228.21,117.52,228.76ZM246.22,85.52c-.79-.58-1.34-.86-2-.49a.39.39,0,0,0,0,.38C244.72,86,245.32,85.81,246.22,85.52ZM112.69,152.67a1,1,0,0,0-.45.75c0,.24.17.35.37.33a.66.66,0,0,0,.66-.65C113.28,152.82,113.12,152.65,112.69,152.67Zm-9,52.6c.24-.06.29-.29.29-.55s-.13-.5-.42-.49-.45.32-.41.63S103.34,205.32,103.71,205.27ZM248.3,86.14c.08,0,.18.12.24.1s.08-.16.11-.24-.18-.12-.24-.1S248.33,86.06,248.3,86.14Z"/><path class="cls-2" d="M117.52,228.76c-.48-.55-1.12-.3-1.69-.31-2.62-.06-5.31.31-7.78-.91-1.9-.95-4-1.57-5-3.88-.44-1-1.33-1.94-1.92-3-1.08-2-1-3,.5-4.75.36-.43.81-1.1.34-1.61-1-1.07-.65-2.08-.11-3.15a5.9,5.9,0,0,0,.34-.82c.4-1.34,0-3.15,2-3.57-.1-1.25,1.46-2.56-.13-3.76.39-1.45-.9-3-.14-4.2a3.92,3.92,0,0,0,.75-3.24c-.22-1.07,1.15-1.24,1.56-2.15a8.58,8.58,0,0,0,1.14-3.45c0-1.89,1.38-3.67.41-5.62a.58.58,0,0,1,0-.43c1.21-3.34,1.22-3.38,1.06-6.75a1.65,1.65,0,0,1,.34-1.11,1.54,1.54,0,0,0,.11-1.71,2.44,2.44,0,0,1,0-2.93c.92-1.4.45-2.84.3-4.29-.05-.49-.33-1.06-.16-1.45,1.11-2.64.48-5.65,1.83-8.22a2.75,2.75,0,0,0,.12-2,1.8,1.8,0,0,1,0-1.42c.35-.14.44.14.56.33,1.23,1.95,1.93,2.23,4.07,1.5a1.45,1.45,0,0,0,1.09-1.12c.06-.56-.54-.67-.94-.82s-.92-.38-1.06-1.06a1.74,1.74,0,0,0-2.33-1.17c-1.15.39-1.17,0-1.24-.87a43.88,43.88,0,0,1,.32-5.5c0-.1,0-.25.08-.29,1.67-1,1.83-3.25,3.36-4.44a4.08,4.08,0,0,0,1.72-2.7,6.33,6.33,0,0,1,1.35-2.29c.38-.57,1.35-1,.26-2.05-.56-.54.22-1.64.9-2.11.95-.66.59-1-.17-1.27a3.66,3.66,0,0,1-2.21-2.27c-.32-.82-.14-1.36.74-1.33a26.85,26.85,0,0,0,4.75-.35c1.71-.25,3.48-.1,5.13-.74a1.85,1.85,0,0,1,1.57.27,6.9,6.9,0,0,0,4.49.45,10.83,10.83,0,0,1,3.68,0,12.67,12.67,0,0,0,4.16-.11c2.23-.44,4.44.43,6.68.24a.83.83,0,0,1,.89.67,1,1,0,0,1-.63.94,16.36,16.36,0,0,0-5.17,5,5.91,5.91,0,0,0-1.35,3.53,4.09,4.09,0,0,1-1,2.58,25.71,25.71,0,0,0-2.68,4.38c-.52.94-1.37,2-.47,3.42.35.56-.15,2-.67,2.7-1,1.47-1.61,3.28-3.18,4.38-.61.43-1.12,1-2,.68-.24-.11-.6-.17-.67.08-.49,1.8-2.45,2.21-3.4,3.64a18.24,18.24,0,0,0-1.81,3.4,107.24,107.24,0,0,0-4.08,11c-.73,2.65-1.58,5.44-.79,8.31.48,1.75.2,3.57.35,5.35.55,6.47-.87,12.86-.64,19.32a53.57,53.57,0,0,0,1.07,7.35c.73,4.14,2.65,7.82,4.21,11.64.72,1.74.64,1.91-1.1,2.52-.35.13-.83.12-.86.67l-.59.08a8.16,8.16,0,0,0-5.33.6s0,.18-.08.28Z"/><path class="cls-2" d="M309.3,124.36a2,2,0,0,1-.95.94,2.36,2.36,0,0,0-2.05,1.77l-.32.34c-.43,0-.84,0-.88.57l0,0c-1.27.13-2.23,1.21-3.55,1.19-.15-1.17-.66-1.25-1.54-.57a4.43,4.43,0,0,0-.83,1c-.59.77-1.09.83-1.52-.12a65.87,65.87,0,0,0-1.81-10.06c-.46-2.08-1.49-4-1.78-6.13.44-.47.06-.53-.3-.6a10.8,10.8,0,0,0-.95-2.46,158.16,158.16,0,0,0-9-17.23A73.94,73.94,0,0,1,280,86.36a3.64,3.64,0,0,1,2.29.54,7.35,7.35,0,0,0,3.1,1h.3A10.94,10.94,0,0,0,292.5,92c.63.1,1.42-.15,1.85.36,1.2,1.39,3,1.4,4.48,2h0a.84.84,0,0,0,.89.9l.91,1.2c0,.44,0,.87.59.9a.56.56,0,0,0,.61.6h0c-.32,1,.81,1.52.91,2.4a19.18,19.18,0,0,1,.31,2.65c-.1,1.54,1.29,2.52,1.56,3.94,0,.2.29.23.5.15.92-.36,1.26.31,1.61.92.77,1.33,1.48,2.7,2.31,4,1,1.57,1.76,1.56,2.66,0,.62-1.09,1.59.21,2.25-.45.15-.15.44.17.46.44.08,1.42.33,2.8-.55,4.16a19.12,19.12,0,0,1-2.51,3.45c-.57.58-1.39,1.59-.5,2.67a3.06,3.06,0,0,1-.93,1.18C309.33,123.53,309.28,123.92,309.3,124.36Zm-7.51-20.81c-.06-.3-.17-.58-.54-.58s-.3.22-.27.43a.56.56,0,0,0,.45.52C301.67,104,301.76,103.77,301.79,103.55Z"/><path class="cls-2" d="M195,61.42c2.37-2,5.35-2.24,8.18-2.89a55.92,55.92,0,0,1,7-1.36c.49-.05,1.12-.05,1.42-.34,2-2,4.56-1.49,6.9-1.24,3.9.41,7.77,1.14,11.65,1.74.1.63.61.77,1.1.82,3.45.35,6.73,1.54,10.16,2.05,4.94.74,9.71,2.29,14.62,3.19,1,.19,2.09.19,2.86,1,0,.69.64.69,1.07.84,2.38.85,4.77,1.69,7.17,2.48,1,.34,1.87,1.11,3.19,1-.6-.72-1.58-.63-2-1.37a27,27,0,0,1,4-1c.94-.11,2.45-.72,2.52,1.22a.57.57,0,0,0,.24.32c1.65-.7,2.68,1,4.15,1a4.43,4.43,0,0,1,2.06.25c.93.45,1.82,1.3,3,.4a.81.81,0,0,1,.82.13c.77,1.11,2.18,1.59,2.75,2.88.27.6.87,1.27-.56,1-1-.2-1,.89-1.52,1.4a.49.49,0,0,0,.09.78,1.37,1.37,0,0,0,1.78.1,1.28,1.28,0,0,1,1.76,0,4.67,4.67,0,0,0,1.5.6c.62.19,1.41.28,1.59,1.14-.81,0-1.41.31-1.47,1.15a5,5,0,0,0,.84,3.8c2.7,3.45,4.86,7.26,7.29,10.89.32.49.3.85-.37,1h0c-.18-1-1.18-1.45-1.57-2.29-1.63-3.51-4.17-6.43-6.32-9.59s-5.36-5.4-8.74-7.2c-2.3-1.22-4.47-2.76-7.14-3.22A1.3,1.3,0,0,1,274,71.08c.21-.07.58,0,.43-.4s-.5-.19-.78-.2h-.22c-.2-1.12-1.16-1.11-1.93-1.45-.21.61.33.78.4,1.15a6.87,6.87,0,0,1-4-1.42c-.38-.27-.78-.79-1.28-.35-.81.72-1.65.4-2.51.23-.3,0-.87-.37-.84.13.08,1.29-.66,1.2-1.57,1.38-.42.09-1.39,0-1.51.9-.47-.37-1.1-.22-1.6-.69a10.8,10.8,0,0,0-3.44-2c-3.61-1.44-7.43-2.15-11.12-3.28a57.17,57.17,0,0,0-9.33-1.73c-.29,0-.62-.13-.73.26,0,0,.28.19.44.29A1.25,1.25,0,0,1,232.94,65c-.88-.1-1.88-.29-2.15-1.43.3-.38,0-.49-.28-.55-.42-.11-.58.16-.61.54-2.08.22-4.11-.4-6.18-.3-1.47.07-2.68,1.07-2.5,2.06a7.18,7.18,0,0,1-3-1.09c-1.27-.69-2.23-2-4-1.71a6.45,6.45,0,0,1-1.59.13c-.68-.07-1.41.21-2-.2a.31.31,0,0,1,0-.51,3.63,3.63,0,0,1,2-.09c1.89.2,3.69-.57,5.57-.48a.43.43,0,0,0,.42-.52c0-.24-.27-.26-.46-.28s-.6,0-.9,0c.71-1.16,2-1,3.1-1.43.36-.14,1-.07.93-.55,0-.66-.7-.38-1.08-.38a89.05,89.05,0,0,0-11.78.3c-2.25.31-4.65.2-6.67,1.27C199.62,60.91,197.17,60.47,195,61.42Zm36.89,2.16c.09-.12.24-.22.23-.3a.37.37,0,0,0-.26-.24c-.19,0-.39.07-.33.31C231.58,63.44,231.76,63.49,231.91,63.58Z"/><path class="cls-2" d="M292.54,77.66c-.18-.86-1-1-1.59-1.14a4.67,4.67,0,0,1-1.5-.6,1.28,1.28,0,0,0-1.76,0,1.37,1.37,0,0,1-1.78-.1.49.49,0,0,1-.09-.78c.48-.51.55-1.6,1.52-1.4,1.43.28.83-.39.56-1-.57-1.29-2-1.77-2.75-2.88a.81.81,0,0,0-.82-.13c-1.15.9-2,0-3-.4A4.43,4.43,0,0,0,279.3,69c-1.47,0-2.5-1.73-4.15-1a.57.57,0,0,1-.24-.32c-.07-1.94-1.58-1.33-2.52-1.22a27,27,0,0,0-4,1c.44.74,1.42.65,2,1.37-1.32.06-2.19-.71-3.19-1-2.4-.79-4.79-1.63-7.17-2.48-.43-.15-1.05-.15-1.07-.84,1.66-.16,3,.9,4.53,1.23,2.52,1.7,5.06.71,7.29-.39a9.64,9.64,0,0,1,6.33-1.2c.32.06.74.27.9-.19s-.28-.45-.49-.64c-1.28-1.14-3-1.26-4.5-1.87-1.93-.79-3.53-2.26-5.64-2.6l-.61-.89c0-1.4-1.1-2.2-1.88-3.1-1.39-1.62-2.31-3.72-4.69-4.69.51,1.44.08,3,1.8,3.79a1.44,1.44,0,0,1,.88,1.3c-1.59-.5-3.29-.87-3.54-3a1.94,1.94,0,0,0-.84-1.34,4.06,4.06,0,0,1-2-2.81c-.09-.87-1.59-1.39-1.81-.77-.54,1.5-2,1.23-2.92,1.51-3.45,1-7.06,1.44-10.44,2.8a9.35,9.35,0,0,1-2.85.83c1.71-1.74,4-2.2,6.24-2.8a13,13,0,0,0,3.41-.89c1.79-1.06,3.82-1.34,5.71-2.06a4,4,0,0,1,3.71.32c2.84,1.84,5.79,3.52,8,6.22a2.59,2.59,0,0,0,1.46.87,24.68,24.68,0,0,1,7.21,3.75c6.67,4.4,13.24,9,20.73,12,4.76,2,9.51,4.1,13.51,7.51,1.74,1.48,3.55,2.89,5.3,4.35,1.93,1.61,2.71,3.92,3.52,6.14,1.9,5.21,2.76,10.67,3.87,16.07a32.88,32.88,0,0,1,.6,4.28c.08,1.25-.86,1.9-1.64,2.63-.11-.63.38-1,.65-1.45s.71-1,.55-1.65c-.33-1.33-.15-2.77-.87-4-.82-4.5-1.38-9.07-3.43-13.26a2.68,2.68,0,0,1-.16-.86,11.44,11.44,0,0,0-5.64-8.9c-.23-.14-.51-.4-.8-.15s-.09.46,0,.69c.36,1.11.7,2.23,1.1,3.32.11.29.33.56,0,.76s-.51-.09-.72-.32c-.62-.64-1.16-1.33-1.85-1.92-1.38-1.21-2.64-2.56-3.92-3.89a2.09,2.09,0,0,0-1.41-.62c-1.57-.23-3.31.39-4.64-1.28a4.27,4.27,0,0,0-2.64-1.61.8.8,0,0,0,.38,1.11c.94.53,1,1.54,1.41,2.36.18.36.33.82-.1,1.07s-.67-.17-1-.47c-1.13-1.21-2.33-2.33-4.19-2.09ZM267.44,55c0,.91.79,1,1.05,1.49.91,1.88,2.68,2.66,4.48,3.38.36.14.84.25,1.1-.12s-.19-.65-.39-.89C272.05,56.92,269.83,55.92,267.44,55Z"/><path class="cls-2" d="M266.75,57.89l.61.89a1.35,1.35,0,0,0,0,.45c.41,1.21.17,1.62-1.28,1.74s-2.61,1.08-3.78,2.66c1.83-.58,2.89.19,4,.85a.72.72,0,0,1,.37.89c-.14.35-.49.24-.76.31-.82.21-1.62-.38-2.43,0-1.54-.33-2.87-1.39-4.53-1.23-.77-.86-1.89-.86-2.86-1-4.91-.9-9.68-2.45-14.62-3.19-3.43-.51-6.71-1.7-10.16-2.05-.49,0-1-.19-1.1-.82,3.25-.82,5.55-3.23,8.29-4.91a9.35,9.35,0,0,0,2.85-.83c3.38-1.36,7-1.79,10.44-2.8,1-.28,2.38,0,2.92-1.51.22-.62,1.72-.1,1.81.77a4.06,4.06,0,0,0,2,2.81,1.94,1.94,0,0,1,.84,1.34c.25,2.12,1.95,2.49,3.54,3h0v.32C263.9,56.7,265.45,57.1,266.75,57.89Z"/><path class="cls-2" d="M276.05,145.05c-1.61-2.7-1.28-5.61-1.13-8.57.11-2.11,1.72-3.27,2.48-4.94.31-.67,1.46-.57,2-1.24.17-.23.61-.31.69-.54.68-2,2.36-1.57,3.82-1.55a10,10,0,0,0,2.46-.39,2.65,2.65,0,0,1,2.85.79,5.17,5.17,0,0,0,3.11,1.83,1.37,1.37,0,0,1,1,2.08c-1.1,2.17-1.11,4.59-1.81,6.85a14.75,14.75,0,0,1-3.52,5.86,1.57,1.57,0,0,1-1.79.57c-.6-.14-1.7-.63-1.79.77l-.34.06a23.68,23.68,0,0,1-2.41-.64A13.91,13.91,0,0,0,276.05,145.05Z"/><path class="cls-2" d="M195.44,74.07h-.9a4.22,4.22,0,0,1-1.89-.77c1.23-.19,2.2-.32,3.15-.52.37-.07.83-.22.76-.75s-.43-.63-.86-.65-.6,0-.9,0a12.14,12.14,0,0,1-6-1.57,2.36,2.36,0,0,0-1.43-.19A7.65,7.65,0,0,1,182,67.18c.52,0,1.09-.16,1.54.33a.6.6,0,0,0,1-.11c.51-.7,1.31-.67,2-.8a34.65,34.65,0,0,1,6.83-.32c-.12.74-.69.58-1.17.59-.9,0-1.79,0-2.69,0-.28,0-.68-.1-.76.28s.33.52.67.61c1.8.51,3.6,1.06,5.42,1.52.72.19,1.28,1.11,2.16.55a2.61,2.61,0,0,1,2.16-.17c2.88.76,5.69,1.87,8.73,1.9,1.85,0,3.87.52,5.5-.06,2.07-.74,4.24-.05,6.2-1,.39-.2,1.19.1,1.16-.58s-.77-.62-1.32-.65c-.94,0-2.07.25-2.78-.18a18.35,18.35,0,0,0-3.43-1.29c-3-1-6.13-.56-9.08-1.47a3.38,3.38,0,0,0-2.48.2c-2.42,1.2-4.93.7-7.41.24-.12,0-.19-.32-.29-.48a17,17,0,0,0,3.84-.32c.48-.08,1.31.35,1.36-.39,0-.55-.8-.79-1.32-1a.6.6,0,0,0-.86.35.72.72,0,0,1-1.09.41c-.66-.56-1.31-.17-2-.23-1.3-.13-2.55.6-3.84.24a4.31,4.31,0,0,0-2.77,0c-1.18.42-1.86,0-2.08-1.24a13.75,13.75,0,0,1,5.06-1,7.85,7.85,0,0,0,4.23-1.42,2.15,2.15,0,0,0,3.28,0c.51-.65,1.1-.71,1.43-.19.42.68.95.58,1.51.59,1.14,0,2.27,0,3.4,0,.1.16.21.48.28.47,1.95-.24,3.66.75,5.51,1,.47.07,1.17-.14,1.23.5s-.66.65-1.11.75a17.89,17.89,0,0,1-5.93.08c-.42-.06-1-.36-1.07.32s.58.34.92.46c2.86,1,5.86-.72,8.75.54,1.09.48,2.5.21,3.63.64,4.54,1.7,9.35,2.17,14,3.3,4.34,1,8.9,1.15,13,3.22a49.49,49.49,0,0,0,5.57,2,4.87,4.87,0,0,1-2.74-.14c-4.73-.74-9.58-.77-14.15-2.61a16.58,16.58,0,0,0-5.84-.91c-1.17,0-2.17,1-3.18,1.72-.05,0,0,.19,0,.29h-1.8l-.9-.3c.09-.17.14-.41.28-.49.43-.26,1.43,0,1.31-.61-.14-.81-1.08-.37-1.66-.38-4.39-.1-8.73,1.06-13.15.58-.65-.07-.91.28-.87.89v.32h-6A6.82,6.82,0,0,0,195.44,74.07Z"/><path class="cls-2" d="M182,67.18a7.65,7.65,0,0,0,5.39,2.43,2.36,2.36,0,0,1,1.43.19,12.14,12.14,0,0,0,6,1.57c.3,0,.6,0,.9,0s.81.16.86.65-.39.68-.76.75c-1,.2-1.92.33-3.15.52a4.22,4.22,0,0,0,1.89.77.62.62,0,0,1-.71.59c-3.47-.08-6.87.89-10.36.65a6.39,6.39,0,0,1-2.81-.75,3.45,3.45,0,0,0-5.12,2c-.25.9.59,1,1.24,1,1.22.06,2.45.08,3.67.12-.4.18-.81.53-1.2.51-2.95-.09-5.77.93-8.69,1-.09-1,1.26-1,1.48-2.39-1.92,1.16-4.08.73-5.62,2.17a11.43,11.43,0,0,1-2.17,1.55,5.22,5.22,0,0,0-1.78,2.55,3.92,3.92,0,0,1-3.36,1.28c-1.1-.17-1.66,1-2.27,1.69-1.28,1.43-2.35,3-3.56,4.54-.42.54-.37.85.19,1.18s1.19,1,2,1.22c.48.11.87.47.53,1-.9,1.35-4.62,3.59-6.09,3.15-.13,0-.23-.17-.35-.26.29-.33.59-.65.85-1s.8-.5.43-.92-.69.07-1,.27c-.88.57-1.49.56-1.47-.72a12.47,12.47,0,0,0,2.91-3.35,35.59,35.59,0,0,1,10.12-11.24c3.94-2.82,7.29-6.34,11.19-9.2.4-.29.82-.54,1.24-.81,2.33-.37,4.12-2,6.3-2.69Z"/><path class="cls-2" d="M320.41,103.74c.72,1.25.54,2.69.87,4,.16.65-.23,1.13-.55,1.65s-.76.82-.65,1.45l-.3.36a1.79,1.79,0,0,0-1.5,1.73l-.32.37c-1.77,1.08-2.57,3-3.8,4.51-.1.13-.05.38-.06.58h0a4.22,4.22,0,0,0-2.41,2.9,1.72,1.72,0,0,1-.85,1c-.89-1.08-.07-2.09.5-2.67a19.12,19.12,0,0,0,2.51-3.45c.88-1.36.63-2.74.55-4.16,0-.27-.31-.59-.46-.44-.66.66-1.63-.64-2.25.45-.9,1.59-1.65,1.6-2.66,0-.83-1.29-1.54-2.66-2.31-4-.35-.61-.69-1.28-1.61-.92-.21.08-.46,0-.5-.15-.27-1.42-1.66-2.4-1.56-3.94a19.18,19.18,0,0,0-.31-2.65,1.7,1.7,0,0,1,.84.81,15.8,15.8,0,0,0,3.5,5c.41.38.63,1.29,1.27,1s.75-1.22.62-2a3.06,3.06,0,0,0-.4-1.12,23.87,23.87,0,0,0-4.77-5.06,3.35,3.35,0,0,0-2-1h0a.55.55,0,0,0-.61-.6c-.61,0-.6-.46-.59-.9A43.69,43.69,0,0,1,305,94.63a2.6,2.6,0,0,1,3.34.52,15.47,15.47,0,0,1,3,4.59c.58,1.36,1.08,2.76,1.66,4.11.67,1.58,1.86,1.71,3.07.53.85-.83.82-1.88,1-2.87a1.13,1.13,0,0,1,1.22-1c.72,0,.89.47.91,1.09C319.25,102.48,319.42,103.35,320.41,103.74Zm-10.26,7.14a.42.42,0,0,0-.44-.51c-.24,0-.53,0-.56.3s.21.44.46.5S310.09,111.15,310.15,110.88Z"/><path class="cls-2" d="M204.12,62.08c-1.13,0-2.26,0-3.4,0-.56,0-1.09.09-1.51-.59-.33-.52-.92-.46-1.43.19a2.15,2.15,0,0,1-3.28,0l.52-.29c2.15-1,4.6-.51,6.78-1.65,2-1.07,4.42-1,6.67-1.27a89.05,89.05,0,0,1,11.78-.3c.38,0,1-.28,1.08.38,0,.48-.57.41-.93.55-1.06.4-2.39.27-3.1,1.43l-1.49,0c-.51-.42-1-.52-1.21.27l-7.78.92c-.21-.3-.4-.29-.6,0Z"/><path class="cls-2" d="M284.09,146.63l.34-.06c.35,0,.7,0,1,.06,3.47.57,4.25.31,5.73-2.9a61.48,61.48,0,0,0,2.71-7.5c.43-1.38-.15-3,.71-4.31.79.89-.17,2.13.62,3-.11,2.27-1.52,4-2.29,6-.2.53-.8,1.17-.13,1.59a1.5,1.5,0,0,0,2-.57,4.41,4.41,0,0,0,1-2.6c0-1.39.7-1.58,1.78-1.5,0,.87-.67,1.59-.51,2.48-.58,2.08-2.43,2.79-4.1,3.58a6.67,6.67,0,0,0-3,2.94,1.57,1.57,0,0,1-1.81.88A8.54,8.54,0,0,1,284.09,146.63Z"/><path class="cls-2" d="M182,67.18h-1.8l-.38-.35,5.44-2.73c.22,1.22.9,1.66,2.08,1.24a4.31,4.31,0,0,1,2.77,0c1.29.36,2.54-.37,3.84-.24.65.06,1.3-.33,2,.23a.72.72,0,0,0,1.09-.41.6.6,0,0,1,.86-.35c.52.25,1.36.49,1.32,1,0,.74-.88.31-1.36.39a17,17,0,0,1-3.84.32h-.59a34.65,34.65,0,0,0-6.83.32c-.7.13-1.5.1-2,.8a.6.6,0,0,1-1,.11C183,67,182.47,67.23,182,67.18Z"/><path class="cls-2" d="M148.39,94.47c0,1.28.59,1.29,1.47.72.31-.2.66-.66,1-.27s-.22.64-.43.92-.56.67-.85,1a4.46,4.46,0,0,0-2.6,1.3,12.22,12.22,0,0,1-5.42,3.21,2.26,2.26,0,0,1,1.34-1.94c1.66-1.06,3.43-2,4.21-4C147.28,95,148,94.78,148.39,94.47Z"/><path class="cls-2" d="M297.64,129.52c.43.95.93.89,1.52.12a4.43,4.43,0,0,1,.83-1c.88-.68,1.39-.6,1.54.57a8.84,8.84,0,0,0-1.62,1,4.55,4.55,0,0,0-1.73,2.91c-.08,1.3-.17,2.6-.25,3.9h-.31c-.75-.75-.6-2.28-2.08-2.39A30.23,30.23,0,0,1,297.64,129.52Z"/><path class="cls-2" d="M298.18,133.11a4.55,4.55,0,0,1,1.73-2.91,8.84,8.84,0,0,1,1.62-1c1.32,0,2.28-1.06,3.55-1.19-.61,1-1.68,1.11-2.62,1.45-1.44.52-2.7,1.18-3.19,2.76C299.1,132.75,298.61,132.88,298.18,133.11Z"/><path class="cls-2" d="M314.1,118.41c0-.2,0-.45.06-.58,1.23-1.53,2-3.43,3.8-4.51A23.09,23.09,0,0,1,314.1,118.41Z"/><path class="cls-2" d="M179.77,66.83l.38.35c-2.18.7-4,2.32-6.3,2.69C175.57,68.37,177.72,67.68,179.77,66.83Z"/><path class="cls-2" d="M118.41,228.74c0-.1,0-.26.08-.28a8.16,8.16,0,0,1,5.33-.6A20.67,20.67,0,0,1,118.41,228.74Z"/><path class="cls-2" d="M311.68,121.32a4.22,4.22,0,0,1,2.41-2.9A12.21,12.21,0,0,1,311.68,121.32Z"/><path class="cls-2" d="M297.62,137h.31a4.51,4.51,0,0,1-.87,3.37c-.16-.89.53-1.61.51-2.48C297.58,137.6,297.6,137.31,297.62,137Z"/><path class="cls-2" d="M306.3,127.07a2.36,2.36,0,0,1,2.05-1.77A6.12,6.12,0,0,1,306.3,127.07Z"/><path class="cls-2" d="M318.28,113a1.79,1.79,0,0,1,1.5-1.73A4.73,4.73,0,0,1,318.28,113Z"/><path class="cls-2" d="M309.3,124.36c0-.44,0-.83.6-.84A1,1,0,0,1,309.3,124.36Z"/><path class="cls-2" d="M305.1,128c0-.58.45-.59.88-.57A1,1,0,0,1,305.1,128Z"/><path class="cls-2" d="M297.64,129.52a30.23,30.23,0,0,0-2.1,5.1l-.3.31c-.79-.88.17-2.12-.62-3,.3-1.3-1.15-1.5-1.49-2.39a1.3,1.3,0,0,0-1.49-1.51c-1.83-.4-2.37-1.59-2.12-3.33a11.48,11.48,0,0,0,0-1.76c.57-.27.9-.92,1.64-1a.53.53,0,0,0,.4-.8c-.56-1.16.08-2.25.15-3.36,0-.52.12-1-.22-1.38-.53-.59-.34-1.1-.14-1.76a2.82,2.82,0,0,0-.87-3.19c-.35-.28-.7-.37-.93.19a18.6,18.6,0,0,0-1.82,7.65q-.62,2.7-1.21,5.39h-.3c-.2-3.33,1-6.56.6-9.9a1,1,0,0,0,.3-.94c-.08-3.19-1-6.34-.35-9.57.1-.55-.33-1.23-.58-1.81-.18-.41-.48-.84-1-.79-.68.06-.41.66-.48,1.06a3.65,3.65,0,0,0-.15,1c.16,1.71-1,3.29-.45,5v.9a1,1,0,0,0,0,1.5v9c-.8,0-1.12-.32-1.22-1.13-.28-2.2-.07-4.51-1.52-6.44-.45-.6-1.21-1.29-1.15-1.86.33-3-1.72-4.27-3.73-5.63-.07,0-.18,0-.27,0-.54.65.11,1.39-.14,2.22-1-.77-.78-2.13-1.7-2.81-.34-.24-.15-1.22-.86-.89a1.4,1.4,0,0,0-.65,1.54c.09.43.31.85.36,1.28.27,2.42,2,4.12,3.22,6a21.65,21.65,0,0,1,3.17,7.46,10,10,0,0,0-.16,4.68c.06.54.14,1.07.16,1.61-.59,0-1.3.21-1.68-.37-.79-1.19-1.91-2.09-2.76-3.23-.25-.33-.23-1-.86-.71s-.36.72-.2,1.16a.91.91,0,0,1-.29,1.2,1,1,0,0,1-1.35-.25c-.31-.32-.75-.61-.87-1-.46-1.52-1.76-2.35-2.7-3.48a48.65,48.65,0,0,1-3.38-4.48,23.24,23.24,0,0,1-3-6.52,2.4,2.4,0,0,0-.31-1.49.61.61,0,0,0-.3-.61,6.18,6.18,0,0,0-1.79-3,8.32,8.32,0,0,0-.15-.87c-.33-1-.73-2-1-3.1-.14-.55-.26-1.27.42-1.6s.93.37,1.35.76c1.09,1,1,2.61,1.84,3.67,2.27,3,4,6.27,6.21,9.23a1.37,1.37,0,0,0,1.53.7c-.83-1.12-.7-2.49-1.49-3.51a33.23,33.23,0,0,1-3.88-6.47c-.77-1.65-1.31-3.64-2.8-4.81-2.06-1.6-2.64-3.63-2.77-6.07a4.61,4.61,0,0,0-1.31-2.77,4.89,4.89,0,0,1-1-5.24c2.24,2.64,3.75,6,7.35,7.34.15-1.16-1.39-1.56-1.12-2.88.27.22.47.31.55.46a13.13,13.13,0,0,0,5,4.84c.28.17.58.48.94.25s.16-.46,0-.67A13.88,13.88,0,0,0,268,90.05a19.65,19.65,0,0,1-4.39-6.56,35.89,35.89,0,0,1-2.71-8.58c-.07-.35-.61-.72-.11-1s.76.13,1.09.32c.91.51,1.8,1.51,2.68,1.49,1.71,0,2.77,1.09,4.13,1.63,1.6.65,2.89,1.94,4.68,2.15h0c0,.8.54.94,1.2.9h0c.15,1.13,1.13,1.27,1.93,1.78.14-.62-.34-.82-.44-1.17a1.16,1.16,0,0,1,1.5-.11c.73.36,1.85,1.24,2.1,1,.69-.56.19-1.64.3-2.5v-.15c0-1,.29-1.09,1.16-.62,1.73.95,2.62,2.68,3.94,4s2.17,3.05,3.39,4.47c.66.76.11.8-.32,1-.85.34-1.64-.22-2.48-.21h-.3a3.44,3.44,0,0,0-2.44-2.53c-.73-.18-1.47-.61-2.23-.74s-1.5-1.44-2-.64.6,1.61,1.16,2.34c0,0,.09,0,.13.07A73.94,73.94,0,0,0,283.83,93a158.16,158.16,0,0,1,9,17.23,10.8,10.8,0,0,1,.95,2.46.57.57,0,0,0,.3.6c.29,2.13,1.32,4,1.78,6.13A65.87,65.87,0,0,1,297.64,129.52Zm-16.79-28c-.63-2.66-.26-5.55-1.79-8a6.76,6.76,0,0,1-.65-2.73c-.2-1.32-.15-2.92-1.12-3.84s-1.89-2-2.87-3a3,3,0,0,0-1.38-.86c-.52-.12-1,.08-.84.68a79.12,79.12,0,0,0,2.61,8.3,42.25,42.25,0,0,1,3,8.18,8.27,8.27,0,0,0,.85,2.51c.3.53.41,1.66,1.24,1.42s.94-1.2,1-2Zm-2.29,3.31c-.58-3.18-3-5.63-2.69-8.95,0-.09-.07-.19-.12-.27-1.4-2.46-2.18-5.24-4-7.49a.9.9,0,0,1-.2-.54c0-1.58-1.57-2.4-1.8-3.86a.44.44,0,0,0-.58-.33.41.41,0,0,0-.27.6c.57,1.47.55,3.06,1.15,4.54.8,2,2.36,3.71,2.61,5.92.41,3.5,2.64,6.11,4.25,9A2.78,2.78,0,0,0,278.56,104.88Z"/><path class="cls-2" d="M273.36,79.46c-1.79-.21-3.08-1.5-4.68-2.15-1.36-.54-2.42-1.67-4.13-1.63-.88,0-1.77-1-2.68-1.49-.33-.19-.73-.55-1.09-.32s0,.69.11,1a35.89,35.89,0,0,0,2.71,8.58A19.65,19.65,0,0,0,268,90.05a13.88,13.88,0,0,1,1.91,2.65c.14.21.23.51,0,.67s-.66-.08-.94-.25a13.13,13.13,0,0,1-5-4.84c-.08-.15-.28-.24-.55-.46-.27,1.32,1.27,1.72,1.12,2.88-3.6-1.32-5.11-4.7-7.35-7.34a2.54,2.54,0,0,0-1.22-1.75,1.56,1.56,0,0,0-.92-.91c-.25-.46-.79-.37-1.14-.64h0a.88.88,0,0,0-.61-.89h0c-1-1-1.9-2.35-3.59-2.39a68.51,68.51,0,0,0-7.28-1.32,46.68,46.68,0,0,0-5-.49,1.69,1.69,0,0,0-1.2-.26h-.59l-4.2-.32-1.49-.25-1.22,0H227.2L223,73.76c0-.1,0-.26,0-.29,1-.69,2-1.74,3.18-1.72a16.58,16.58,0,0,1,5.84.91c4.57,1.84,9.42,1.87,14.15,2.61a4.87,4.87,0,0,0,2.74.14,49.49,49.49,0,0,1-5.57-2c-4.12-2.07-8.68-2.17-13-3.22-4.67-1.13-9.48-1.6-14-3.3-1.13-.43-2.54-.16-3.63-.64-2.89-1.26-5.89.44-8.75-.54-.34-.12-1,.1-.92-.46s.65-.38,1.07-.32a17.89,17.89,0,0,0,5.93-.08c.45-.1,1.16-.13,1.11-.75s-.76-.43-1.23-.5c-1.85-.28-3.56-1.27-5.51-1-.07,0-.18-.31-.28-.47l2.1-.29c.21.3.41.29.6,0l7.78-.92c.43,0,.89.16,1.21-.27l1.49,0c.3,0,.6,0,.9,0s.41,0,.46.28a.43.43,0,0,1-.42.52c-1.88-.09-3.68.68-5.57.48a3.63,3.63,0,0,0-2,.09.31.31,0,0,0,0,.51c.63.41,1.36.13,2,.2a6.45,6.45,0,0,0,1.59-.13c1.73-.25,2.69,1,4,1.71a7.18,7.18,0,0,0,3,1.09l.59,0a1.81,1.81,0,0,0,1.8.32l1.49.3c0,.7.64.81,1,1.17.58.55,1.33.29,2,.49,2.64.8,5.25,1.78,8.09,1.62h.59c.32.45.79.27,1.21.3h.59c1.94.55,4.22.87,5.65,2,2.32,1.82,4.34.36,6.51.36a26.3,26.3,0,0,0-6.07-2c-.5-.1-1.17.23-1.3-.62,2-.36,4.08-.88,5.81.18s3.75,2.18,5.71,3.13a2,2,0,0,0,2,.08c.46-.28.76-.62.09-1.12a26.11,26.11,0,0,0-8.18-4.35,2.54,2.54,0,0,0-1.51-.57l-2.09-.33c-2.13-1.22-4.54-1.41-6.9-1.79h-1.19c-.62-.48-1.43-.31-2.1-.59h-.59c-.16-.1-.46-.24-.44-.29.11-.39.44-.3.73-.26A57.17,57.17,0,0,1,244,65.06c3.69,1.13,7.51,1.84,11.12,3.28a10.8,10.8,0,0,1,3.44,2c.5.47,1.13.32,1.6.69,1.9,1.15,3.78,2.31,5.69,3.45C268.44,76,271.13,77.4,273.36,79.46Zm-27-5.75a22.83,22.83,0,0,0,6,2.14,1.07,1.07,0,0,0,1.33-.69c.15-.66-.59-.89-1-1A13,13,0,0,0,246.33,73.71Zm11.56-2.86c.08,0,.18.12.24.1s.07-.16.11-.24-.18-.11-.24-.09S257.92,70.77,257.89,70.85Zm-.85-.76L256.8,70c0,.09-.12.19-.1.25s.17.12.23.09S257,70.17,257,70.09Z"/><path class="cls-2" d="M279.65,119.93a21.65,21.65,0,0,0-3.17-7.46c-1.22-1.87-3-3.57-3.22-6-.05-.43-.27-.85-.36-1.28a1.4,1.4,0,0,1,.65-1.54c.71-.33.52.65.86.89.92.68.67,2,1.7,2.81.25-.83-.4-1.57.14-2.22.09,0,.2,0,.27,0,2,1.36,4.06,2.63,3.73,5.63-.06.57.7,1.26,1.15,1.86,1.45,1.93,1.24,4.24,1.52,6.44.1.81.42,1.18,1.22,1.13a6.91,6.91,0,0,0,.48,3.19c.29.59.4,1.51-.88,1.14a1.1,1.1,0,0,0-.7.13c-1.08.56-1.39,0-1.62-1s-.58-2-.85-3A.93.93,0,0,0,279.65,119.93Zm.88-.67c.68-1.75-.3-2.79-.6-4a.48.48,0,0,0-.6-.33c-.39.15-.23.47-.13.74C279.59,116.78,280,117.83,280.53,119.26Z"/><path class="cls-2" d="M170.56,79.19c2.92-.09,5.74-1.11,8.69-1,.39,0,.8-.33,1.2-.51,1.75.18,3.47-.48,5.19-.27,5.94.71,12,.66,17.87,1.67,2.23.38,4.47.68,6.66,1.28-.17.1-.33.28-.5.28-3.47.18-7,.16-10.36,1l-.87,0c-.69-.92-1.41-1.8-2.71-1.79-2.12-.42-4.07-1.5-6.29-1.5a.55.55,0,0,0-.63-.25H188c-.55,0-1.14-.21-1.78.26.62.43.95,1.13,1.76,1.19.23.53.77.64,1.21.89a.84.84,0,0,0,.89.6l.29,0a.84.84,0,0,0,.91.88,1.71,1.71,0,0,0,1.19.61c-.11.52.63.77.4,1.44-3-.6-5.76-2.18-8.81-2.62l-.28,0a.52.52,0,0,0-.63-.56l-.56,0a.54.54,0,0,0-.63-.56c-1.68-.89-3.58-.53-5.36-.89-.51,0-1.09-.23-1.51.28-2-.06-3.8,1-5.77,1.16-.76.08-1.54.32-2.32.39.14-.62.71-.61,1.15-.8C168.93,79.86,169.89,79.86,170.56,79.19Z"/><path class="cls-2" d="M255.94,81.61a2.54,2.54,0,0,1,1.22,1.75,4.89,4.89,0,0,0,1,5.24,4.61,4.61,0,0,1,1.31,2.77c.13,2.44.71,4.47,2.77,6.07,1.49,1.17,2,3.16,2.8,4.81a33.23,33.23,0,0,0,3.88,6.47c.79,1,.66,2.39,1.49,3.51a1.37,1.37,0,0,1-1.53-.7c-2.25-3-3.94-6.28-6.21-9.23-.81-1.06-.75-2.64-1.84-3.67-.42-.39-.58-1.14-1.35-.76s-.56,1-.42,1.6c.26,1,.66,2.06,1,3.1a8.32,8.32,0,0,1,.15.87c-.87-.17-1-1-1.15-1.58A11.1,11.1,0,0,0,258,98.94a1.48,1.48,0,0,1-.14-1.16c.66-3-.2-5.86-1.23-8.63C256.16,88,256,86.7,255,85.81a.41.41,0,0,1,0-.66c1.32-.69,1-1.75.72-2.84C255.68,82.11,255.86,81.85,255.94,81.61Z"/><path class="cls-2" d="M262.57,108.54a23.24,23.24,0,0,0,3,6.52,48.65,48.65,0,0,0,3.38,4.48c.94,1.13,2.24,2,2.7,3.48.12.39.56.68.87,1a1,1,0,0,0,1.35.25.91.91,0,0,0,.29-1.2c-.16-.44-.33-.93.2-1.16s.61.38.86.71c.85,1.14,2,2,2.76,3.23.38.58,1.09.34,1.68.37-.41,1-1.52,1.71-1.28,3,.05.26-.29.52-.63.51s-.47-.31-.48-.62,0-.8,0-1.2c0-.88-.46-1.52-1.38-1.34a1.39,1.39,0,0,0-1.13,1.78,5.2,5.2,0,0,0,1,2.16,1,1,0,0,1,0,1.35c-.5.58-.87,0-1.27-.23-1.34-.69-1.49-2-1.92-3.27-.77-2.25-2.27-4.19-3.41-6.28a25.14,25.14,0,0,0-3.84-4.68c-2.2-2.43-2.42-5.54-3-8.53C262.3,108.79,262.48,108.66,262.57,108.54Z"/><path class="cls-2" d="M214.91,81c.36-1,1.38-.93,2.11-1.1a11.13,11.13,0,0,1,7.72.61,1.35,1.35,0,0,0,1.79-.2c1.95-2.36,4.33-1.38,6.77-.1A35.76,35.76,0,0,1,237,82.69c.26.19.74.3.53.75s-.62.2-.95.21a3.58,3.58,0,0,1-1.53-.58c-.64-.28-1.21-.84-1.9.09-.37.51-.94,0-1.23-.38-1.4-1.91-3.17-2.15-5.29-1.39a3.41,3.41,0,0,1-3.14-.39,6.1,6.1,0,0,0-5.15-.61,1.25,1.25,0,0,0-1,1.17A4.24,4.24,0,0,1,214.91,81Z"/><path class="cls-2" d="M287.75,119.33a18.6,18.6,0,0,1,1.82-7.65c.23-.56.58-.47.93-.19a2.82,2.82,0,0,1,.87,3.19c-.2.66-.39,1.17.14,1.76.34.38.25.86.22,1.38-.07,1.11-.71,2.2-.15,3.36a.53.53,0,0,1-.4.8c-.74,0-1.07.68-1.64,1-.38-1.56-.91-3.13.74-4.38a.91.91,0,0,0,.26-1.31,1.07,1.07,0,0,0-1.12-.56c-.63.13-.47.67-.47,1.08C289,118.61,288.65,119.19,287.75,119.33Z"/><path class="cls-2" d="M184,81.28c3.05.44,5.79,2,8.81,2.62.23-.67-.51-.92-.4-1.44a7.13,7.13,0,0,1,3.48,2.45c.57.61,1,1.31,1.55,2A1.5,1.5,0,0,0,196.22,88c-.19.73-.83.41-1.21.11a8.51,8.51,0,0,0-2.94-1.7c-.5-.13-.73-.47-.23-.82,1.35-.94.08-1.17-.41-1.21-2.56-.22-4.58-1.87-7-2.49C184.17,81.77,184.08,81.54,184,81.28Z"/><path class="cls-2" d="M284.14,108.84c-.6-1.75.61-3.33.45-5a3.65,3.65,0,0,1,.15-1c.07-.4-.2-1,.48-1.06.51,0,.81.38,1,.79.25.58.68,1.26.58,1.81-.61,3.23.27,6.38.35,9.57a1,1,0,0,1-.3.94,20.22,20.22,0,0,1-.92-4.83C286,108.27,285.59,108.06,284.14,108.84Z"/><path class="cls-2" d="M170.56,79.19c-.67.67-1.63.67-2.44,1-.44.19-1,.18-1.15.8-.13,1-1.06.84-1.67,1.13s-1.08.41-1.63.61a.6.6,0,0,0-.6.29h-.6a5.22,5.22,0,0,1,1.78-2.55A11.43,11.43,0,0,0,166.42,79c1.54-1.44,3.7-1,5.62-2.17C171.82,78.15,170.47,78.17,170.56,79.19Z"/><path class="cls-2" d="M199.31,81.6c3.4-.82,6.89-.8,10.36-1,.17,0,.33-.18.5-.28h.54c0,.47.42.6.61.91A3.42,3.42,0,0,1,209,82c-2.48.06-4.86,1-7.34.78C200.71,82.69,199.67,82.79,199.31,81.6Z"/><path class="cls-2" d="M206.22,73.46c0-.61.22-1,.87-.89,4.42.48,8.76-.68,13.15-.58.58,0,1.52-.43,1.66.38.12.66-.88.35-1.31.61-.14.08-.19.32-.28.49a4.74,4.74,0,0,0-3.3,0h-1.19c0-.24-.08-.5-.38-.54s-.48.23-.53.54a1.51,1.51,0,0,0-.3,0c-2.09.14-4.19-.27-6.29,0Z"/><path class="cls-2" d="M214.91,81a4.24,4.24,0,0,0,2.41.61,8.65,8.65,0,0,1,5.17,2.33c-3.43-.85-6.75-2.14-10.27-2.62,0-.21,0-.41,0-.61C213.14,80.58,214,81.13,214.91,81Z"/><path class="cls-2" d="M195.44,74.07a6.82,6.82,0,0,1,4.79-.29c0,.26-.14.53-.42.54a19,19,0,0,0-3.68.33C195.74,74.75,195.48,74.5,195.44,74.07Z"/><path class="cls-2" d="M217,73.48a4.74,4.74,0,0,1,3.3,0l.9.3c-.09.16-.22.47-.28.45a19.87,19.87,0,0,0-3.36-.17C217.21,74,217.07,73.8,217,73.48Z"/><path class="cls-2" d="M249.68,76.78c1.69,0,2.55,1.35,3.59,2.39A6.7,6.7,0,0,1,249.68,76.78Z"/><path class="cls-2" d="M231.4,74.38l4.2.32s0,.12,0,.14C234.74,75.47,232.18,75.18,231.4,74.38Z"/><path class="cls-2" d="M195.73,79.77c1.3,0,2,.87,2.71,1.79C197.08,81.65,196.38,80.75,195.73,79.77Z"/><path class="cls-2" d="M188,79.46c-.81-.06-1.14-.76-1.76-1.19.64-.47,1.23-.25,1.78-.26C188,78.49,188,79,188,79.46Z"/><path class="cls-2" d="M246.22,85.52c-.9.29-1.5.43-2-.11a.39.39,0,0,1,0-.38C244.88,84.66,245.43,84.94,246.22,85.52Z"/><path class="cls-2" d="M291.64,128a1.3,1.3,0,0,1,1.49,1.51A1.77,1.77,0,0,1,291.64,128Z"/><path class="cls-2" d="M286.24,124.73h.3a3.34,3.34,0,0,1-1,2C285.59,125.75,285.32,125,286.24,124.73Z"/><path class="cls-2" d="M206.22,73.46h2.1c-.56,1-1.33.68-2.09.31Z"/><path class="cls-2" d="M112.69,152.67c.43,0,.59.15.58.43a.66.66,0,0,1-.66.65c-.2,0-.41-.09-.37-.33A1,1,0,0,1,112.69,152.67Z"/><path class="cls-2" d="M228.69,74.1l1.22,0c0,.41,0,.82-.62.81S228.71,74.51,228.69,74.1Z"/><path class="cls-2" d="M103.71,205.27c-.37,0-.52-.14-.54-.41s0-.62.41-.63.42.22.42.49S104,205.21,103.71,205.27Z"/><path class="cls-2" d="M212.23,80.66c0,.2,0,.4,0,.61h-.9c-.19-.31-.65-.44-.61-.91Z"/><path class="cls-2" d="M284.14,111.24a1,1,0,0,1,0-1.5A1,1,0,0,1,284.14,111.24Z"/><path class="cls-2" d="M175.06,79.48c.42-.51,1-.25,1.51-.28C176.21,80.06,175.65,79.88,175.06,79.48Z"/><path class="cls-2" d="M215.82,73.47h.3c-.51.94-1,.94-1.51,0a1.51,1.51,0,0,1,.3,0Z"/><path class="cls-2" d="M236.19,74.71a1.69,1.69,0,0,1,1.2.26C237,75.65,236.69,75.59,236.19,74.71Z"/><path class="cls-2" d="M253.88,80.06c.35.27.89.18,1.14.64C254.31,81.07,253.82,81.05,253.88,80.06Z"/><path class="cls-2" d="M191.25,81.85a.84.84,0,0,1-.91-.88A.85.85,0,0,1,191.25,81.85Z"/><path class="cls-2" d="M203.23,73.77h.9c0,.31-.12.59-.52.54S203.27,74,203.23,73.77Z"/><path class="cls-2" d="M253.27,79.17a.88.88,0,0,1,.61.89C253.27,80,253.27,79.6,253.27,79.17Z"/><path class="cls-2" d="M190.05,81a.84.84,0,0,1-.89-.6C189.59,80.35,190,80.37,190.05,81Z"/><path class="cls-2" d="M248.3,86.14c0-.08,0-.21.11-.24s.16.06.24.1-.05.21-.11.24S248.38,86.18,248.3,86.14Z"/><path class="cls-2" d="M227.2,74.09h.61c-.08.15-.14.41-.25.43C227.25,74.59,227.24,74.3,227.2,74.09Z"/><path class="cls-2" d="M163.07,83.06a.6.6,0,0,1,.6-.29C163.61,83.14,163.54,83.52,163.07,83.06Z"/><path class="cls-2" d="M183.12,80.7a.52.52,0,0,1,.63.56A.57.57,0,0,1,183.12,80.7Z"/><path class="cls-2" d="M188.81,78a.55.55,0,0,1,.63.25C189,78.72,188.92,78.38,188.81,78Z"/><path class="cls-2" d="M181.93,80.09a.54.54,0,0,1,.63.56A.55.55,0,0,1,181.93,80.09Z"/><path class="cls-2" d="M262,106.44a.61.61,0,0,1,.3.61C261.88,107,261.51,106.91,262,106.44Z"/><path class="cls-2" d="M320.41,103.74c-1-.39-1.16-1.26-1.2-2.17,0-.62-.19-1.12-.91-1.09a1.13,1.13,0,0,0-1.22,1c-.19,1-.16,2-1,2.87-1.21,1.18-2.4,1.05-3.07-.53-.58-1.35-1.08-2.75-1.66-4.11a15.47,15.47,0,0,0-3-4.59,2.6,2.6,0,0,0-3.34-.52,43.69,43.69,0,0,0-4.38,1.92l-.91-1.2A21,21,0,0,0,302,91.43c0-.05,0-.09,0-.14-.52-1.8-.71-3.77-2.09-5.16-.68-.69-.41-1.7-1.18-2.28-2.13-1.62-3.2-4.29-5.62-5.63-.13-.07-.13-.35-.19-.54,1.86-.24,3.06.88,4.19,2.09.28.3.5.73,1,.47s.28-.71.1-1.07c-.41-.82-.47-1.83-1.41-2.36a.8.8,0,0,1-.38-1.11,4.27,4.27,0,0,1,2.64,1.61c1.33,1.67,3.07,1,4.64,1.28a2.09,2.09,0,0,1,1.41.62c1.28,1.33,2.54,2.68,3.92,3.89.69.59,1.23,1.28,1.85,1.92.21.23.4.52.72.32s.12-.47,0-.76c-.4-1.09-.74-2.21-1.1-3.32-.08-.23-.22-.5,0-.69s.57,0,.8.15a11.44,11.44,0,0,1,5.64,8.9,2.68,2.68,0,0,0,.16.86C319,94.67,319.59,99.24,320.41,103.74Z"/><path class="cls-2" d="M273.36,79.46c-2.23-2.06-4.92-3.42-7.49-5-1.91-1.14-3.79-2.3-5.69-3.45.12-.91,1.09-.81,1.51-.9.91-.18,1.65-.09,1.57-1.38,0-.5.54-.18.84-.13.86.17,1.7.49,2.51-.23.5-.44.9.08,1.28.35a6.87,6.87,0,0,0,4,1.42l1.53.3h.22l.35.6a1.3,1.3,0,0,0,1.11,1.07c2.67.46,4.84,2,7.14,3.22,3.38,1.8,6.55,4,8.74,7.2s4.69,6.08,6.32,9.59c.39.84,1.39,1.29,1.57,2.29-1.5-.65-3.28-.66-4.48-2-.43-.51-1.22-.26-1.85-.36a10.94,10.94,0,0,1-6.86-4.18c.84,0,1.63.55,2.48.21.43-.17,1-.21.32-1-1.22-1.42-2.08-3.16-3.39-4.47s-2.21-3.06-3.94-4c-.87-.47-1.18-.35-1.16.62v.15c-.11.86.39,1.94-.3,2.5-.25.21-1.37-.67-2.1-1a1.16,1.16,0,0,0-1.5.11l-1.49-.61h0a1.4,1.4,0,0,0-1.2-.9Z"/><path class="cls-2" d="M292.83,77.68c.06.19.06.47.19.54,2.42,1.34,3.49,4,5.62,5.63.77.58.5,1.59,1.18,2.28,1.38,1.39,1.57,3.36,2.09,5.16,0,0,0,.09,0,.14a21,21,0,0,1-2.24,3.92.84.84,0,0,1-.89-.9c.67-.1.69-.46.37-1-2.43-3.63-4.59-7.44-7.29-10.89a5,5,0,0,1-.84-3.8c.06-.84.66-1.17,1.47-1.15Z"/><path class="cls-2" d="M301.82,98.05a3.35,3.35,0,0,1,2,1,23.87,23.87,0,0,1,4.77,5.06,3.06,3.06,0,0,1,.4,1.12c.13.76.1,1.66-.62,2s-.86-.62-1.27-1a15.8,15.8,0,0,1-3.5-5,1.7,1.7,0,0,0-.84-.81C302.63,99.57,301.5,99.08,301.82,98.05Z"/><path class="cls-2" d="M280,86.36s-.1,0-.13-.07c-.56-.73-1.68-1.55-1.16-2.34s1.25.51,2,.64,1.5.56,2.23.74a3.44,3.44,0,0,1,2.44,2.53,7.35,7.35,0,0,1-3.1-1A3.64,3.64,0,0,0,280,86.36Z"/><path class="cls-2" d="M301.79,103.56c0,.21-.12.4-.36.36a.56.56,0,0,1-.45-.52c0-.21,0-.42.27-.43S301.73,103.25,301.79,103.56Z"/><path class="cls-2" d="M301.22,97.45a.55.55,0,0,1,.61.6A.56.56,0,0,1,301.22,97.45Z"/><path class="cls-2" d="M294.05,113.33a.57.57,0,0,1-.3-.6C294.11,112.8,294.49,112.86,294.05,113.33Z"/><path class="cls-2" d="M237.09,64.48h1.19c.06.31-.08.83.43.76,1-.13,1.79.47,2.68.8,1.16.45,2.49,1,3.79.23l2.09.33c.32.68.73,1.11,1.51.57A26.11,26.11,0,0,1,257,71.53c.67.5.37.84-.09,1.12a2,2,0,0,1-2-.08c-2-.95-3.85-2-5.71-3.13s-3.85-.54-5.81-.18c-.21-.31-.41-.28-.6,0h-.88c-1.12-.06-2.27-.52-3.31.29H238c-.23-.81-.68-.7-1.21-.3h-.59c0-.53-.44-.53-.85-.61a7.87,7.87,0,0,1-2.85-.72c-2.28-1.51-4.9-1.43-7.4-2l-1.49-.3c-.56-.34-1.09-.85-1.8-.32l-.59,0c-.18-1,1-2,2.5-2.06,2.07-.1,4.1.52,6.18.3h.89c.27,1.14,1.27,1.33,2.15,1.43a1.25,1.25,0,0,0,1.46-1.14H235C235.67,65.29,236.21,65.44,237.09,64.48Z"/><path class="cls-2" d="M273.38,70.48l-1.53-.3c-.07-.37-.61-.54-.4-1.15C272.22,69.37,273.18,69.36,273.38,70.48Z"/><path class="cls-2" d="M230.79,63.59h-.89c0-.38.19-.65.61-.54C230.76,63.1,231.09,63.21,230.79,63.59Z"/><path class="cls-2" d="M231.91,63.58c-.15-.09-.33-.14-.36-.23-.06-.24.14-.33.33-.31a.37.37,0,0,1,.26.24C232.15,63.36,232,63.46,231.91,63.58Z"/><path class="cls-2" d="M274,71.08l-.35-.6c.28,0,.65-.11.78.2S274.16,71,274,71.08Z"/><path class="cls-2" d="M263.47,65.67c.81-.37,1.61.22,2.43,0,.27-.07.62,0,.76-.31a.72.72,0,0,0-.37-.89c-1.09-.66-2.15-1.43-4-.85,1.17-1.58,2.4-2.55,3.78-2.66s1.69-.53,1.28-1.74a1.35,1.35,0,0,1,0-.45c2.11.34,3.71,1.81,5.64,2.6,1.49.61,3.22.73,4.5,1.87.21.19.61.29.49.64s-.58.25-.9.19a9.64,9.64,0,0,0-6.33,1.2C268.53,66.38,266,67.37,263.47,65.67Z"/><path class="cls-2" d="M266.75,57.89c-1.3-.79-2.85-1.19-3.89-2.39.19-.11.22-.21,0-.32h0a1.44,1.44,0,0,0-.88-1.3c-1.72-.74-1.29-2.35-1.8-3.79,2.38,1,3.3,3.07,4.69,4.69C265.65,55.69,266.74,56.49,266.75,57.89Z"/><path class="cls-2" d="M267.44,55c2.39.9,4.61,1.9,6.24,3.86.2.24.64.53.39.89s-.74.26-1.1.12c-1.8-.72-3.57-1.5-4.48-3.38C268.23,56,267.41,55.93,267.44,55Z"/><path class="cls-2" d="M262.86,55.18c.22.11.19.21,0,.32Z"/><path class="cls-2" d="M193.34,66.28h.59c.1.16.17.45.29.48,2.48.46,5,1,7.41-.24a3.38,3.38,0,0,1,2.48-.2c2.95.91,6.1.42,9.08,1.47a18.35,18.35,0,0,1,3.43,1.29c.71.43,1.84.14,2.78.18.55,0,1.29,0,1.32.65s-.77.38-1.16.58c-2,1-4.13.27-6.2,1-1.63.58-3.65.08-5.5.06-3,0-5.85-1.14-8.73-1.9a2.61,2.61,0,0,0-2.16.17c-.88.56-1.44-.36-2.16-.55-1.82-.46-3.62-1-5.42-1.52-.34-.09-.76-.14-.67-.61s.48-.27.76-.28c.9,0,1.79,0,2.69,0C192.65,66.86,193.22,67,193.34,66.28Z"/><path class="cls-2" d="M310.15,110.88c-.06.27-.28.35-.54.29s-.48-.21-.46-.5.32-.32.56-.3A.42.42,0,0,1,310.15,110.88Z"/><path class="cls-2" d="M215.81,60.58c-.32.43-.78.26-1.21.27C214.85,60.06,215.3,60.16,215.81,60.58Z"/><path class="cls-2" d="M206.82,61.77c-.19.31-.39.32-.6,0C206.42,61.48,206.61,61.47,206.82,61.77Z"/><path class="cls-2" d="M295.24,134.93l.3-.31c1.48.11,1.33,1.64,2.08,2.39,0,.3,0,.59-.05.89-1.08-.08-1.82.11-1.78,1.5a4.41,4.41,0,0,1-1,2.6,1.5,1.5,0,0,1-2,.57c-.67-.42-.07-1.06.13-1.59C293.72,139,295.13,137.2,295.24,134.93Z"/><path class="cls-2" d="M280.85,101.57v.6c0,.83-.19,1.81-1,2s-.94-.89-1.24-1.42a8.27,8.27,0,0,1-.85-2.51,42.25,42.25,0,0,0-3-8.18,79.12,79.12,0,0,1-2.61-8.3c-.17-.6.32-.8.84-.68a3,3,0,0,1,1.38.86c1,1,1.86,2,2.87,3s.92,2.52,1.12,3.84a6.76,6.76,0,0,0,.65,2.73C280.59,96,280.22,98.91,280.85,101.57Z"/><path class="cls-2" d="M278.56,104.88a2.78,2.78,0,0,1-1.62-1.37c-1.61-2.9-3.84-5.51-4.25-9-.25-2.21-1.81-3.91-2.61-5.92-.6-1.48-.58-3.07-1.15-4.54a.41.41,0,0,1,.27-.6.44.44,0,0,1,.58.33c.23,1.46,1.82,2.28,1.8,3.86a.9.9,0,0,0,.2.54c1.79,2.25,2.57,5,4,7.49.05.08.13.18.12.27C275.52,99.25,278,101.7,278.56,104.88Z"/><path class="cls-2" d="M274.56,80.36l1.49.61c.1.35.58.55.44,1.17C275.69,81.63,274.71,81.49,274.56,80.36Z"/><path class="cls-2" d="M273.36,79.46a1.4,1.4,0,0,1,1.2.9C273.9,80.4,273.38,80.26,273.36,79.46Z"/><path class="cls-2" d="M238.59,69.57c1-.81,2.19-.35,3.31-.29,0,.32-.1.76.37.81s.47-.45.51-.81c.19-.3.39-.33.6,0,.13.85.8.52,1.3.62a26.3,26.3,0,0,1,6.07,2c-2.17,0-4.19,1.46-6.51-.36C242.81,70.44,240.53,70.12,238.59,69.57Z"/><path class="cls-2" d="M225.1,66c2.5.52,5.12.44,7.4,2a7.87,7.87,0,0,0,2.85.72c.41.08.8.08.85.61-2.84.16-5.45-.82-8.09-1.62-.66-.2-1.41.06-2-.49C225.74,66.79,225.09,66.68,225.1,66Z"/><path class="cls-2" d="M246.33,73.71a13,13,0,0,1,6.33.42c.44.14,1.18.37,1,1a1.07,1.07,0,0,1-1.33.69A22.83,22.83,0,0,1,246.33,73.71Z"/><path class="cls-2" d="M245.18,66.28c-1.3.75-2.63.22-3.79-.23-.89-.33-1.63-.93-2.68-.8-.51.07-.37-.45-.43-.76C240.64,64.87,243.05,65.06,245.18,66.28Z"/><path class="cls-2" d="M237.09,64.48c-.88,1-1.42.81-2.1-.59C235.66,64.17,236.47,64,237.09,64.48Z"/><path class="cls-2" d="M221.81,65.36c.71-.53,1.24,0,1.8.32A1.81,1.81,0,0,1,221.81,65.36Z"/><path class="cls-2" d="M248.78,67.18c-.78.54-1.19.11-1.51-.57A2.54,2.54,0,0,1,248.78,67.18Z"/><path class="cls-2" d="M236.79,69.26c.53-.4,1-.51,1.21.3C237.58,69.53,237.11,69.71,236.79,69.26Z"/><path class="cls-2" d="M257.89,70.85c0-.08.05-.21.11-.23s.16.06.24.09-.05.21-.11.24S258,70.89,257.89,70.85Z"/><path class="cls-2" d="M257,70.09c0,.08-.05.21-.11.23s-.2,0-.23-.09.06-.16.1-.25Z"/><path class="cls-2" d="M280.53,119.26c-.54-1.43-.94-2.48-1.33-3.54-.1-.27-.26-.59.13-.74a.48.48,0,0,1,.6.33C280.23,116.47,281.21,117.51,280.53,119.26Z"/><path class="cls-2" d="M215.82,73.47h-.91c.05-.31.13-.59.53-.54S215.78,73.23,215.82,73.47Z"/><path class="cls-2" d="M242.78,69.28c0,.36.1.87-.51.81s-.34-.49-.37-.81Z"/></g></g></svg>