<svg xmlns="http://www.w3.org/2000/svg" viewBox="0 0 76.8 57.9"><defs><style>.cls-1,.cls-2{fill:none;}.cls-2{stroke:#ca2e55;stroke-miterlimit:10;}</style></defs><g id="Layer_2" data-name="Layer 2"><g id="Layer_1-2" data-name="Layer 1"><path class="cls-1" d="M38.25,57.88c-12.39,0-24.79,0-37.18,0C.18,57.9,0,57.72,0,56.83Q0,28.95,0,1.07C0,.18.18,0,1.07,0Q38.41,0,75.73,0c.89,0,1.07.18,1.07,1.07q0,27.89,0,55.76c0,.89-.18,1.07-1.07,1.07C63.24,57.86,50.74,57.88,38.25,57.88Zm8.19-46.19H46a44.45,44.45,0,0,0-5.65-.27c-1.23-.4-2.45.07-3.68,0-4.26-.17-8.5-.6-12.77-.36l-1.54-.14a9.75,9.75,0,0,0-2.85-.21,1.9,1.9,0,0,1-1.35.07c-2-.34-2.32-.06-2.83,1.8L15.47,14a12.18,12.18,0,0,0-.47,4.2c-.41,3.28-.83,6.55-1.21,9.83-.24,2.09-.43,4.19-.64,6.28l0,.56c-.67,3.47-.78,7-1.33,10.48-.17,1.05,0,1.3,1,1.31,3.69,0,7.38.08,11.07.2,4.49.15,9,.41,13.48.57,1.67.06,3.35,0,5-.05,3.27.57,6.6.13,9.89.52l1.49,0,1-.27,1.62.22c1.49.35,3,0,4.55.39.54.14.87-.25,1-1a27.28,27.28,0,0,0,.23-5.85c.83-.85.49-2,.59-2.93A63.49,63.49,0,0,0,63.3,31,37.17,37.17,0,0,0,64,24.19a2,2,0,0,0,.16-1.79,6.19,6.19,0,0,0,.1-3.28c1-1.42.65-3.12.74-4.67.13-2.23-.06-2.24-2.34-2.21l-.44,0L52.1,11.72c-.5-.33-.82.13-1.21.27a9.91,9.91,0,0,0-3.56-.15Z"/><path class="cls-2" d="M13.15,34.33c.21-2.09.4-4.19.64-6.28.38-3.28.8-6.55,1.21-9.83,1.65-.17,3.22.88,4.82.55,3.07-.63,6.24-.69,9.26-1.4a47.26,47.26,0,0,0,8.34-2.88c1.24-.55,2.7-1.36,2.94-3.08a44.45,44.45,0,0,1,5.65.27l.3.32c-.13.38-.25.77-.38,1.15-.81,1.66-.87,3.53-1.46,5.26-4.1-2.07-7.87-1.26-11.37,1.4-1.92,1.45-4.16,5.78-3.92,7.35.57-.58.55-.59.71-1,1.66-4.18,4.3-7.29,9-8,.86-.12,2-.57,2.66.56-1.22-.09-1.42.59-1.19,1.57.11.44.39.86,0,1.31-.46-.31-.3-.68-.31-1-.07-1.66-.18-1.71-1.81-1.24-1,.28-.46,1-.63,1.58l-.33-.3c.05-.62-.26-1.21-.81-1.1s-.7.8-.43,1.4c.06.13.11.27.16.41a37.69,37.69,0,0,1-.76,5.17c-.31,0-.62,0-.83.26-2.29.9-5.06.08-7.1,1.92-.31-1.11-1.91-.78-2.2-1.95-.1-.43-.34-.84-.9-.8a.48.48,0,0,0-.48.46c-.05.51,0,1,.54,1.24L27.26,29a2.45,2.45,0,0,0,0,.27l.3.27c.51.1.46.83,1,.89.29,1.46.17,2.94.83,4.4a8.5,8.5,0,0,0,9.5,5.07A4.57,4.57,0,0,0,40.14,42c.23.2.5.46.78.26.5-.34.36-1,.54-1.47.1-.25,0-.67-.43-.55-.79.21-.49-.5-.71-.77,2.61-.55,7-4.83,7.12-8.26-1.74,3.78-3.87,6.63-7.72,7.66-.56-1.55-.94-3.22-2.69-4,2.4-1.56,4.78-3.15,7.2-4.69,1.61-1,1.62-1,.27-2.48,1.11-.55,2.37-.11,3.5-.56.31,1-.36,2,0,3.26a6.17,6.17,0,0,0,.7-3.25,25.56,25.56,0,0,0,9.16-2.35c.26-.11.55-.4.82-.2s.09.63-.06.94c-.38.8-.82,1.57-1.17,2.39-.8,1.87-2.27,3.55-1.8,5.81-1,1.53-.8,3.36-1.29,5-.53.66-1.18,1.18-2,.85s-.89-1.22-.89-2c0-.39,0-.79,0-1.19s-.2-.63-.56-.45c-.87.44-1.88.63-2.35,1.68a49.56,49.56,0,0,1-2.64,6.09c-.76,1.24-.73,1.38-1.63.25-.27-.34-.71-.53-.75-.15-.15,1.27-1.52,2.16-1,3.57-1.68,0-3.36.11-5,.05-4.5-.16-9-.42-13.48-.57-3.69-.12-7.38-.16-11.07-.2-1,0-1.16-.26-1-1.31.55-3.47.66-7,1.33-10.48C13.5,34.68,13.45,34.5,13.15,34.33Zm.34,5.05c-1,1.51-.91,2,.52,2.47.29.09.3.34.35.58s-.18,1,.34,1a1.5,1.5,0,0,0,1.18-.73c.27-.81,1-1.5.8-2.43.63-.95-.13-2.19.78-3.19.36-.4-.8-.95-1.18-1.51a.53.53,0,0,0-.9,0C14.68,36.76,13.29,37.69,13.49,39.38ZM25.08,40.6a1.7,1.7,0,0,0-1.15-1.49c-.1-.39.2-1-.42-1.13s-.43.42-.54.72c-.2.49-.65.38-1,.38-.53,0-1,0-1,.76,0,.52-.23.88.45,1.5,1,.91,1.32,0,1.88-.15.3.37-.16.82.25,1s.56-.13.74-.34c1-1.15,1.81-.71,2.51.3a3.25,3.25,0,0,0,1.44,1.16c1.71.79,3.19.32,4.71-.42.82-.39,2.33-.61,2.1-1.46-.31-1.13-1.66-.38-2.6-.37-1.27,0-2.58.87-3.77.15A6.39,6.39,0,0,0,25.08,40.6Zm18.86-.52c-.09-.31.2-.87-.46-.85-.33,0-.76.21-.69.62s0,1.12.63,1.17S43.89,40.49,43.94,40.08ZM42.74,42c-.09-.34.18-.92-.38-.94s-.51.51-.51.91,0,.89.54.87S42.67,42.28,42.74,42Z"/><path class="cls-2" d="M47.33,11.84a9.91,9.91,0,0,1,3.56.15c.5.34.8-.18,1.21-.27l10.08.54c-.09,1-.1,2.07-1.15,2.69-.81,1.12-.19,2.38-.36,3.56-.12.77-.28,1.54-.37,2.32a3.29,3.29,0,0,1-2,2.84c-3,1.3-6.1,2.54-9.51,2.3-.08-.27-.28-.45-.31-.78A9.08,9.08,0,0,0,45.31,19a32,32,0,0,1,1.33-5.46Z"/><path class="cls-2" d="M42.42,47.4c-.47-1.41.9-2.3,1-3.57,0-.38.48-.19.75.15.9,1.13.87,1,1.63-.25a49.56,49.56,0,0,0,2.64-6.09C49,36.59,50,36.4,50.84,36c.36-.18.54.11.56.45s0,.8,0,1.19c0,.81,0,1.68.89,2s1.51-.19,2-.85c.9.39,1.33,1.72,2.31,1.62a2,2,0,0,1,2.11,1.21,2.26,2.26,0,0,0,1,.8c1.23.67,1.66-.43,2.37-.92a27.28,27.28,0,0,1-.23,5.85c-.09.71-.42,1.1-1,1-1.51-.4-3.06,0-4.55-.39.07-.51.15-1-.62-1-.57,0-1.16,0-1,.82l-1,.27A6.25,6.25,0,0,0,51,44.15l1.31,3.77C49,47.53,45.69,48,42.42,47.4Z"/><path class="cls-2" d="M40.36,11.41c-.24,1.72-1.7,2.53-2.94,3.08a47.26,47.26,0,0,1-8.34,2.88c-3,.71-6.19.77-9.26,1.4-1.6.33-3.17-.72-4.82-.55a12.18,12.18,0,0,1,.47-4.2c3-.4,6-1,8.44-2.95,4.27-.24,8.51.19,12.77.36C37.91,11.48,39.13,11,40.36,11.41Z"/><path class="cls-2" d="M48.76,26c3.41.24,6.47-1,9.51-2.3a3.29,3.29,0,0,0,2-2.84c.09-.78.25-1.55.37-2.32.86.19,1.3,1.5,2.45.9h.55a.23.23,0,0,0,.23-.1l.32-.19a6.19,6.19,0,0,1-.1,3.28,7.72,7.72,0,0,1-2-.24c-.81-.19-1.18.21-1.32,1.07s-.24,1.3.72,1.73c1.18.53,1.61-.68,2.47-.77A37.17,37.17,0,0,1,63.3,31a4.05,4.05,0,0,0-1.69.42c-2,.77-3.8,2-6,2.34-.47-2.26,1-3.94,1.8-5.81.35-.82.79-1.59,1.17-2.39.15-.31.42-.66.06-.94s-.56.09-.82.2a25.56,25.56,0,0,1-9.16,2.35C48.1,26.74,48.56,26.36,48.76,26Z"/><path class="cls-2" d="M55.63,33.77c2.18-.3,4-1.57,6-2.34A4.05,4.05,0,0,1,63.3,31a63.49,63.49,0,0,1-.6,7.55c-.1,1,.24,2.08-.59,2.93-.71.49-1.14,1.59-2.37.92a2.26,2.26,0,0,1-1-.8,2,2,0,0,0-2.11-1.21c-1,.1-1.41-1.23-2.31-1.62C54.83,37.13,54.63,35.3,55.63,33.77Z"/><path class="cls-2" d="M63.67,19.41h-.55a8.19,8.19,0,0,0-1-1A2.74,2.74,0,0,1,61,15c1-.62,1.06-1.67,1.15-2.69l.44,0c2.28,0,2.47,0,2.34,2.21-.09,1.55.31,3.25-.74,4.67l-.32.19A.19.19,0,0,0,63.67,19.41Z"/><path class="cls-2" d="M23.91,11.07c-2.47,2-5.42,2.55-8.44,2.95,0-.48-.09-.95-.13-1.43a7.72,7.72,0,0,0,4.19-.86c.93-.31,2-.17,2.84-.8Z"/><path class="cls-2" d="M64,24.19c-.86.09-1.29,1.3-2.47.77-1-.43-.84-.93-.72-1.73s.51-1.26,1.32-1.07a7.72,7.72,0,0,0,2,.24A2,2,0,0,1,64,24.19Z"/><path class="cls-2" d="M19.53,11.73a7.72,7.72,0,0,1-4.19.86c.51-1.86.88-2.14,2.83-1.8a1.9,1.9,0,0,0,1.35-.07A.91.91,0,0,1,19.53,11.73Z"/><path class="cls-2" d="M52.31,47.92,51,44.15A6.25,6.25,0,0,1,53.8,48Z"/><path class="cls-2" d="M19.53,11.73a.91.91,0,0,0,0-1,9.75,9.75,0,0,1,2.85.21C21.52,11.56,20.46,11.42,19.53,11.73Z"/><path class="cls-2" d="M54.75,47.69c-.16-.86.43-.83,1-.82.77,0,.69.53.62,1Z"/><path class="cls-2" d="M47.33,11.84l-.69,1.68-.71-.37c.13-.38.25-.77.38-1.15,0-.11.09-.21.13-.31Z"/><path class="cls-2" d="M52.1,11.72c-.41.09-.71.61-1.21.27C51.28,11.85,51.6,11.39,52.1,11.72Z"/><path class="cls-2" d="M13.15,34.33c.3.17.35.35,0,.56Z"/><path class="cls-2" d="M46.44,11.69c0,.1-.09.2-.13.31l-.3-.32Z"/><path class="cls-2" d="M44.5,27.73c1.35,1.47,1.34,1.45-.27,2.48-2.42,1.54-4.8,3.13-7.2,4.69l-.37.28-2.44,1.5c-.43-1.48.36-2.79.18-4.14.5-.4.21-1,.32-1.46a8.35,8.35,0,0,0,.48-3l.26-1.49a37.69,37.69,0,0,0,.76-5.17c.31-.32.43-.92,1.08-.71l.33.3c.88.81,1.44,2,2.78,2.27.06,1.31,1.33,1.63,2,2.45l.33.28Zm-8-.9-.11.93a26.41,26.41,0,0,0-.9,5.07.83.83,0,0,0,.44,1,.87.87,0,0,0,1.18-.18,3.23,3.23,0,0,1,.82-.5c2.11-1.33,4.17-2.72,6.35-4.15l-2.08-1.85-.95-.88a21.18,21.18,0,0,0-3.22-3.2c-.53-.49-1-.57-1.07.44S36.69,25.72,36.53,26.83Z"/><path class="cls-2" d="M48.76,26c-.2.39-.66.77-.08,1.21a6.17,6.17,0,0,1-.7,3.25c-.34-1.29.33-2.27,0-3.26L47.92,26a7.5,7.5,0,0,0-2.05-5.1,1.51,1.51,0,0,0-.81-1l-.75-.54a3.88,3.88,0,0,0-2.73-.59c-.68-1.13-1.8-.68-2.66-.56-4.73.67-7.37,3.78-9,8-.16.4-.14.41-.71,1-.24-1.57,2-5.9,3.92-7.35,3.5-2.66,7.27-3.47,11.37-1.4l.84.58a9.08,9.08,0,0,1,3.14,6.2C48.48,25.52,48.68,25.7,48.76,26Z"/><path class="cls-2" d="M25.08,40.6a6.39,6.39,0,0,1,3.57.63c1.19.72,2.5-.14,3.77-.15.94,0,2.29-.76,2.6.37.23.85-1.28,1.07-2.1,1.46-1.52.74-3,1.21-4.71.42a3.25,3.25,0,0,1-1.44-1.16c-.7-1-1.51-1.45-2.51-.3-.18.21-.4.51-.74.34s.05-.65-.25-1c-.56.19-.9,1.06-1.88.15-.68-.62-.43-1-.45-1.5,0-.72.47-.75,1-.76.38,0,.83.11,1-.38.11-.3,0-.83.54-.72s.32.74.42,1.13C23.46,40.52,23.68,40.81,25.08,40.6Z"/><path class="cls-2" d="M41.58,18.77a3.88,3.88,0,0,1,2.73.59,9.49,9.49,0,0,1-.74,2.76c-1.22-.07-1.92,1.29-3.16,1.14S38.51,21.8,37.63,21c.17-.54-.35-1.3.63-1.58,1.63-.47,1.74-.42,1.81,1.24,0,.32-.15.69.31,1,.4-.45.12-.87,0-1.31C40.16,19.36,40.36,18.68,41.58,18.77Z"/><path class="cls-2" d="M39.72,38.87c3.85-1,6-3.88,7.72-7.66-.17,3.43-4.51,7.71-7.12,8.26l-1.44.38a8.5,8.5,0,0,1-9.5-5.07c-.66-1.46-.54-2.94-.83-4.4A8.45,8.45,0,0,1,28.66,29c.07-.28.21-.9.71-.27-.67,1.19-.26,2.36,0,3.54,1.06,4.76,4.26,7.26,9.16,7.12C39.05,39.48,39.31,39,39.72,38.87Z"/><path class="cls-2" d="M47.92,26,48,27.17c-1.13.45-2.39,0-3.5.56L42.74,26c.88-.49,1-1.38,1.19-2.23.35-1.29.26-2.72,1.13-3.86a1.51,1.51,0,0,1,.81,1,2.57,2.57,0,0,1-.34.81c-1,1-.52,2.28-.42,3.36.19,1.84,1.81.45,2.66.91A.68.68,0,0,0,47.92,26Z"/><path class="cls-2" d="M16.68,40.23c.16.93-.53,1.62-.8,2.43a1.5,1.5,0,0,1-1.18.73c-.52,0-.28-.61-.34-1s-.06-.49-.35-.58c-1.43-.47-1.53-1-.52-2.47.2,0,.43,0,.58-.09.93-.6,1.81-1.19,2,.63C16.08,40.16,16.42,40.22,16.68,40.23Z"/><path class="cls-2" d="M16.68,40.23c-.26,0-.6-.07-.62-.31-.18-1.82-1.06-1.23-2-.63-.15.1-.38.06-.58.09-.2-1.69,1.19-2.62,1.89-3.87a.53.53,0,0,1,.9,0c.38.56,1.54,1.11,1.18,1.51C16.55,38,17.31,39.28,16.68,40.23Z"/><path class="cls-2" d="M35.46,26.57l-.26,1.49c-2.44.48-2.48.57-1,2.48.16.19.32.36.48.54-.11.49.18,1.06-.32,1.46-1.49-1.05-1.32-3.06-2.49-4.29.94-.41,2.29-.05,2.72-1.42C34.84,26.54,35.15,26.56,35.46,26.57Z"/><path class="cls-2" d="M34.63,26.83c-.43,1.37-1.78,1-2.71,1.42a2.93,2.93,0,0,0-2.55.43c-.5-.63-.64,0-.71.27a8.45,8.45,0,0,0-.11,1.43c-.55-.06-.5-.79-1-.89l-.3-.27a2.45,2.45,0,0,1,0-.27l.27-.2C29.57,26.91,32.34,27.73,34.63,26.83Z"/><path class="cls-2" d="M39.72,38.87c-.41.1-.67.61-1.18.47a1.77,1.77,0,0,0-.4-1.76c-.52-.78-1.38-1.37-1.48-2.4L37,34.9C38.78,35.65,39.16,37.32,39.72,38.87Z"/><path class="cls-2" d="M38.88,39.85l1.44-.38c.22.27-.08,1,.71.77.43-.12.53.3.43.55-.18.49,0,1.13-.54,1.47-.28.2-.55-.06-.78-.26A4.57,4.57,0,0,1,38.88,39.85Z"/><path class="cls-2" d="M45.31,19l-.84-.58c.59-1.73.65-3.6,1.46-5.26l.71.37A32.32,32.32,0,0,0,45.31,19Z"/><path class="cls-2" d="M27.53,28.75l-.27.2L24.49,27.7c-.57-.25-.59-.73-.54-1.24a.48.48,0,0,1,.48-.46c.56,0,.8.37.9.8C25.62,28,27.22,27.64,27.53,28.75Z"/><path class="cls-2" d="M25.08,40.6c-1.4.21-1.62-.08-1.15-1.49A1.7,1.7,0,0,1,25.08,40.6Z"/><path class="cls-2" d="M43.94,40.08c0,.41,0,1-.52.94s-.56-.73-.63-1.17.36-.61.69-.62C44.14,39.21,43.85,39.77,43.94,40.08Z"/><path class="cls-2" d="M37.3,20.69c-.65-.21-.77.39-1.08.71,0-.14-.1-.28-.16-.41-.27-.6-.21-1.27.43-1.4S37.35,20.07,37.3,20.69Z"/><path class="cls-2" d="M42.74,42c-.07.31.13.82-.35.84s-.54-.48-.54-.87,0-.93.51-.91S42.65,41.63,42.74,42Z"/><path class="cls-2" d="M27.24,29.22l.3.27Z"/><path class="cls-2" d="M61,15a2.74,2.74,0,0,0,1.07,3.44,8.19,8.19,0,0,1,1,1c-1.15.6-1.59-.71-2.45-.9C60.84,17.33,60.22,16.07,61,15Z"/><path class="cls-2" d="M63.67,19.41a.19.19,0,0,1,.23-.1A.23.23,0,0,1,63.67,19.41Z"/><path class="cls-2" d="M36.66,35.18c.1,1,1,1.62,1.48,2.4a1.77,1.77,0,0,1,.4,1.76c-4.9.14-8.1-2.36-9.16-7.12-.27-1.18-.68-2.35,0-3.54a2.93,2.93,0,0,1,2.55-.43c1.16,1.23,1,3.24,2.48,4.29.18,1.35-.61,2.66-.18,4.14Z"/><path class="cls-2" d="M42.23,27.13,44.31,29c-2.18,1.43-4.24,2.82-6.35,4.15a3.23,3.23,0,0,0-.82.5.87.87,0,0,1-1.18.18.83.83,0,0,1-.44-1,26.41,26.41,0,0,1,.9-5.07Z"/><path class="cls-2" d="M36.53,26.83c.16-1.11.38-2.22.46-3.34s.54-.93,1.07-.44a21.18,21.18,0,0,1,3.22,3.2A12.14,12.14,0,0,0,36.53,26.83Z"/><path class="cls-2" d="M40.41,23.26c1.24.15,1.94-1.21,3.16-1.14a10.87,10.87,0,0,1-1.16,3.59C41.74,24.89,40.47,24.57,40.41,23.26Z"/><path class="cls-2" d="M36.53,26.83a12.14,12.14,0,0,1,4.75-.58l.95.88-5.81.63C36.46,27.45,36.49,27.14,36.53,26.83Z"/><path class="cls-2" d="M42.41,25.71a10.87,10.87,0,0,0,1.16-3.59,9.49,9.49,0,0,0,.74-2.76l.75.54c-.87,1.14-.78,2.57-1.13,3.86-.23.85-.31,1.74-1.19,2.23Z"/><path class="cls-2" d="M34.72,31.08c-.16-.18-.32-.35-.48-.54-1.52-1.91-1.48-2,1-2.48A8.35,8.35,0,0,1,34.72,31.08Z"/><path class="cls-2" d="M47.92,26a.68.68,0,0,1-.15,0c-.85-.46-2.47.93-2.66-.91-.1-1.08-.57-2.34.42-3.36a2.57,2.57,0,0,0,.34-.81A7.5,7.5,0,0,1,47.92,26Z"/><path class="cls-1" d="M0,0Q37.8,0,75.58,0c1,0,1.22.2,1.22,1.22q-.06,27.74,0,55.46c0,1-.2,1.22-1.22,1.22q-37.18-.06-74.36,0C.2,57.9,0,57.7,0,56.68Q.06,28.36,0,0ZM63.92,27.49c.62-.81.16-1.76.35-2.62a1.55,1.55,0,0,0,.23-1.27c-.08-1.41.81-2.74.33-4.18.73-2.14.56-4.42,1-6.62.13-.76-.29-1.09-.93-.84-1,.38-1.87,0-2.8.13a10.13,10.13,0,0,0-3-.16,32.48,32.48,0,0,0-5.66-.27c-1.24-.39-2.37.43-3.58.33a6.6,6.6,0,0,0-2.64-.39c-3.31-.28-6.63-.72-10-.12-3.25-.76-6.6-.26-9.87-.69a2.73,2.73,0,0,0-2,.3L23.93,11a1.2,1.2,0,0,0-.91-.11c-2.08-.12-4.17-.17-6.24-.39-1.08-.11-1.46.32-1.47,1.27A41.05,41.05,0,0,1,15,15.9q-.68,6.44-1.27,12.87c-.16,1.82-.39,3.62-.61,5.43-.45,3.65-.68,7.33-1.09,11-.11,1,.08,1.41,1.17,1.42,3.75,0,7.5,0,11.24.27,3.12.19,6.24.33,9.36.26a31.39,31.39,0,0,0,6,.3c4.24.12,8.48.32,12.72.49l.66.08c1.8-.27,3.59.26,5.39.09,3.13.45,3.13.45,3.41-1.85l.38-3.62c0-1,.48-1.93.33-2.94l.88-7.49c.25-.76-.67-1.54-.08-2.23A2.72,2.72,0,0,0,63.92,27.49Z"/><path class="cls-2" d="M33.77,47.14c-3.12.07-6.24-.07-9.36-.26-3.74-.23-7.49-.24-11.24-.27-1.09,0-1.28-.41-1.17-1.42.41-3.66.64-7.34,1.09-11,.22-1.81.45-3.61.61-5.43Q14.3,22.34,15,15.9a41.05,41.05,0,0,0,.34-4.13c0-.95.39-1.38,1.47-1.27,2.07.22,4.16.27,6.24.39A7.33,7.33,0,0,1,23,12.22q-2,9.51-4.05,19c-.51,2.32.63,3.75,2.95,3.34,1.3-.23,2.26-.38,2.89,1.11.22.52,1.09.65,1.73.58a.72.72,0,0,0,.61-.75,1.22,1.22,0,0,0-.82-1c-.79-.34-2.11-.35-.61-1.57.14-.12,0-.44-.2-.66a1.58,1.58,0,0,1,.67-2.56A12.19,12.19,0,0,1,28.62,29c0,1.29.08,2.59.11,3.88,0,.38,0,.77,0,1.15a4.59,4.59,0,0,0-.32,1.83v.61c-.1.29-.47.59,0,.88v.58L28.09,39l-.36.35h-.22c-.41.08-.88-.07-1.22.3-.23.07-.48.12-.71.2-1.53.56-1.7,1.08-.46,2.09a7.85,7.85,0,0,1,2,2.44c.52,1,1.58,1.32,2.43,1.9.65.44,1-.29,1.48-.37C32.71,45.67,33.49,46,33.77,47.14Z"/><path class="cls-2" d="M33.77,47.14c-.28-1.17-1.06-1.47-2.77-1.2-.51.08-.83.81-1.48.37-.85-.58-1.91-1-2.43-1.9a7.85,7.85,0,0,0-2-2.44c-1.24-1-1.07-1.53.46-2.09.23-.08.48-.13.71-.2.35,1.27,1.12,1.66,2.16,1.06a2.26,2.26,0,0,1,2.45,0c1.9,1,2.94.61,3.76-1,1.13-.13,2.23.42,3.31.16-.53-1.08-1.75-.08-2.45-.77a2.1,2.1,0,0,1,.66-1.43,5.58,5.58,0,0,0,1.47-2.17c2.16.55,4.12-.35,6.14-.85.49-.12,1-.64,1.4.1.33.36-.3.79.12,1.18a10.32,10.32,0,0,0,2.58-4.08c1.48-.05,1.5-1.56,2.3-2.3l.41,0,.25.24c-.45.89-.32,1.41.83,1.29s1.6.28,1.26,1.6-1.15,2.48-.5,3.87l-.15.75A2.65,2.65,0,0,0,54,40.63l.67.53c-.38.46-.91.25-1.38.31-.63.08-1,.28-.41.9a2.81,2.81,0,0,0,.37,1.79c-.52.3-.52.59,0,.88l-.11.59c-1,.55-.45,1.52-.62,2.3-4.24-.17-8.48-.37-12.72-.49A31.39,31.39,0,0,1,33.77,47.14Zm6-8.08a2.59,2.59,0,0,0,2.85-1.25Z"/><path class="cls-2" d="M23.93,11l1.46.09a39.77,39.77,0,0,0-.88,5.84c0,.57,0,1.11.73,1.28,2.22.55,4,2.57,6.5,2.2.09,0,.21.19.32.29-.47.66-1,1.3-1.41,2-.19.32-.8.75-.25,1.11s.61-.33.84-.64a7.46,7.46,0,0,1,1.5-1.81c.35.19.87.51.68.83-.8,1.34.1,2.73-.24,4.06-.38,1.09-.26,1.7,1.11,1.22a3.69,3.69,0,0,1,1,0A19.65,19.65,0,0,1,34.43,33c-.55-.47-1.09-1-1.67-1.4a1.3,1.3,0,0,0-1.66.07c-.42.34-.94,1.23-.84,1.26,1.41.46,1.32,1.7,1.8,2.74a4.36,4.36,0,0,1,.82,2.23,4.5,4.5,0,0,1-1.48-1.14c-2.4-3-2.68-6.39-1.78-10,.1-.41.59-.88-.12-1.36l-.71,2c-.28.06-.72,0-.84.2a3.75,3.75,0,0,1-2.68,1.54c-.72.14-1.73,1-1.28,1.88.86,1.63-.49,1.74-1.26,2.17a1.62,1.62,0,0,1-2.38-1.4,17.21,17.21,0,0,1,.15-2.95c.6-3.55,1.86-6.94,2.12-10.58A65.05,65.05,0,0,1,23.93,11Zm7.6,17.86c.43.54.86,1.13,1.66,1.15.22,0,.3-.28.21-.47C33.05,28.8,32.41,28.66,31.53,28.86Z"/><path class="cls-2" d="M50.85,29.78l-.25-.24A1.48,1.48,0,0,1,53,29a4.69,4.69,0,0,0,3.21.84.43.43,0,0,0,.6.24.23.23,0,0,0,0-.23.64.64,0,0,0-.64-.26,1.89,1.89,0,0,0-.11-.25c.08-.35.2-.72-.24-.95-.27-.87-1.32-.82-1.76-1.5.62-1.43,1.87-1.35,3.08-1.19A14.94,14.94,0,0,1,60.68,27a1.7,1.7,0,0,1,1.16,1.78,4.19,4.19,0,0,0,1.39,3.13c.11.1.24.18.36.27-.29,2.5-.59,5-.88,7.49l-1.14.05c-1-.7-1,.2-1.27.78l.44.95c-1.32,0-2.33-1.35-3.88-.79-.54.2-1.7-.38-1.6-1.11.13-1-.36-.92-.91-1l-2.06-1.23.15-.75c.83-1,1-2.53,2.4-3.22.43-.22,1.25-.62.78-1.51s-1.08-1.7-2-1.5A4.62,4.62,0,0,1,50.85,29.78ZM59.9,40c-.11-.09-.2-.22-.32-.27s-.32,0-.21.22a.78.78,0,0,0,.34.24S59.82,40.11,59.9,40Z"/><path class="cls-2" d="M32.06,20.7c-.11-.1-.23-.31-.32-.29-2.54.37-4.28-1.65-6.5-2.2-.7-.17-.75-.71-.73-1.28a39.77,39.77,0,0,1,.88-5.84,2.73,2.73,0,0,1,2-.3c3.27.43,6.62-.07,9.87.69-.18.76-.42,1.51-.53,2.28-.07.47-.25,1.15.63,1.19-.1.2-.2.4-.29.6h0c-1.89,0-1.89,0-1.48,2.05-.49,0-.93-1-1.38-.26-.35.54.46.74.75,1.09l.08.13C33.83,19,33.31,20.34,32.06,20.7Z"/><path class="cls-2" d="M23.93,11a65.05,65.05,0,0,0-1.31,7.26c-.26,3.64-1.52,7-2.12,10.58a17.21,17.21,0,0,0-.15,2.95,1.62,1.62,0,0,0,2.38,1.4c.77-.43,2.12-.54,1.26-2.17-.45-.84.56-1.74,1.28-1.88A3.75,3.75,0,0,0,28,27.6c.12-.18.56-.14.84-.2L28.62,29a12.19,12.19,0,0,0-2.49.78,1.58,1.58,0,0,0-.67,2.56c.16.22.34.54.2.66-1.5,1.22-.18,1.23.61,1.57a1.22,1.22,0,0,1,.82,1,.72.72,0,0,1-.61.75c-.64.07-1.51-.06-1.73-.58-.63-1.49-1.59-1.34-2.89-1.11-2.32.41-3.46-1-2.95-3.34Q21,21.73,23,12.22A7.33,7.33,0,0,0,23,10.89,1.2,1.2,0,0,1,23.93,11Z"/><path class="cls-2" d="M62.07,12.09c.93-.12,1.85.25,2.8-.13.64-.25,1.06.08.93.84-.41,2.2-.24,4.48-1,6.62-.35,0-.86-.45-1,.06-.41,1.18-1,.59-1.51.2-1.29-1-2.88-1-4.37-1.35l-.84-.12c-.06-.41-.79-.6-.43-1.14s.84-.22,1.19,0c1.15.57,2.2,0,3.48-.14a1.81,1.81,0,0,1-.19-2.62c.75-.75,1.4.09,2,.51a.8.8,0,0,0,1.18-.2c.31-.55-.22-.79-.55-1C63.2,13.08,62.21,13.09,62.07,12.09Z"/><path class="cls-2" d="M53.45,11.66a32.48,32.48,0,0,1,5.66.27c1.24,1.17.5,2.75.83,4.1.2.84-.5.78-.93.57-1.91-1-3.51-.46-5,.92-.46.44-1.09.65-1.33,0-.45-1.27-1.59-2.13-1.92-3.44.66,0,1.82-.16,1.9.06.4,1.13,1.26.59,1.92.72.38.09.82.21.9-.34s-.18-1-.87-1a1.12,1.12,0,0,0-1.14-.65Z"/><path class="cls-2" d="M53.16,45.63c0-.19.08-.39.11-.59a.52.52,0,0,0,0-.88,2.81,2.81,0,0,1-.37-1.79l1,.09a2.64,2.64,0,0,0,2.14,2c1.19.34,2.39.61,3.59.89.64.16,1.31.61,1.69-.47s-.09-1.37-.92-1.62c.59-.48,1.38-.33,2-.64-.13,1.21-.26,2.41-.38,3.62a7,7,0,0,0-1.45,0c-1,.22-2,.51-2,1.83-1.8.17-3.59-.36-5.39-.09C53.66,47.21,53,46.43,53.16,45.63Z"/><path class="cls-2" d="M54.61,14.83c-.66-.13-1.52.41-1.92-.72-.08-.22-1.24,0-1.9-.06-.49-.45-1-.32-1.73-.17,1,1.2,2.22,2,2.58,3.49-1.6-1.31-2.81-3.07-4.9-3.84a2.32,2.32,0,0,0-1.59-.25c-2.68.82-5.53,1-8.07,2.27.09-.2.19-.4.29-.6,1.79-1.45,4.06-1.56,6.17-2.1,1.27-.32,2.63-.34,3.69-1.25a6.6,6.6,0,0,1,2.64.39c1,1,2.42.56,3.63.85a1.12,1.12,0,0,1,1.14.65Z"/><path class="cls-2" d="M51.64,17.37c-.36-1.44-1.57-2.29-2.58-3.49.71-.15,1.24-.28,1.73.17.33,1.31,1.47,2.17,1.92,3.44.24.68.87.47,1.33,0,1.46-1.38,3.06-1.89,5-.92.43.21,1.13.27.93-.57-.33-1.35.41-2.93-.83-4.1a10.13,10.13,0,0,1,3,.16c.14,1,1.13,1,1.72,1.45.33.25.86.49.55,1a.8.8,0,0,1-1.18.2c-.65-.42-1.3-1.26-2-.51a1.81,1.81,0,0,0,.19,2.62c-1.28.16-2.33.71-3.48.14-.35-.18-.85-.48-1.19,0s.37.73.43,1.14a1.34,1.34,0,0,0-1.37.91c-.31.58-.51,1.31-1.31,1.48.07-.33.11-.67.19-1s.61-.79.22-1.2a1,1,0,0,0-1.25,0c-.7.38-1.08-.25-1.6-.43Z"/><path class="cls-2" d="M64.5,23.6a1.52,1.52,0,0,1-.23,1.26c-.74,0-1.75-.61-2,.77a2.51,2.51,0,0,1-2.6.31c-2.06-1-4.17-1.59-6.27,0,0-.54.36-.82.64-1.22.57-.79,1.55-1.39,1.47-2.56a19.65,19.65,0,0,1,2,.35c1.59.45,3.3.19,4.85.87C63,24.52,63.79,23.6,64.5,23.6Zm-4.07,0c-.37.05-.9-.12-.9.47s.44.75.92.69,1-.16,1-.68C61.44,23.4,60.8,23.68,60.43,23.59Z"/><path class="cls-2" d="M47.23,11.6c-1.06.91-2.42.93-3.69,1.25-2.11.54-4.38.65-6.17,2.1-.88,0-.7-.72-.63-1.19.11-.77.35-1.52.53-2.28C40.6,10.88,43.92,11.32,47.23,11.6Z"/><path class="cls-2" d="M62.38,42.63c-.65.31-1.44.16-2,.64l-1.75,0a.91.91,0,0,0-1,.18c-1.28-.28-2.42-1.06-3.78-1l-1-.09c-.57-.62-.22-.82.41-.9.47-.06,1,.15,1.38-.31,2,.68,4.09.2,6.08.81.42.13.52-.33,0-.5l-.44-.95c.68.15,1.15,0,1.27-.78l1.14-.05C62.86,40.7,62.36,41.63,62.38,42.63Z"/><path class="cls-2" d="M53.44,25.9c2.1-1.55,4.21-1,6.27,0a2.51,2.51,0,0,0,2.6-.31c-.36,1.39.53,1.71,1.61,1.86A2.72,2.72,0,0,1,63.51,30c-.59.69.33,1.47.08,2.23-.12-.09-.25-.17-.36-.27a4.19,4.19,0,0,1-1.39-3.13A1.7,1.7,0,0,0,60.68,27a14.94,14.94,0,0,0-3.55-1.35c-1.21-.16-2.46-.24-3.08,1.19l-.86-.29c-.3-.14-.68-.31-.49-.7S53.18,25.91,53.44,25.9Z"/><path class="cls-2" d="M64.5,23.6c-.71,0-1.53.92-2.09-.26.26-.09.65.05.77-.29s-.23-.4-.43-.51c-.53-.28-1.06-.54-1.19-1.22a3,3,0,0,0-2.16-2.19c-.52-.21-1.21-.15-1.5-.8,1.49.33,3.08.35,4.37,1.35.52.39,1.1,1,1.51-.2.19-.51.7,0,1-.06C65.31,20.86,64.42,22.19,64.5,23.6Z"/><path class="cls-2" d="M58.59,48.1c0-1.32,1-1.61,2-1.83a7,7,0,0,1,1.45,0C61.72,48.55,61.72,48.55,58.59,48.1Z"/><path class="cls-2" d="M63.92,27.49c-1.08-.15-2-.47-1.61-1.86s1.22-.73,2-.77C64.08,25.73,64.54,26.68,63.92,27.49Z"/><path class="cls-2" d="M53.5,12.84c-1.21-.29-2.59.13-3.63-.85,1.21.1,2.34-.72,3.58-.33C53.46,12.05,53.48,12.44,53.5,12.84Z"/><path class="cls-2" d="M53.16,45.63c-.12.8.5,1.58,0,2.38l-.66-.08C52.71,47.15,52.17,46.18,53.16,45.63Z"/><path class="cls-2" d="M34.66,39.72c-.82,1.59-1.86,2-3.76,1a2.26,2.26,0,0,0-2.45,0c-1,.6-1.81.21-2.16-1.06.34-.37.81-.22,1.22-.3l.14.38.08-.39.36-.35c.45,0,1.14.31,1.3-.19s-.44-.84-1-.95V37.3c.38-.3.41-.59,0-.88v-.61c.82,0,.38-1,.91-1.21A10.1,10.1,0,0,0,34.66,39.72Z"/><path class="cls-2" d="M34.66,39.72a10.1,10.1,0,0,1-5.35-5.12c0-.23,0-.49-.27-.6-.09-.4.22-.89-.31-1.17L28.62,29c.06-.51.12-1,.17-1.55.24-.65.47-1.3.71-2,.71.48.22,1,.12,1.36-.9,3.59-.62,7,1.78,10a4.5,4.5,0,0,0,1.48,1.14c.19.57.74.64,1.18.85s.92.46,1.46.38c.7.69,1.92-.31,2.45.77C36.89,40.14,35.79,39.59,34.66,39.72Z"/><path class="cls-2" d="M28.41,37.88c.54.11,1.16.36,1,.95s-.85.16-1.3.19C28.19,38.64,28.3,38.26,28.41,37.88Z"/><path class="cls-2" d="M29,34c.3.11.26.37.27.6-.53.23-.09,1.2-.91,1.21A4.59,4.59,0,0,1,28.72,34Z"/><path class="cls-2" d="M28.39,36.42c.42.29.39.58,0,.88C27.92,37,28.29,36.71,28.39,36.42Z"/><path class="cls-2" d="M29,34l-.32,0c0-.38,0-.77,0-1.15C29.26,33.11,29,33.6,29,34Z"/><path class="cls-2" d="M27.73,39.37l-.08.39-.14-.38Z"/><path class="cls-2" d="M53.44,25.9c-.26,0-.56-.41-.74,0s.19.56.49.7c-1,1-2.86,1.14-3,3-.8.74-.82,2.25-2.3,2.3.84-3.05,1.48-6.12.16-9.19a7.78,7.78,0,0,0-4.86-4.82c-2.16-.71-4.26-.34-6.38-.47-.19-.65.15-1.22.26-1.83h0c2.54-1.27,5.39-1.45,8.07-2.27a2.32,2.32,0,0,1,1.59.25c2.09.77,3.3,2.53,4.9,3.84l.3.58c0,1.33,1.69,1.69,1.72,3,.08.41.31.6.74.48a1.82,1.82,0,0,1,1.15.69c.08,1.17-.9,1.77-1.47,2.56C53.8,25.08,53.42,25.36,53.44,25.9Z"/><path class="cls-2" d="M45.19,34.76c-.42-.74-.91-.22-1.4-.1-2,.5-4,1.4-6.14.85a1.43,1.43,0,0,1-.29,0c0-.25,0-.49-.07-.74,2.5-1.58,5-3.15,7.48-4.76.53-.34,1.34-.71.46-1.55-2.61-2.54-5.2-5.09-7.81-7.61-.16-.15-.45-.15-.68-.23.45-.92,1.41-1.51,1.69-2.54l.33-.07c.12.13.22.14.31,0,.66-.31,1.21.23,1.85.25a7.11,7.11,0,0,1,6.95,6.22,14.62,14.62,0,0,1,.05,5.19C47.59,31.53,47,33.54,45.19,34.76Z"/><path class="cls-2" d="M45.19,34.76c1.83-1.22,2.4-3.23,2.73-5.14a14.62,14.62,0,0,0-.05-5.19,7.11,7.11,0,0,0-6.95-6.22c-.64,0-1.19-.56-1.85-.25l-.31,0-.33.07a9.35,9.35,0,0,0-5.69,3.31,7.46,7.46,0,0,0-1.5,1.81c-.23.31-.42.91-.84.64s.06-.79.25-1.11c.42-.7.94-1.34,1.41-2,1.25-.36,1.77-1.73,3-2.14l.87-.56c.38-.08.85,0,.9-.62,2.12.13,4.22-.24,6.38.47a7.78,7.78,0,0,1,4.86,4.82c1.32,3.07.68,6.14-.16,9.19a10.32,10.32,0,0,1-2.58,4.08C44.89,35.55,45.52,35.12,45.19,34.76Z"/><path class="cls-2" d="M50.85,29.78a4.62,4.62,0,0,0,2.77.53c.92-.2,1.56.67,2,1.5s-.35,1.29-.78,1.51c-1.37.69-1.57,2.17-2.4,3.22-.65-1.39.18-2.63.5-3.87s0-1.75-1.26-1.6S50.4,30.67,50.85,29.78Z"/><path class="cls-2" d="M50.19,29.56c.14-1.85,2-2,3-3l.86.29c.44.68,1.49.63,1.76,1.5-.42.44-.3.75.24.95a1.89,1.89,0,0,1,.11.25,1,1,0,0,0,0,.25A4.69,4.69,0,0,1,53,29a1.48,1.48,0,0,0-2.35.57Z"/><path class="cls-2" d="M60.74,41.47c.55.17.45.63,0,.5-2-.61-4.11-.13-6.08-.81L54,40.63c.12-.7-.1-1.46.33-2.11.55.13,1,.09.91,1-.1.73,1.06,1.31,1.6,1.11C58.41,40.12,59.42,41.44,60.74,41.47Z"/><path class="cls-2" d="M37.36,35.47a1,1,0,0,0,.29,0,5.58,5.58,0,0,1-1.47,2.17,2.1,2.1,0,0,0-.66,1.43c-.54.08-1-.27-1.46-.38.15-1,1.64-1.41,1.17-2.68a1.52,1.52,0,0,1,1-.58Z"/><path class="cls-2" d="M54.35,38.52c-.43.65-.21,1.41-.33,2.11a2.65,2.65,0,0,1-1.73-3.34Z"/><path class="cls-2" d="M39.75,39.06l2.85-1.25A2.59,2.59,0,0,1,39.75,39.06Z"/><path class="cls-2" d="M53.27,44.16a.52.52,0,0,1,0,.88C52.75,44.75,52.75,44.46,53.27,44.16Z"/><path class="cls-2" d="M36.25,35.47a1.52,1.52,0,0,0-1,.58c-1.19.31-1.37-.36-1.08-1.24A5.22,5.22,0,0,0,34.43,33a19.65,19.65,0,0,0,.86-5.54c.19-1,.38-2,.58-3a4.23,4.23,0,0,0,.32-1.76l.44-2.1.11,0c.23.08.52.08.68.23,2.61,2.52,5.2,5.07,7.81,7.61.88.84.07,1.21-.46,1.55-2.48,1.61-5,3.18-7.48,4.76A2,2,0,0,0,36.25,35.47Zm1.08-13.34c-.26,1.48-.5,2.72-.7,4-.38,2.38-.7,4.77-1.11,7.14-.06.36-.5.73-.13,1s.77.08,1.11-.13C39,32.58,41.43,31,43.91,29.44c.5-.31.46-.52.1-.87Z"/><path class="cls-2" d="M36.19,22.71a4.23,4.23,0,0,1-.32,1.76l-2.69,1.78c.34-1.33-.56-2.72.24-4.06.19-.32-.33-.64-.68-.83a9.35,9.35,0,0,1,5.69-3.31c-.28,1-1.24,1.62-1.69,2.54l-.11,0C35.29,21.05,35.17,21.62,36.19,22.71Z"/><path class="cls-2" d="M34.43,33a5.22,5.22,0,0,1-.28,1.83c-.29.88-.11,1.55,1.08,1.24.47,1.27-1,1.68-1.17,2.68-.44-.21-1-.28-1.18-.85a4.36,4.36,0,0,0-.82-2.23c-.48-1-.39-2.28-1.8-2.74-.1,0,.42-.92.84-1.26a1.3,1.3,0,0,1,1.66-.07C33.34,32,33.88,32.51,34.43,33Z"/><path class="cls-2" d="M33.18,26.25l2.69-1.78c-.2,1-.39,2-.58,3a3.69,3.69,0,0,0-1,0C32.92,28,32.8,27.34,33.18,26.25Z"/><path class="cls-2" d="M31.53,28.86c.88-.2,1.52-.06,1.87.68.09.19,0,.47-.21.47C32.39,30,32,29.4,31.53,28.86Z"/><path class="cls-2" d="M61.57,39.74c-.12.75-.59.93-1.27.78C60.53,39.94,60.55,39,61.57,39.74Z"/><path class="cls-2" d="M56.05,29.31c-.54-.2-.66-.51-.24-.95C56.25,28.59,56.13,29,56.05,29.31Z"/><path class="cls-2" d="M56.16,29.81a1,1,0,0,1,0-.25.64.64,0,0,1,.64.26.23.23,0,0,1,0,.23A.43.43,0,0,1,56.16,29.81Z"/><path class="cls-2" d="M59.9,40c-.08.08-.16.2-.19.19a.78.78,0,0,1-.34-.24c-.11-.19.05-.27.21-.22S59.79,39.94,59.9,40Z"/><path class="cls-2" d="M36.81,17.38c-.05.58-.52.54-.9.62l-.32-.4c-.41-2-.41-2,1.48-2.05C37,16.16,36.62,16.73,36.81,17.38Z"/><path class="cls-2" d="M35.59,17.6l.32.4-.87.56L35,18.43c-.29-.35-1.1-.55-.75-1.09C34.66,16.62,35.1,17.57,35.59,17.6Z"/><path class="cls-2" d="M55.55,22.12a1.82,1.82,0,0,0-1.15-.69c0-.27,0-.55,0-.82h0c.8-.17,1-.9,1.31-1.48a1.34,1.34,0,0,1,1.37-.91l.84.12c.29.65,1,.59,1.5.8a3,3,0,0,1,2.16,2.19c.13.68.66.94,1.19,1.22.2.11.53.2.43.51s-.51.2-.77.29c-1.55-.68-3.26-.42-4.85-.87A19.65,19.65,0,0,0,55.55,22.12Z"/><path class="cls-2" d="M54.61,14.83l0-1.34c.69,0,1,.38.87,1S55,14.92,54.61,14.83Z"/><path class="cls-2" d="M53.85,42.46c1.36,0,2.5.75,3.78,1,.32-.09.76.51,1-.18l1.75,0c.83.25,1.26.64.92,1.62s-1.05.63-1.69.47c-1.2-.28-2.4-.55-3.59-.89A2.64,2.64,0,0,1,53.85,42.46Z"/><path class="cls-2" d="M53.66,21c0-1.31-1.73-1.67-1.72-3,.52.18.9.81,1.6.43a1,1,0,0,1,1.25,0c.39.41-.11.8-.22,1.2s-.12.66-.19,1h0A.78.78,0,0,0,53.66,21Z"/><path class="cls-2" d="M60.43,23.59c.37.09,1-.19,1,.48,0,.52-.56.63-1,.68s-.93-.13-.92-.69S60.06,23.64,60.43,23.59Z"/><path class="cls-2" d="M58.6,43.31c-.21.69-.65.09-1,.18A.91.91,0,0,1,58.6,43.31Z"/><path class="cls-2" d="M53.66,21a.78.78,0,0,1,.72-.34c0,.27,0,.55,0,.82C54,21.55,53.74,21.36,53.66,21Z"/><path class="cls-2" d="M36.25,35.47a2,2,0,0,1,1-.73c0,.25.05.49.07.74Z"/><path class="cls-2" d="M38.76,18l.31,0C39,18.12,38.88,18.11,38.76,18Z"/><path class="cls-2" d="M37.33,22.13,44,28.57c.36.35.4.56-.1.87C41.43,31,39,32.58,36.5,34.15c-.34.21-.81.39-1.11.13s.07-.68.13-1c.41-2.37.73-4.76,1.11-7.14C36.83,24.85,37.07,23.61,37.33,22.13Z"/><path class="cls-2" d="M36.19,22.71c-1-1.09-.9-1.66.44-2.1C36.49,21.31,36.34,22,36.19,22.71Z"/></g></g></svg>