<svg xmlns="http://www.w3.org/2000/svg" viewBox="0 0 316 177"><defs><style>.cls-1,.cls-2{fill:none;}.cls-2{stroke:#ca2e55;stroke-miterlimit:10;}</style></defs><g id="Layer_2" data-name="Layer 2"><g id="Layer_1-2" data-name="Layer 1"><path class="cls-1" d="M157.58,176.92q-76.7,0-153.41.08C.94,177,0,176.6,0,173Q.22,88.34,0,3.66C0,.92.31,0,3.51,0Q157.92.18,312.32,0C315.07,0,316,.3,316,3.49q-.19,84.93,0,169.87c0,3.5-1.27,3.61-4,3.6Q234.78,176.87,157.58,176.92Zm5.49-13.85c10.59.6,20.35-2.36,29.68-6.81,7-3.33,14.29-6.67,19.31-12.64,10.71-12.76,19.06-27.21,28.07-41.18,9.48-14.69,18.49-29.6,33.36-40,8.23-5.72,16.64-11.24,23.93-18.38,8.37-8.19,5.94-21.2-4.48-26.14a35.49,35.49,0,0,0-21.29-2.69c-15.76,2.52-31.38,6-47.06,9-8.08,1.57-16.15,3.2-24.27,4.57-15.75,2.65-31.57,4.85-47.27,7.76C140.24,39,127.75,43,115,45.49c-17.61,3.4-35.39,6-53,9.26a126.09,126.09,0,0,0-25.6,7.5c-10.21,4.28-15.91,13-19.62,23-1.93,5.21-3.81,10.53-3.13,16.26,1,8.28,6.54,12.66,13.36,16.54,10.92,6.22,22.1,10.78,34.92,11.36,8.35.38,16.66,2,24.94,3.38,13.7,2.28,24,11.6,35.62,18C135.24,157.76,148.37,162.83,163.07,163.07Z"/><path class="cls-2" d="M163.07,163.07c-14.7-.24-27.83-5.31-40.62-12.32-11.66-6.38-21.92-15.7-35.62-18-8.28-1.37-16.59-3-24.94-3.38-12.82-.58-24-5.14-34.92-11.36-6.82-3.88-12.39-8.26-13.36-16.54-.68-5.73,1.2-11,3.13-16.26,3.71-10,9.41-18.7,19.62-23A126.09,126.09,0,0,1,62,54.75c17.65-3.3,35.43-5.86,53-9.26C127.75,43,140.24,39,153.05,36.64c15.7-2.91,31.52-5.11,47.27-7.76,8.12-1.37,16.19-3,24.27-4.57,15.68-3,31.3-6.52,47.06-9A35.49,35.49,0,0,1,292.94,18c10.42,4.94,12.85,17.95,4.48,26.14-7.29,7.14-15.7,12.66-23.93,18.38-14.87,10.36-23.88,25.27-33.36,40-9,14-17.36,28.42-28.07,41.18-5,6-12.32,9.31-19.31,12.64C183.42,160.71,173.66,163.67,163.07,163.07ZM286,48.75c2,.12,3.27-.52,3.06-2.8,1-1.89,3.95-1.79,4.52-4.18a2.29,2.29,0,0,0,2.24-1.2c4.17-3.73,4.14-5.27-.2-7.94-2.23-1.38-2-3.23-.94-5.14.81-1.46,1.12-2.75-.46-3.85C290.49,21,287.09,17.78,282,18c-4.14.15-8.36-.45-12.4.16-5.66.87-11.75.67-16.55,4.69l-1.91.22c-4.25-.27-8.58-.83-11.78,3a1.39,1.39,0,0,0,.06.9l-1.23,0-7,0c-.75-1.06-1.41-1-2,.18l-2.83.15c-1.33-.47-2,.15-2.37,1.37l-3.79.22c-1.38-1.46-1.78-.35-2.16.81l-2.83.23c-1.38-1.52-1.77-.39-2.13.79l-2.84.16c-.77-1-1.43-.94-2,.2l-1.82.15c-3.17.59-6.77-.52-9.32,2.42l-1.84.09c-2-1.16-3.84-1.67-5.14.94l-1.83.09a9.21,9.21,0,0,0-10.12,1.9l-1.82.16c-1-1.29-2.42-1.09-3.66-.86-10,1.84-20.14,3.39-30,5.78-16.49,4-33,7.91-49.8,10.28-4.11.57-9-.36-12.27,3.55l-3.87.24c-1.53-1.61-2.51-1.17-3.06.82l-1.92.14c-1.1-1.33-2.09-1.32-2.93.26-8.52.93-16.63,3.56-24.83,5.81-6,1.62-11.43,4.18-15.62,8.76-1.2,1.3-5.35,4.06.58,5l-.05,0c-1.46,2.17-4.84,1-6,2.88-4.53,7-7.61,14.82-6.11,23.16s9.26,11.47,15.64,15.46c13.08,8.18,28,8.61,42.73,10.26,11.67,1.31,23.05,3.75,33,10.56,5.17,3.52,10.58,6.69,15.83,10.09,1.87,1.21,3.52,2,4.86-.59l3.69.59c-.1,3.4,3.79,2.24,4.89,4.26.12,2.08,1.71,2.42,3.3,3.06,14.34,5.79,28.76,5.42,43.11.37,5.82-2,11.74-4.17,16.36-8.6l3-2a1.81,1.81,0,0,0,2.14-1.79,28.63,28.63,0,0,1,6-6c.46-.17,1.09-.21,1.34-.54a289.25,289.25,0,0,0,18.88-27.64c.89-1.47,3-2.86,2.07-5.19l1.25-2.3a1.81,1.81,0,0,0,1-2.29c.5-1.13.72-2.47,2.24-2.78l.6.4,0-.78.07-.06c2.37-1.14,4.33-2.51,3.21-5.62.16-.53.33-1.06.49-1.59l1.67-.34a31.62,31.62,0,0,0,7.94-11.93h0c1.33-.07,2-.74,1.85-2.08a54.59,54.59,0,0,0,9-9.07c2.19.21,3.23-1.1,3.9-2.92L268,62.46c2.18.2,3.23-1.1,3.89-2.92a1.61,1.61,0,0,0,.93-2c.59-.76,1.18-1.52,2.29-1.46,5.19.53,7.38-3.92,10.74-6.45A4.44,4.44,0,0,0,286,48.75Z"/><path class="cls-2" d="M80.67,55.56c3.27-3.91,8.16-3,12.27-3.55,16.84-2.37,33.31-6.3,49.8-10.28,9.9-2.39,20-3.94,30-5.78,1.24-.23,2.68-.43,3.66.86-3.69,2.78-8.22,1.63-12.31,2.57-8.95,2-18,3.79-27,5.46-7.16,1.32-13,3-16.57,5.7,9.62-3.07,17.66-3.07,25.68.77,2.69,1.3,4.58-2,4.61-4.21s1-2.72,2.37-3c9.2-1.84,18.42-3.58,27.64-5.28,6.88-1.26,13.77-2.42,20.66-3.62l-.12-1-4.2-.53c2.55-2.94,6.15-1.83,9.31-2.43,0,1.09.41,2.18,1.62,2,10.11-1.64,20.46-2.2,30.06-6.26l1.23,0a182.08,182.08,0,0,0,37.51-6.56,33.88,33.88,0,0,0-8.36.07c-5.24.47-10.1,3.3-15.52,2.37,4.8-4,10.89-3.82,16.55-4.69,4-.61,8.26,0,12.4-.16,5.1-.19,8.5,3.06,12.24,5.67,1.58,1.1,1.27,2.39.46,3.85-1.05,1.91-1.29,3.76.94,5.14,4.34,2.67,4.37,4.21.2,7.94-.5-1.81,2.46-3.93.12-5.24-1.81-1-3.54,1-5.13,2.09-.65.44-1.51.67-1.63,1.64-7.57,6.2-14.91,12.74-24,16.73-4.24-2.8.36-4.34,1.27-5.62,3.48-4.87,7.34-9.45,9.73-15,1.25-2.52,3.81-3.61,5.8-5.33a13.66,13.66,0,0,1,2.88.5c1.85.74,3.41.57,3.86-1.5s-1.14-2.79-3-2.93c.46-2.32,0-3.76-2.67-2.3a34.67,34.67,0,0,0-4.19,3.23c-3.18.83-4.84,3.3-6.24,6-4.17,7.95-10,14.76-15.58,21.65-3.68,4.52-7.52,8.82-9.23,14.55-.2.68-1.11,1.14-1.69,1.71a41.39,41.39,0,0,0-26.86,9.64c-2.18,1.76-2.67,3.18,1,3.26.79,1.17.89,3,2.88,3l7,4.93c.59,1.34,2.13,2.19,2,3.9l-.27.86a3,3,0,0,0-2.78,3,48.09,48.09,0,0,0-4.7,8.63c-2.8,6.81-7.37,12.9-11.21,19.28a3.19,3.19,0,0,0-2.78,1.78c-2.56,4.8-6.1,4.85-10.87,3.1-3.88-1.43-7.51-3.37-11.39-4.71-21.51-7.43-43.29-13.92-65.43-19.22a1.52,1.52,0,0,1-1.36-2c5.86-1.32,7.25-8,12.29-10.68,1.27-.68,1.17-2.44-.66-3A99.34,99.34,0,0,0,111.32,89c-.22,0-.47.42-.7.65L103,89c-2.19-.2-4.4.93-6.58-.12-3.73.07-5.21,2-4.77,5.63.18,1.41.58,3.13-1.79,3.22A217.69,217.69,0,0,0,62,88.47L55.9,85.53c1.84-3,6.51-.24,8-3.91,3.19-.47,6.65.79,9.58-1.44,2.29.57,2.51-1.39,3.3-2.67,3.5.39,3.19-1.56,2-3.55-3.16-5.08-7.37-8.36-13.84-7.17-.69-3.29-3.37-1.79-5.26-2.16-2.32-.45-5.08,1-7.41-1.67,18.79-3.39,37-7.36,55.65-8.75a7.14,7.14,0,0,1-6.06,2.47C98,56.32,97.53,57.9,99,60.92c-.38.94-.76,1.87-1.15,2.81-6.37,3.16-7,4.65-3.76,9,1.66,4,5,1.65,7.58,1.79s4.87-.07,5.32,3.46c.39,2.95,2.45,3.88,6.35,3.19-4-2-4.1-5.22-3-7.74.72-1.66,3.52-.78,5.43-.36,1.65,2.41,1.05,4.21-1.3,5.83-1,.71-1.52,2.05.41,2.4,2.14.38,6.39-4.72,6.34-8,0-3-2.64-1.31-4.08-1.74,1.83-2.85,4.59-3.65,7.67-3.78.5,1.89-2.63,3.48-1.34,3.79,3.3.77,4.92,5,9.19,4.13-5-2.9-3.56-8-5-12l2.61-3.43-3.51-1.59a24.05,24.05,0,0,0-13-3.67,13.67,13.67,0,0,0-12.19-2.54C94.7,54.08,87.63,54.58,80.67,55.56ZM202.22,77.72c.4.21.79.43,1.2.61.06,0,.23-.21.34-.31l-1.22-.68c-4.24-6.36-6.76-7.53-11.94-5.2,3.37,1.5,8.16,1.67,6.55,7.18l-1.84.28c-2,0-4,1.85-6.11,0-1.92-1.69.63-4-.44-5.65-2.55-.23-2,4.55-5.12,2.55-.41-1.35.34-2.53.52-3.79.25-1.65-.61-3.21-2.41-2.91-8,1.38-16.28.41-24.14,2.86-3.07-.71-5.91.63-8.8,1.15-7.25,1.29-7.5,1.86-6,8.85,1.6,3.55-1.21,7.29.24,10.88,2.09-.42,2.16-3.29,4.47-3,5.56,2.07,10.77,5.35,17.06,4.88,2,2.14,3.81.73,5.6-.37,5.4-3.34,8.87-8.39,12.23-13.55,4.41,2.62,8.74,2.9,12.94-.45l2.08-1.39C199,78.85,200.18,77.3,202.22,77.72Zm.13-28.94c1.39.08,2.77.16,3.08-1.69,2.62.57,1.65,3.88,3.7,4.85a4.05,4.05,0,0,0,2.29.5.9.9,0,0,0,.29-1.57c-2.9-2.59-3.36-6.31-4.05-9.81-2.95.82-2.43,5.59-6.3,4.25,0-.64,0-1.3,0-1.94.23-3.92-.33-5.85-5.47-4.91-4.28.8-8.52,1.81-12.78,2.67-4.5-.63-8.11,1.74-11.9,3.51a3.82,3.82,0,0,0-3.75,2c-1.35,0-2.75.82-1.81,2,4.47,5.74-1.14,5.61-3.92,7.42-1,.63-3.28-.66-2.91,1.53.45,2.68.38,5.52,2.46,7.86,1.69,1.9,3.12,1.35,4.74.37,2.12-1.28,1.23-2.83.07-4.1A55.05,55.05,0,0,0,162,58c1.28-.41,2.49-.75,3.66-1.19,8.76-3.3,8.77-3.32,15,3.65.59.67,1.5,1.54,1.92.86,3-4.92,7.76-2.5,11.6-2.4,4.71.13,7.07-1,6.72-6,2.13-.81,1.39-2.64,1.5-4.18Zm20.79-12.33c-2.54-1.59-2.31,2.24-4.13,2.09-6.87-.54-2.84,5.42-4.49,8-1.19,1.88,1.7,2.9,3.71,3.2l1.89.25c-.25,2.27-.49,4.55-.74,6.82,0,5.66-5.93,1.22-7.65,5.12,3.87-1.3,7.79,4.63,11.27-1.4.67-1.17,2.23-.52,2.72.76,2.12,5.47,2.71.12,4-.52,3.86-3.09,8.48-4.55,13-6.22,4.88-1.78,10.27-3.06,12.41-8.77,3.08.22,3.16-.82,1.4-3-5-6.07-11.92-8.15-19.16-9.66-2.2-.71-4.36.9-6.71-.11-1.39-.6-2.46.51-2,2.28C226.85,35.79,225.21,37.19,223.14,36.45Zm-52.33,78.62c.51,1.13,1.61,1,2.57,1.22,7.24,5.51,16,8.07,24.13,11.65,2.06.9,3.83,0,5-2.58,2-4.59,2.09-9.58,3.7-14.21,1.53-4.41-2.58-8.61-.43-13.09.2-.41-1.31-.67-2.13-.73-3.41-1.89-6.84-.42-10.17.16-9.51,1.67-18.6,4.51-26.17,10.91-1.66,1.4-1.69,1.37.2,2.77C168.47,112.58,169,114.39,170.81,115.07ZM156,70.26c-1.41-3.51-3.38-6.38-2.69-10.09A1.9,1.9,0,0,0,151.69,58c-1.19-.27-1.8.38-2.17,1.47-.63,1.87-3,4-3.75,3-3.66-4.65-6.3.06-9.32.51a3.91,3.91,0,0,0-3.65,4c.12,2.16.64,5.48,2,6.12,2.23,1,5.36,1.55,7.89-.72,1.73-1.55,1.53-2.39-.21-3.78s-4.21-.22-5.9-2.28C144.46,61.67,150.16,65.61,156,70.26Zm68.25-2.79c-6.4,4.15-12,3.84-14.51-.28-.53-.87-.25-2.82-1.89-2.23-2.44.89-1.22,3.44-1.73,5.22s.91,1.24,1.76,1.39c4.57.79,9.41.24,13.47,3.42,1.74,1.36,2.67-.35,2.86-1.94A52.69,52.69,0,0,0,224.22,67.47Zm.64-1c.44-.18.94-.33.92-.4a4,4,0,0,0-.37-1c-.26.1-.71.18-.73.32A3.67,3.67,0,0,0,224.86,66.52Z"/><path class="cls-2" d="M132.62,149l-3.69-.59c0-.53-.05-1.07-.07-1.61-1.82-4.05-6.43-4.16-9.42-6.61-11-9-23.23-15.48-37.4-17.71-14.44-2.28-29.11-2.56-43.16-7.86C25.46,109.53,19.22,100.84,25.39,87c2.26-5.06,4.95-5.48,9.86-2.85,11.26,6,23.39,9.81,35.7,13.05l7.89,2.11c.48,1.12,1.58,1,2.5,1.29,10.63,3.52,22,5,31.71,11,6.86,4.28,13.76,8.45,21,12.05,2,1,4.92-.27,6.16,2.39,2.59,5.55,8.38,6.65,13,9.38a2.36,2.36,0,0,0,.33.72c1.37,2.73,4.07,3.42,6.64,4.3,2.92.55,4.7-1.24,6.44-3.12,2-1.36,4.17-2.63,6.11-4.13a4.52,4.52,0,0,1,4.66-.85c6.88,2.93,14.1,4.76,21.27,6.79,2.9.82,3.14,2.2.47,3.79-14.52,8.68-29.78,14.36-47.06,10.66-5.14-1.1-10.07-3.18-15.2-4.45C135.64,148.86,134.09,146.63,132.62,149Z"/><path class="cls-2" d="M132.62,149c1.47-2.35,3-.12,4.26.18,5.13,1.27,10.06,3.35,15.2,4.45,17.28,3.7,32.54-2,47.06-10.66,2.67-1.59,2.43-3-.47-3.79-7.17-2-14.39-3.86-21.27-6.79a4.52,4.52,0,0,0-4.66.85c-1.94,1.5-4.07,2.77-6.11,4.13.79-4.55-1.59-6.83-5.5-8.6-2-.88-3.53.75-5.16-.11-.93-.5-1.89-2.08-2.81-.7s-1.71,3.24-.84,5c.43.84,1.31,1.43.9,2.55-4.61-2.73-10.4-3.83-13-9.38-1.24-2.66-4.12-1.38-6.16-2.39-7.26-3.6-14.16-7.77-21-12.05-9.71-6.07-21.08-7.53-31.71-11-.92-.3-2-.17-2.5-1.29,1.9-1.66,4-.9,6-.41,1.89.45,3.87,1.33,5.06-1.18,2.37-.09,2-1.81,1.79-3.22-.44-3.64,1-5.56,4.77-5.63.07,3.13.1,6.26.21,9.39.07,2,1.48,2.34,3.13,2.19s2.51-1.31,1.6-2.71c-2.32-3.55-.29-6.1,1.64-8.75l7.58.64c.79,3,3.22,7.11,2.08,8.77-3.68,5.33,1.35,4.76,3.35,6.31,1,.79,3.06,1.86,2.93,2.36-1.65,6.32,4.21,4.57,6.23,4.93,8.31,1.45,15.79,4.88,23.31,8.3a19.22,19.22,0,0,0,6,1.85c6.77.66,12.87,3.68,19.35,5.36,8.86,2.29,17.36,6,26.13,8.65,2.49.77,2.73,2.47,3.51,4.22.92,2.07-.8,2.36-1.86,3.31-2.12,1.92-4.67,3.05-7.06,4.51-1.85,1.14-4.69,1-5.31,3.87-13.49,6.18-27.45,7.26-41.87,3.92-3.36-.78-6.4-2.67-10-2.73C136.41,151.22,132.52,152.38,132.62,149Z"/><path class="cls-2" d="M189.33,152.05c.62-2.84,3.46-2.73,5.31-3.87,2.39-1.46,4.94-2.59,7.06-4.51,1.06-.95,2.78-1.24,1.86-3.31-.78-1.75-1-3.45-3.51-4.22-8.77-2.7-17.27-6.36-26.13-8.65-6.48-1.68-12.58-4.7-19.35-5.36a19.22,19.22,0,0,1-6-1.85c-7.52-3.42-15-6.85-23.31-8.3-2-.36-7.88,1.39-6.23-4.93.13-.5-1.9-1.57-2.93-2.36-2-1.55-7-1-3.35-6.31,1.14-1.66-1.29-5.78-2.08-8.77.23-.23.48-.67.7-.65a99.34,99.34,0,0,1,21.73,3.58c1.83.54,1.93,2.3.66,3-5,2.69-6.43,9.36-12.29,10.68a1.52,1.52,0,0,0,1.36,2c22.14,5.3,43.92,11.79,65.43,19.22,3.88,1.34,7.51,3.28,11.39,4.71,4.77,1.75,8.31,1.7,10.87-3.1a3.19,3.19,0,0,1,2.78-1.78c0,2.06-1.32,3.49-2.37,5.08-.86,1.3-2,2.8.39,3.84l.15,2.11a28.44,28.44,0,0,0-6,6,1.75,1.75,0,0,0-2.14,1.79l-3,2C196.15,148.09,193.34,151.71,189.33,152.05ZM124.71,100c-2.26-.55-3.89-1.14-5.35.51a1,1,0,0,0,.31,1.63C121.6,102.79,123,102,124.71,100Z"/><path class="cls-2" d="M80.67,55.56c7-1,14-1.48,20.82-3.1A13.67,13.67,0,0,1,113.68,55c-4.87,2.06-7.42,9.88-14.73,5.92-1.42-3-.94-4.6,2.89-4.24a7.14,7.14,0,0,0,6.06-2.47C89.24,55.6,71,59.57,52.25,63c2.33,2.71,5.09,1.22,7.41,1.67,1.89.37,4.57-1.13,5.26,2.16A35.94,35.94,0,0,1,76.81,77.51c-.79,1.28-1,3.24-3.3,2.68-3.74-7.1-15.32-12.37-23.32-10.85-1.76.33-1.44,1.62-1.72,2.5-.59,1.84,1,1.51,2.07,1.77,2,.52,4.92-2.45,6.08,1.51,5.27-1,6.25,2.79,7.31,6.5-1.52,3.67-6.19.91-8,3.91a30.45,30.45,0,0,0-14.6-4.68A18.43,18.43,0,0,0,41.62,78c-.15-5.22,4.55-9.66,2.44-15.18C52.26,60.58,60.37,58,68.89,57c1.07,1,2,1,2.93-.26l1.92-.14c1.14.15,2.28.34,3.06-.82Z"/><path class="cls-2" d="M44.06,62.83c2.11,5.52-2.59,10-2.44,15.18a18.17,18.17,0,0,1-.32,2.83c-1,1-2.13.47-3.27.21-10.76-2.51-13.73-4.32-18,11a29.35,29.35,0,0,0-1,7.32A11.75,11.75,0,0,0,23.41,109c10.47,8.64,22.44,14.28,36.06,15.07,21.72,1.26,42.35,5.24,60,19.07,2.55,2,5.43,4.51,9.35,3.62,0,.54,0,1.08.07,1.61-1.34,2.55-3,1.8-4.86.59-5.25-3.4-10.66-6.57-15.83-10.09-10-6.81-21.36-9.25-33-10.56-14.7-1.65-29.65-2.08-42.73-10.26-6.38-4-14.15-7.12-15.64-15.46S18.42,86.46,23,79.45c1.18-1.84,4.56-.71,6-2.88.9-.12,2,.31,2.49-.85.08-.18-.44-.85-.74-.89-1.31-.19-1.6.74-1.7,1.78-5.93-1-1.78-3.72-.58-5C32.63,67,38.11,64.45,44.06,62.83Z"/><path class="cls-2" d="M211.27,136.15c-2.39-1-1.25-2.54-.39-3.84,1.05-1.59,2.37-3,2.37-5.08,3.84-6.38,8.41-12.47,11.21-19.28a47.66,47.66,0,0,1,4.7-8.62c2.05,0,3.11-.87,2.78-3l.27-.86c1.69.09,2.25-1.34,2.89-2.38,4.64-7.57,10.49-14.32,14.84-22.1,2-3.61,4.42-7.69,8.22-9.1,3.46-1.28,5.63-2.93,7-6.07,9.12-4,16.46-10.53,24-16.73,2.57-.89,3.71.54,4.4,2.71-.57,2.39-3.48,2.29-4.52,4.18-1.58-.41-2.16,1.13-3.25,1.68a2.29,2.29,0,0,0-2.08,1.77c-3.95.87-5.52,4.81-8.68,6.69-1.11-.06-1.7.7-2.29,1.46a6.75,6.75,0,0,0-4.67,1.3c-4.49,3.54-9.28,6.81-13,11.23-1.89,2.28-5.35,3.72-4.93,7.55L244,87.36c-1.35.34-2,1.1-1.47,2.52-.16.52-.33,1.05-.49,1.58-2.64,1-2.74,3.4-3.21,5.62l-.07.07a.54.54,0,0,0-.58.37c-1.52.31-1.74,1.65-2.24,2.78-1.42.28-2.24.84-1,2.29l-1.25,2.3A3.92,3.92,0,0,0,231,106.8Q221.17,121.5,211.27,136.15Z"/><path class="cls-2" d="M197.19,33.63l4.2.53.12,1c-6.89,1.2-13.78,2.36-20.66,3.62-9.22,1.7-18.44,3.44-27.64,5.28-1.35.28-2.34.84-2.37,3s-1.92,5.51-4.61,4.21c-8-3.84-16.06-3.84-25.68-.77,3.54-2.73,9.41-4.38,16.57-5.7,9-1.67,18.06-3.41,27-5.46,4.09-.94,8.62.21,12.31-2.57l1.82-.16a16.56,16.56,0,0,0,10.12-1.9l1.83-.09c1.79.07,3.71.93,5.14-.94Z"/><path class="cls-2" d="M189.33,152.05c4-.34,6.82-4,10.95-4-4.62,4.42-10.54,6.54-16.36,8.59-14.35,5.05-28.77,5.42-43.11-.37-1.59-.64-3.18-1-3.3-3.06,3.55.06,6.59,1.95,10,2.73C161.88,159.31,175.84,158.23,189.33,152.05Z"/><path class="cls-2" d="M211.27,136.15q9.87-14.67,19.71-29.35a3.92,3.92,0,0,1,2.72-1.91c.9,2.33-1.18,3.72-2.07,5.19a289.25,289.25,0,0,1-18.88,27.64c-.25.33-.88.37-1.34.54C211.37,137.56,211.32,136.86,211.27,136.15Z"/><path class="cls-2" d="M250.22,77.63c-.42-3.83,3-5.27,4.93-7.55,3.67-4.42,8.46-7.69,13-11.23a6.75,6.75,0,0,1,4.67-1.3,1.61,1.61,0,0,1-.93,2c-2,.08-3.53.7-3.89,2.92l-1.08,1.06c-2,.08-3.52.73-3.9,2.92a54.59,54.59,0,0,1-9,9.07,1.83,1.83,0,0,0-1.85,2.08h0Z"/><path class="cls-2" d="M253,22.82c5.42.93,10.28-1.9,15.52-2.37a33.88,33.88,0,0,1,8.36-.07,182.08,182.08,0,0,1-37.51,6.56,1.39,1.39,0,0,1-.06-.9c4-.67,8.2-.64,11.78-3Z"/><path class="cls-2" d="M238.18,26.92c-9.6,4.06-20,4.62-30.06,6.26-1.21.2-1.6-.89-1.62-2l1.83-.14c.76,1,1.41.83,2-.2.94-.05,1.89-.11,2.84-.15a1.68,1.68,0,0,0,2.13-.8l2.83-.23a1.64,1.64,0,0,0,2.16-.81l3.8-.21a1.73,1.73,0,0,0,2.36-1.38l2.83-.15c.74.91,1.39.76,2-.18Z"/><path class="cls-2" d="M250.22,77.63l1.93,0a31.62,31.62,0,0,1-7.94,11.93c-.07-.72-.14-1.44-.2-2.17Z"/><path class="cls-2" d="M293.59,41.77c-.69-2.17-1.83-3.6-4.4-2.71.12-1,1-1.2,1.63-1.64,1.59-1.08,3.32-3.11,5.13-2.09,2.34,1.31-.62,3.43-.12,5.24A2.29,2.29,0,0,1,293.59,41.77Z"/><path class="cls-2" d="M275.06,56.09c3.16-1.88,4.73-5.82,8.68-6.69l2.05.24C282.44,52.17,280.25,56.62,275.06,56.09Z"/><path class="cls-2" d="M251.13,23c-3.58,2.36-7.77,2.33-11.78,3C242.55,22.21,246.88,22.77,251.13,23Z"/><path class="cls-2" d="M188.38,34.75a16.56,16.56,0,0,1-10.12,1.9A9.21,9.21,0,0,1,188.38,34.75Z"/><path class="cls-2" d="M238.84,97.08c.47-2.22.57-4.64,3.21-5.62C243.17,94.57,241.21,95.94,238.84,97.08Z"/><path class="cls-2" d="M195.35,33.72c-1.43,1.87-3.35,1-5.14.94C191.51,32.05,193.37,32.56,195.35,33.72Z"/><path class="cls-2" d="M268,62.46c.36-2.22,1.92-2.84,3.89-2.92C271.18,61.36,270.13,62.66,268,62.46Z"/><path class="cls-2" d="M263,66.44c.38-2.19,1.92-2.84,3.9-2.92C266.2,65.34,265.16,66.65,263,66.44Z"/><path class="cls-2" d="M285.82,47.63c1.09-.55,1.67-2.09,3.25-1.68.21,2.28-1.08,2.92-3.06,2.8C286,48.38,285.89,48,285.82,47.63Z"/><path class="cls-2" d="M76.8,55.8c-.78,1.16-1.92,1-3.06.82C74.29,54.63,75.27,54.19,76.8,55.8Z"/><path class="cls-2" d="M71.82,56.76C70.94,58,70,58,68.89,57,69.73,55.44,70.72,55.43,71.82,56.76Z"/><path class="cls-2" d="M220.26,28.87a1.64,1.64,0,0,1-2.16.81C218.48,28.52,218.88,27.41,220.26,28.87Z"/><path class="cls-2" d="M210.3,30.86c-.56,1-1.21,1.17-2,.2C208.87,29.92,209.53,29.82,210.3,30.86Z"/><path class="cls-2" d="M226.42,27.28a1.73,1.73,0,0,1-2.36,1.38C224.4,27.43,225.09,26.81,226.42,27.28Z"/><path class="cls-2" d="M231.21,27c-.57.94-1.22,1.09-2,.18C229.8,26,230.46,25.89,231.21,27Z"/><path class="cls-2" d="M285.82,47.63c.07.37.13.75.19,1.12a3.86,3.86,0,0,1-.22.89l-2.05-.24A2.29,2.29,0,0,1,285.82,47.63Z"/><path class="cls-2" d="M252.15,77.59A1.83,1.83,0,0,1,254,75.51C254.12,76.85,253.48,77.52,252.15,77.59Z"/><path class="cls-2" d="M215.27,29.91a1.68,1.68,0,0,1-2.13.8C213.5,29.52,213.89,28.39,215.27,29.91Z"/><path class="cls-2" d="M203.28,146.05a1.75,1.75,0,0,1,2.14-1.79A1.81,1.81,0,0,1,203.28,146.05Z"/><path class="cls-2" d="M244,87.36c.06.73.13,1.45.2,2.17l-1.67.34C242,88.46,242.66,87.7,244,87.36Z"/><path class="cls-2" d="M235,102.59c-1.24-1.45-.42-2,1-2.29A1.81,1.81,0,0,1,235,102.59Z"/><path class="cls-2" d="M238.19,97.52a.54.54,0,0,1,.58-.37c0,.25,0,.51,0,.77Z"/><path class="cls-2" d="M128.86,146.78c-3.92.89-6.8-1.63-9.35-3.62-17.69-13.83-38.32-17.81-60-19.07-13.62-.79-25.59-6.43-36.06-15.07A11.75,11.75,0,0,1,19,99.4a29.35,29.35,0,0,1,1-7.32c4.26-15.35,7.23-13.54,18-11,1.14.26,2.23.75,3.27-.21a30.57,30.57,0,0,1,14.6,4.69L62,88.47c-.91,1.89-1.86,3.56,1.59,4,3,.4,5.35,2.47,7.41,4.68-12.31-3.24-24.44-7-35.7-13.05-4.91-2.63-7.6-2.21-9.86,2.85-6.17,13.86.07,22.55,13.49,27.62,14,5.3,28.72,5.58,43.16,7.86,14.17,2.23,26.44,8.7,37.4,17.71C122.43,142.62,127,142.73,128.86,146.78Z"/><path class="cls-2" d="M203.63,97.33c.82.06,2.33.32,2.13.73-2.15,4.48,2,8.68.43,13.09-1.61,4.63-1.68,9.62-3.7,14.21-1.15,2.6-2.92,3.48-5,2.58-8.18-3.58-16.89-6.14-24.13-11.65,1.8-1.31,3.9-1.29,6-1.53,3.88-.45,7.85,0,11.65-1.24,2.06-.7,4.61-3.61,5.91,1.1.29,1,1.69.44,2.42-.39,1.2-1.35,2.49-2.63,3.57-4.07,2-2.64,1-5.45-2.34-5.58a41.72,41.72,0,0,0-29.78,10.49c-1.85-.68-2.34-2.49-3.32-3.9,8.87-6.06,18.95-8.83,29.33-10.87C199.24,99.82,202.29,100.41,203.63,97.33Z"/><path class="cls-2" d="M200.83,53c.35,4.92-2,6.1-6.72,6-3.84-.1-8.57-2.52-11.6,2.4-.42.68-1.33-.19-1.92-.86-6.18-7-6.19-6.95-15-3.65-1.17.44-2.38.78-3.66,1.19a55.05,55.05,0,0,1,4.13,3.74c1.16,1.27,2,2.82-.07,4.1-1.62,1-3,1.53-4.74-.37-2.08-2.34-2-5.18-2.46-7.86-.37-2.19,1.93-.9,2.91-1.53,2.78-1.81,8.39-1.68,3.92-7.42-.94-1.2.46-2,1.81-2,1.1,2.75,3.72,3.56,6.07,4.62,1.36.61,3.25,1,4-.53.85-1.73-1.13-2.3-2.26-3.11-1.36-1-3.76-.58-4.06-3,3.79-1.77,7.4-4.14,11.9-3.51.9,1.66-1.21,2.81-.82,4.67,4.79-.86,9.86-3.4,13.55,2.09a2,2,0,0,0,1.32.58C199.88,48.8,200.43,50.81,200.83,53Zm-18.06-1.82c-1.08.14-1.28.87-1.07,1.75.41,1.74,1.22,3,3.33,2.78.76-.09,1.81.13,1.56-1.16C186.19,52.46,184.59,51.67,182.77,51.15Z"/><path class="cls-2" d="M265.16,55.79c-1.37,3.14-3.54,4.79-7,6.07-3.8,1.41-6.2,5.49-8.22,9.1-4.35,7.78-10.2,14.53-14.84,22.1-.64,1-1.2,2.47-2.89,2.38.09-1.71-1.45-2.56-2-3.9,6.26-.93,6.82-7,9.72-10.93.84-1.13-.59-2.35-1.89-1.88-5.31,1.93-10.73,3.72-14.86,7.88-2,0-2.09-1.86-2.88-3a62.72,62.72,0,0,1,20-9.36c2.16-.54,5.25-.21,5.87-3.54.58-.57,1.49-1,1.69-1.71,1.71-5.73,5.55-10,9.23-14.55,5.61-6.89,11.41-13.7,15.58-21.65,1.4-2.65,3.06-5.12,6.24-6,.24,1.91-1.5,2.74-2.21,4.13s-2.42,2.56-.5,4.2c-2.39,5.57-6.25,10.15-9.73,15C265.52,51.45,260.92,53,265.16,55.79Z"/><path class="cls-2" d="M157.61,72.68c7.86-2.45,16.14-1.48,24.14-2.86,1.8-.3,2.66,1.26,2.41,2.91-.18,1.26-.93,2.44-.52,3.79a5.23,5.23,0,0,1-1.21,5c-3.36,5.16-6.83,10.21-12.23,13.55-1.79,1.1-3.58,2.51-5.6.37.89-.72,1.81-1.4,2.67-2.15,5.24-4.63,5.06-6.46-1.13-9.44-1.17-.56-2.73-2-4-.55-1.13,1.31-.75,3.14-.12,4.69a9.3,9.3,0,0,0,1.5,1.93c.5.64,1.17,1.34.33,2.1s-1.51.3-2.29-.06c-5.84-2.68-6.36-5.42-1.9-10.11a31.06,31.06,0,0,0,2.27-2.6c.53-.69.56-2.11-.22-1.94C157.28,78.28,159,74.15,157.61,72.68Zm19.76,4.07c-2.49,0-2.71,1.88-3.11,3.6s.71,2.16,1.92,2c2.16-.31,2.61-2.23,3-4C179.44,77.12,178.47,76.75,177.37,76.75Zm2.14-3.37.33-.25-.28-.31-.42.43Z"/><path class="cls-2" d="M157.61,72.68c1.39,1.47-.33,5.6,4.09,4.64.78-.17.75,1.25.22,1.94a31.06,31.06,0,0,1-2.27,2.6c-4.46,4.69-3.94,7.43,1.9,10.11.78.36,1.59.7,2.29.06s.17-1.46-.33-2.1A9.3,9.3,0,0,1,162,88c-.63-1.55-1-3.38.12-4.69,1.28-1.48,2.84,0,4,.55,6.19,3,6.37,4.81,1.13,9.44-.86.75-1.78,1.43-2.67,2.15-6.29.47-11.5-2.81-17.06-4.88,1.14-1,4.13-1.35,1.59-3.76-1.82-1.74-3.7-3.52-6.3-4.13-1.52-7-1.27-7.56,6-8.85C151.7,73.31,154.54,72,157.61,72.68Z"/><path class="cls-2" d="M219.38,56.84c.25-2.27.49-4.55.74-6.82a34,34,0,0,1,13.7-3.65c5-.36,4.34,1.33,3.39,4.4l-.23.35.21-.37c3.45,1.19,5.89-.55,7.84-3,2.2-2.78-.83-3.92-2.09-5.58-.74-1-2.33-1.68-1.19-3.25a2.91,2.91,0,0,1,4-.8c3.72,1.85,6.52,4.84,9.42,7.7-2.14,5.71-7.53,7-12.41,8.77-4.56,1.67-9.18,3.13-13,6.22C228.08,54.73,223.31,56.87,219.38,56.84Z"/><path class="cls-2" d="M237.21,50.77c.95-3.07,1.65-4.76-3.39-4.4A34,34,0,0,0,220.12,50l-1.89-.25c3-3.94,6.5-7.7,4.91-13.32,2.07.74,3.71-.66,5.53-1.12a23.76,23.76,0,0,1,2.64,1.12c4.58,2.6,5.51,2.1,6.06-3.28,7.24,1.51,14.19,3.59,19.16,9.66,1.76,2.16,1.68,3.2-1.4,3-2.9-2.86-5.7-5.85-9.42-7.7a2.91,2.91,0,0,0-4,.8c-1.14,1.57.45,2.28,1.19,3.25,1.26,1.66,4.29,2.8,2.09,5.58-1.95,2.46-4.39,4.2-7.84,3Z"/><path class="cls-2" d="M170.81,115.07a41.72,41.72,0,0,1,29.78-10.49c3.32.13,4.31,2.94,2.34,5.58-1.08,1.44-2.37,2.72-3.57,4.07-.73.83-2.13,1.43-2.42.39-1.3-4.71-3.85-1.8-5.91-1.1-3.8,1.29-7.77.79-11.65,1.24-2.1.24-4.2.22-6,1.53C172.42,116.09,171.32,116.2,170.81,115.07Z"/><path class="cls-2" d="M99,60.92c7.31,4,9.86-3.86,14.73-5.92a24.05,24.05,0,0,1,13,3.67c0,2.29-1.85,2.9-3.5,3.64a70.45,70.45,0,0,1-20.58,5.9c-5.27.63-5.47.79-4.79-4.48Z"/><path class="cls-2" d="M127.57,63.69c1.47,4,.05,9.1,5,12-4.27.89-5.89-3.36-9.19-4.13-1.29-.31,1.84-1.9,1.34-3.79-3.08.13-5.84.93-7.68,3.78L115.71,73c-1.91-.42-4.71-1.3-5.43.36-1.09,2.52-1,5.7,3,7.74-3.9.69-6-.24-6.35-3.19-.45-3.53-2.64-3.32-5.32-3.46S95.7,76.73,94,72.68c5.88.18,11.32-2,17-3.08C116.87,68.43,121.4,63.83,127.57,63.69Z"/><path class="cls-2" d="M156,70.26c-5.81-4.65-11.51-8.59-19.39-4,1.69,2.06,4.22.94,5.9,2.28s1.94,2.23.21,3.78c-2.53,2.27-5.66,1.76-7.89.72-1.36-.64-1.88-4-2-6.12a3.91,3.91,0,0,1,3.65-4c3-.45,5.66-5.16,9.32-.51.76,1,3.12-1.15,3.75-3,.37-1.09,1-1.74,2.17-1.47a1.9,1.9,0,0,1,1.59,2.19C152.59,63.88,154.56,66.75,156,70.26Z"/><path class="cls-2" d="M63.93,81.62c-1.06-3.71-2-7.51-7.31-6.5-1.16-4-4.06-1-6.08-1.51-1-.26-2.66.07-2.07-1.77.28-.88,0-2.17,1.72-2.5,8-1.52,19.58,3.75,23.32,10.85C70.58,82.41,67.12,81.15,63.93,81.62Z"/><path class="cls-2" d="M200.83,53c-.4-2.16-1-4.17-3.65-4.5a2,2,0,0,1-1.32-.58c-3.69-5.49-8.76-3-13.55-2.09-.39-1.86,1.72-3,.82-4.67,4.26-.86,8.5-1.87,12.78-2.67,5.14-.94,5.7,1,5.47,4.91,0,.64,0,1.3,0,2-.1,1.28-.28,2.57,1,3.47C202.22,50.33,203,52.16,200.83,53Z"/><path class="cls-2" d="M127.57,63.69c-6.17.14-10.7,4.74-16.57,5.91-5.64,1.13-11.08,3.26-17,3.08-3.24-4.3-2.61-5.79,3.76-9-.68,5.27-.48,5.11,4.79,4.48a70.45,70.45,0,0,0,20.58-5.9c1.65-.74,3.46-1.35,3.5-3.64l3.51,1.59Z"/><path class="cls-2" d="M203.63,97.33c-1.34,3.08-4.39,2.49-6.81,3-10.38,2-20.46,4.81-29.33,10.87-1.89-1.4-1.86-1.37-.2-2.77,7.57-6.4,16.66-9.24,26.17-10.91C196.79,96.91,200.22,95.44,203.63,97.33Z"/><path class="cls-2" d="M71,97.18C68.89,95,66.58,92.9,63.54,92.5c-3.45-.47-2.5-2.14-1.59-4a217.69,217.69,0,0,1,28,9.23c-1.19,2.51-3.17,1.63-5.06,1.18-2-.49-4.1-1.25-6,.41Z"/><path class="cls-2" d="M223.14,86.61c4.13-4.16,9.55-6,14.86-7.88,1.3-.47,2.73.75,1.89,1.88-2.9,3.91-3.46,10-9.72,10.93Z"/><path class="cls-2" d="M246.13,70.68c-.62,3.33-3.71,3-5.87,3.54a62.72,62.72,0,0,0-20,9.36c-3.66-.08-3.17-1.5-1-3.26A41.39,41.39,0,0,1,246.13,70.68Z"/><path class="cls-2" d="M223.14,36.45c1.59,5.62-1.91,9.38-4.91,13.32-2-.3-4.9-1.32-3.71-3.2,1.65-2.61-2.38-8.57,4.49-8C220.83,38.69,220.6,34.86,223.14,36.45Z"/><path class="cls-2" d="M224.22,67.47a52.69,52.69,0,0,1,0,5.58c-.19,1.59-1.12,3.3-2.86,1.94-4.06-3.18-8.9-2.63-13.47-3.42-.85-.15-2.24.32-1.76-1.39s-.71-4.33,1.73-5.22c1.64-.59,1.36,1.36,1.89,2.23C212.23,71.31,217.82,71.62,224.22,67.47Z"/><path class="cls-2" d="M219.38,56.84c3.93,0,8.7-2.11,10.3,4-1.25.64-1.84,6-4,.52-.49-1.28-2.05-1.93-2.72-.76-3.48,6-7.4.1-11.27,1.4C213.45,58.06,219.38,62.5,219.38,56.84Z"/><path class="cls-2" d="M76.81,77.51A35.94,35.94,0,0,0,64.92,66.79C71.39,65.6,75.6,68.88,78.76,74,80,76,80.31,77.9,76.81,77.51Z"/><path class="cls-2" d="M182.43,81.53a5.23,5.23,0,0,0,1.21-5c3.16,2,2.57-2.78,5.12-2.55,1.07,1.67-1.48,4,.44,5.65,2.07,1.83,4.07-.05,6.11,0l.06,1.48C191.17,84.43,186.84,84.15,182.43,81.53Z"/><path class="cls-2" d="M103,89c-1.93,2.65-4,5.2-1.64,8.75.91,1.4.17,2.54-1.6,2.71s-3.06-.15-3.13-2.19c-.11-3.13-.14-6.26-.21-9.39C98.64,89.9,100.85,88.77,103,89Z"/><path class="cls-2" d="M142.83,82.68c2.6.61,4.48,2.39,6.3,4.13,2.54,2.41-.45,2.75-1.59,3.76-2.31-.3-2.38,2.57-4.47,3C141.62,90,144.43,86.23,142.83,82.68Z"/><path class="cls-2" d="M202.33,48.79c-1.25-.9-1.07-2.19-1-3.47,3.87,1.33,3.35-3.44,6.3-4.26.69,3.5,1.15,7.22,4.05,9.81a.9.9,0,0,1-.29,1.57,4.05,4.05,0,0,1-2.29-.5c-2-1-1.08-4.28-3.7-4.86-1.54-.35-2.93-.44-3.08,1.7Z"/><path class="cls-2" d="M276.16,35.15c-1.92-1.64-.16-2.9.5-4.2s2.45-2.22,2.21-4.13a34.67,34.67,0,0,1,4.19-3.23c2.64-1.46,3.13,0,2.67,2.3-2.25.36-2.49,2.65-3.77,3.93C280,31.54,277.41,32.63,276.16,35.15Z"/><path class="cls-2" d="M197.14,79.31c1.62-5.5-3.17-5.67-6.54-7.17,5.18-2.33,7.7-1.16,11.94,5.2l-.32.38c-2-.42-3.26,1.13-4.77,2Z"/><path class="cls-2" d="M115.71,73l1.36-1.47c1.45.43,4-1.26,4.09,1.74,0,3.24-4.2,8.34-6.34,8-1.93-.35-1.45-1.69-.41-2.4C116.76,77.23,117.36,75.43,115.71,73Z"/><path class="cls-2" d="M171.23,44.64c.3,2.42,2.7,2,4.06,3,1.13.81,3.11,1.38,2.26,3.11-.75,1.52-2.64,1.14-4,.53-2.35-1.06-5-1.87-6.07-4.62A3.82,3.82,0,0,1,171.23,44.64Z"/><path class="cls-2" d="M237.37,33.17c-.55,5.38-1.48,5.88-6.06,3.28a23.76,23.76,0,0,0-2.64-1.12c-.47-1.76.6-2.87,2-2.27C233,34.07,235.17,32.46,237.37,33.17Z"/><path class="cls-2" d="M282,29.82c1.28-1.28,1.52-3.57,3.77-3.93,1.83.14,3.45.76,3,2.93s-2,2.24-3.86,1.5A13.66,13.66,0,0,0,282,29.82Z"/><path class="cls-2" d="M231.94,96.3c.33,2.16-.73,3-2.78,3A3,3,0,0,1,231.94,96.3Z"/><path class="cls-2" d="M202.35,48.78c.15-2.14,1.54-2.05,3.08-1.7C205.12,48.94,203.74,48.86,202.35,48.78Z"/><path class="cls-2" d="M224.86,66.52a3.67,3.67,0,0,1-.18-1.12c0-.14.47-.22.73-.32a4,4,0,0,1,.37,1C225.8,66.19,225.3,66.34,224.86,66.52Z"/><path class="cls-2" d="M202.54,77.34l1.22.68c-.11.1-.28.33-.34.31-.41-.18-.8-.4-1.2-.61Z"/><path class="cls-2" d="M195.37,81.08l-.06-1.48,1.84-.28.3.37Z"/><path class="cls-2" d="M153.22,135.45c.41-1.12-.47-1.71-.9-2.55-.87-1.72-.07-3.59.84-5s1.88.2,2.81.7c1.63.86,3.2-.77,5.16.11,3.91,1.77,6.29,4.05,5.5,8.6-1.74,1.88-3.52,3.67-6.44,3.12q.19-3.1.37-6.21l.39-.5-.51.38c-2.14,1.21-4.16,2.8-6.89,2A2.36,2.36,0,0,1,153.22,135.45Z"/><path class="cls-2" d="M160.56,134.26q-.18,3.11-.37,6.21c-2.57-.88-5.27-1.57-6.64-4.3,2.73.77,4.75-.82,6.89-2Z"/><path class="cls-2" d="M124.71,100c-1.68,2-3.11,2.79-5,2.14a1,1,0,0,1-.31-1.63C120.82,98.86,122.45,99.45,124.71,100Z"/><path class="cls-2" d="M29,76.61c.1-1,.39-2,1.7-1.78.3,0,.82.71.74.89-.47,1.16-1.59.73-2.49.85Z"/><path class="cls-2" d="M182.77,51.16c1.82.51,3.42,1.3,3.82,3.36.25,1.29-.8,1.07-1.56,1.16-2.11.26-2.92-1-3.33-2.78C181.49,52,181.69,51.29,182.77,51.16Z"/><path class="cls-2" d="M177.37,76.74c1.1,0,2.07.38,1.79,1.65-.37,1.72-.82,3.64-3,4-1.21.17-2.29-.41-1.92-2S174.88,76.7,177.37,76.74Z"/><path class="cls-2" d="M179.51,73.38l-.37-.13.42-.43.28.31Z"/><path class="cls-2" d="M237.19,50.75l-.21.37.23-.35Z"/><path class="cls-2" d="M160.44,134.14l.51-.38-.39.5Z"/><path class="cls-1" d="M158,176.9q-77,0-153.92.1C.67,177,0,176.33,0,172.93Q.21,88.5,0,4.07C0,.67.67,0,4.08,0Q158,.18,311.92,0c3.41,0,4.09.67,4.08,4.07q-.21,84.44,0,168.86c0,3.4-.67,4.08-4.08,4.07Q235,176.79,158,176.9ZM106.75,54.78h0C89.68,57.32,77.11,78.6,83.36,94.42a12.73,12.73,0,0,0,1.85,2.9c4.07,5.4,10.17,5.66,16.08,6,9.07.54,18.16-.54,27.25,1a109.63,109.63,0,0,0,28.67.65,105,105,0,0,1,23.71.09c9.94,1.28,19.76,4.11,29.27-2.85,11-8.05,20.82-16.51,24.25-30.53a117.6,117.6,0,0,1,11.25-29.42c3.16-5.69,6.27-11.55,7.83-18,1.24-5.14.51-9.48-3.2-13.69-5.13-5.8-11.94-6.31-18.59-6.31a164,164,0,0,0-60.31,11.91c-2.39.94-5.84.42-7,3.8l-2.94,1c-3.06-.29-5.72.9-8.55,1.91-12.25,4.39-20.6,14.58-31.6,20.8-1.77,1-4,1.84-4.6,4.24-.81,1.68-2.6,2-4,2.91C109.81,50.74,107.71,51.9,106.75,54.78Z"/><path class="cls-2" d="M164.44,19.92c1.14-3.38,4.59-2.86,7-3.8A164,164,0,0,1,231.73,4.21c6.65,0,13.46.51,18.59,6.31,3.71,4.21,4.44,8.55,3.2,13.69-1.56,6.47-4.67,12.33-7.83,18a117.6,117.6,0,0,0-11.25,29.42c-3.43,14-13.24,22.48-24.25,30.53-9.51,7-19.33,4.13-29.27,2.85a105,105,0,0,0-23.71-.09,109.63,109.63,0,0,1-28.67-.65c-9.09-1.5-18.18-.42-27.25-1-5.91-.35-12-.61-16.08-6a12.73,12.73,0,0,1-1.85-2.9c-6.25-15.82,6.32-37.1,23.38-39.63-.92,2.05-3.23,2.18-4.72,3.4-2.71,2.23-7.06,2.36-8.3,6.45-2.07.49-3.58,1.16-1.8,3.64C93,69.81,93.36,73,92,72.9c-6.79-.67-4.72,5.09-5,7.44C85.74,92,86,99.8,103.49,99.61a226.58,226.58,0,0,1,24.64,1.58c7.37.73,14.78,1.94,22.23,1.14a142.43,142.43,0,0,1,39.44.8c6.81,1.15,14.09,1.44,19.58-4.5l10.83-9.22c2.71,0,3.16-1.71,3-3.9,1.75-1.22,2.41-3.09,3-5,4.12-3.8,6.48-8.32,5.7-14.09l.19-2.78c1.91-3.56,4.36-6.94,5.6-10.71,1.36-4.13,5.26-7.44,4.14-12.37a2.78,2.78,0,0,1,.23-.83c6.83-6.23,9.81-13.83,8.68-23.93-2,1.92-3.68,2.91-3.6,5.19v0c-3.85-3.43-4.55-7.18-1.57-9.52-2.94-1.83-5.78-3.56-9.42-2.45l-17.63-.54c-4.38-1.16-8.5.49-12.67,1.27-2.6.49-5.85-.54-7.55,2.62l-1.7.05c-1.29-.39-2.55-.7-3.29.91l-1.67.11c-1-.39-1.88-.32-2.31.86l-1.72.12c-2.78-1-5.15.49-7.63,1.26C174.89,17.27,170,19.83,164.44,19.92Z"/><path class="cls-2" d="M164.44,19.92c5.56-.09,10.45-2.65,15.6-4.24,2.48-.77,4.85-2.26,7.63-1.26-4.87,4-11.21,4.3-16.8,6.45-11.23,4.31-22.83,7.78-32.31,15.61-5.67,4.68-11.82,8.7-17.56,13.32-8.07,6.49-18,10-26.9,15.2l-.38-.36c1.24-4.09,5.59-4.22,8.3-6.45,1.49-1.22,3.8-1.35,4.72-3.4h0a7.71,7.71,0,0,0,6-4c1.41-.87,3.2-1.23,4-2.92,6-1.26,10.56-5.21,15.06-8.88,7.95-6.47,16.25-12.1,26.07-15.36,1.37-.46,3.52-.35,3.62-2.7Z"/><path class="cls-2" d="M161.5,21c-.1,2.35-2.25,2.24-3.62,2.7-9.82,3.26-18.12,8.89-26.07,15.36-4.5,3.67-9,7.62-15.06,8.88.61-2.39,2.83-3.23,4.6-4.23,11-6.22,19.35-16.41,31.6-20.8C155.78,21.86,158.44,20.67,161.5,21Z"/><path class="cls-2" d="M112.74,50.82a7.71,7.71,0,0,1-6,4C107.71,51.9,109.81,50.74,112.74,50.82Z"/><path class="cls-2" d="M209.38,98.63c-5.49,5.94-12.77,5.65-19.58,4.5a142.43,142.43,0,0,0-39.44-.8c-7.45.8-14.86-.41-22.23-1.14a226.58,226.58,0,0,0-24.64-1.58C86,99.8,85.74,92,87,80.34c.26-2.35-1.81-8.11,5-7.44,1.36.13,1-3.09-.08-4.62-1.78-2.48-.27-3.15,1.8-3.64l.38.35c0,2.11,1.14,2.2,3,2.06,6.14-.44,11-3.61,16.3-6.31,7.12-3.63,12-10.21,19.53-13.1A4,4,0,0,0,134.71,46c2.89-4.79,8.73-6.18,11.88-11.13,3.59-5.66,11.07-5.69,16.93-8.06,9.91-4,20.27-6.64,30.3-10.27,9-3.26,19.49-2.38,29.27-3.73,5.41-.74,10.89-.3,16.92-.94-1.7-1.25-3.89-.59-3.8-2.85,3.64-1.11,6.48.62,9.42,2.45-3,2.34-2.28,6.09,1.57,9.52-3.38,6.84-7.55,13.25-10.51,20.34-2.27,5.42-6.05,10.19-7.59,16a24.16,24.16,0,0,0-1.7,2.35c-4.22,7.54-6.56,16-12,23-2,2.63-4.9,5.54-4,9.65L207,94.88c-16,1-32.17.34-47.5-4-21.66-6.13-44.47-6-65.81-13.26a2.54,2.54,0,0,0-1,.06c-.14-1,.57-2.52-1.09-2.73-1.18-.15-1.47,1.17-1.67,2a35.79,35.79,0,0,0-.48,4.3l-.18,6.25c-1.28,2.53-.26,4.1,2.12,5.13l3,2.23a1.73,1.73,0,0,0,2.41,1.42,42.12,42.12,0,0,0,10.74,1c5.24-.08,10.47,0,15.71,0,3.2,1.95,6.68,2,10.26,1.57,6.59.16,13.16,1.08,19.77.41,5.48.88,10.77-.39,16.08-1.39l10,.77c.59,1,1.25,1,2,.16l4.67.34c1.07,1.77,2.53,1.82,4.2,1l1.78,0c2.31,2.22,4.77,2,7.31.45l5.8-1.29ZM184.51,62.81l4.58-1.72c-2.27-2.73-4.56-4.38-8.7-2.73,1.76,1.21,4.52,1.3,3.76,4l-2,.84c.11.11.2.3.33.33A1.88,1.88,0,0,0,184.51,62.81Zm-18,5.81c1.77.23,2.83,3.65,4.35,2.11,1.78-1.79-1.48-2.18-2.27-3.37-.67-1-1.56-2-.69-3C169,63,170.54,63.5,172,64c1.83.69,2.5,3.39,5.5,3.27-1.87-3.89-4.48-5.81-8.27-5.56-3.5.24-4.43,2.9-4.7,5.91a20.57,20.57,0,0,0-4.33-.79,4.27,4.27,0,0,0-4.27,3.45c-.61,2.23.4,3.4,2.63,3.8.38-1.72-1.23-4,.64-5,3.19-1.76,4.34,2.41,7,3.25C166.25,70.87,166.35,69.75,166.46,68.62Zm33.08-14.21c-2-.63-3.27-1-4.5-1.41a2.37,2.37,0,0,1-1.68-3.1,2.57,2.57,0,0,1,2.94-2.11c2.06.35,4,1.13,5-1.71a3.09,3.09,0,0,1,2.26.11,1.53,1.53,0,0,1,.13,2.54c-2.21,1.67-1.72,3.91-1.72,6.12a1.29,1.29,0,0,0,1,1.42.93.93,0,0,0,1.24-1.06c-.2-2.47,1.43-4.33,2-6.51,1.06-3.84-1-5.63-5-5-2.15.34-3.56,2.09-5.92,2.19-3.46.16-5.81,2.5-4.56,6S194.8,56.91,199.54,54.41Zm3.7-26.86a2.48,2.48,0,0,0-3-2.11c-2.45.51-4.72,1.6-4.82,4.63,0,1.19,1.07,2.06,1.9,1.62C199.45,30.55,202.19,30.09,203.24,27.55ZM195.4,37.67c-2.1-2.22-3.69-4-5.43-5.66-.63-.59-1.8-1.37-2.3.21-.23.75-1.25,2.42,0,2.35C190.62,34.39,191.71,37.92,195.4,37.67ZM134.79,60c.79-3,4.76-1.75,6.1-4.41.43-.84.45-1.58-.36-2.13-.57-.39-1.4-.52-1.62.29-.7,2.57-2.5,3.17-4.87,3.07-1,0-1.43.67-1.33,1.63S133.65,59.67,134.79,60Zm-9.72,6.31a14.69,14.69,0,0,1,3.2-.65c2.14.07,2.56-1,2.24-2.79-.24-1.33-.5-2.92-2.07-3-2.53-.12-1.08,1.79-1.09,2.84C127.34,64.31,125.23,64.24,125.07,66.32Zm60.58-26c-.66,3.07-4.62,2.06-5.43,4.91C183.16,45,186.41,45.33,185.65,40.29ZM123.49,68.07c-1.8-4.45-4.49-3.4-6.65-3.12-1.7.22-1.77.81-1.33,4.51C117.14,65.28,119.61,64.75,123.49,68.07Zm47-23.26c-.36-1.83.89-4-1.22-5.39C168.17,42.06,168.17,42.06,170.46,44.81Zm43-18.22c-.89-.27-1.12.31-1.13,1A2,2,0,0,0,214,29.62c.72.17,1.16-.41,1.22-1.12C215.32,27.25,214.41,26.89,213.45,26.59Z"/><path class="cls-2" d="M236.21,9c-.09,2.26,2.1,1.6,3.8,2.85-6,.64-11.51.2-16.92.94-9.78,1.35-20.25.47-29.27,3.73-10,3.63-20.39,6.29-30.3,10.27-5.86,2.37-13.34,2.4-16.93,8.06-3.15,5-9,6.34-11.88,11.13a4,4,0,0,1-1.82,1.64c-7.48,2.89-12.41,9.47-19.53,13.1-5.31,2.7-10.16,5.87-16.3,6.31-1.82.14-3,0-3-2.06,8.88-5.24,18.83-8.7,26.9-15.19,5.74-4.62,11.89-8.64,17.56-13.32,9.48-7.83,21.08-11.3,32.31-15.61,5.59-2.15,11.93-2.44,16.8-6.45l1.72-.12c1.31,1.18,1.8.13,2.31-.86l1.67-.11c1.49,1.13,2.56.71,3.29-.91l1.7-.05c4.54,1,8.67-1.12,12.93-1.95,2.41-.46,5.52,1,7.29-1.94Z"/><path class="cls-2" d="M209.38,98.63l-4.22.63c-.17-1.8,2.89-2.22,1.88-4.38l4.38-2.54c7.07-5,12.24-11.39,13.71-20.21.28-1.67,1.45-3,1.86-4.4,1-3.37,4.16-6.42,2.11-10.4,1.54-5.81,5.32-10.58,7.59-16,3-7.09,7.13-13.5,10.51-20.34v0c1.64,1.36.58,2.87.39,4.43-.65,5.24-5.45,8.87-5.47,14.31a2.76,2.76,0,0,0-.23.84c-3.83,3.16-5.07,7.9-6.92,12.13-1.47,3.39-3.69,6.84-2.82,10.94L232,66.44c-3.51,4-4.11,9.27-5.71,14.09-.63,1.89-1.29,3.76-3,5-2.42.21-3,1.82-3,3.9Z"/><path class="cls-2" d="M242.11,39.75c0-5.44,4.82-9.07,5.47-14.31.19-1.56,1.25-3.07-.39-4.43-.08-2.28,1.59-3.27,3.6-5.19C251.92,25.92,248.94,33.52,242.11,39.75Z"/><path class="cls-2" d="M232.14,63.66c-.87-4.1,1.35-7.55,2.82-10.94,1.85-4.23,3.09-9,6.92-12.13,1.12,4.92-2.78,8.23-4.14,12.36C236.5,56.72,234.05,60.1,232.14,63.66Z"/><path class="cls-2" d="M218.58,8.48c-1.77,2.92-4.88,1.48-7.29,1.94-4.26.83-8.39,2.92-12.93,1.95,1.7-3.16,4.95-2.13,7.55-2.62C210.08,9,214.2,7.32,218.58,8.48Z"/><path class="cls-2" d="M226.25,80.53c1.6-4.82,2.2-10,5.71-14.09C232.73,72.21,230.37,76.73,226.25,80.53Z"/><path class="cls-2" d="M220.21,89.41c0-2.08.58-3.69,3-3.9C223.37,87.7,222.92,89.42,220.21,89.41Z"/><path class="cls-2" d="M196.66,12.42c-.73,1.62-1.8,2-3.29.91C194.11,11.72,195.37,12,196.66,12.42Z"/><path class="cls-2" d="M191.7,13.44c-.51,1-1,2-2.31.86C189.82,13.12,190.67,13.05,191.7,13.44Z"/><path class="cls-2" d="M207,94.88c1,2.16-2,2.58-1.88,4.38l-5.8,1.29c-2.33-1.93-4.82-1.23-7.31-.45-.59,0-1.19,0-1.78,0-.92-2.42-2.58-1.61-4.2-.95l-4.67-.34c-.56-1.33-1.21-1.56-2-.16l-10-.77c-3.86-2.15-13-1.36-16.08,1.39-6.61.67-13.18-.25-19.77-.41-3.08-2.76-6.56-2.87-10.26-1.57-5.24,0-10.47,0-15.71,0a42.12,42.12,0,0,1-10.74-1c-.22-1.46-1-1.95-2.41-1.42l-3-2.23c0-2-.14-4-2.13-5.13q.09-3.14.19-6.25a3.92,3.92,0,0,0,3.23-3.6,2.54,2.54,0,0,1,1-.06c21.34,7.27,44.15,7.13,65.81,13.26C174.87,95.22,191,95.85,207,94.88Zm-59.78.55c2.51,0,6.15,0,9.8,0,1,0,2.16-.19,2.17-1.46s-1.13-1.44-2.15-1.49a37.42,37.42,0,0,1-7.84-1c-9.08-2.32-18.14-4.65-27.62-5.29a104.53,104.53,0,0,1-22.38-3.57c-1.37-.4-2.78-1.73-4,.06a3.93,3.93,0,0,0,0,4.67c2.26,2.82,4.48,5.62,8.91,5.24a88.82,88.82,0,0,1,12.42.12C126.49,93.3,136.15,96.08,147.26,95.43Z"/><path class="cls-2" d="M229.1,57.33c2.05,4-1.12,7-2.11,10.4-.41,1.42-1.58,2.73-1.86,4.4-1.47,8.82-6.64,15.16-13.71,20.21-.89-4.11,2-7,4-9.65,5.41-7,7.75-15.47,12-23A24.16,24.16,0,0,1,229.1,57.33Z"/><path class="cls-2" d="M199.54,54.41c-4.74,2.5-7.58.87-8.79-2.52s1.1-5.82,4.56-6c2.36-.1,3.77-1.85,5.92-2.19,4-.65,6.05,1.14,5,5-.61,2.18-2.24,4-2,6.51a.93.93,0,0,1-1.24,1.06,1.29,1.29,0,0,1-1-1.42c0-2.21-.49-4.45,1.72-6.12a1.53,1.53,0,0,0-.13-2.54,3.09,3.09,0,0,0-2.26-.11c-.95,2.84-2.9,2.06-5,1.71a2.57,2.57,0,0,0-2.94,2.11A2.37,2.37,0,0,0,195,53C196.27,53.42,197.51,53.78,199.54,54.41Z"/><path class="cls-2" d="M164.48,67.65c.27-3,1.2-5.67,4.7-5.91,3.79-.25,6.4,1.67,8.27,5.56-3,.12-3.67-2.58-5.5-3.27-1.41-.53-3-1.07-4.1.28-.87,1,0,2,.69,3,.79,1.19,4.05,1.58,2.27,3.37-1.52,1.54-2.58-1.88-4.35-2.11l0,0a1.54,1.54,0,0,0-2-1Z"/><path class="cls-2" d="M166.46,68.62c-.11,1.13-.21,2.25-.35,3.69-2.62-.84-3.77-5-7-3.25-1.87,1-.26,3.33-.64,5-2.23-.4-3.24-1.57-2.63-3.8a4.27,4.27,0,0,1,4.27-3.45,20.57,20.57,0,0,1,4.33.79v0a1.42,1.42,0,0,0,2,1Z"/><path class="cls-2" d="M203.24,27.55c-1.05,2.54-3.79,3-5.92,4.14-.83.44-1.94-.43-1.9-1.62.1-3,2.37-4.12,4.82-4.63A2.48,2.48,0,0,1,203.24,27.55Z"/><path class="cls-2" d="M153.34,99.24c3.11-2.75,12.22-3.54,16.08-1.39C164.11,98.85,158.82,100.12,153.34,99.24Z"/><path class="cls-2" d="M195.4,37.67c-3.69.25-4.78-3.28-7.77-3.1-1.21.07-.19-1.6,0-2.35.5-1.58,1.67-.8,2.3-.21C191.71,33.65,193.3,35.45,195.4,37.67Z"/><path class="cls-2" d="M134.79,60c-1.14-.34-2-.54-2.08-1.55s.33-1.67,1.33-1.63c2.37.1,4.17-.5,4.87-3.07.22-.81,1.05-.68,1.62-.29.81.55.79,1.29.36,2.13C139.55,58.26,135.58,57,134.79,60Z"/><path class="cls-2" d="M125.07,66.32c.16-2.08,2.27-2,2.28-3.59,0-1-1.44-3,1.09-2.84,1.57.07,1.83,1.66,2.07,3,.32,1.79-.1,2.86-2.24,2.79A14.69,14.69,0,0,0,125.07,66.32Z"/><path class="cls-2" d="M184.14,62.35c.77-2.69-2-2.78-3.75-4,4.14-1.65,6.43,0,8.7,2.73l-4.58,1.72C184.38,62.66,184.26,62.5,184.14,62.35Z"/><path class="cls-2" d="M185.65,40.29c.76,5-2.49,4.75-5.43,4.91C181,42.35,185,43.36,185.65,40.29Z"/><path class="cls-2" d="M123.31,97.26c3.7-1.3,7.18-1.19,10.26,1.57C130,99.3,126.51,99.21,123.31,97.26Z"/><path class="cls-2" d="M123.49,68.07c-3.88-3.32-6.35-2.79-8,1.39-.44-3.7-.37-4.29,1.33-4.51C119,64.67,121.69,63.62,123.49,68.07Z"/><path class="cls-2" d="M92.75,77.69a3.92,3.92,0,0,1-3.23,3.6A33.86,33.86,0,0,1,90,77c.2-.86.49-2.18,1.67-2C93.32,75.17,92.61,76.68,92.75,77.69Z"/><path class="cls-2" d="M192.05,100.1c2.49-.78,5-1.48,7.31.45C196.82,102.06,194.36,102.32,192.05,100.1Z"/><path class="cls-2" d="M170.46,44.81c-2.29-2.75-2.29-2.75-1.22-5.39C171.35,40.84,170.1,43,170.46,44.81Z"/><path class="cls-2" d="M89.33,87.54c2,1.18,2.17,3.11,2.13,5.13C89.07,91.64,88.05,90.07,89.33,87.54Z"/><path class="cls-2" d="M213.45,26.59c1,.3,1.87.66,1.77,1.91-.06.71-.5,1.29-1.22,1.12a2,2,0,0,1-1.68-2.05C212.33,26.9,212.56,26.32,213.45,26.59Z"/><path class="cls-2" d="M186.07,99.12c1.62-.66,3.28-1.47,4.2.95C188.6,100.94,187.14,100.89,186.07,99.12Z"/><path class="cls-2" d="M94.45,94.9c1.4-.53,2.19,0,2.41,1.42A1.73,1.73,0,0,1,94.45,94.9Z"/><path class="cls-2" d="M179.41,98.62c.78-1.4,1.43-1.17,2,.16C180.66,99.62,180,99.58,179.41,98.62Z"/><path class="cls-2" d="M184.51,62.81a1.88,1.88,0,0,1-2.07.71c-.13,0-.22-.22-.33-.33l2-.84C184.26,62.5,184.38,62.66,184.51,62.81Z"/><path class="cls-2" d="M147.26,95.43c-11.11.65-20.77-2.13-30.63-2.68a88.82,88.82,0,0,0-12.42-.12c-4.43.38-6.65-2.42-8.91-5.24a3.93,3.93,0,0,1,0-4.67c1.18-1.79,2.59-.46,4-.06a104.53,104.53,0,0,0,22.38,3.57c9.48.64,18.54,3,27.62,5.29a37.42,37.42,0,0,0,7.84,1c1,0,2.16.2,2.15,1.49s-1.14,1.45-2.17,1.46C153.41,95.44,149.77,95.43,147.26,95.43Z"/><path class="cls-2" d="M166.48,68.64a1.42,1.42,0,0,1-2-1A1.54,1.54,0,0,1,166.48,68.64Z"/></g></g></svg>