<svg xmlns="http://www.w3.org/2000/svg" viewBox="0 0 482.28 1844.3"><defs><style>.cls-1{opacity:0.05;}.cls-2{fill:#bf9c7d;}.cls-3{fill:#e3dfff;}</style></defs><g id="Ebene_2" data-name="Ebene 2"><g id="Credits"><g class="cls-1"><polygon class="cls-2" points="0 421.63 421.63 421.63 421.63 419.04 421.19 419.04 211.89 209.74 2.59 419.04 0 419.04 0 421.63"/><polygon class="cls-2" points="421.19 1425.26 421.63 1425.26 421.63 460.43 0 460.43 0 1425.26 2.59 1425.26 211.89 1634.57 421.19 1425.26"/><polygon class="cls-2" points="482.25 0 482.25 421.63 419.04 421.63 419.04 421.19 209.74 211.89 211.89 209.74 419.04 2.58 419.04 0 482.25 0"/><rect class="cls-2" x="460.43" y="1422.67" width="21.85" height="421.63"/><polygon class="cls-2" points="421.63 1422.67 419.04 1422.67 419.04 1425.26 209.74 1634.57 419.04 1843.87 419.04 1844.3 421.63 1844.3 421.63 1422.67"/><polygon class="cls-3" points="482.28 973.99 482.28 1385.57 458.74 1385.57 458.74 458.73 482.25 458.73 482.25 973.99 482.28 973.99"/></g></g></g></svg>