<svg xmlns="http://www.w3.org/2000/svg" viewBox="0 0 102.55 81.25"><defs><style>.cls-1{fill:none;stroke:#ca2e55;stroke-miterlimit:10;}</style></defs><g id="Layer_2" data-name="Layer 2"><g id="Layer_1-2" data-name="Layer 1"><path class="cls-1" d="M23.88,14A138.17,138.17,0,0,1,37,9.1C44.58,6.37,52.11,3.41,59.84,1a9.17,9.17,0,0,1,6.28.13.91.91,0,0,0,.38.9,38.16,38.16,0,0,1,3.76,4.37c2.1,2.73,4.4,5.3,6.31,8.16-.13,2.29,1.59,3.72,2.73,5.28,2.29,3.16,5,6,7.4,9.08,1.24,1.65,2.94,2.77,4.19,4.4,2.25,2.93,4,6.22,6.66,8.87a4,4,0,0,1,1.24,4.32,5.09,5.09,0,0,0,.06,3.89,2.3,2.3,0,0,1-.75,2.9,2.31,2.31,0,0,0-1,1.93,9.37,9.37,0,0,1-2.48,1.11c-.42-.18-.72-.12-.81.39l-.82.33c0-.65-.78-1.37,0-1.92s.6-1.58.79-2.39c.14-.58-.22-.79-.81-.61-1.37.43-2.79.63-4.14,1.15-1.79.68-3.36,1.84-5.11,2.53-3.65,1.45-7.44,2.53-11,4.22-2,.93-4,1.7-6,2.49-1,.38-1.65,1.31-2.73,1.42a12.47,12.47,0,0,0-4.83,1.78,50.67,50.67,0,0,1-5.56,2.59,81.16,81.16,0,0,1-8.43,3.41c-1,.3-1.09,1.52-.49,2.52s2.08,1.75.74,3.16l-.65.21c-1.33-.24-2.28.75-3.45,1-.47.11-1,.26-.95.94l-.4.11c-.43-.22-.74-.16-.83.38a.15.15,0,0,1-.21.07c-.49,0-1.09-.29-1.28.49-3.36.56-5.64-1.34-7.51-3.63-4.51-5.54-8.21-11.68-12.33-17.51C12.15,51.5,7.3,43,2.12,34.73,1.33,33.46.44,32.11.59,30.46c.54-1.46.5-3.13,1.55-4.4a22.37,22.37,0,0,1,9.2-6.23c3.39-1.36,6.84-2.58,10.21-4C22.44,15.45,23.6,15.27,23.88,14ZM62.24,2.36c-1.9-.09-3.38,1-5.06,1.42A65.31,65.31,0,0,0,45.77,7.9c-1.52.68-3.13,1.12-4.66,1.81-1,.46-2.34.46-3.24,1.28-1.85,1.69-4.68,1.2-6.5,2.95-.19.19-.68,0-1,.09-1.87.32-3.85.37-5.15,2.1a2.72,2.72,0,0,1-.83.63c-3.9,2.2-8.16,3.6-12.23,5.43a20.86,20.86,0,0,0-5.29,3,2.16,2.16,0,0,0-.48,3,64.39,64.39,0,0,0,3.55,5.64c3.15,4.27,5.94,8.8,8.79,13.26s5.79,8.7,8.78,13C30,63.7,32.27,67.48,35,70.93a1.93,1.93,0,0,0,2,.75,13.21,13.21,0,0,0,4.56-1.19c1.57-.91,3.62-.25,5.07-1.48a10.26,10.26,0,0,1,3.06-1.42c.86-.36,1.81-.51,2.66-.89,3.65-1.59,7.29-3.19,10.89-4.86,1.76-.82,3.84-.77,5.43-1.9A26.09,26.09,0,0,1,75,57c2.49-.91,5-1.88,7.43-2.88s4.8-2.9,7.42-2.86c4.21.07,4.1-3.93,6.26-5.71.11-.09-.07-.55-.14-.83-.72-3.1-3-5.16-5.06-7.3a22.25,22.25,0,0,1-2.77-2.82c-1.28-2-3-3.58-4.07-5.85-1.21-2.72-3.53-4.86-5.41-7.21s-3.3-4.69-5.07-7A47.68,47.68,0,0,0,70,10.1a37.65,37.65,0,0,1-4.63-5.94A3.29,3.29,0,0,0,62.24,2.36Z"/><path class="cls-1" d="M97.13,55.22a2.31,2.31,0,0,1,1-1.93,2.3,2.3,0,0,0,.75-2.9,5.09,5.09,0,0,1-.06-3.89,4,4,0,0,0-1.24-4.32c-2.65-2.65-4.41-5.94-6.66-8.87-1.25-1.63-3-2.75-4.19-4.4-2.36-3.11-5.11-5.92-7.4-9.08-1.14-1.56-2.86-3-2.73-5.27.32.17.44.53.67.76,1.39,1.4,2.17,3.37,4,4.4.06.08.11.16.16.24-.11.61.2.88.77.94l.15.24a4.32,4.32,0,0,0,2.24,2.75l.45.54c-.17.92.66,1.31,1.11,1.8,1.3,1.39,2,3.35,3.79,4.26l.16.23c-.11.61.19.88.76,1,.05.08.1.16.14.24-.07.77.39,1.1,1,1.26l.16.24c0,.91.59,1.28,1.31,1.57l.15.25c-.07.59.23.87.78.93l.41.56a.76.76,0,0,0,.78.94l.14.23c-.11.62.19.91.78,1l.39.56c-.13.67.47.92.78,1.34,1,1.35,2.22,2.47,2.48,4.28.45,3.2.5,6.3-1.48,9.09-.09.14,0,.39,0,.58l-.06.22Z"/><path class="cls-1" d="M97.13,55.22l1.45-.3c0,.69-.55.74-1,.92Q73.53,66.19,49.45,76.51c-2.66,1.14-5.31,2.26-7.91,3.53a5.3,5.3,0,0,1-3.31.65l.68-.55a.15.15,0,0,0,.21-.07.67.67,0,0,0,.83-.38l.4-.11a13,13,0,0,0,4.4-2l.65-.21a18,18,0,0,0,4-1.56c1.28-.57,2.72-.83,3.78-1.86l.65-.16a.75.75,0,0,0,.83-.41,1.93,1.93,0,0,0,1.26-.47,1.46,1.46,0,0,0,1.23-.53l3.24-1.36a1.62,1.62,0,0,0,1.43-.65l.67-.24a.7.7,0,0,0,.81-.39,34,34,0,0,0,5.47-2.3.7.7,0,0,0,.81-.38,2.61,2.61,0,0,0,1.28-.51,1.67,1.67,0,0,0,1.43-.67l.66-.23a5.73,5.73,0,0,0,.84-.21c4.51-1.92,9-3.83,13.51-5.8A40.5,40.5,0,0,0,93,57.05l.82-.33a.7.7,0,0,0,.81-.39A9.37,9.37,0,0,0,97.13,55.22Z"/><path class="cls-1" d="M23.88,14c-.28,1.24-1.44,1.42-2.33,1.8-3.37,1.42-6.82,2.64-10.21,4a22.37,22.37,0,0,0-9.2,6.23c-1,1.27-1,2.94-1.55,4.4a7.49,7.49,0,0,1,3-7.45,35.29,35.29,0,0,1,8.83-4.53C16.23,17,20.05,15.51,23.88,14Z"/><path class="cls-1" d="M81.23,19.72c-1.82-1-2.6-3-4-4.4-.23-.23-.35-.59-.67-.76-1.91-2.87-4.21-5.44-6.31-8.17A38.16,38.16,0,0,0,66.5,2a.91.91,0,0,1-.38-.9,8.64,8.64,0,0,1,3.23,2.74.53.53,0,0,0,.48.65l1.88,2.38a.55.55,0,0,0,.52.61l.69.86a.56.56,0,0,0,.51.64l.67.87a.56.56,0,0,0,.5.63l.42.55a.53.53,0,0,0,.51.63l.69.86a.52.52,0,0,0,.51.63l.67.87a.55.55,0,0,0,.51.64l.15.21a1.31,1.31,0,0,0,1,1.31l.15.23a.88.88,0,0,0,.74,1l.15.22a1.42,1.42,0,0,0,1.05,1.28l.15.22C81.28,19.32,81.25,19.52,81.23,19.72Z"/><path class="cls-1" d="M98.64,54.7c0-.19,0-.44,0-.58,2-2.79,1.93-5.89,1.48-9.09-.26-1.81-1.52-2.93-2.48-4.28-.31-.42-.91-.67-.78-1.34.79.11,1,1,1.66,1.26l0,0a2.27,2.27,0,0,0,1.16,1.46l0,0c2.5,4.34,2,8.46-.87,12.43l-.12.07Z"/><path class="cls-1" d="M98.56,40.67c-.68-.25-.87-1.15-1.66-1.26l-.39-.56a.88.88,0,0,0-.78-1l-.14-.23a.82.82,0,0,0-.78-.94l-.4-.56c0-.56-.29-.82-.79-.93L93.47,35a1.87,1.87,0,0,0-1.31-1.57L92,33.17a1.32,1.32,0,0,0-1-1.26c0-.08-.09-.16-.14-.24a.88.88,0,0,0-.76-1l-.16-.23c.08-.59-.42-.84-.71-1.22a6.86,6.86,0,0,1-1.61-2.39c1.56.89,2.4,2.45,3.49,3.76,2.4,2.91,4.71,5.89,7.07,8.83C98.43,39.83,98.72,40.17,98.56,40.67Z"/><path class="cls-1" d="M98.91,54.64c2.83-4,3.37-8.09.87-12.43.77-.07,1,.56,1.29,1,1.76,2.54.92,8.26-.77,10.44C100,54.14,99.66,54.74,98.91,54.64Z"/><path class="cls-1" d="M87.58,26.88a6.86,6.86,0,0,0,1.61,2.39c.29.38.79.63.71,1.22-1.83-.91-2.49-2.87-3.79-4.26-.45-.49-1.28-.88-1.11-1.8l.65.14.72.84a1.21,1.21,0,0,0,.92,1.14Z"/><path class="cls-1" d="M81.23,19.72c0-.2,0-.4.07-.6,1.23.51,1.73,1.67,2.37,2.7l-.18.16-1.18-.84-.15-.24a.88.88,0,0,0-.77-.94C81.34,19.88,81.29,19.8,81.23,19.72Z"/><path class="cls-1" d="M85.65,24.57,85,24.43l-.45-.54c0-.83-.91-1.15-1.06-1.91l.18-.16A5,5,0,0,1,85.65,24.57Z"/><path class="cls-1" d="M99.75,42.17a2.27,2.27,0,0,1-1.16-1.46A1.15,1.15,0,0,1,99.75,42.17Z"/><path class="cls-1" d="M79.06,16.2a1.31,1.31,0,0,1-1-1.31C78.68,15.11,79.16,15.43,79.06,16.2Z"/><path class="cls-1" d="M81.15,18.9a1.42,1.42,0,0,1-1.05-1.28C80.79,17.77,81.24,18.11,81.15,18.9Z"/><path class="cls-1" d="M87.29,26.55a1.21,1.21,0,0,1-.92-1.14C87.07,25.47,87.28,25.93,87.29,26.55Z"/><path class="cls-1" d="M80,17.4a.88.88,0,0,1-.74-1C79.77,16.51,80.1,16.78,80,17.4Z"/><path class="cls-1" d="M38.91,80.14l-.68.55-.6-.06C37.82,79.85,38.42,80.12,38.91,80.14Z"/><path class="cls-1" d="M69.83,4.51a.53.53,0,0,1-.48-.65C69.74,3.91,69.92,4.12,69.83,4.51Z"/><path class="cls-1" d="M73.43,9a.56.56,0,0,1-.51-.64C73.32,8.39,73.5,8.59,73.43,9Z"/><path class="cls-1" d="M74.6,10.5a.56.56,0,0,1-.5-.63C74.52,9.88,74.7,10.08,74.6,10.5Z"/><path class="cls-1" d="M75.53,11.68a.53.53,0,0,1-.51-.63C75.43,11.07,75.61,11.27,75.53,11.68Z"/><path class="cls-1" d="M76.73,13.17a.52.52,0,0,1-.51-.63C76.62,12.56,76.8,12.77,76.73,13.17Z"/><path class="cls-1" d="M77.91,14.68A.55.55,0,0,1,77.4,14C77.82,14.06,78,14.27,77.91,14.68Z"/><path class="cls-1" d="M72.23,7.5a.55.55,0,0,1-.52-.61C72.12,6.89,72.31,7.09,72.23,7.5Z"/><path class="cls-1" d="M62.24,2.36a3.29,3.29,0,0,1,3.08,1.8A37.65,37.65,0,0,0,70,10.1a47.68,47.68,0,0,1,3.63,4.46c1.77,2.27,3.27,4.71,5.07,7s4.2,4.49,5.41,7.21c1,2.27,2.79,3.86,4.07,5.85A22.25,22.25,0,0,0,90.9,37.4C93,39.54,95.24,41.6,96,44.7c.07.28.25.74.14.83-2.16,1.78-2,5.78-6.26,5.71-2.62,0-5,1.86-7.42,2.86S77.48,56.07,75,57a26.09,26.09,0,0,0-6.34,3C67.06,61.07,65,61,63.22,61.84c-3.6,1.67-7.24,3.27-10.89,4.86-.85.38-1.8.53-2.66.89A10.26,10.26,0,0,0,46.61,69c-1.45,1.23-3.5.57-5.07,1.48A13.21,13.21,0,0,1,37,71.68a1.93,1.93,0,0,1-2-.75c-2.74-3.45-5-7.23-7.52-10.82-3-4.27-6-8.56-8.78-13s-5.64-9-8.79-13.26a64.39,64.39,0,0,1-3.55-5.64,2.16,2.16,0,0,1,.48-3,20.86,20.86,0,0,1,5.29-3c4.07-1.83,8.33-3.23,12.23-5.43a2.72,2.72,0,0,0,.83-.63c1.3-1.73,3.28-1.78,5.15-2.1.34-.06.83.1,1-.09,1.82-1.75,4.65-1.26,6.5-2.95.9-.82,2.22-.82,3.24-1.28C42.64,9,44.25,8.58,45.77,7.9A65.31,65.31,0,0,1,57.18,3.78C58.86,3.37,60.34,2.27,62.24,2.36Zm8.85,33.41c.19,0,.28-.06.27-.25l0,0a11.87,11.87,0,0,0,4-4.72,5.29,5.29,0,0,0,1.86-4.9c-.28-1-.07-2.33-1.37-2.88a2.63,2.63,0,0,0-.79-1.4c-3.36-3.83-2.06-4-7.27-2.46-.37-.49-.92-.37-1.38-.31-3.77.5-7.6.43-11.36,1.16-2.42.47-5,.51-7,2.23-.34.07-.54-.39-.94-.18a11.24,11.24,0,0,1-3.48,1.25c-2,.31-3.73,1.56-5.69,2.06.23-1.83-.55-2.39-2.61-1.86,2,.56,2.28,1.16,1.25,2.78a30.56,30.56,0,0,0-5.71,3.22,6.27,6.27,0,0,0-2.48,2l-.34.25c-.44,0-.76.13-.81.63l-.1.07c-.2-.07-.28,0-.29.21a19.33,19.33,0,0,0-2.74,2.61c-.68.74-2,.81-2.11,2.13-.73.72-1.79.75-2.64,1.24-1.43.82-1.56,1.17-.7,2.53.62,1,1.26,1.89,1.86,2.86a1.53,1.53,0,0,0,1.44.86,4.49,4.49,0,0,0,3.7,2.94.45.45,0,0,0,.18.07.29.29,0,0,0,.41.17,27.72,27.72,0,0,0,11.59,1,14.94,14.94,0,0,0,4.84-.57c2.08-.06,4-.93,6-1.43a58,58,0,0,0,17.63-7.59l.33-.27a.8.8,0,0,0,.19-.13A3.93,3.93,0,0,0,69,37.59l0,0c.18,0,.28,0,.26-.25l0,0c.19,0,.28-.06.28-.25l0,0a1.12,1.12,0,0,0,1.09-.92l.08-.06c.19,0,.27,0,.26-.21ZM45.56,21c-.5.16-.11.94-.72,1l-.48.21s.06.1.1.1c.23,0,.31-.14.38-.31.27-.3.77-.36.9-.82.13-.07.41-.11.22-.34S45.67,20.91,45.56,21Zm7.92,33.65.06.06-.07,0c-.74-.49-2.94,0-3.17.71-.09.29-.07,1,.34.66C51.51,55.39,52.83,55.72,53.48,54.68ZM66.81,46.4a21.21,21.21,0,0,1-3.45,1.42,1,1,0,0,0-.71.68c-.1.23.12.32.28.43.38.28.48-.06.69-.26.39-.37,1-.3,1.4-.59.65-.49,2-.06,2-1.4l.19-.27Zm9.09-1c-1.88-.26-4.6,1-5,2.56,1-.84,2.18-.9,3.15-1.42.64-.35,1.49-.34,1.83-1.16.11-.12.4-.08.34-.36,0,0-.07,0-.11-.07ZM58.15,7.87l3.52-1.36a.73.73,0,0,0,.51-.64c-.3,0-.54-.26-.89-.11-1.12.46-2.27.87-3.39,1.33-.19.07-.56,0-.48.39S57.83,7.85,58.15,7.87ZM27.09,26.74c1.06-.88,1.22,0,1.57.43s.74,1,1.1,1.57a.57.57,0,0,0,.89.2c.35-.27,0-.52-.15-.73-.38-.58-.84-1.11-1.18-1.71C28.65,25.32,28,25.42,27.09,26.74ZM61.17,51.4a.27.27,0,0,0-.37-.28,10.06,10.06,0,0,0-2.92,1.13c-.31.22-.28.66.28.64,1.07,0,1.9-.72,2.85-1.07C61.1,51.79,61.11,51.56,61.17,51.4ZM50,56.22c-1.19-.75-2-.2-2.82.4-.25.19-.18.72-.68.62a1.41,1.41,0,0,1-.35-.17c.13.12.31.36.36.33C47.56,56.83,48.88,57.17,50,56.22Zm-.76-38.76c-1,.85-1.33,1.54-.82,2.22a1.9,1.9,0,0,0,2.45.68C49.51,19.79,48.87,19.05,49.26,17.46Zm20.91,30c-.59.63-2.11-.51-2.49.91C69,49.16,69.69,48.43,70.17,47.46ZM53.39,16.82a2.1,2.1,0,0,1,.72,2.62c.92-.36,1.27-1,1.09-1.7S54.51,16.54,53.39,16.82ZM33.17,27.15c-.47-.64-1.2-.94-1.18-1.74,0-.23.19-.65-.33-.59-.34,0-.45.34-.53.62C30.85,26.45,31.61,27.14,33.17,27.15ZM62.49,51.31c.34-.56,1.52-.12,1.71-1.11.07-.36-.43-.33-.69-.29-.69.13-1.39.33-1.65,1.08C61.78,51.22,62,51.44,62.49,51.31Zm-2.87-2c-.47.45-1.35.17-1.62.91,0,.09.31.32.48.48.18-.9,1.48.05,1.59-1C60.1,49.46,59.94,49.31,59.62,49.33Zm8.24,2.49a.84.84,0,0,0-1-.38,1.71,1.71,0,0,0-1.21.76s.08.29.17.33c.47.22.84-.15,1.25-.28A5.1,5.1,0,0,0,67.86,51.82ZM57.39,51c-.13-.17,0-.53-.53-.55s-.85,0-1,.33a.67.67,0,0,0,.61.83C56.79,51.56,57.34,51.61,57.39,51ZM44.6,19.3c1-.07,1.52.43,1.49,1.47.65-.42.68-.91.36-1.32C46,18.84,45.28,19.17,44.6,19.3ZM59.88,55.13c.31-.16.8-.13.94-.57s-.2-.42-.45-.35-.83.13-.93.6C59.4,55,59.62,55.12,59.88,55.13Z"/><path class="cls-1" d="M53.13,74c-1.06,1-2.5,1.29-3.78,1.86a18,18,0,0,1-4,1.56c1.34-1.41-.18-2.22-.74-3.16s-.56-2.22.49-2.52a81.16,81.16,0,0,0,8.43-3.41,50.67,50.67,0,0,0,5.56-2.59A12.47,12.47,0,0,1,64,63.94c1.08-.11,1.74-1,2.73-1.42,2-.79,4.07-1.56,6-2.49,3.57-1.69,7.36-2.77,11-4.22,1.75-.69,3.32-1.85,5.11-2.53,1.35-.52,2.77-.72,4.14-1.15.59-.18,1,0,.81.61-.19.81.11,1.75-.79,2.39s0,1.27,0,1.92a40.5,40.5,0,0,1-5.77,2.62c-4.49,2-9,3.88-13.51,5.8a5.73,5.73,0,0,1-.84.21,1.46,1.46,0,0,1,.3-1.11c.34-.34.75-.71.37-1.27a1.41,1.41,0,0,0-1.46-.53c-1.24.13-2.22,1-3.37,1.33-1.62.53-2.52,2.09-4.1,2.73-1.35.55-2.65,1.36-4,1.9-1.85.74-3.24,2.13-5,3C54.78,72.14,53,72.23,53.13,74Z"/><path class="cls-1" d="M44.75,77.61a13,13,0,0,1-4.4,2c0-.68.48-.83.95-.94C42.47,78.36,43.42,77.37,44.75,77.61Z"/><path class="cls-1" d="M94.65,56.33a.7.7,0,0,1-.81.39C93.93,56.21,94.23,56.15,94.65,56.33Z"/><path class="cls-1" d="M40,79.69a.67.67,0,0,1-.83.38C39.21,79.53,39.52,79.47,40,79.69Z"/><path class="cls-1" d="M83.49,22c.15.76,1.05,1.08,1.06,1.91a4.32,4.32,0,0,1-2.24-2.75Z"/><path class="cls-1" d="M92.16,33.41A1.87,1.87,0,0,1,93.47,35C92.75,34.69,92.14,34.32,92.16,33.41Z"/><path class="cls-1" d="M91,31.91a1.32,1.32,0,0,1,1,1.26C91.35,33,90.89,32.68,91,31.91Z"/><path class="cls-1" d="M90.06,30.72a.88.88,0,0,1,.76,1C90.25,31.6,90,31.33,90.06,30.72Z"/><path class="cls-1" d="M81.39,20a.88.88,0,0,1,.77.94C81.59,20.84,81.28,20.57,81.39,20Z"/><path class="cls-1" d="M93.62,35.23c.5.11.82.37.79.93C93.85,36.1,93.55,35.82,93.62,35.23Z"/><path class="cls-1" d="M95.73,37.89a.88.88,0,0,1,.78,1C95.92,38.8,95.62,38.51,95.73,37.89Z"/><path class="cls-1" d="M94.81,36.72a.82.82,0,0,1,.78.94A.76.76,0,0,1,94.81,36.72Z"/><path class="cls-1" d="M53.13,74c-.09-1.75,1.65-1.84,2.53-2.27,1.76-.85,3.15-2.24,5-3,1.33-.54,2.63-1.35,4-1.9,1.58-.64,2.48-2.2,4.1-2.73,1.15-.37,2.13-1.2,3.37-1.33a1.41,1.41,0,0,1,1.46.53c.38.56,0,.93-.37,1.27a1.46,1.46,0,0,0-.3,1.11l-.66.23c-.68-.21-1.2-.07-1.43.67a2.61,2.61,0,0,1-1.28.51c-.41-.18-.72-.13-.81.38a34,34,0,0,1-5.47,2.3c-.41-.17-.72-.1-.81.39l-.67.24a1,1,0,0,0-1.43.65L57.1,72.41c-.71-.53-1.05-.19-1.23.53a1.93,1.93,0,0,1-1.26.47c-.46-.24-.76-.14-.83.41Z"/><path class="cls-1" d="M70.81,66.58c.23-.74.75-.88,1.43-.67A1.67,1.67,0,0,1,70.81,66.58Z"/><path class="cls-1" d="M60.34,71.05a1,1,0,0,1,1.43-.65A1.62,1.62,0,0,1,60.34,71.05Z"/><path class="cls-1" d="M55.87,72.94c.18-.72.52-1.06,1.23-.53A1.46,1.46,0,0,1,55.87,72.94Z"/><path class="cls-1" d="M68.72,67.47c.09-.51.4-.56.81-.38A.7.7,0,0,1,68.72,67.47Z"/><path class="cls-1" d="M62.44,70.16c.09-.49.4-.56.81-.39A.7.7,0,0,1,62.44,70.16Z"/><path class="cls-1" d="M53.78,73.82c.07-.55.37-.65.83-.41A.75.75,0,0,1,53.78,73.82Z"/><path class="cls-1" d="M22,44.85A1.53,1.53,0,0,1,20.59,44c-.6-1-1.24-1.9-1.86-2.86-.86-1.36-.73-1.71.7-2.53.85-.49,1.91-.52,2.64-1.24,1.27-.39,2.61-.63,3.49-1.76-.43-.6-1.17.82-1.38-.37a19.33,19.33,0,0,1,2.74-2.61l.29-.21.1-.07c.45,0,.8-.08.81-.63l.34-.25c1.34-.45,2.86-.73,3.81-1.73a7.59,7.59,0,0,1,2-1.61,36,36,0,0,1,7.19-2.86c1.63-.44,3.4-1.45,5.18-.17.48.34,1,.06,1.51-.22.11-.09.23-.17,0-.29,0,0-.13.09-.19.14-.29-.06-.65.19-.95-.23.37-.21.69-.42,1-.6.53-.27,1.11-1.12,1.63-.44s-.67.81-.86,1.35a.69.69,0,0,0,0,.24l.7.17c-.8.06-.77.77-1,1.27a8.71,8.71,0,0,0-3.54.45c.59.28.85,1.19,1.24.84.75-.68,1.84-.34,2.49-1.08a8.52,8.52,0,0,0,1.83-.6c3-1.24,6.1-2.45,9.15-3.67,1.59-.6,3.21-1.13,4.75-1.83,1.1-.49,2.37-.59,3.31-1.45,5.21-1.58,3.91-1.37,7.27,2.46A2.63,2.63,0,0,1,75.9,23c-1.32,1.34-3.16,1.69-4.75,2.49-.21.11-.6,0-.61.44.64-.33.33.79.91.59.25-.09.5-.38.79-.08-.08.57-1.27.42-.82,1.31-.42,0-.9.57-.83.59.79.28.57,1.63,1.66,1.53.31,0,.73-.21.89.26s-.18.64-.38.91c-.74,1-1.93,1.36-2.84,2.1-.51.41-1.65.82-.58,1.82l-.1,0s0,.05,0,.07l.1-.13a3.17,3.17,0,0,0,1.29-.16c.62-.21.75.22.78.71l0,0a.22.22,0,0,0-.27.25l0,0-.26.21-.08.06c-.58.05-1,.24-1.09.92l0,0c-.18,0-.28.06-.28.25l0,0c-.18,0-.26.08-.26.25l0,0c-1,.07-1.92.2-2.1,1.43a.8.8,0,0,1-.19.13.28.28,0,0,0-.33.27A58,58,0,0,1,48.7,47c-2,.5-3.87,1.37-6,1.43a15.22,15.22,0,0,0-4.84.57,27.72,27.72,0,0,1-11.59-1,.29.29,0,0,0-.41-.17.45.45,0,0,1-.18-.07c0-.27.77-.34,0-.89s-2.8.31-2-1.82c.13-.33-.2-.48-.56-.4S22.42,44.8,22,44.85Zm.06-5.12c-.1-.14-.19-.32-.38-.11l.36.13.31.19s.05-.06.08-.1ZM54.71,32.1c-.7.36-1.54.47-2,1.17-.55.14-1.8-.23-1.12.93s.11,1.26-.7,1.32a2,2,0,0,0-1.25.61c-.66-1.11-1.43-1.85-2.79-.78.76.81,1.79.69,2.73.86-.35.74-2,1.47.54,2.24a23.75,23.75,0,0,0-2.85.26c-.87.08-.74.61-.81,1.08-.24,1.63,1.45.09,1.67,1,.06.26.32.3.33,0,.06-1,.83-.61,1.33-.76,1.13-.32,2.31-.52,3.05-1.63a2.41,2.41,0,0,1,2-.8c.59,0,1.21.1,1.72-.34l1.11-.53c.69,0,1-.63,1.5-.86l.32,0c1.5,0,2.53-1.06,3.76-1.85-1.13.34-2.12-.29-3.19-.23a1.39,1.39,0,0,0-1.18.56v0c-.94.36-2.21,0-2.84.77a3,3,0,0,1-1.57,1.11l-.37,0h0c0-1,1.13-1.11,1.51-1.82s1.86-.34,1.65-1.65c1.93-1,3.94-.58,5.94-.38a5.13,5.13,0,0,0,4-1.43c.52-.56.81-1.28,1.68-1.46.42-.09.78-.58.37-.88-.7-.51-1.59-1.16-2.4-1a16.57,16.57,0,0,0-6.24,2.36,10.25,10.25,0,0,0-3.84,1.45A4.7,4.7,0,0,0,54.71,32.1ZM49.6,43.33a2.54,2.54,0,0,0-2.54-.71c-.44.08-.85.26-1.2-.22s-.65-.19-.93,0a8.12,8.12,0,0,1-2.6,1.05c-.75.2-1.53-.56-2.45.49,1.22-.58,1.65,1.13,2.72.28.15-.12.42.23.3.35-.55.61-.18.76.35,1a1,1,0,0,0,1.42-.37c.33-.46.74-.39,1.29-.45,1.26-.14,2.83.07,3.63-1.41.73-.06,1.68.23,2.11-.43s-.76-1-.76-1.72C50.69,42.06,50.59,43,49.6,43.33ZM34.34,45.42a3.63,3.63,0,0,1-1.23-.24c-1.36-.49-2.83.46-2.67,1.61.54.05.89-1.56,1.59-.19.12-.06.35-.15.34-.18-.15-.55.23-.92.58-.7s.13.79-.2,1.12c-.74.72-.39.95.43,1a9.25,9.25,0,0,0,5.38-.46,1,1,0,0,0,.6-.94.7.7,0,0,0-.89-.53c-.75.14-1.34.1-.79-1,.35-.69-.69-.2-.8-.64.69-.57,2.23-.68,2.24-.77.24-2.09,1.71-.6,2.51-.92.59-.24,1.32-.39,1.47-1.1s-.87-.1-1-.73c1.13-.57,2.35.35,3.48-.31-1.11,0-1.78-1.31-3.22-.64-1.17.55-2.6-.21-3.92-.19,0-.64-.26-.55-.67-.34s-.65.59-.45,1c.51,1-.26,1.44-.84,1.6-1.17.3-2.61,1.29-3.56,0-.75-1-1.19-.61-1.93-.29-.44.19-.67.6-1.2.74-1.53.43-3,1-4.5,1.59-.33.13-.89.25-.53.8.23.38.64.74,1.1.37s1.23-.28,1.85-.41c2-.42,3.95.22,5.92-.18.67-.14.87.28.9.86Zm7.91,1.92a5.23,5.23,0,0,1-.46-.57c-.27-.41.34-1.28-.66-1.29-1.19,0,0,.8-.37,1.09a.48.48,0,0,0-.09.11c-.22.41-1.26-.14-1,.65.2.55.85-.17,1.3,0A1.94,1.94,0,0,0,42.25,47.34Z"/><path class="cls-1" d="M59.78,22.42c-3.05,1.22-6.11,2.43-9.15,3.67a8.52,8.52,0,0,1-1.83.6l-.19-.21c.25-.5.22-1.21,1-1.27l-.7-.17a.69.69,0,0,1,0-.24c.19-.54,1.29-.79.86-1.35s-1.1.17-1.63.44c-.35.18-.67.39-1,.6.3.42.66.17.95.23l.14.15c-.47.28-1,.56-1.51.22-1.78-1.28-3.55-.27-5.18.17a36,36,0,0,0-7.19,2.86,7.59,7.59,0,0,0-2,1.61c-1,1-2.47,1.28-3.81,1.73a6.27,6.27,0,0,1,2.48-2,30.56,30.56,0,0,1,5.71-3.22c.79.2,1-.52,1.36-.92,2-.5,3.66-1.75,5.69-2.06A11.24,11.24,0,0,0,47.18,22c.4-.21.6.25.94.18,1.33.08,2.56-.53,3.87-.6s2.49-.65,3.75-.18a3.39,3.39,0,0,0,2.45.12A1.11,1.11,0,0,1,59.78,22.42Zm-6.65,0c-1.46-.32-2.26.13-2.29,2C51.39,23.24,52.86,23.74,53.13,22.46Z"/><path class="cls-1" d="M59.78,22.42a1.11,1.11,0,0,0-1.59-.86,3.39,3.39,0,0,1-2.45-.12c-1.26-.47-2.5.12-3.75.18s-2.54.68-3.87.6c2-1.72,4.56-1.76,7-2.23,3.76-.73,7.59-.66,11.36-1.16.46-.06,1-.18,1.38.31-.94.86-2.21,1-3.31,1.45C63,21.29,61.37,21.82,59.78,22.42Z"/><path class="cls-1" d="M69.34,35c-1.07-1,.07-1.41.58-1.82C70.83,32.4,72,32,72.76,31c.2-.27.51-.52.38-.91s-.58-.29-.89-.26c-1.09.1-.87-1.25-1.66-1.53-.07,0,.41-.55.83-.59a3,3,0,0,0,2-.54,1.51,1.51,0,0,1,1.5,0c.71.34.08.88,0,1.27-.13.86-.63,1.71.46,2.3a11.87,11.87,0,0,1-4,4.72c0-.49-.16-.92-.78-.71a3.17,3.17,0,0,1-1.29.16Z"/><path class="cls-1" d="M75.41,30.78c-1.09-.59-.59-1.44-.46-2.3.06-.39.69-.93,0-1.27a1.51,1.51,0,0,0-1.5,0,3,3,0,0,1-2,.54c-.45-.89.74-.74.82-1.31-.29-.3-.54,0-.79.08-.58.2-.27-.92-.91-.59,0-.41.4-.33.61-.44,1.59-.8,3.43-1.15,4.75-2.49,1.3.55,1.09,1.87,1.37,2.88A5.29,5.29,0,0,1,75.41,30.78Z"/><path class="cls-1" d="M75.87,45.4c-.34.82-1.19.81-1.83,1.16-1,.52-2.11.58-3.15,1.42.41-1.57,3.13-2.82,5-2.56Z"/><path class="cls-1" d="M22,44.85c.39-.05.77-.09,1.15-.17s.69.07.56.4c-.82,2.13,1.31,1.35,2,1.82s0,.62,0,.89A4.49,4.49,0,0,1,22,44.85Z"/><path class="cls-1" d="M58.15,7.87c-.32,0-.65,0-.73-.39s.29-.32.48-.39c1.12-.46,2.27-.87,3.39-1.33.35-.15.59.14.89.11a.73.73,0,0,1-.51.64Z"/><path class="cls-1" d="M27.09,26.74c.89-1.32,1.56-1.42,2.23-.24.34.6.8,1.13,1.18,1.71.14.21.5.46.15.73a.57.57,0,0,1-.89-.2c-.36-.53-.72-1.06-1.1-1.57S28.15,25.86,27.09,26.74Z"/><path class="cls-1" d="M67,46.68c0,1.34-1.33.91-2,1.4-.39.29-1,.22-1.4.59-.21.2-.31.54-.69.26-.16-.11-.38-.2-.28-.43a1,1,0,0,1,.71-.68,21.21,21.21,0,0,0,3.45-1.42Z"/><path class="cls-1" d="M61.17,51.4c-.06.16-.07.39-.16.42-.95.35-1.78,1-2.85,1.07-.56,0-.59-.42-.28-.64a10.06,10.06,0,0,1,2.92-1.13A.27.27,0,0,1,61.17,51.4Z"/><path class="cls-1" d="M50,56.22c-1.14,1-2.46.61-3.49,1.18-.05,0-.23-.21-.36-.33a1.41,1.41,0,0,0,.35.17c.5.1.43-.43.68-.62C48,56,48.83,55.47,50,56.22Z"/><path class="cls-1" d="M24.18,35.23c.21,1.19.95-.23,1.38.37-.88,1.13-2.22,1.37-3.49,1.76C22.16,36,23.5,36,24.18,35.23Z"/><path class="cls-1" d="M49.26,17.46c-.39,1.59.25,2.33,1.63,2.9a1.9,1.9,0,0,1-2.45-.68C47.93,19,48.22,18.31,49.26,17.46Z"/><path class="cls-1" d="M53.48,54.68c-.65,1-2,.71-2.84,1.39-.41.31-.43-.37-.34-.66.23-.72,2.43-1.2,3.17-.71Z"/><path class="cls-1" d="M38,25.35c-.39.4-.57,1.12-1.36.92,1-1.62.76-2.22-1.25-2.78C37.46,23,38.24,23.52,38,25.35Z"/><path class="cls-1" d="M70.17,47.46c-.48,1-1.2,1.7-2.49.91C68.06,47,69.58,48.09,70.17,47.46Z"/><path class="cls-1" d="M53.39,16.82c1.12-.28,1.63.17,1.81.92s-.17,1.34-1.09,1.7A2.1,2.1,0,0,0,53.39,16.82Z"/><path class="cls-1" d="M33.17,27.15c-1.56,0-2.32-.7-2-1.71.08-.28.19-.59.53-.62.52-.06.34.36.33.59C32,26.21,32.7,26.51,33.17,27.15Z"/><path class="cls-1" d="M62.49,51.31c-.49.13-.71-.09-.63-.32.26-.75,1-1,1.65-1.08.26,0,.76-.07.69.29C64,51.19,62.83,50.75,62.49,51.31Z"/><path class="cls-1" d="M59.63,49.33c.31,0,.47.13.44.43-.11,1-1.41.06-1.59,1-.17-.16-.52-.39-.48-.48C58.27,49.5,59.15,49.78,59.63,49.33Z"/><path class="cls-1" d="M67.86,51.82a5.1,5.1,0,0,1-.83.43c-.41.13-.78.5-1.25.28-.09,0-.2-.28-.17-.33a1.71,1.71,0,0,1,1.21-.76A.84.84,0,0,1,67.86,51.82Z"/><path class="cls-1" d="M57.39,51c0,.66-.6.61-.88.61a.67.67,0,0,1-.61-.83c.11-.37.53-.35,1-.33S57.26,50.78,57.39,51Z"/><path class="cls-1" d="M37.91,49a15.22,15.22,0,0,1,4.84-.57A14.94,14.94,0,0,1,37.91,49Z"/><path class="cls-1" d="M44.6,19.3c.68-.13,1.38-.46,1.85.15.32.41.29.9-.36,1.32C46.12,19.73,45.64,19.23,44.6,19.3Z"/><path class="cls-1" d="M66.85,39C67,37.79,68,37.66,69,37.59A3.93,3.93,0,0,1,66.85,39Z"/><path class="cls-1" d="M59.88,55.13c-.26,0-.48-.12-.44-.32.1-.47.56-.5.93-.6s.54,0,.45.35S60.19,55,59.88,55.13Z"/><path class="cls-1" d="M69.61,37c0-.68.51-.87,1.09-.92A1.12,1.12,0,0,1,69.61,37Z"/><path class="cls-1" d="M45.74,21.23c-.13.46-.63.52-.9.82h0c.61-.08.22-.86.72-1Z"/><path class="cls-1" d="M75.9,45.42l.2-.45s.1,0,.11.07c.06.28-.23.24-.34.36Z"/><path class="cls-1" d="M28.12,31.71c0,.55-.36.66-.81.63C27.36,31.84,27.68,31.7,28.12,31.71Z"/><path class="cls-1" d="M44.84,22.05c-.07.17-.15.34-.38.31,0,0-.07-.06-.1-.1l.48-.21Z"/><path class="cls-1" d="M45.56,21c.11-.12.23-.35.4-.14s-.09.27-.22.34Z"/><path class="cls-1" d="M69,37.55c0-.17.08-.26.26-.25C69.27,37.5,69.17,37.57,69,37.55Z"/><path class="cls-1" d="M25.91,47.86a.29.29,0,0,1,.41.17A.29.29,0,0,1,25.91,47.86Z"/><path class="cls-1" d="M69.3,37.27c0-.19.1-.27.28-.25C69.58,37.21,69.49,37.3,69.3,37.27Z"/><path class="cls-1" d="M27.21,32.41l-.29.21C26.93,32.43,27,32.34,27.21,32.41Z"/><path class="cls-1" d="M66.81,46.4h.38l-.19.27Z"/><path class="cls-1" d="M66.33,39.42a.28.28,0,0,1,.33-.27Z"/><path class="cls-1" d="M70.78,36l.26-.21C71.05,36,71,36.07,70.78,36Z"/><path class="cls-1" d="M71.09,35.77a.22.22,0,0,1,.27-.25C71.37,35.71,71.28,35.8,71.09,35.77Z"/><polygon class="cls-1" points="53.47 54.7 53.54 54.74 53.48 54.68 53.47 54.7"/><path class="cls-1" d="M34.35,45.42c0-.58-.23-1-.9-.86-2,.4-4-.24-5.92.18-.62.13-1.28-.05-1.85.41s-.87,0-1.1-.37c-.36-.55.2-.67.53-.8,1.49-.56,3-1.16,4.5-1.59.53-.14.76-.55,1.2-.74.74-.32,1.18-.69,1.93.29.95,1.24,2.39.25,3.56,0,.58-.16,1.35-.61.84-1.6-.2-.38,0-.76.45-1s.71-.3.67.34c1.32,0,2.75.74,3.92.19,1.44-.67,2.11.63,3.22.64-1.13.66-2.35-.26-3.48.31.11.63,1.14,0,1,.73s-.88.86-1.47,1.1c-.8.32-2.27-1.17-2.51.92,0,.09-1.55.2-2.24.77.11.44,1.15,0,.8.64-.55,1.1,0,1.14.79,1a.7.7,0,0,1,.89.53,1,1,0,0,1-.6.94,9.25,9.25,0,0,1-5.38.46c-.82-.1-1.17-.33-.43-1,.33-.33.61-.86.2-1.12s-.73.15-.58.7c0,0-.22.12-.34.18-.7-1.37-1.05.24-1.59.19-.16-1.15,1.31-2.1,2.67-1.61a3.63,3.63,0,0,0,1.23.24l.14.06Z"/><path class="cls-1" d="M49.61,36.13a2,2,0,0,1,1.25-.61c.81-.06,1.37-.18.7-1.32s.57-.79,1.12-.93c.43.5.46,2.1,1.54,1,.78-.82.93-.1,1.36.09-.38.71-1.49.81-1.51,1.82a2.09,2.09,0,0,0-1.84.11.7.7,0,0,0-.35,1c.2.36.6.48.87.17,1.22-1.4,2.51-.36,3.78-.15-.51.44-1.13.3-1.72.34a2.41,2.41,0,0,0-2,.8c-.74,1.11-1.92,1.31-3.05,1.63-.5.15-1.27-.23-1.33.76,0,.28-.27.24-.33,0-.22-.91-1.91.63-1.67-1,.07-.47-.06-1,.81-1.08a23.75,23.75,0,0,1,2.85-.26c-2.55-.77-.89-1.5-.54-2.24Z"/><path class="cls-1" d="M60.62,29.91a16.57,16.57,0,0,1,6.24-2.36c.81-.17,1.7.48,2.4,1,.41.3,0,.79-.37.88-.87.18-1.16.9-1.68,1.46a5.13,5.13,0,0,1-4,1.43c-.1-.33-.23-.78.23-.87,1.45-.29.88-1.15.69-2.06-1,.46-1.86.86-2.73,1.29-.26.13-.55.53-.75.31A.82.82,0,0,1,60.62,29.91Z"/><path class="cls-1" d="M49.59,43.32c-.8,1.48-2.37,1.27-3.63,1.41-.55.06-1,0-1.29.45a1,1,0,0,1-1.42.37c-.53-.22-.9-.37-.35-1,.12-.12-.15-.47-.3-.35-1.07.85-1.5-.86-2.72-.28.92-1,1.7-.29,2.45-.49a8.12,8.12,0,0,0,2.6-1.05c.28-.19.66-.37.93,0s.76.3,1.2.22a2.54,2.54,0,0,1,2.54.71Zm-3.7.47a1,1,0,0,0-1.14,0A1.24,1.24,0,0,0,45.89,43.79Z"/><path class="cls-1" d="M60.62,29.91a.82.82,0,0,0,0,1.07c.2.22.49-.18.75-.31.87-.43,1.75-.83,2.73-1.29.19.91.76,1.77-.69,2.06-.46.09-.33.54-.23.87-2-.2-4-.6-5.94.38l-.15-.12c.09-.45.21-.9-.3-1.21A10.25,10.25,0,0,1,60.62,29.91Z"/><path class="cls-1" d="M56.53,37.28c-1.27-.21-2.56-1.25-3.78.15-.27.31-.67.19-.87-.17a.7.7,0,0,1,.35-1,2.09,2.09,0,0,1,1.84-.11h0l.1.22.27-.18A3,3,0,0,0,56,35.09c.63-.8,1.9-.41,2.84-.77,0,1-1.24,1.4-1.22,2.43Z"/><path class="cls-1" d="M57.64,36.75c0-1,1.18-1.44,1.22-2.43v0a8.83,8.83,0,0,0,1.15,0c.82-.12.07-.36,0-.55,1.07-.06,2.06.57,3.19.23-1.23.79-2.26,1.82-3.76,1.85-.12-.29-.23-.24-.32,0C58.61,36.12,58.33,36.8,57.64,36.75Z"/><path class="cls-1" d="M55.58,34.34c-.43-.19-.58-.91-1.36-.09-1.08,1.12-1.11-.48-1.54-1,.49-.7,1.33-.81,2-1.17,0,.78.24,1.21,1.13.81a8.06,8.06,0,0,1,1.24-.34l.15.12C57.44,34,55.85,33.51,55.58,34.34Z"/><path class="cls-1" d="M42.25,47.34A1.94,1.94,0,0,1,41,47.29c-.45-.13-1.1.59-1.3,0-.29-.79.75-.24,1-.65a.48.48,0,0,1,.09-.11c.36-.29-.82-1.11.37-1.09,1,0,.39.88.66,1.29A5.23,5.23,0,0,0,42.25,47.34Z"/><path class="cls-1" d="M48.8,26.69c-.65.74-1.74.4-2.49,1.08-.39.35-.65-.56-1.24-.84a8.71,8.71,0,0,1,3.54-.45Z"/><path class="cls-1" d="M57.08,32.57a8.06,8.06,0,0,0-1.24.34c-.89.4-1.13,0-1.13-.81a4.7,4.7,0,0,1,2.07-.74C57.29,31.67,57.17,32.12,57.08,32.57Z"/><path class="cls-1" d="M49.55,36.21c-.94-.17-2-.05-2.73-.86,1.36-1.07,2.13-.33,2.79.78Z"/><path class="cls-1" d="M49.6,43.33c1-.36,1.09-1.27,1.34-2.16,0,.74,1.24,1,.76,1.72s-1.38.37-2.11.43Z"/><path class="cls-1" d="M60,33.79c0,.19.79.43,0,.55a8.83,8.83,0,0,1-1.15,0A1.39,1.39,0,0,1,60,33.79Z"/><path class="cls-1" d="M22.09,39.73l.37.11s-.07.11-.08.1l-.31-.19Z"/><path class="cls-1" d="M22.07,39.75l-.36-.13c.19-.21.28,0,.38.11Z"/><path class="cls-1" d="M48,24.72c.06,0,.17-.16.19-.14.18.12.06.2,0,.29Z"/><path class="cls-1" d="M54.45,36.2l-.27.18-.1-.22Z"/><path class="cls-1" d="M69.32,35l-.1.13s0-.06,0-.07l.1,0Z"/><path class="cls-1" d="M59.14,35.89c.09-.26.2-.31.32,0Z"/><path class="cls-1" d="M53.13,22.46c-.27,1.28-1.74.78-2.29,2C50.87,22.59,51.67,22.14,53.13,22.46Z"/><path class="cls-1" d="M34.35,45.42l.13.06-.14-.06Z"/><path class="cls-1" d="M45.89,43.79a1.24,1.24,0,0,1-1.14,0A1,1,0,0,1,45.89,43.79Z"/></g></g></svg>