<svg xmlns="http://www.w3.org/2000/svg" viewBox="0 0 108.9 70.5"><defs><style>.cls-1,.cls-2{fill:none;}.cls-2{stroke:#ca2e55;stroke-miterlimit:10;}</style></defs><g id="Layer_2" data-name="Layer 2"><g id="Layer_1-2" data-name="Layer 1"><path class="cls-1" d="M54.3,70.47q-26.53,0-53.08,0C.2,70.5,0,70.3,0,69.28q.06-34,0-68.06C0,.2.2,0,1.22,0Q54.46,0,107.68,0c1,0,1.22.2,1.22,1.22q-.06,34,0,68.06c0,1-.2,1.22-1.22,1.22Q81,70.44,54.3,70.47ZM87.64,20.61v0a3.27,3.27,0,0,1-2.07-.51,8.55,8.55,0,0,0-2.69-1.45c-.1-1.26-.79-2.37.34-3.78,1.25-1.56.49-2.52-1.58-2.52-3.88,0-7.77,0-11.66,0-.51,0-1.11-.23-1.51.33l-.37.06a20.6,20.6,0,0,0-4.9.06H62a62.11,62.11,0,0,0-8.41-.06c-1.68-.47-3.3.22-5,.24-6,.08-12-.23-18,.39-1.78-.42-3.33.4-4.94.88.07-1.19-.95-1-1.47-.89a23.46,23.46,0,0,1-2.78,0c-2.56,0-2.56,0-2.46,2.63l.28,1.61v1.82c-.24,1.5.42,2.95.31,4.44.11,3.14.32,6.26.5,9.39s.48,6.56.59,9.83c.14,4.28.59,8.53.63,12.8,0,1.22.24,1.78,1.53,1.41,2.12.33,4.19-.3,6.29-.31,3.57.27,7.12-.18,10.68-.21,4.12,0,8.23-.09,12.34-.39h1.49c3.7.31,7.37-.36,11.06-.32h3.91c3.37-.4,6.75-.14,10.13-.3.63,0,1.32.36,1.88-.25l3.23-.08,2.06,0c1.54,0,3.09,0,4.63.06.76,0,1-.08.93-1.06-.2-2.45-.34-4.9-.74-7.32a65.77,65.77,0,0,0-.73-8.87c-.13-1.21.37-2.57-.49-3.69.35-2.82-.65-5.53-.6-8.32a3,3,0,0,0-.32-2.07c.39-1.34-.61-2.57-.35-3.9,0-.19,0-.47-.18-.42A.48.48,0,0,0,87.64,20.61Z"/><path class="cls-2" d="M52.06,56.42c-4.11.3-8.22.37-12.34.39-3.56,0-7.11.48-10.68.21,0-1.05,2.31-4.41,3.22-4.67a2.52,2.52,0,0,1,.72,0c-.09,1.47,1.57,1.15,2.06,2,.34.62.81.51,1.25.19,2.2-1.62,4.49-.82,6.65-.06a2.15,2.15,0,0,0,2.31-.13c.45-.34.92-.53,1.27,0,.94,1.5,1.49.35,1.86-.35s.66-1.44,1.34-1.44c1.75,0,2.88-1.2,4.27-1.93,1-.5.67-.74,0-1.27-1.63-1.23-3.24-.61-4.88-.16-.49.08-1,.14-1.46.24-1.44.31-2.9.68-4.32,0a10.12,10.12,0,0,0-4.73-.78c-.71-.62-1-1.65-2-1.94a.85.85,0,0,0-.3-.86c.21-1.74.36-3.5,2.37-4.28a4,4,0,0,0,1.16-.89c.41-.39.56-1,.13-1.33-1.38-1-1.58-2.64-2.41-3.94-.39-.62-.85-.73-1.08-.22-.45,1-1.13,1.89-.75,3.2.61,2.09.8,3.52-.89,4.62-1.53,1-1.57,1.36-.73,3,.13.25.32.62.22.8-.21.41-.59.1-.91,0-1.15-.25-2-.08-2,1.37a4,4,0,0,1-.25,1c-.14.55-.54.67-.87.31-.82-.89-2.05-.72-3-1.28l-.33,0c0-.21-.05-.42-.07-.63h.37c.27,0,.71.08.72-.24,0-.51-.46-.28-.75-.32l-.44-.65.7-1,.13-.07h-.13c-.42-1.11-1.54-1.42-2.39-2-.46-.33-.91-.21-1.27.46-.53,1-.58,2.28-1.63,3-.17,0-.25.14-.16.31l0,1.08-.37.91c-.27,2.79.86,5.39,1.15,8.1-1.29.37-1.52-.19-1.53-1.41,0-4.27-.49-8.52-.63-12.8-.11-3.27-.41-6.55-.59-9.83-.18-3.13-.39-6.25-.5-9.39a4.09,4.09,0,0,0,2.62.71c2.77-.4,5.6.22,8.41-.9,1.49-.59,3.41-.33,5.12-.47a11.29,11.29,0,0,0,5.25-1.35,16.51,16.51,0,0,1,3.27-1.54C46,19.64,47.6,19.27,49,21a23.62,23.62,0,0,0-3.29,2.25A14.39,14.39,0,0,0,41,33.82c-.34-.09-.58.11-.84.27l-.34.35-.64.16a.49.49,0,0,0-.29-.54c-1.42-.63-3-.92-3.82-2.55-.08-.17-.64-.12-1-.17-.08-.05-.21-.15-.23-.14-.48.49-.15,2.52.45,2.76.43.17.64-.06.69-.48.55-.11,1,.23,1.5.34l.29.24c.53.42,1.2.22,1.79.38,0,.33-.11.85.23.94,1.44.39,1.63,1.82,1.75,2.75.17,1.38.76,1.16,1.6,1,.35.65.67,1.32,1.08,1.94,2.9,4.5,7.21,6.3,12.4,6.38a4.1,4.1,0,0,0,.88,2.63c.29.5.87.92,1.36.54.9-.69,1.44-.29,2,.36s1,.37,1.47.06.82-.65.24-1.17c-.21-1,.77-2.7-1.48-2.62-.12,0-.27-.47-.4-.73.4-.19.8-.37,1.19-.57a13,13,0,0,0,6.77-7.56,18,18,0,0,0,.79-7.33,27.69,27.69,0,0,0,12.11-3.55c.36-.22.73-.44,1.1-.22s.24.7.11,1.07c-.39,1.12-.75,2.26-1.21,3.35a12.68,12.68,0,0,0-1.22,7.19c-.7,1.93-.13,4-.44,5.9l-.39.58-2.82.6a4,4,0,0,1-1-2.86,2.44,2.44,0,0,0-.57-1.65c-.78-1.95-.35-4-.61-6.08-.72,2.36-2.1,4.48-2.1,7-.35.2-.77.44-.78.83-.08,2-1.17,3.84-1.28,5.84a2.12,2.12,0,0,1-.93,1.7,7.54,7.54,0,0,1-2.71-.29c-.2-.33-.43-.79-.83-.74s-.2.65-.34,1c-.35.81.08,1.62,0,2.43-.42.06-.94-.16-1.16.42-.47,1.27-1.21.68-1.87.24a1.74,1.74,0,0,1-.86-1.33.42.42,0,0,0-.48-.44.38.38,0,0,0-.36.41c.1,1.49-.77,1.47-1.82,1.16-.26-.08-.56-.1-.67.14-.4,1-1.35.88-2.1,1.18a2.87,2.87,0,0,0-1.73,1.49H52.36Q52.21,56.18,52.06,56.42Zm-28.85-22a15,15,0,0,0,3-1.9c1.51-1.3,3.67-1.31,5.38-2.32a1.31,1.31,0,0,1,1.41.2,1.42,1.42,0,0,0,1.11.33c.19,0,.43,0,.44-.29s-.08-.35-.15-.36c-.84-.14-1.18-.69-1.44-1.43a.47.47,0,0,0-.85,0c-.64,1-1.74,1-2.72,1.21C26.65,30.5,25,32.5,23.21,34.45ZM64.65,49a5.75,5.75,0,0,0,.26-2.44c.06-.84-.32-.91-1-.58s-1.07.7-.39,1.44A17.35,17.35,0,0,1,64.65,49ZM62.53,49c0,.74,0,1.55.86,1.64.51.06.34-.59.34-.94,0-.7-.07-1.56-.82-1.7C62.31,47.85,62.64,48.63,62.53,49Z"/><path class="cls-2" d="M68.46,12.71c.4-.56,1-.33,1.51-.33,3.89,0,7.78,0,11.66,0,2.07,0,2.83,1,1.58,2.52-1.13,1.41-.44,2.52-.34,3.78V20c0,1.14-.06,2.28,0,3.42a2.09,2.09,0,0,1-1.09,2.08,30.26,30.26,0,0,1-13.56,4.37A20.28,20.28,0,0,0,65.72,25a7.63,7.63,0,0,1,.12-2c.57-1.63-.56-3.61,1-5l-.47-.53c.29-.14.32-.65.77-.55.27.06.61.23.65-.23s-.32-.41-.59-.49a5.15,5.15,0,0,1-.54-.23c-.08-1,0-1.68,1.26-.8a1.24,1.24,0,0,0,1.37.21c-.14-.88-2.51-1-.86-2.39A.23.23,0,0,0,68.46,12.71Z"/><path class="cls-2" d="M19.19,19.46V17.64a28.16,28.16,0,0,0,5.72-1.42,14.88,14.88,0,0,0,5.65-2.82c6-.62,12-.31,18-.39,1.67,0,3.29-.71,5-.24-.87,2-2.14,4-4.41,4.13-2.08.11-3.79,1.35-5.83,1.32-.48,0-.79.39-1.09.72a2.43,2.43,0,0,1-1.28.74c-2,.36-4,.52-6,.91-2.79.54-5.64.77-8.45,1.27a16.25,16.25,0,0,1-4.83-.22c-.93-.1-2.14-.44-2-1.91C19.67,19.65,19.35,19.55,19.19,19.46Z"/><path class="cls-2" d="M22.75,57.33c-.29-2.71-1.42-5.31-1.16-8.1,1.11,0,1.62,1,2.45,1.52.18-.75-.24-1.25-.34-1.81,0-.25-.08-.56.17-.67s.52.15.63.44a3.08,3.08,0,0,0,.2.56c.53.69.55,2.27,1.13,2.14.84-.18,1-1.52,1.35-2.45a3.65,3.65,0,0,0,.08-.59c.94.56,2.17.39,3,1.28.33.36.73.24.87-.31a4,4,0,0,0,.25-1c0-1.45.81-1.62,2-1.37.32.07.7.38.91,0,.1-.18-.09-.55-.22-.8-.84-1.66-.8-2,.73-3,1.69-1.1,1.5-2.53.89-4.62-.38-1.31.3-2.22.75-3.2.23-.51.69-.4,1.08.22.83,1.3,1,2.95,2.41,3.94.43.31.28.94-.13,1.33a4,4,0,0,1-1.16.89c-2,.78-2.16,2.54-2.37,4.28-.57.83-1.91,1.38-.48,2.75.53.51,1.64,1.07,1.13,2.52.48-.36.68-.49.86-.64,1.74-1.52,2.67-1.44,4.16.3.38.44.73,1,1.39,1.06a31.81,31.81,0,0,0,4.14.34,1.49,1.49,0,0,0,1.64-1.51,12.35,12.35,0,0,0,0-1.49c1.64-.45,3.25-1.07,4.88.16.71.53,1,.77,0,1.27-1.39.73-2.52,1.91-4.27,1.93-.68,0-1,.79-1.34,1.44s-.92,1.85-1.86.35c-.35-.56-.82-.37-1.27,0a2.15,2.15,0,0,1-2.31.13c-2.16-.76-4.45-1.56-6.65.06-.44.32-.91.43-1.25-.19-.49-.88-2.15-.56-2.06-2a2.52,2.52,0,0,0-.72,0C31.35,52.61,29.06,56,29,57,26.94,57,24.87,57.66,22.75,57.33Z"/><path class="cls-2" d="M19.19,19.46c.16.09.48.19.47.27-.12,1.47,1.09,1.81,2,1.91a16.25,16.25,0,0,0,4.83.22c2.81-.5,5.66-.73,8.45-1.27,2-.39,4-.55,6-.91a2.43,2.43,0,0,0,1.28-.74c.3-.33.61-.73,1.09-.72,2,0,3.75-1.21,5.83-1.32,2.27-.12,3.54-2.1,4.41-4.13a62.11,62.11,0,0,1,8.41.06,8.32,8.32,0,0,0-.65,2.73c-.21,1.81-.41,3.62-.62,5.43A17,17,0,0,0,49,21c-1.4-1.76-3-1.39-4.83-.68a16.51,16.51,0,0,0-3.27,1.54,11.29,11.29,0,0,1-5.25,1.35c-1.71.14-3.63-.12-5.12.47-2.81,1.12-5.64.5-8.41.9a4.09,4.09,0,0,1-2.62-.71C19.61,22.41,19,21,19.19,19.46Z"/><path class="cls-2" d="M68.21,29.91a30.26,30.26,0,0,0,13.56-4.37,2.09,2.09,0,0,0,1.09-2.08c0-1.14,0-2.28,0-3.42a7.43,7.43,0,0,1,1.21.83c.74.68,2.76.5,3.55-.24v0l.51-.26c-.26,1.33.74,2.56.35,3.9a20.22,20.22,0,0,1-2.59.05,1.69,1.69,0,0,0-1.79,1.59c-.11.68-.05,1.64,1.13,1.61,1.76.58,2.22.4,3-1.17h.53c0,2.79,1,5.5.6,8.32a3.65,3.65,0,0,0-1.54.48C85,36.23,82.36,38,79.37,38.9a12.68,12.68,0,0,1,1.22-7.19c.46-1.09.82-2.23,1.21-3.35.13-.37.32-.81-.11-1.07s-.74,0-1.1.22a27.69,27.69,0,0,1-12.11,3.55Z"/><path class="cls-2" d="M79.37,38.9c3-.92,5.61-2.67,8.51-3.78a3.65,3.65,0,0,1,1.54-.48c.86,1.12.36,2.48.49,3.69a65.77,65.77,0,0,1,.73,8.87c-.48,0-.84.16-.8.8.08,1.11-.53,1.41-1.45,1s-2.3,0-2.77-1.47c-.14-.48-.65-.08-1,.1s-1.12.39-1-.23c.3-1.59-.58-.9-1.24-.79-.33.05-.78.12-.92-.27-.45-1.21-1.58-1.2-2.53-1.51C79.24,42.85,78.67,40.83,79.37,38.9Z"/><path class="cls-2" d="M68.5,50.77a2.12,2.12,0,0,0,.93-1.7c.11-2,1.2-3.81,1.28-5.84,0-.39.43-.63.78-.83,1-.1,1.69-1,2.71-.93a2.44,2.44,0,0,1,.57,1.65A4,4,0,0,0,75.71,46c0,1.62.61,3.26-.26,4.84-.21.37,0,.79.52.85a21.33,21.33,0,0,0,2.68,4.15c-3.38.16-6.76-.1-10.13.3A5.54,5.54,0,0,0,68.46,55c-.19-.68-.5-1.3-1.39-1.21s-.6.83-.66,1.34a8.68,8.68,0,0,0,0,1H64.61c0-1,0-2,0-3,.1-.81-.33-1.62,0-2.43.14-.33-.19-.9.34-1s.63.41.83.74a2.87,2.87,0,0,0,.37.79c.48.55.48,1.8,1.53,1.52S68.34,51.5,68.5,50.77Z"/><path class="cls-2" d="M78.93,44.8c.95.31,2.08.3,2.53,1.51.14.39.59.32.92.27.66-.11,1.54-.8,1.24.79-.12.62.62.43,1,.23s.86-.58,1-.1c.47,1.46,1.84,1,2.77,1.47s1.53.14,1.45-1c0-.64.32-.75.8-.8.4,2.42.54,4.87.74,7.32.09,1-.17,1.07-.93,1.06-1.54,0-3.09,0-4.63-.06l-2.18-1.88a9.39,9.39,0,0,1,.12,1.85l-3.23.08a.74.74,0,0,0-.37-.62c.09-.87-.33-1.26-1.19-1.2L77.45,52c.12-.37-.45-.78,0-1.09.61-.43,1.13.29,1.87.37a2.74,2.74,0,0,0-1-1.56,1.5,1.5,0,0,1-.25-2.39,1.91,1.91,0,0,0,.49-1.92Z"/><path class="cls-2" d="M66.42,17.39l.47.53c-1.61,1.4-.48,3.38-1,5a7.63,7.63,0,0,0-.12,2,20.58,20.58,0,0,0-4.07-3.49c.43-2.35.26-4.79,1.06-7.08A2.38,2.38,0,0,1,63,13.16l.07-.11a.27.27,0,0,0,.08-.22,20.6,20.6,0,0,1,4.9-.06l.39.14c-1.65,1.43.72,1.51.86,2.39A1.24,1.24,0,0,1,68,15.09c-1.22-.88-1.34-.24-1.26.8C66.64,16.39,65.78,16.74,66.42,17.39Z"/><path class="cls-2" d="M64.6,53.15c0,1,0,2,0,3-3.69,0-7.36.63-11.06.32a2.87,2.87,0,0,1,1.73-1.49c.75-.3,1.7-.23,2.1-1.18.11-.24.41-.22.67-.14,1.05.31,1.92.33,1.82-1.16a.38.38,0,0,1,.36-.41.42.42,0,0,1,.48.44,1.74,1.74,0,0,0,.86,1.33c.66.44,1.4,1,1.87-.24C63.66,53,64.18,53.21,64.6,53.15Z"/><path class="cls-2" d="M30.56,13.4a14.88,14.88,0,0,1-5.65,2.82,28.16,28.16,0,0,1-5.72,1.42c-.09-.54-.19-1.08-.28-1.61l1.16-.25c1.87-.43,3.81-.59,5.55-1.5C27.23,13.8,28.78,13,30.56,13.4Z"/><path class="cls-2" d="M25.62,14.28c-1.74.91-3.68,1.07-5.55,1.5L18.91,16c-.1-2.61-.1-2.59,2.46-2.63a23.46,23.46,0,0,0,2.78,0C24.67,13.32,25.69,13.09,25.62,14.28Z"/><path class="cls-2" d="M88.82,26.32h-.53c-1,.54-2.46-.33-3,1.17-1.18,0-1.24-.93-1.13-1.61a1.69,1.69,0,0,1,1.79-1.59,20.22,20.22,0,0,0,2.59-.05A3,3,0,0,1,88.82,26.32Z"/><path class="cls-2" d="M77.45,52,79,53.75A1.24,1.24,0,0,0,80.16,55a.74.74,0,0,1,.37.62c-.56.61-1.25.21-1.88.25A21.33,21.33,0,0,1,76,51.67C76.62,51,76.9,52.17,77.45,52Z"/><path class="cls-2" d="M87.63,20.63c-.79.74-2.81.92-3.55.24A7.43,7.43,0,0,0,82.87,20V18.67a8.55,8.55,0,0,1,2.69,1.45A3.27,3.27,0,0,0,87.63,20.63Z"/><path class="cls-2" d="M66.4,56.11a8.68,8.68,0,0,1,0-1c.06-.51-.29-1.25.66-1.34s1.2.53,1.39,1.21a5.54,5.54,0,0,1,.06,1.16Z"/><path class="cls-2" d="M63.19,12.83a.27.27,0,0,1-.08.22H63l0,.1a2.38,2.38,0,0,0-.33,1.24c-.67.14-.53,1.24-1.38,1.16A8.32,8.32,0,0,1,62,12.83Z"/><path class="cls-2" d="M83.76,55.49a9.39,9.39,0,0,0-.12-1.85l2.18,1.88Z"/><path class="cls-2" d="M88.15,20.35l-.51.26a.48.48,0,0,1,.33-.68C88.2,19.88,88.18,20.16,88.15,20.35Z"/><path class="cls-2" d="M68.48,12.91l-.39-.14.37-.06A.23.23,0,0,1,68.48,12.91Z"/><path class="cls-2" d="M52.06,56.42q.15-.24.3,0Z"/><path class="cls-2" d="M61.65,21.48A20.58,20.58,0,0,1,65.72,25a20.28,20.28,0,0,1,2.49,4.94l.27,1.15a18,18,0,0,1-.79,7.33A13,13,0,0,1,60.92,46c-.39.2-.79.38-1.19.57L58,47l-2.39.41c-5.19-.08-9.5-1.88-12.4-6.38-.41-.62-.73-1.29-1.08-1.94l-.94-3L41,33.82a14.39,14.39,0,0,1,4.7-10.54A23.62,23.62,0,0,1,49,21a17,17,0,0,1,11.71,0ZM49.3,22c-.26,0-.41.08-.32.37l0,0c-.13,0-.29-.13-.37-.08A12.84,12.84,0,0,0,41.92,33l0,2,.1.62.14.55a6.27,6.27,0,0,0,1.1,3.19,12.13,12.13,0,0,0,8,6.74,9,9,0,0,0,5.89.28,3.76,3.76,0,0,0,2.09-.54c6.2-1.89,9.7-9.34,8.34-14.48a1.51,1.51,0,0,0-.31-1.14,10.35,10.35,0,0,0-4.13-6.51,3.19,3.19,0,0,0-1.54-1.17c-1.56-1.24-3.49-1.17-5.3-1.53-.28-.6-.84-.37-1.3-.44-1.67-.24-3,.69-4.47,1.23l-.32.08c-.33,0-.71-.25-1,.18Z"/><path class="cls-2" d="M49.07,49.29a12.35,12.35,0,0,1,0,1.49,1.49,1.49,0,0,1-1.64,1.51A31.81,31.81,0,0,1,43.28,52c-.66-.08-1-.62-1.39-1.06-1.49-1.74-2.42-1.82-4.16-.3-.18.15-.38.28-.86.64.51-1.45-.6-2-1.13-2.52-1.43-1.37-.09-1.92.48-2.75a.85.85,0,0,1,.3.86c-1.26.68-.13,1.32.18,1.69s1.12,1.2,1.86.25a10.12,10.12,0,0,1,4.73.78c1.42.67,2.88.3,4.32,0C48.09,49.43,48.58,49.37,49.07,49.29Z"/><path class="cls-2" d="M22.17,46.93c1-.71,1.1-2,1.63-3,.36-.67.81-.79,1.27-.46.85.6,2,.91,2.39,2v.07c-.24.33-.47.66-.7,1a.92.92,0,0,0,.1,1.2c0,.21.05.42.07.63-.44.34-.84.77-1.16-.17-.48-1.41-1.38-1.62-2.45-.54-.4.41-.74.76-1.35.63,0-.36,0-.72,0-1.08Z"/><path class="cls-2" d="M77.45,52c-.55.2-.83-.94-1.48-.3-.53-.06-.73-.48-.52-.85.87-1.58.29-3.22.26-4.84l2.83-.6a1.91,1.91,0,0,1-.49,1.92,1.5,1.5,0,0,0,.25,2.39,2.74,2.74,0,0,1,1,1.56c-.74-.08-1.26-.8-1.87-.37C77,51.19,77.57,51.6,77.45,52Z"/><path class="cls-2" d="M23.21,34.45c1.75-2,3.44-4,6.18-4.58,1-.22,2.08-.17,2.72-1.21a.47.47,0,0,1,.85,0c.26.74.6,1.29,1.44,1.43.07,0,.16.24.15.36s-.25.27-.44.29A1.42,1.42,0,0,1,33,30.43a1.31,1.31,0,0,0-1.41-.2c-1.71,1-3.87,1-5.38,2.32A15,15,0,0,1,23.21,34.45Z"/><path class="cls-2" d="M55.65,47.45,58,47A2.75,2.75,0,0,0,59,48.52c.79.62,1.3,1.81,2.65,1.35.58.52.23.87-.24,1.17s-1,.48-1.47-.06-1.11-1-2-.36c-.49.38-1.07,0-1.36-.54A4.1,4.1,0,0,1,55.65,47.45Z"/><path class="cls-2" d="M22,48.32c.61.13,1-.22,1.35-.63,1.07-1.08,2-.87,2.45.54.32.94.72.51,1.16.17l.33,0a3.65,3.65,0,0,1-.08.59c-.31.93-.51,2.27-1.35,2.45-.58.13-.6-1.45-1.13-2.14a3.08,3.08,0,0,1-.2-.56c-.11-.29-.28-.59-.63-.44s-.21.42-.17.67c.1.56.52,1.06.34,1.81-.83-.57-1.34-1.57-2.45-1.52C21.72,48.93,21.85,48.62,22,48.32Z"/><path class="cls-2" d="M74.2,41.47c-1,0-1.74.83-2.71.93,0-2.53,1.38-4.65,2.1-7C73.85,37.43,73.42,39.52,74.2,41.47Z"/><path class="cls-2" d="M61.61,49.87c-1.35.46-1.86-.73-2.65-1.35A2.75,2.75,0,0,1,58,47l1.69-.52c.13.26.28.74.4.73C62.38,47.17,61.4,48.85,61.61,49.87Z"/><path class="cls-2" d="M41.23,36.13l.94,3c-.84.16-1.43.38-1.6-1-.12-.93-.31-2.36-1.75-2.75-.34-.09-.19-.61-.23-.94l.31-.38a.49.49,0,0,1,.29.54C39.59,35.48,40.49,35.71,41.23,36.13Z"/><path class="cls-2" d="M38.9,34.06l-.31.38c-.59-.16-1.26,0-1.79-.38l-.29-.24c-.5-.11-.95-.45-1.5-.34a2.33,2.33,0,0,1-.91-2.14c.34.05.9,0,1,.17C35.85,33.14,37.48,33.43,38.9,34.06Z"/><path class="cls-2" d="M68.5,50.77c-.16.73.09,1.78-.81,2s-1-1-1.53-1.52a2.87,2.87,0,0,1-.37-.79A7.54,7.54,0,0,0,68.5,50.77Z"/><path class="cls-2" d="M64.65,49a17.35,17.35,0,0,0-1.12-1.58c-.68-.74-.31-1.09.39-1.44s1-.26,1,.58A5.75,5.75,0,0,1,64.65,49Z"/><path class="cls-2" d="M38.56,48.76c-.74,1-1.44.23-1.86-.25s-1.44-1-.18-1.69C37.54,47.11,37.85,48.14,38.56,48.76Z"/><path class="cls-2" d="M62.53,49c.11-.33-.22-1.11.38-1,.75.14.81,1,.82,1.7,0,.35.17,1-.34.94C62.51,50.51,62.52,49.7,62.53,49Z"/><path class="cls-2" d="M41.23,36.13c-.74-.42-1.64-.65-2-1.53l.64-.16.34-.35c.26-.16.5-.36.84-.27C41.08,34.59,41.16,35.36,41.23,36.13Z"/><path class="cls-2" d="M34.1,31.34A2.33,2.33,0,0,0,35,33.48c0,.42-.26.65-.69.48-.6-.24-.93-2.27-.45-2.76C33.89,31.19,34,31.29,34.1,31.34Z"/><path class="cls-2" d="M27.2,47.22c.29,0,.78-.19.75.32,0,.32-.45.22-.72.24Z"/><path class="cls-2" d="M27.2,47.22l0,.56h-.37a.92.92,0,0,1-.1-1.2Z"/><path class="cls-2" d="M22.17,46.93l-.16.31C21.92,47.07,22,47,22.17,46.93Z"/><path class="cls-2" d="M40.17,34.09l-.34.35Z"/><path class="cls-2" d="M36.51,33.82l.29.24Z"/><path class="cls-2" d="M27.46,45.57V45.5h.13Z"/><path class="cls-2" d="M66.42,17.39c-.64-.65.22-1,.29-1.5a5.15,5.15,0,0,0,.54.23c.27.08.63.11.59.49s-.38.29-.65.23C66.74,16.74,66.71,17.25,66.42,17.39Z"/><path class="cls-2" d="M61.65,21.48,60.71,21c.21-1.81.41-3.62.62-5.43.85.08.71-1,1.38-1.16C61.91,16.69,62.08,19.13,61.65,21.48Z"/><path class="cls-2" d="M85.25,27.5c.58-1.5,2.08-.63,3-1.17C87.47,27.9,87,28.08,85.25,27.5Z"/><path class="cls-2" d="M80.16,55A1.24,1.24,0,0,1,79,53.75C79.83,53.69,80.25,54.08,80.16,55Z"/><polygon class="cls-2" points="63.04 13.16 63 13.06 63.11 13.05 63.04 13.16"/><path class="cls-2" d="M67.62,31.33c1.36,5.14-2.14,12.59-8.34,14.48A5.82,5.82,0,0,1,58,44.42a13.17,13.17,0,0,0-3.33-3.53l7.9-5.53c2.3-1.61,2.3-1.61.06-3.33a1,1,0,0,0-.1-.11A38.37,38.37,0,0,1,67.62,31.33Zm-4.56,9.14c.72-.92.85-1.61.34-2.4A2.41,2.41,0,0,0,63.06,40.47Z"/><path class="cls-2" d="M41.92,33a12.84,12.84,0,0,1,6.64-10.73c.08-.05.24,0,.37.08-1.14,2,.71,3.47,1,5.22.08.15.15.3.22.45a14.61,14.61,0,0,1,0,3.37c-.39,0-.8-.12-1.09.28a2.87,2.87,0,0,0-.73.07A16,16,0,0,1,41.92,33Z"/><path class="cls-2" d="M51.3,46.07a12.09,12.09,0,0,1-8-6.74A2.53,2.53,0,0,1,44.59,38c.39-.15.6-.31.39-.74s-.18-.9-.56-.72c-.9.44-1.45-.56-2.24-.38L42,35.59a10,10,0,0,1,5.25.85c1,.73,1.68,1.91,2.92,2.38.31,1.46-.28,3,.38,4.43,0,.71.62,1.1.81,1.71C51.51,45.34,52,45.75,51.3,46.07Z"/><path class="cls-2" d="M67.62,31.33a38.37,38.37,0,0,0-5.13.59,10,10,0,0,1-2.4-1.73A3.72,3.72,0,0,0,61.24,27a7.68,7.68,0,0,1,.4-4.49,3.15,3.15,0,0,1,1.54,1.18c-.86,1.84-.64,3.74-.39,5.67.09.66.39.83,1,.82,1.18,0,2.37,0,3.55,0A1.51,1.51,0,0,1,67.62,31.33Z"/><path class="cls-2" d="M51.3,46.07c.67-.32.21-.73.1-1.11-.19-.61-.85-1-.81-1.71,1.2-.18,1.88-1.27,3-1.67a5.47,5.47,0,0,0,2.14,2.35,3.5,3.5,0,0,1,1.5,2.42A9,9,0,0,1,51.3,46.07Z"/><path class="cls-2" d="M67.31,30.19c-1.18,0-2.37,0-3.55,0-.58,0-.88-.16-1-.82-.25-1.93-.47-3.83.39-5.67A10.3,10.3,0,0,1,67.31,30.19Z"/><path class="cls-2" d="M61.64,22.51a7.68,7.68,0,0,0-.4,4.49,3.72,3.72,0,0,1-1.15,3.19.55.55,0,0,1-.53-.29c.25-1.51,1-2.95.59-4.54.1-.69.1-.69-1-.4.8-1.92.5-2.41-1.35-2.28-.14,0-.39,0-.41-.08-.47-1.28-1.38-.44-2.1-.46,0-.68.79-.68,1-1.16C58.15,21.34,60.08,21.27,61.64,22.51Z"/><path class="cls-2" d="M56.34,21c-.22.48-1,.48-1,1.16-.26,1.08.86,2,.41,3.21-.88-.61-.51-1.53-.8-2.2-.21-.47,0-1.37-1-1.18s-.44.92-.38,1.44c0,.34.22.66.28,1s.47.74,0,.87-.42-.48-.58-.79c-.32-.61.14-1.91-1.09-1.74s0,1.23-.37,1.79l-.63-.4c.14-.62-.29-1-.62-1.39l0-1c1.45-.54,2.8-1.47,4.47-1.23C55.5,20.61,56.06,20.38,56.34,21Z"/><path class="cls-2" d="M57.19,46.35a3.5,3.5,0,0,0-1.5-2.42,5.47,5.47,0,0,1-2.14-2.35,2.08,2.08,0,0,1,1.08-.69A13.17,13.17,0,0,1,58,44.42a5.82,5.82,0,0,0,1.32,1.39A3.76,3.76,0,0,1,57.19,46.35Z"/><path class="cls-2" d="M47.29,36.44A10,10,0,0,0,42,35.59l-.1-.62c1-1.36,2.2-1.93,3.83-1.19C46,34.85,47.72,35,47.29,36.44Z"/><path class="cls-2" d="M45.77,33.78c-1.63-.74-2.85-.17-3.83,1.19,0-.66,0-1.32,0-2a16,16,0,0,0,6.4-1.26,2.87,2.87,0,0,1,.73-.07.82.82,0,0,1-.7,1.09C47.37,32.85,46.67,33.53,45.77,33.78Z"/><path class="cls-2" d="M42.18,36.14c.79-.18,1.34.82,2.24.38.38-.18.42.43.56.72s0,.59-.39.74a2.53,2.53,0,0,0-1.3,1.35A6.19,6.19,0,0,1,42.18,36.14Z"/><path class="cls-2" d="M50.57,21.77c0,.33,0,.66,0,1l-.86,0-.21.24-.1.55c-.31.29-.43.56,0,.81l.74.42,0,2.45-.24.3c-.27-1.75-2.12-3.2-1-5.22l0,0A.32.32,0,0,0,49.3,22l0,0c.34,0,.69.15,1-.18Z"/><path class="cls-2" d="M50.25,21.85c-.28.33-.63.23-1,.18C49.54,21.6,49.92,21.86,50.25,21.85Z"/><path class="cls-2" d="M49.3,22a.32.32,0,0,1-.32.37C48.89,22.07,49,22,49.3,22Z"/><path class="cls-2" d="M50.15,27.26l0-2.45c.17-.48.46-.77,1-.67l.63.4a8.18,8.18,0,0,0,2.66,1.76,30,30,0,0,0,5.13,3.6.55.55,0,0,0,.53.29,10,10,0,0,0,2.4,1.73,1,1,0,0,1,.1.11c2.24,1.72,2.24,1.72-.06,3.33l-7.9,5.53a2.08,2.08,0,0,0-1.08.69c-1.08.4-1.76,1.49-3,1.67-.66-1.43-.07-3-.38-4.43V34.29l.05-.09-.06-.09v-1l0-1.76a14.61,14.61,0,0,0,0-3.37Zm9.75,4.38a6.68,6.68,0,0,0-1.78-1.19,33.14,33.14,0,0,0-6.62-4.23v5.15l0,1.48,0,5.4c0,.9-.53,2,.36,2.61.61.42,1.24-.29,1.72-.77A86.85,86.85,0,0,0,61,34.91,4,4,0,0,0,63,33.58Z"/><path class="cls-2" d="M63.06,40.47a2.41,2.41,0,0,1,.34-2.4C63.91,38.86,63.78,39.55,63.06,40.47Z"/><path class="cls-2" d="M50.14,31.38l0,1.76a13.63,13.63,0,0,0-1.44.31c-1.45.47-1.58,1-.48,2,.6.58,1.3,1.06,2,1.59v1.77c-1.24-.47-1.9-1.65-2.92-2.38.43-1.42-1.33-1.59-1.52-2.66.9-.25,1.6-.93,2.58-1a.82.82,0,0,0,.7-1.09C49.34,31.26,49.75,31.36,50.14,31.38Z"/><path class="cls-2" d="M50.15,27.26l0,.75c-.07-.15-.14-.3-.22-.45Z"/><path class="cls-2" d="M54.43,26.3a8.18,8.18,0,0,1-2.66-1.76c.36-.56-.91-1.61.37-1.79s.77,1.13,1.09,1.74c.16.31,0,1,.58.79s.09-.58,0-.87-.25-.66-.28-1c-.06-.52-.6-1.23.38-1.44s.78.71,1,1.18c.29.67-.08,1.59.8,2.2.45-1.23-.67-2.13-.41-3.21.72,0,1.63-.82,2.1.46,0,.07.27.09.41.08C59.69,22.55,60,23,59.19,25c1.06-.29,1.06-.29,1,.4-1.83.5-3.51,1.86-5.57.91C54.54,26.25,54.48,26.29,54.43,26.3Z"/><path class="cls-2" d="M54.43,26.3s.11-.05.15,0c2.06.95,3.74-.41,5.57-.91.43,1.59-.34,3-.59,4.54A30,30,0,0,1,54.43,26.3Z"/><path class="cls-2" d="M51.14,24.14c-.55-.1-.84.19-1,.67l-.74-.42,0-.81c0-.18.06-.37.1-.55a2.25,2.25,0,0,1,.21-.24l.86,0C50.85,23.16,51.28,23.52,51.14,24.14Z"/><path class="cls-2" d="M49.36,23.58l0,.81C48.93,24.14,49.05,23.87,49.36,23.58Z"/><path class="cls-2" d="M49.67,22.79a2.25,2.25,0,0,0-.21.24Z"/><path class="cls-2" d="M61,34.91a86.85,86.85,0,0,1-7.45,5.18c-.47-.86-1.4-1.21-2.08-1.84,0-1.8,0-3.6,0-5.4l1.77-.29c.41,0,.87.14,1.2-.27L56,32c.55.45,1.11.17,1.69,0s1.49-.34,1.67.12C59.72,33.23,60.72,33.85,61,34.91Z"/><path class="cls-2" d="M51.5,31.37V26.22a33.14,33.14,0,0,1,6.62,4.23A41,41,0,0,0,51.5,31.37Z"/><path class="cls-2" d="M51.5,31.37a41,41,0,0,1,6.62-.92,6.68,6.68,0,0,1,1.78,1.19A14.89,14.89,0,0,0,56,32l-1.51.27c-.42,0-.87-.13-1.2.27l-1.77.29Z"/><path class="cls-2" d="M50.2,37.05c-.65-.53-1.35-1-2-1.59-1.1-1.05-1-1.54.48-2a13.63,13.63,0,0,1,1.44-.31v1l-.08,0,.09.13Z"/><path class="cls-2" d="M56,32a14.89,14.89,0,0,1,3.94-.38L63,33.58A4,4,0,0,1,61,34.91c-.31-1.06-1.31-1.68-1.71-2.73-.18-.46-1.1-.25-1.67-.12S56.51,32.47,56,32Z"/><path class="cls-2" d="M51.5,38.25c.68.63,1.61,1,2.08,1.84-.48.48-1.11,1.19-1.72.77C51,40.25,51.52,39.15,51.5,38.25Z"/><path class="cls-2" d="M50.19,34.29l-.09-.13.08,0,.06.09Z"/><path class="cls-2" d="M53.25,32.56c.33-.4.78-.27,1.2-.27C54.12,32.7,53.66,32.53,53.25,32.56Z"/><path class="cls-1" d="M54.47,70.47q-26.61,0-53.2,0C.32,70.5,0,70.41,0,69.32Q.06,35.23,0,1.14C0,.19.25,0,1.16,0q53.28,0,106.55,0c1.1,0,1.18.32,1.18,1.26q0,34,0,68c0,1-.23,1.21-1.23,1.21Q81.06,70.44,54.47,70.47ZM87.65,55.38c.49,0,1,.07,1.46.08,2.31,0,2.31,0,2.12-2.31v-.63c.28-.75-.42-1.34-.32-2.06v-.55a20.46,20.46,0,0,0-.57-5.23,93,93,0,0,0-.67-9.43A8.26,8.26,0,0,0,89.26,32l-.18-1.71a7.64,7.64,0,0,0-.29-3.08l0-.88a37.09,37.09,0,0,0-.61-5.37c0-1,.33-2-.23-3l-.27-.88c.76-1.56-.23-3.08-.15-4.64,0-.57-.81-.58-1.22-.43-1.15.44-2.32.18-3.48.33H71.43c-2-.22-4,.38-6,.31l-2.64,0A123.24,123.24,0,0,0,49,13l-2,0H43.41c-3.7.08-7.42-.41-11.1.3h-3l-7-.05c-3.6,0-3.41,0-3.23,3.62.27,5.54.64,11.08.92,16.63.16,3.19.48,6.37.58,9.55.13,4.33.62,8.64.62,13,0,1.24.38,1.6,1.52,1.29l10.5-.31a33.86,33.86,0,0,0,4.39-.19c4.89-.13,9.78-.07,14.67-.31,3.2-.16,6.42,0,9.61-.42,5.49.36,11-.39,16.44-.3a3.76,3.76,0,0,0,2.1-.11l5.1-.2A5.5,5.5,0,0,0,87.65,55.38Z"/><path class="cls-2" d="M61.91,56c-3.19.38-6.41.26-9.61.42-4.89.24-9.78.18-14.67.31a33.86,33.86,0,0,1-4.39.19c-.17-1-1.08-.9-1.65-.91a34.32,34.32,0,0,0-4.85.29A1.7,1.7,0,0,1,25.41,56c-1.51-1-2.45-.58-2.67,1.25-1.14.31-1.51,0-1.52-1.29,0-4.34-.49-8.65-.62-13-.1-3.18-.42-6.36-.58-9.55-.28-5.55-.65-11.09-.92-16.63-.18-3.63-.37-3.62,3.23-3.62l7,.05c0,3.76-.28,7.51-.59,11.25-.39,4.91-.73,9.81-1.06,14.72,0,.71-.08,1.67.8,1.87,2,.44,4,1.44,6.13.52a1.23,1.23,0,0,1,1.68.57c.3.75.88.73,1.46,1,1.52.62,3.11.23,4.64.49l.13.1a.4.4,0,0,0,.22.51l0,0,0,2.27-.28.07a3.55,3.55,0,0,1-1.46.67,5.58,5.58,0,0,0-1.82.56C37.8,48.52,37.88,49,39,50c1.89,1.58,4.24.34,6.21,1.19,2.5-1.37,5.78-1.21,7.61-3.9.06-.09.27-.07.42-.11A16.79,16.79,0,0,0,62.21,45c.09,2.65.31,5.3.23,7.95C62.41,54,61.8,54.94,61.91,56ZM46.27,54.82a1.71,1.71,0,0,0-1-.86,12.45,12.45,0,0,1-2.8-1.58c-.22-.16-.46-.51-.75-.21s0,.64.21.88a12.12,12.12,0,0,0,3.68,2.1C45.92,55.28,46.24,55.28,46.27,54.82Z"/><path class="cls-2" d="M61.91,56c-.11-1.06.5-2,.53-3,.08-2.65-.14-5.3-.23-7.95,2.77-2.05,5-4.52,5.78-8,.52,0,1.21.1,1.34-.58.21-1.13,1-2,1.3-3l.83.06a.37.37,0,0,1,.17.13c-.47,1.06-1.22,2.17,1,1.75,1-.18,3,2,2.58,2.69-.78,1.42-.12,2.55.4,3.75l0,1.21c-.5.61-.3,1.15.11,1.73.77,1.1,2.06,2,1.44,3.69-.12.3.21.51.53.57a.76.76,0,0,0,.06.26v.34l.29.55c0,.77.85,1.37.53,2.21a11,11,0,0,0-.29,3.34C72.87,55.61,67.4,56.36,61.91,56Z"/><path class="cls-2" d="M71.63,33.61a.37.37,0,0,0-.17-.13c-.29-.51.41-1,.06-1.5a.68.68,0,0,1,.26-.12l1.81.4c.26.41.71.32,1.09.39a2.14,2.14,0,0,0,1.29.46,4.46,4.46,0,0,0,3,.27c-.82-1.07-.9-2.65-2.65-2.58a3.24,3.24,0,0,0-1.64-.87l-.42-.38c.63-.24,1.47-.3,1.22-1.34H76a2.24,2.24,0,0,0,.7.17,15.79,15.79,0,0,1,6.74,1.36,18.83,18.83,0,0,1,3.92,2.34c.61.41,1.36,1.07,1.93-.12a8.26,8.26,0,0,1,.43,3.29,93,93,0,0,1,.67,9.43c-1.4.16-2.87-.1-4.17.78.25.76,1.35.72,1.58,1.56-1.73,0-3.1-1.09-4.69-1.34s-2.8-1.89-4.6-1.82l-.06,0a1.75,1.75,0,0,0-1.22-1c-1.13-.36-1-.94-.58-1.8.63-1.37,1.8-1.61,3.09-1.87.54-.11,2.92.32.67-1.34-.09-.06-.09-.26-.1-.39-.17-1.88-.7-2.39-2.82-2.77a2,2,0,0,0-2.1-.15,2.1,2.1,0,0,1-2.57-.3A2.42,2.42,0,0,0,71.63,33.61Zm16.62-.08c0-.51-.26-.71-.73-.7-.29,0-.68,0-.67.38s.46.58.82.73S88.21,33.88,88.25,33.53Z"/><path class="cls-2" d="M32.31,13.21c3.68-.71,7.4-.22,11.1-.3.33.92,1.29.73,2,1.07,1.54.81,1.55.78,1.58-1.06l2,0c.18,1.51-.65,3.05.1,4.55a.42.42,0,0,1-.61.4c-1.2-.39-1.13.47-1.14,1.18a3.91,3.91,0,0,0,.21,1c-.53.14-1-.41-1.59-.12.12,1,1.14,1.06,1.69,1.58a26.85,26.85,0,0,0-3.22,2.71c-.64.12-1.24-.53-1.87-.15-1.46.85-2.86.44-4.24-.17a10,10,0,0,0-4.38-1.21c-.88,0-1.2-.44-1.35-1.37C32.15,18.63,32.43,15.91,32.31,13.21Z"/><path class="cls-2" d="M32.31,13.21c.12,2.7-.16,5.42.27,8.12.15.93.47,1.4,1.35,1.37a10,10,0,0,1,4.38,1.21c1.38.61,2.78,1,4.24.17.63-.38,1.23.27,1.87.15a20.69,20.69,0,0,0-2.74,4.82c-.39-.41-.85-.54-1,.14-.18,1.15-.95,2-1.29,3.09a2.64,2.64,0,0,1-2.7,2.12,2.36,2.36,0,0,0-2.27,1.37A1.62,1.62,0,0,0,35.2,38c.56.39.4.85-.25,1.07-.28.1-.67.08-.83.27a2.06,2.06,0,0,1-2.85.27A3.25,3.25,0,0,1,30,36.77c.07-2.09.4-4.17.37-6.29,0-.94-.52-2,0-2.88s-.26-2,.78-2.86c.71-.63-.52-1.86-.35-2.9a5.28,5.28,0,0,0,0-.89V13.21Z"/><path class="cls-2" d="M30.81,13.21V21a5.28,5.28,0,0,1,0,.89c-.17,1,1.06,2.27.35,2.9-1,.91-.31,2-.78,2.86s0,1.94,0,2.88c0,2.12-.3,4.2-.37,6.29a3.25,3.25,0,0,0,1.24,2.86,2.06,2.06,0,0,0,2.85-.27c.16-.19.55-.17.83-.27.65-.22.81-.68.25-1.07a1.62,1.62,0,0,1-.74-2.25,2.36,2.36,0,0,1,2.27-1.37,2.64,2.64,0,0,0,2.7-2.12c.34-1.07,1.11-1.94,1.29-3.09.11-.68.57-.55,1-.14A16.63,16.63,0,0,0,41,34.66c-1,.3-2,.67-3,1a1.81,1.81,0,0,0-.35,3.16c.32.28,1.06.45.92.86-.4,1.13.56,1.24,1,1.73s1.21,1.08,1.78.74.34-1.29.16-1.92-.17-1.35.56-1.78a8.12,8.12,0,0,0,1.2,2.41c-1.13.64-.52,1.82-.85,2.71-1.53-.26-3.12.13-4.64-.49-.58-.24-1.16-.22-1.46-1a1.23,1.23,0,0,0-1.68-.57c-2.15.92-4.12-.08-6.13-.52-.88-.2-.84-1.16-.8-1.87.33-4.91.67-9.81,1.06-14.72.31-3.74.62-7.49.59-11.25Z"/><path class="cls-2" d="M47.54,20.06a3.91,3.91,0,0,1-.21-1c0-.71-.06-1.57,1.14-1.18a.42.42,0,0,0,.61-.4c1.15-.41,1.91-1.42,3.19-1.73,2.33-.57,4.59-1.4,7-1.84a9.37,9.37,0,0,0,3.59-1.33l2.64,0c1.83,1.44,4,.72,6.07,1.1a1.71,1.71,0,0,1,1.64,1c.13.33.24.72,0,1a.64.64,0,0,1-.93-.1c-1-1.68-2.86-1.88-3.71-.4l0,.09a2.07,2.07,0,0,0-2,.43c1.59.23,1.84,1.84,3.15,2.22l.92.92c.48,2.05,2,1.28,3.2,1.06s1.13.41.88,1.11a21.36,21.36,0,0,1-1.05,2.22c-.58,0-1-.19-.75-.91a.52.52,0,0,0-.42-.78c-1.27-.1-1.79-1.18-2.55-1.91-2-1.91-3.92-4-6.93-4.22a.8.8,0,0,1-.59-.38c-.36-1.08-1.11-.8-1.8-.51a22.19,22.19,0,0,1-5.32,1.27,10.79,10.79,0,0,0-4.12,1.61c-.53.34-1.26.6-1.09,1.41s.87.86,1.51,1l-2.49.92-1.16-.48-.32-.23ZM65,14.48a.81.81,0,0,0-.26-.11.58.58,0,0,0-.25.12c.09,0,.17.11.25.11S64.93,14.52,65,14.48Z"/><path class="cls-2" d="M73.6,23.29a21.36,21.36,0,0,0,1.05-2.22c.25-.7.39-1.34-.88-1.11s-2.72,1-3.2-1.06c1.44,1.06,2.5.38,3.58-.69a3.16,3.16,0,0,1,2.71-.89c1.31.13,2.65,0,4,.18-.65-.53-1.46-.82-1.58-1.8-.21-1.68-1.44-2.39-2.89-2.8-.41-.11-1,.07-1-.6h7.47c.11.74.8.67,1.27.81a4.77,4.77,0,0,1,1.8.63c.34.29,1.23.18,1,.85a1.42,1.42,0,0,1-1.68.91,11.42,11.42,0,0,1-2-.86c-.7-.35-1.12-.25-1.26.59a14.28,14.28,0,0,1-.4,1.42c-.23.8.33.64.76.64l.54.1c.07,1-.67,1.09-1.37,1.11a14.25,14.25,0,0,1-3.38-.23c-.45-.09-1.35-.46-1.42.47-.06.74.72.58,1.22.72,1.67.47,3.56.18,5,1.41l-.12.13c-1.93-.12-3.73-1-5.68-1a1.47,1.47,0,0,0-1.66,1c-.32.78-.11,1.84-1.07,2.32Z"/><path class="cls-2" d="M75.38,12.3c.07.67.61.49,1,.6,1.45.41,2.68,1.12,2.89,2.8.12,1,.93,1.27,1.58,1.8-1.36-.22-2.7-.05-4-.18a3.16,3.16,0,0,0-2.71.89C73.07,19.28,72,20,70.57,18.9L69.65,18c0-1.05-1.44-1.47-1.1-2.65l0-.09.56.12.4.1c.61.33,1.33-.39,1.91.21.15.39.33.48.57.06a.34.34,0,0,0,.27-.09.64.64,0,0,0,.93.1c.28-.25.17-.64,0-1a1.72,1.72,0,0,0-1.65-1c0-.47-.07-.94-.11-1.41Z"/><path class="cls-2" d="M82.29,17.3c-.43,0-1,.16-.76-.64a14.28,14.28,0,0,0,.4-1.42c.14-.84.56-.94,1.26-.59a11.42,11.42,0,0,0,2,.86,1.42,1.42,0,0,0,1.68-.91c.23-.67-.66-.56-1-.85a4.77,4.77,0,0,0-1.8-.63c-.47-.14-1.16-.07-1.27-.81,1.16-.15,2.33.11,3.48-.33.41-.15,1.24-.14,1.22.43-.08,1.56.91,3.08.15,4.64-.1,0-.22,0-.29,0-.55.27-1.46-.74-1.6.15-.1.62,1,.62,1.65.88.13.05.34-.1.51-.16.56,1,.21,2,.23,3a1.85,1.85,0,0,0-1.14-.32l-.15-.11.11.16c-.55.57-1.14,1.26-2,.68a4,4,0,0,0-2.12-.45c-1.46-1.23-3.35-.94-5-1.41-.5-.14-1.28,0-1.22-.72.07-.93,1-.56,1.42-.47a14.25,14.25,0,0,0,3.38.23c.7,0,1.44-.1,1.37-1.11.52-.1,1.17-.06,1.16-.85a.6.6,0,0,0-.54-.62c-.66-.07-1,.36-1.15.92A1.69,1.69,0,0,0,82.29,17.3Z"/><path class="cls-2" d="M77.81,49.26a.76.76,0,0,1-.06-.26c.91-.22,1.8-1.23,2.75-.07-.33.18-.81-.1-1.09.39A9.6,9.6,0,0,0,85.65,52c1.06.12,2.18-.35,3.18.32-.7.43-1.38.92-2.11,1.3s-1.32.85-1.17,1.8l-5.1.2A17.85,17.85,0,0,1,80,52.82c.07-1.55-.32-2.45-1.9-2.67-.1-.18-.2-.36-.29-.55C78,49.48,78,49.37,77.81,49.26Z"/><path class="cls-2" d="M78.48,43.86c1.8-.07,2.91,1.56,4.6,1.82S86,47,87.77,47c-.23-.84-1.33-.8-1.58-1.56,1.3-.88,2.77-.62,4.17-.78a20.46,20.46,0,0,1,.57,5.23c-.94-.56-2.07-.06-3-.57.26-.6,1.31-.24,1.38-1.08a13.83,13.83,0,0,0-6.13-.77,7.12,7.12,0,0,1-3.69-.79C78.21,46.08,77.89,45.24,78.48,43.86Z"/><path class="cls-2" d="M62.84,12.6a9.37,9.37,0,0,1-3.59,1.33c-2.39.44-4.65,1.27-7,1.84-1.28.31-2,1.32-3.19,1.73-.75-1.5.08-3-.1-4.55A123.24,123.24,0,0,1,62.84,12.6Z"/><path class="cls-2" d="M89.26,32c-.57,1.19-1.32.53-1.93.12a18.83,18.83,0,0,0-3.92-2.34,15.79,15.79,0,0,0-6.74-1.36,2.24,2.24,0,0,1-.7-.17l-.51-.87-.06-.12.87,0a31.38,31.38,0,0,1,7,1,1.83,1.83,0,0,0,2.22-.88c.53-.81,1.12-1.08,1.87-.24a1.66,1.66,0,0,0,.26,2.81c.47.16,1,.25,1.44.37Z"/><path class="cls-2" d="M87.06,20.6a1.85,1.85,0,0,1,1.14.32,37.09,37.09,0,0,1,.61,5.37c-1.31-.05-2.66.22-3.84-.7a1.22,1.22,0,0,0-1.53.05,5.83,5.83,0,0,1-2-.19,10.93,10.93,0,0,0-3.6-.36l0-.3c.17-.1.34-.29.49-.27,2.58.39,5.23,0,7.78.69.32.09.67.33.89-.11a.35.35,0,0,0-.31-.53c-2.35-.05-2.57-2.36-3.84-3.56l.12-.13a4,4,0,0,1,2.12.45c.86.58,1.45-.11,2-.68Z"/><path class="cls-2" d="M87.92,49.34c.94.51,2.07,0,3,.57v.55c-1.41,0-.64,1.34-1.18,1.87l-.91,0c-1-.67-2.12-.2-3.18-.32a9.6,9.6,0,0,1-6.24-2.65c.28-.49.76-.21,1.09-.39l.85.07a.48.48,0,0,0,.66.18A44.88,44.88,0,0,0,87.92,49.34Z"/><path class="cls-2" d="M83.44,25.64A1.22,1.22,0,0,1,85,25.59c1.18.92,2.53.65,3.84.7,0,.29,0,.59,0,.88l-1.41-.1c-.75-.84-1.34-.57-1.87.24a1.83,1.83,0,0,1-2.22.88,31.38,31.38,0,0,0-7-1c.13-.42-.31-1.18.74-1,.81.14.73-.58.79-1.1a11.21,11.21,0,0,1,3.6.37c-.13,1,.63,1.57,1.35,1.91a1.45,1.45,0,0,0,2-.82c.31-.89-.79-.32-1.09-.68A2.09,2.09,0,0,0,83.44,25.64Z"/><path class="cls-2" d="M22.74,57.23C23,55.4,23.9,54.93,25.41,56a1.7,1.7,0,0,0,1.33.32A34.32,34.32,0,0,1,31.59,56c.57,0,1.48-.07,1.65.91Z"/><path class="cls-2" d="M78.11,50.15c1.58.22,2,1.12,1.9,2.67a17.85,17.85,0,0,0,.44,2.77,3.76,3.76,0,0,1-2.1.11,11,11,0,0,1,.29-3.34C79,51.52,78.14,50.92,78.11,50.15Z"/><path class="cls-2" d="M88.83,52.29l.91,0c.41.82,1,.21,1.5.19v.63c-1.46.32-3.11.34-3.58,2.23a5.5,5.5,0,0,1-2.1,0c-.15-1,.41-1.41,1.17-1.8S88.13,52.72,88.83,52.29Z"/><path class="cls-2" d="M87.65,55.38c.47-1.89,2.12-1.91,3.58-2.23.19,2.34.19,2.34-2.12,2.31C88.62,55.45,88.14,55.41,87.65,55.38Z"/><path class="cls-2" d="M71.43,12.31c0,.47.08.94.11,1.41-2-.38-4.23.34-6.06-1.1C67.47,12.69,69.43,12.09,71.43,12.31Z"/><path class="cls-2" d="M87.38,27.07l1.41.1a7.64,7.64,0,0,1,.29,3.08c-.48-.12-1-.21-1.44-.37A1.66,1.66,0,0,1,87.38,27.07Z"/><path class="cls-2" d="M46.94,12.92c0,1.84,0,1.87-1.58,1.06-.66-.34-1.62-.15-2-1.07Z"/><path class="cls-2" d="M91.24,52.52c-.51,0-1.09.63-1.5-.19.54-.53-.23-1.89,1.18-1.87C90.82,51.18,91.52,51.77,91.24,52.52Z"/><path class="cls-2" d="M88,17.93c-.17.06-.38.21-.51.16-.6-.26-1.75-.26-1.65-.88.14-.89,1,.12,1.6-.15.07,0,.19,0,.29,0Z"/><path class="cls-2" d="M49.05,20.77l2.49-.92,1.62-.24A13.33,13.33,0,0,1,68.27,31.39c0,.23-.16.51.24.56l0,2.71c-.47.23-.27.59-.18.92.18.56-.53.91-.32,1.47-.82,3.46-3,5.93-5.78,8a16.79,16.79,0,0,1-8.93,2.15c-.38-.54-1-.23-1.46-.36a14.71,14.71,0,0,1-8.57-5.93,8.12,8.12,0,0,1-1.2-2.41c-.37-1.27-.73-2.54-1.1-3.82a16.63,16.63,0,0,1,.73-5.61,20.69,20.69,0,0,1,2.74-4.82,25.87,25.87,0,0,1,3.22-2.7Zm3.25-.19a4.89,4.89,0,0,0-1.73.47,5.14,5.14,0,0,0-2.41,1.2,8,8,0,0,0-3,2.53,6.19,6.19,0,0,0-1.55,2.07c-1.23,1.82-1.42,4-2,6v.59a18.37,18.37,0,0,0,.83,3.65,1.26,1.26,0,0,0,.59,1.3,4.16,4.16,0,0,0,1.37,2.52,9.11,9.11,0,0,0,3.74,3.46A8,8,0,0,0,52.21,46a4.09,4.09,0,0,0,2.24.22,10,10,0,0,0,5.47-1,11.52,11.52,0,0,0,6.29-5.81,13.46,13.46,0,0,0,1.46-8.74c-.91-6.51-8.76-11.95-15-10.18Z"/><path class="cls-2" d="M43.25,40.89a14.71,14.71,0,0,0,8.57,5.93c-1.3,2.19-1.64,2.38-4.1,1.64C46,48,44.43,47.76,42.9,49c-.77.63-1.72-.1-2-.57-.49-.73.55-.7,1-.86s.74-.45.66-1l.28-.07c.76.2,1.51.71,2.47,0C44,46,43.81,44.73,42.77,44.24l0,0c0-.21.07-.43-.22-.51l-.13-.1C42.73,42.71,42.12,41.53,43.25,40.89Z"/><path class="cls-2" d="M42.47,46.58c.08.53-.16.77-.66,1s-1.44.13-1,.86c.32.47,1.27,1.2,2,.57,1.53-1.23,3.1-1,4.82-.53,2.46.74,2.8.55,4.1-1.64.48.13,1.08-.18,1.46.36-.15,0-.36,0-.42.11C51,50,47.75,49.82,45.25,51.19c-2-.85-4.32.39-6.21-1.19-1.16-1-1.24-1.48.15-2.19A5.58,5.58,0,0,1,41,47.25,3.55,3.55,0,0,0,42.47,46.58Z"/><path class="cls-2" d="M46.27,54.82c0,.46-.35.46-.63.33A12.12,12.12,0,0,1,42,53.05c-.25-.24-.53-.55-.21-.88s.53,0,.75.21A12.45,12.45,0,0,0,45.3,54,1.71,1.71,0,0,1,46.27,54.82Z"/><path class="cls-2" d="M42.77,44.24c1,.49,1.24,1.79,2.45,2.27-1,.71-1.71.2-2.47,0C42.76,45.75,42.77,45,42.77,44.24Z"/><path class="cls-2" d="M42.53,43.7c.29.08.25.3.22.51A.4.4,0,0,1,42.53,43.7Z"/><path class="cls-2" d="M68.49,34.66c0-.9,0-1.8,0-2.71.43-.39.18-.51-.24-.56A13.33,13.33,0,0,0,53.16,19.61l-1.62.24c-.64-.12-1.35-.22-1.51-1s.56-1.07,1.09-1.41a10.79,10.79,0,0,1,4.12-1.61,22.19,22.19,0,0,0,5.32-1.27c.69-.29,1.44-.57,1.8.51a.8.8,0,0,0,.59.38c3,.27,4.92,2.31,6.93,4.22.76.73,1.28,1.81,2.55,1.91a.52.52,0,0,1,.42.78c-.25.72.17.88.75.91l.77.1.13.18c1.4.94.7,2.41.9,3.65l.06.11c-.81-.26-1,0-.8.82-.12,1.21-1,.51-1.61.67-.08,0-.22.05-.24.1s0,.28.22.29a1.44,1.44,0,0,0,1.18.34l.42.38a4.42,4.42,0,0,0-2.85,1.93.68.68,0,0,0-.26.12c-.45.39-1,.72-.89,1.44-.27,1.09-1.09,1.92-1.3,3-.13.68-.82.56-1.34.58-.21-.56.5-.91.32-1.47C68.84,35.36,69,35.07,68.49,34.66Z"/><path class="cls-2" d="M81.35,49l-.85-.07c-1-1.16-1.84-.15-2.75.07-.32-.06-.65-.27-.53-.57.62-1.68-.67-2.59-1.44-3.69-.41-.58-.61-1.12-.11-1.73,1,.17,1.73.89,2.75.82l.06,0c-.59,1.38-.27,2.22,1,2.84a7.12,7.12,0,0,0,3.69.79,13.83,13.83,0,0,1,6.13.77c-.07.84-1.12.48-1.38,1.08A44.88,44.88,0,0,1,82,49.18C81.87,48.82,81.7,48.56,81.35,49Z"/><path class="cls-2" d="M71.63,33.61a2.42,2.42,0,0,1,1.16.61,2.1,2.1,0,0,0,2.57.3,2,2,0,0,1,2.1.15,1.23,1.23,0,0,0,.66,1.09c.69.51.54.78-.05,1.34-1.23,1.16-2.61,2.33-2.17,4.36,0,.09-.16.22-.25.34-.52-1.2-1.18-2.33-.4-3.75.38-.68-1.61-2.87-2.58-2.69C70.41,35.78,71.16,34.67,71.63,33.61Z"/><path class="cls-2" d="M75.65,41.8c.09-.12.27-.25.25-.34-.44-2,.94-3.2,2.17-4.36.59-.56.74-.83.05-1.34a1.23,1.23,0,0,1-.66-1.09c2.12.38,2.65.89,2.82,2.77,0,.13,0,.33.1.39,2.25,1.66-.13,1.23-.67,1.34-1.29.26-2.46.5-3.09,1.87-.4.86-.55,1.44.58,1.8a1.75,1.75,0,0,1,1.22,1c-1,.07-1.8-.65-2.75-.82C75.66,42.61,75.66,42.2,75.65,41.8Z"/><path class="cls-2" d="M70.63,33.42c-.11-.72.44-1.05.89-1.44.35.52-.35,1-.06,1.5Z"/><path class="cls-2" d="M77.81,49.26c.22.11.23.22,0,.34C77.82,49.49,77.81,49.37,77.81,49.26Z"/><path class="cls-2" d="M71.78,31.86a4.42,4.42,0,0,1,2.85-1.93,3.24,3.24,0,0,1,1.64.87L76,33.11a2.14,2.14,0,0,1-1.29-.46c.18-.61.26-1.28-.54-1.41s-.46.62-.55,1Z"/><path class="cls-2" d="M76,33.11l.3-2.31c1.75-.07,1.83,1.51,2.65,2.58A4.46,4.46,0,0,1,76,33.11Z"/><path class="cls-2" d="M73.05,28.82c.56-.16,1.49.54,1.61-.67l.77.06c.25,1-.59,1.1-1.22,1.34A1.44,1.44,0,0,1,73,29.21C73,29.08,73,29,73.05,28.82Z"/><path class="cls-2" d="M73.59,32.26c.09-.4-.35-1.17.55-1s.72.8.54,1.41C74.3,32.58,73.85,32.67,73.59,32.26Z"/><path class="cls-2" d="M88.25,33.53c0,.35-.21.56-.58.41s-.81-.27-.82-.73.38-.37.67-.38C88,32.82,88.26,33,88.25,33.53Z"/><path class="cls-2" d="M75.43,28.21l-.77-.06c-.25-.78,0-1.08.8-.82l.51.88Z"/><path class="cls-2" d="M49.05,20.77l-1.41.76C47.09,21,46.07,21,46,19.94c.58-.29,1.06.26,1.59.12h0l.32.23Z"/><path class="cls-2" d="M41,34.66c.37,1.28.73,2.55,1.1,3.82-.73.43-.77,1-.56,1.78s.44,1.57-.16,1.92-1.26-.23-1.78-.74-1.45-.6-1-1.73c.14-.41-.6-.58-.92-.86a1.81,1.81,0,0,1,.35-3.16C38.93,35.33,39.93,35,41,34.66Z"/><path class="cls-2" d="M71.38,15.67c-.58-.6-1.3.12-1.91-.21l-.4-.1-.56-.12c.85-1.48,2.7-1.28,3.71.4a.34.34,0,0,1-.27.09Z"/><path class="cls-2" d="M68.55,15.33c-.34,1.18,1.14,1.6,1.1,2.65-1.31-.38-1.56-2-3.15-2.22A2.07,2.07,0,0,1,68.55,15.33Z"/><path class="cls-2" d="M65,14.48c-.09,0-.17.12-.26.12s-.16-.07-.25-.11a.58.58,0,0,1,.25-.12A.81.81,0,0,1,65,14.48Z"/><path class="cls-2" d="M47.89,20.29l-.32-.23Z"/><path class="cls-2" d="M74.5,23.57l-.13-.18c1-.48.75-1.54,1.07-2.32a1.47,1.47,0,0,1,1.66-1c2,0,3.75.86,5.68,1,1.27,1.2,1.49,3.51,3.84,3.56a.35.35,0,0,1,.31.53c-.22.44-.57.2-.89.11-2.55-.72-5.2-.3-7.78-.69-.15,0-.32.17-.49.27a1,1,0,0,1-.84-.37.5.5,0,0,0-.75-.4Z"/><path class="cls-2" d="M82.29,17.3a1.69,1.69,0,0,1,0-.45c.17-.56.49-1,1.15-.92a.6.6,0,0,1,.54.62c0,.79-.64.75-1.16.85Z"/><path class="cls-2" d="M71.38,15.67l.57.06C71.71,16.15,71.53,16.06,71.38,15.67Z"/><path class="cls-2" d="M69.07,15.36l.4.1Z"/><path class="cls-2" d="M87,20.65l-.11-.16.15.11Z"/><path class="cls-2" d="M76.93,24.42a1,1,0,0,0,.84.37l0,.3c-.06.51,0,1.23-.79,1.09-1.05-.18-.61.58-.74,1l-.87,0c-.2-1.24.5-2.71-.9-3.65l1.68.45C76.28,24.44,76.53,24.56,76.93,24.42Z"/><path class="cls-2" d="M83.44,25.64a2.09,2.09,0,0,1,.2.22c.3.36,1.4-.21,1.09.68a1.45,1.45,0,0,1-2,.82c-.72-.34-1.48-.87-1.35-1.91A5.83,5.83,0,0,0,83.44,25.64Z"/><path class="cls-2" d="M81.35,49c.35-.44.52-.18.66.18A.48.48,0,0,1,81.35,49Z"/><path class="cls-2" d="M52.64,20.56c6.27-1.77,14.12,3.67,15,10.18a13.46,13.46,0,0,1-1.46,8.74,2.41,2.41,0,0,0-2,.45A11.07,11.07,0,0,1,60,41.55c-.63.14-1.22.39-1.84.58s-.86.6-.62,1.13.67.06,1,0c1.28-.4,1.6-.13,1.39,1.19a6.46,6.46,0,0,0,0,.88,10,10,0,0,1-5.47,1,5.69,5.69,0,0,1,1.35-3c.87-1,.8-1.38-.47-1.73-.51-.14-1-.23-1.57-.34l9.73-6.8c1.37-1,1.37-1-.05-2C62.3,31.57,61.16,30.78,60,30l-9.14-6.11c.09-.4.17-.8.26-1.2l.31-.59c.61,0,.91-.3.79-.94a1,1,0,0,0,.12-.23Z"/><path class="cls-2" d="M52.21,46a8,8,0,0,1-4.05-1.63c-.11-1.39-2.3-3.42-3.74-3.46a4.16,4.16,0,0,1-1.37-2.52A3.45,3.45,0,0,0,44,34.86c-.47-1.72.53-1.38,1.45-1.32.41,0,.9.53,1.17,0,.15-.3,0-.72.55-.37.38.25,1.29.47,1,.76-.62.76,0,1.53.15,1.83.35.87.17,2.5,1.91,2.27,0,.89,0,1.78.06,2.67.07.71-.39,1.68.32,2.09s1.25-.57,1.89-.87c.22-.1.43-.22.65-.33.42.59,1.24.05,1.75.61C54.08,43.5,52.34,44.22,52.21,46Z"/><path class="cls-2" d="M50.24,38c-1.74.23-1.56-1.4-1.91-2.27-.12-.3-.77-1.07-.15-1.83.24-.29-.67-.51-1-.76-.54-.35-.4.07-.55.37-.27.58-.76.08-1.17,0-.92-.06-1.92-.4-1.45,1.32a3.45,3.45,0,0,1-.91,3.55,1.26,1.26,0,0,1-.59-1.3,2.77,2.77,0,0,0,.54-2c0-.74-.15-1.74-1.37-1.62v-.59a8.38,8.38,0,0,0,2.86-.2c-.19-.57-1.19-.42-.9-1.06s.63.21,1,.16A1.49,1.49,0,0,0,46,30.41c.13-2-.34-2.68-2.41-3.56a6.19,6.19,0,0,1,1.55-2.07c.88-.06,1.32.67,1.93,1.09.35.25.59.59.8-.08a8.66,8.66,0,0,1,2.6-3.13l.62,0c-.09.4-.17.8-.26,1.2-1.25.25-.83,1.11-.67,1.87l-.1,0,.06.16,0,.63c-1,0-1.58.85-2.45,1.16a1.11,1.11,0,0,0-.3,1.58c.52.69.89-.09,1.29-.34s1-.62,1.5-.93a5.38,5.38,0,0,1,0,2c-.34,0-.09-.92-.61-.55-1.07.76-2.32,1.35-3,2.63,1.2-.42,2.67.23,3.59-1C50.2,33.43,50.22,35.71,50.24,38Z"/><path class="cls-2" d="M59.92,45.29a6.46,6.46,0,0,1,0-.88c.21-1.32-.11-1.59-1.39-1.19-.33.1-.74.61-1,0s0-.95.62-1.13,1.21-.44,1.84-.58a11.07,11.07,0,0,0,4.25-1.62,2.41,2.41,0,0,1,2-.45A11.52,11.52,0,0,1,59.92,45.29Z"/><path class="cls-2" d="M43.63,26.85c2.07.88,2.54,1.53,2.41,3.56a1.49,1.49,0,0,1-1.49,1.36c-.33.05-.71-.72-1-.16s.71.49.9,1.06a8.38,8.38,0,0,1-2.86.2C42.21,30.83,42.4,28.67,43.63,26.85Z"/><path class="cls-2" d="M52.21,46c.13-1.8,1.87-2.52,2.7-3.87-.51-.56-1.33,0-1.75-.62l.6-.35c.53.11,1.06.2,1.57.34,1.27.35,1.34.75.47,1.73a5.69,5.69,0,0,0-1.35,3A4.09,4.09,0,0,1,52.21,46Z"/><path class="cls-2" d="M50.51,22.66a8.66,8.66,0,0,0-2.6,3.13c-.44-.37-.25-.78-.09-1.21a4.66,4.66,0,0,0,.34-2.33,5.14,5.14,0,0,1,2.41-1.2Z"/><path class="cls-2" d="M48.16,22.25a4.66,4.66,0,0,1-.34,2.33c-.16.43-.35.84.09,1.21-.21.67-.45.33-.8.08-.61-.42-1-1.15-1.93-1.09A8,8,0,0,1,48.16,22.25Z"/><path class="cls-2" d="M44.42,40.93c1.44,0,3.63,2.07,3.74,3.46A9.11,9.11,0,0,1,44.42,40.93Z"/><path class="cls-2" d="M41.63,33.46c1.22-.12,1.38.88,1.37,1.62a2.77,2.77,0,0,1-.54,2A18.37,18.37,0,0,1,41.63,33.46Z"/><path class="cls-2" d="M50.51,22.66l.06-1.61a4.89,4.89,0,0,1,1.73-.47c0,.11,0,.23.05.35a1,1,0,0,1-.12.23.91.91,0,0,0-.79.94l-.31.59Z"/><path class="cls-2" d="M68.49,34.66c.47.41.35.7-.18.92C68.22,35.25,68,34.89,68.49,34.66Z"/><path class="cls-2" d="M68.27,31.39c.42.05.67.17.24.56C68.11,31.9,68.23,31.62,68.27,31.39Z"/><path class="cls-2" d="M52.35,20.93c0-.12,0-.24-.05-.35l.34,0Z"/><path class="cls-2" d="M73.05,28.82c0,.13,0,.26,0,.39-.18,0-.28-.11-.22-.29S73,28.86,73.05,28.82Z"/><path class="cls-2" d="M76.93,24.42c-.4.14-.65,0-.75-.4A.5.5,0,0,1,76.93,24.42Z"/><path class="cls-2" d="M53.76,41.18l-.6.35c-.22.12-.43.24-.65.34-.64.3-1.14,1.3-1.89.87s-.25-1.38-.32-2.09c-.08-.89,0-1.78-.06-2.67,0-2.27,0-4.55-.05-6.82V30.09a5.38,5.38,0,0,0,0-2,2.72,2.72,0,0,0,0-1.47l0-.63a.12.12,0,0,0,0-.19c-.16-.76-.58-1.62.67-1.87L60,30c1.15.78,2.29,1.57,3.43,2.37,1.42,1,1.42,1.05.05,2ZM51.5,25.55V41.3l11.56-7.91Z"/><path class="cls-2" d="M51.44,22.1a.91.91,0,0,1,.79-.94C52.35,21.8,52.05,22.07,51.44,22.1Z"/><path class="cls-2" d="M50.18,30.09v1.07c-.92,1.24-2.39.59-3.59,1,.65-1.28,1.9-1.87,3-2.63C50.09,29.17,49.84,30.05,50.18,30.09Z"/><path class="cls-2" d="M50.13,26.58a2.72,2.72,0,0,1,0,1.47c-.5.31-1,.61-1.5.93s-.77,1-1.29.34a1.11,1.11,0,0,1,.3-1.58C48.55,27.43,49.15,26.6,50.13,26.58Z"/><path class="cls-2" d="M50.2,25.76a.12.12,0,0,1,0,.19l-.06-.16Z"/><path class="cls-2" d="M51.5,25.55l11.56,7.84L51.5,41.3Z"/></g></g></svg>