<svg xmlns="http://www.w3.org/2000/svg" viewBox="0 0 47.7 20.1"><defs><style>.cls-1,.cls-2{fill:none;}.cls-2{stroke:#ca2e55;stroke-miterlimit:10;}</style></defs><g id="Layer_2" data-name="Layer 2"><g id="Layer_1-2" data-name="Layer 1"><path class="cls-1" d="M23.85,20.08c-7.64,0-15.29,0-22.93,0C.18,20.1,0,20,0,19.2Q.06,10.05,0,.91C0,.18.15,0,.91,0Q23.85,0,46.78,0c.74,0,.92.15.92.9q-.06,9.15,0,18.29c0,.73-.15.91-.91.91C39.14,20.07,31.5,20.08,23.85,20.08Zm12.84-4.41h0c.52.12.57-.28.67-.62a18.14,18.14,0,0,1,2.88-3.54.2.2,0,0,0,0-.2c1.41-1.28,2.31-3.2,4.49-3.53,1-.93.31-1.32-.54-1.55A14.69,14.69,0,0,0,40,6L33.87,5.8c-.44,0-1,.1-1.26-.3C32,4.57,31,4.67,30.07,4.65c-1.18,0-2.37,0-3.56,0-6,0-11.89-.07-17.84-.07-2,0-2.28.21-2.07,2.21a18.5,18.5,0,0,0,1.49,5.33A12,12,0,0,0,9,15.85c.29.86,1.15,1,2,.94,8-.15,16-.2,24.06,0,.52,0,1.12.14,1.4-.52C36.66,16.11,37,16,36.69,15.67Z"/><path class="cls-2" d="M36.48,16.28c-.28.66-.88.53-1.4.52-8-.21-16-.16-24.06,0-.83,0-1.69-.08-2-.94a12,12,0,0,1-.95-3.74h.59a.31.31,0,0,1,.06.19,1.73,1.73,0,0,0,.63,1.63c.37.5,0,1.46,1,1.55l.29,0a5.46,5.46,0,0,0,2.13,0l10.09.2a16.58,16.58,0,0,0,3.92.07h1.77a1.2,1.2,0,0,0,.91,0l.86-.1a5.49,5.49,0,0,0,2.73-.07.83.83,0,0,0,.87,0l2.09.36Z"/><path class="cls-2" d="M8.68,12.11H8.09A18.5,18.5,0,0,1,6.6,6.78c-.21-2,.05-2.22,2.07-2.21,5.95,0,11.89,0,17.84.07,1.19,0,2.38,0,3.56,0,.93,0,1.89-.08,2.54.85.28.4.82.29,1.26.3L40,6c0,.23,0,.45,0,.68-2-.1-3.93-.26-5.89-.27-1.28,0-2.23-1-3.38-1.05-7,0-13.93,0-20.9.05L8.32,5.35c-.92,0-1.18.49-.86,1.23.68,1.58.76,3.32,1.31,4.93Z"/><path class="cls-2" d="M36.07,16,34,15.62c.06-.67.58-.53,1-.55s.91.11,1.11-.26c.75-1.39,2.36-2.3,2.34-4.12.81-.17,1.28.36,1.79.83a18.14,18.14,0,0,0-2.88,3.54c-.46,0-.65.2-.67.62h0A.53.53,0,0,0,36.07,16Z"/><path class="cls-2" d="M44.73,7.79c-2.18.33-3.08,2.25-4.49,3.53a1.8,1.8,0,0,0-.62-1.42c.05-.58,1.07-.79.59-1.57.53-.11,1-.24,1.57-.34.76-.14,1.59-.12,2-.94C44.64,6.65,44.62,7.3,44.73,7.79Z"/><path class="cls-2" d="M44.73,7.79c-.11-.49-.09-1.14-.92-.74L43,6.91c-.17-.32-.36-.51-.67-.13L40,6.67c0-.23,0-.45,0-.68a14.69,14.69,0,0,1,4.24.25C45,6.47,45.77,6.86,44.73,7.79Z"/><path class="cls-2" d="M39.62,9.9a1.8,1.8,0,0,1,.62,1.42.2.2,0,0,1,0,.2c-.51-.47-1-1-1.79-.83l-3-.34,0-.41c1.1-.41,2.22.12,3.32-.07Z"/><path class="cls-2" d="M36.67,15.68c0-.42.21-.66.67-.62C37.24,15.4,37.19,15.8,36.67,15.68Z"/><path class="cls-2" d="M36.07,16a.53.53,0,0,1,.62-.31c.29.32,0,.44-.21.61Z"/><path class="cls-2" d="M35.46,10.35l3,.34c0,1.82-1.59,2.73-2.34,4.12-.2.37-.72.24-1.11.26S34,15,34,15.62a.83.83,0,0,1-.87,0c0-.81-.47-.91-1.13-.87s-1.52-.13-1.6.94l-.86.1c-.32-.64-.63-.62-.91,0H26.84a3.87,3.87,0,0,0-3.92-.07l-10.09-.2c-.69-.52-1.4-.84-2.13,0l-.29,0c.24-.56-.39-1-.37-1.53,4.24-.32,8.4.37,12.58.35,2.62,0,5.39.85,7.69-1.25.43-.38,1.32-.74,1.08-1.2a2.36,2.36,0,0,0-1.73-1.18c-.4-.05-.68.09-.73.53-.07.6.14,1.5-.82,1.41-.65-.06-1.45,0-2-.48-1-1-1.87-.66-2.78,0a2.34,2.34,0,0,1-2.64.22,3,3,0,0,0-2.7.05,5.24,5.24,0,0,1-5.2-.38,4.31,4.31,0,0,1,2-.52c.72,0,1.35-.1,1.5-1.14a1.67,1.67,0,0,1-1.37,0c-.42-.22-.94-.74-1.33-.47a2,2,0,0,1-2.34,0c-.49-.27-.84,0-1.15.38s-.15.51,0,.79c.92,1.39.84,1.52-.92,1.65a.77.77,0,0,1-.07-.26c.72-.65.35-.87-.38-.94C8.22,9.9,8.14,8.16,7.46,6.58c-.32-.74-.06-1.25.86-1.23L9.8,5.4a1.24,1.24,0,0,0,0,.27c.05.74-1.73.39-.93,1.65.65,1,1.59.7,2.38.61,1-.1,2.1-.71,2.93-.61,2.76.33,5.43-.4,8.17-.37a38,38,0,0,0,9-.48l.85,0c.36,1.38-.27,2.4-1.11,1.85-1.14-.75-2.2.07-3.29-.19-.37-.09-1.3-.09-1.25.86s.79.68,1.33.72c1.57.11,3.17-.22,4.73.21.27.07.63.08.7.44s-.24.47-.52.58-.55.3-.47.65a.57.57,0,0,0,.54.43.68.68,0,0,0,.77-.54c.14-.47.25-.94.37-1.42l.58,0C34.74,10.72,35,10.79,35.46,10.35ZM22.81,8.41V8C22,8,21.15,8,20.32,8a.5.5,0,0,0-.5.46c0,.41.38.41.65.36C21.26,8.73,22,8.56,22.81,8.41Z"/><path class="cls-2" d="M9.22,12.71c1.76-.13,1.84-.26.92-1.65-.18-.28-.28-.51,0-.79s.66-.65,1.15-.38a2,2,0,0,0,2.34,0c.39-.27.91.25,1.33.47a1.67,1.67,0,0,0,1.37,0c-.15,1-.78,1.17-1.5,1.14a4.31,4.31,0,0,0-2,.52,5.24,5.24,0,0,0,5.2.38,3,3,0,0,1,2.7-.05,2.34,2.34,0,0,0,2.64-.22c.91-.68,1.81-1,2.78,0,.52.5,1.32.42,2,.48,1,.09.75-.81.82-1.41.05-.44.33-.58.73-.53a2.36,2.36,0,0,1,1.73,1.18c.24.46-.65.82-1.08,1.2-2.3,2.1-5.07,1.24-7.69,1.25-4.18,0-8.34-.67-12.58-.35,0,.58.61,1,.37,1.53-1-.09-.67-1.05-1-1.55C9.58,13.49,9.15,13.13,9.22,12.71Z"/><path class="cls-2" d="M30.38,15.71c.08-1.07.89-.91,1.6-.94s1.17.06,1.13.87A5.49,5.49,0,0,1,30.38,15.71Z"/><path class="cls-2" d="M22.92,15.77a3.87,3.87,0,0,1,3.92.07A16.58,16.58,0,0,1,22.92,15.77Z"/><path class="cls-2" d="M10.7,15.53c.73-.8,1.44-.48,2.13,0A5.46,5.46,0,0,1,10.7,15.53Z"/><path class="cls-2" d="M8.77,11.51c.73.07,1.1.29.38.94l-.41-.15a.31.31,0,0,0-.06-.19Z"/><path class="cls-2" d="M8.74,12.3l.41.15a.77.77,0,0,0,.07.26c-.07.42.36.78.15,1.22A1.73,1.73,0,0,1,8.74,12.3Z"/><path class="cls-2" d="M28.61,15.84c.28-.65.59-.67.91,0A1.2,1.2,0,0,1,28.61,15.84Z"/><path class="cls-2" d="M32.19,6.51l-.85,0c-.16-.68-.71-.56-1.19-.56-.89,0-1.8.25-2.63.2-4.67-.31-9.34-.11-14-.21a14.65,14.65,0,0,1-3.68-.23,1.24,1.24,0,0,1,0-.27c7,0,13.93-.1,20.9-.05,1.15,0,2.1,1,3.38,1.05,2,0,3.92.17,5.89.27l2.34.11a.44.44,0,0,0,.67.13l.83.14c-.44.82-1.27.8-2,.94-.52.1-1,.23-1.57.34l-3.33.46a4.85,4.85,0,0,0-3.44.1c-.58-.37-.35-1-.34-1.44C33.11,6.79,32.89,6.45,32.19,6.51Z"/><path class="cls-2" d="M36.88,8.79l3.33-.46c.48.78-.54,1-.59,1.57l-.88,0C38.44,9,37.33,9.43,36.88,8.79Z"/><path class="cls-2" d="M43,6.91a.44.44,0,0,1-.67-.13C42.62,6.4,42.81,6.59,43,6.91Z"/><path class="cls-2" d="M36.88,8.79c.45.64,1.56.18,1.86,1.08-1.1.19-2.22-.34-3.32.07l-.84-.07c-.21-.4-.58-.35-.93-.33l-.21-.65A4.85,4.85,0,0,1,36.88,8.79Z"/><path class="cls-2" d="M34.58,9.87l.84.07c0,.14,0,.28,0,.41-.42.44-.72.37-.89-.21A.82.82,0,0,0,34.58,9.87Z"/><path class="cls-2" d="M9.83,5.67a14.65,14.65,0,0,0,3.68.23c4.67.1,9.34-.1,14,.21.83,0,1.74-.21,2.63-.2.48,0,1-.12,1.19.56a38,38,0,0,1-9,.48c-2.74,0-5.41.7-8.17.37-.83-.1-1.94.51-2.93.61-.79.09-1.73.41-2.38-.61C8.1,6.06,9.88,6.41,9.83,5.67Z"/><path class="cls-2" d="M33.44,8.89l.21.65.34.56c-.12.48-.23,1-.37,1.42a.68.68,0,0,1-.77.54.57.57,0,0,1-.54-.43c-.08-.35.18-.54.47-.65s.61-.18.52-.58-.43-.37-.7-.44c-1.56-.43-3.16-.1-4.73-.21-.54,0-1.28.24-1.33-.72s.88-.95,1.25-.86c1.09.26,2.15-.56,3.29.19.84.55,1.47-.47,1.11-1.85.7-.06.92.28.91.94C33.09,7.94,32.86,8.52,33.44,8.89Z"/><path class="cls-2" d="M22.81,8.41c-.78.15-1.55.32-2.34.44-.27.05-.65.05-.65-.36a.5.5,0,0,1,.5-.46C21.15,8,22,8,22.8,8Z"/><path class="cls-2" d="M34,10.1l-.34-.56c.35,0,.72-.07.93.33a.82.82,0,0,1,0,.27Z"/></g></g></svg>