<svg xmlns="http://www.w3.org/2000/svg" viewBox="0 0 758.1 704.1"><defs><style>.cls-1,.cls-2{fill:none;}.cls-2{stroke:#ca2e55;stroke-miterlimit:10;}</style></defs><g id="Layer_2" data-name="Layer 2"><g id="Layer_1-2" data-name="Layer 1"><path class="cls-1" d="M0,704.1V0H758.1V704.1ZM548.15,203.83a6.33,6.33,0,0,0,2.69-2.22,10.22,10.22,0,0,0,3.33-2.54,4.55,4.55,0,0,0,2.31-1.79,8.36,8.36,0,0,0,3.09-3,69.19,69.19,0,0,0,9-9,.63.63,0,0,0,.61-.64,13.6,13.6,0,0,0,2.88-4.76,1.93,1.93,0,0,0,.84-1.48,2.37,2.37,0,0,0,1-1.55l.06-.09c2.56-2.78,5.12-5.57,6.82-9a5.76,5.76,0,0,1,1.45-1.88,16.07,16.07,0,0,1,8.25-3.91c9.29-1.32,18.61-2.36,27.94-3.36a40.2,40.2,0,0,1,18.84,2.27c3,1.13,5.75,2.74,8.71,3.92l.1.21.24,0c2.24,1.82,4.86,3,7.61,4.57,1.39-4.85.73-9.27-.74-13.66l0-1.8a4.75,4.75,0,0,0,0-3,30.59,30.59,0,0,0-.17-5.41,5.42,5.42,0,0,0-1.14-4.75A30.31,30.31,0,0,0,643,130.7a1.44,1.44,0,0,0-1.29-1,.34.34,0,0,0-.43-.25c-4.39-3.05-9.39-4.47-14.58-5.36a8,8,0,0,0-3.61-1,2.25,2.25,0,0,0-1.79-.26,2.49,2.49,0,0,0-1.83-.32A54.58,54.58,0,0,1,608,119.23a7.84,7.84,0,0,0-1.73-.44c-5.5-1-10.9-2.5-16.52-2.75-3.54-.16-6.64-2.06-10.13-2.51a38.59,38.59,0,0,1-12.39-3.27,8.16,8.16,0,0,0-4.06-.9c-7.42.5-14.68-1.19-22-1.65-5.35-.34-10.77-.29-16.08-1.39a3.33,3.33,0,0,0-1.75.25c-3.39,1.35-6.9,1-10.36.59-10.19-1.28-20.19.15-29.94,2.74-14.27,3.78-28.11,9-42,14-3.92,1.42-7.79,3-11.72,4.29-4.11,1.3-8.34,2.33-12.33,3.93a291.88,291.88,0,0,0-35.65,17c-10.49,6-20.3,13.07-30.88,18.92-7.86,4.35-15.06,9.79-22.94,14.11a2.09,2.09,0,0,0-1.14,2.74c1.35,4.17,2.64,8.36,5.11,12.05a6.57,6.57,0,0,0,1.44,2.72,2.57,2.57,0,0,0,1.07,1.91,131.5,131.5,0,0,0,6.1,11.87,56.4,56.4,0,0,0,4,8.36,1.31,1.31,0,0,0,.63,1.43,4.25,4.25,0,0,0,1,2.18,15.86,15.86,0,0,0,2.55,5.16l2,5a18.31,18.31,0,0,0,1.61,5.79,4.88,4.88,0,0,0,.72,2.6c1.16,6.2,3.48,12,5.79,17.86a3.56,3.56,0,0,0,.74,1.93,5.62,5.62,0,0,0,1.22,3.26,8.83,8.83,0,0,0,1.17,3.34c.71,2.76,1.31,5.57,3.06,7.94l0-.07a6.78,6.78,0,0,0,1.63,2.91,1.26,1.26,0,0,0,.81,1.28l.28.53a1.42,1.42,0,0,0,.88,1.34,15,15,0,0,0,4,3.6,3.83,3.83,0,0,0,2.06,1.74c1.81,1.87,4.19,3,6.16,4.65,5.13,4.34,11.31,6.49,17.59,8.44a4.9,4.9,0,0,0,2.66.05,7.61,7.61,0,0,0,3,.34,4.75,4.75,0,0,0,2.39.27,7.83,7.83,0,0,0,4.2.46,2.75,2.75,0,0,0,1.81.11,8.76,8.76,0,0,0,3.59.49,1.44,1.44,0,0,0,1.2.13,1.12,1.12,0,0,0,1.21.29,2.37,2.37,0,0,0,1.8.27,2,2,0,0,0,1.79.31,6.76,6.76,0,0,0,3,.36,1.09,1.09,0,0,0,1.21.31l6,1.45a29.73,29.73,0,0,0,5.4,2.17l6.21,3.38a2.12,2.12,0,0,0,1.58,1.07c1,.81,1.93,1.67,3,2.43a15.38,15.38,0,0,0,6.64,3,2.14,2.14,0,0,0,1.81.23l6.18,2.4c.79.56,1.68,1.06,1.74-.48a21.44,21.44,0,0,0,0-5.77,9.17,9.17,0,0,0-.58-6,1.16,1.16,0,0,0-.23-1.19c-.19-6.2.09-12.41-.41-18.6a52.6,52.6,0,0,0,.05-9.05,26.19,26.19,0,0,0,.38-6,11.17,11.17,0,0,0,.32-4.19c.32-2,2.47-2.64,3.35-4.24,2.11-1.23,2.11-1.23,4.27,0l.05,0a4,4,0,0,0,2.55,1.86c5,2,9.93,3.93,14.91,5.86,2.21.85,2.22.81,3.28-1.68a6.67,6.67,0,0,0,1.84-4.23c1.45-3.91,1.9-8.09,3.79-11.91a150.16,150.16,0,0,1,7.26-13.38,7.43,7.43,0,0,0,1.52-2.87l.23-.12v-.27a4.36,4.36,0,0,0,1.62-2.6l.21-.1v-.24a79.27,79.27,0,0,0,5.75-8.66l.24-.1v-.26a4.1,4.1,0,0,0,1.65-2.06,7.83,7.83,0,0,0,2.54-2.76c1.49-1.51,3.21-1.73,5.32-1.6,2.42.15,5.08.34,7.12-1.64,3.71-3.52,7.44-7,10.84-10.85a44.31,44.31,0,0,0,5.93-5.36Z"/><path class="cls-2" d="M344.15,221.85a56.4,56.4,0,0,1-4-8.36c.09-.05.22-.07.26-.14,1.36-2.63,4.38-3.34,6.24-5.39a1.74,1.74,0,0,1,2-.38c3.05,1.54,6-.41,9-.38,2.36,0,4.75-.69,7.26-.37a13.36,13.36,0,0,1,5.34,1.49c4.5,2.61,9.1,3.58,13.32-.72a2,2,0,0,1,1.61-.67,3.27,3.27,0,0,0,2.83-1.39,2.23,2.23,0,0,1,2.94-.6,6.09,6.09,0,0,0,2.3.57c2.39,0,2.9,1.73,3.22,3.56a13.57,13.57,0,0,1,.06,2.39c0,2.2,0,4.4,0,6.59,0,1.59.67,3.09,2.21,3.62a4,4,0,0,0,4.45-.74,11.87,11.87,0,0,1,6-3.2,2.74,2.74,0,0,0,1.95-1.24c1.21-2.33,3.63-3.36,5.4-5.08,1.42-1.37,3.4-1.82,5.43-2.19,3.18-.57,6.37-.24,9.52-.57,2.8-.3,5.46-.38,8,1a1.88,1.88,0,0,0,1.74,0c3.74-1.79,7.52-.3,11.21.08,2.82.29,5.09-.8,7.22-1.89,1.36-.69,2.47-1.22,3.78-.74a5.16,5.16,0,0,0,5.29-1,4.59,4.59,0,0,1,3-1.1c4.11,0,7.26-1.25,8.2-6.77.2-1.2.94-2.26,2.15-2.06,3.14.5,6.3.7,9.44,1.11A1.61,1.61,0,0,1,493,199a9.74,9.74,0,0,1,0,1.79,4.38,4.38,0,0,0,2.46,4.14c1.36.84,2.82-.2,4.05-1.16,2.55-2,5.49-3.63,6.2-7.21a.76.76,0,0,1,.16-.25c1-1.39,1.69-1.58,2.82-.3,2.27,2.57,5.18,3.17,8.36,3.15,3.78,0,7.5-.74,11.24-1.1,2.49-.25,4-1.46,4.48-3.66.42-2,1.72-3.28,2.79-4.8.49-.7,1-1.36,1.89-1.09a2.43,2.43,0,0,1,1.51,2.07c.1.43-.23.95-.29,1.44-.08.68-.31,1.46.28,2,.78.69,1.48-.06,2.19-.3,1.4-.47,2.36-1.91,4.05-1.75.53,0,1.32.2,1.48-.6s-.53-1-1.06-1.25a7.14,7.14,0,0,0-1.39-.54c-2.89-.66-4.55-3.13-6.85-4.67-.64-.43-.4-1,.25-1.4a2.24,2.24,0,0,1,1.71-.19,11.93,11.93,0,0,0,6.19-.15,3.36,3.36,0,0,1,2.36,0,4.5,4.5,0,0,0,4.22-.5c1.3-.69,2.84.85,4.33.06.61-.33,1.26-.6,1.87-.93,1.44-.77,2.39-2.11,3.54-3.2a34.35,34.35,0,0,1,8.2-5.27c.28,2-1.51,2.78-1.44,4.23.11,2.15-1,3.78-2.08,5.47-.92,1.42-1.78,2.92-1.55,4.74-1.28,1.38-2.56,2.75-3.84,4.14-.66.72-1.58,1.27-1.56,2.43a8.36,8.36,0,0,1-3.09,3c-1.26,0-2.21.33-2.31,1.79a10.22,10.22,0,0,1-3.33,2.54,2.41,2.41,0,0,0-2.69,2.22l-.06,0c-3,.64-4.55,2.92-5.93,5.36-3.4,3.84-7.13,7.33-10.84,10.85a70,70,0,0,1-9.92.67,2.27,2.27,0,0,0-2.52,2.57,7.83,7.83,0,0,1-2.54,2.76,1.64,1.64,0,0,0-1.65,2.06v.26l-.24.1a15.18,15.18,0,0,0-5.75,8.66v.24l-.21.1c-1.42.32-1.6,1.41-1.62,2.6v.27l-.23.12c-1.43.4-1.76,1.76-2.45,2.8-1.35,2.06-2.67,4.13-4,6.2-2.14-1.08-2.46-2.36-.71-3.66,1.42-1.05,2.78-1.94,2.61-4a1.69,1.69,0,0,1,.53-1c1.62-1.81,1.94-4.08,2.39-6,1.09-1.18,2.47-1.88,2.49-3.62-1.4.68-2.67,1.45-2.49,3.62a11.56,11.56,0,0,0-3.91-.25c-2.23.3-4.74-1.3-6.69.95-.08.1-.41.07-.57,0-1.75-.82-2.39.44-3.35,1.54-2.06,2.34-3.47,5.1-5.28,7.58-1.4,1.9-3,3.75-5.75,3.68-1.58,0-1.87-.44-1.67-2a12.76,12.76,0,0,0-.25-6.2c-.33-.93.33-2.26-.57-2.82-1.39-.87-1.57,1.08-2.54,1.46-2.62,1-2.12,3.76-2.89,5.78-.21.57.42,1.09,1,1.28a11,11,0,0,1,1.45.33,2.27,2.27,0,0,1,1.52,2.35c-.12,1.12-1.06,1.39-1.94,1.56a7.92,7.92,0,0,1-2.93-.25c-2.86-.55-5.17-3.11-8.41-2.27-.2.06-.5-.27-.76-.42-2-1.17-2-1.17-3.22.48A16.55,16.55,0,0,1,457.2,249c-1.82,1.87-1.89,2-.26,4.07.48.61.56,1.05.06,1.52s-1,1.59-2.15,1.28c-1.47-.4-3.2-2.16-2.89-3.27.51-1.87-.47-2.55-1.92-3.09a13.3,13.3,0,0,1-1.64-.71c-2.14-1.15-2.14-1.16-3.72.78-2.44,3-2.6,3-5.27,0a4.64,4.64,0,0,1-.59-.67c-.83-1.42-1.61-2.82-3.7-1.92-.34.14-.93-.26-1.38-.45a10.65,10.65,0,0,1-3.19-2.18c-1.3-1.19-2.09-1.15-3.4-.06-.46.38-.84.85-1.28,1.25-1.89,1.68-2.25,1.7-4.44.17a2.24,2.24,0,0,0-1.39-.41c-1.49.06-3,.14-4.46.23-3.43.19-6.8,1.71-10.31.45a2.19,2.19,0,0,0-2.38.73c-2.81,2.76-6.61,4.4-8.85,7.81a.63.63,0,0,1-.25.16c-2.92,1.38-4.59,4-6.48,6.43-1.76,2.27-3.22,4.76-5.17,6.91a2.88,2.88,0,0,1-2.49,1.26c.74-1.29,1.5-2.56,2.2-3.86,1.81-3.38,4.38-6.33,5.41-10.15.69-2.55.91-5.31,2.79-7.44a1.28,1.28,0,0,0,.25-.54c.32-1.49-.82-2.18-1.76-2.84s-1.47.28-2,.84a10.85,10.85,0,0,0-2.06,4.56,10.82,10.82,0,0,1-2.11,4.51,8.05,8.05,0,0,0-2.18,6.6,6.19,6.19,0,0,1-1.6,4.94,35.21,35.21,0,0,0-3,5.1c-.27.49,0,1,.46,1.28a18.22,18.22,0,0,1-5.15,4,7.26,7.26,0,0,1-1.15.19c-1.19.28-1.85-1.2-3-.92-1.37.34-.34,2.4-1.86,2.7l-.29.05,0,.07a23.57,23.57,0,0,0-3.06-7.94,8.83,8.83,0,0,1-1.17-3.34,3.6,3.6,0,0,0-1.22-3.26,3.56,3.56,0,0,1-.74-1.93,3.11,3.11,0,0,0,.08-1.16c-1.7-5.27-3.43-10.53-5.15-15.8a1.36,1.36,0,0,0-.72-.9,4.88,4.88,0,0,1-.72-2.6,9.16,9.16,0,0,0-1.61-5.79q-1-2.52-2-5a6.82,6.82,0,0,0-2.55-5.16,4.25,4.25,0,0,1-1-2.18A1,1,0,0,0,344.15,221.85Z"/><path class="cls-2" d="M331.51,197c-2.47-3.69-3.76-7.88-5.11-12.05a2.09,2.09,0,0,1,1.14-2.74c7.88-4.32,15.08-9.76,22.94-14.11,10.58-5.85,20.39-13,30.88-18.92a291.88,291.88,0,0,1,35.65-17c4-1.6,8.22-2.63,12.33-3.93,3.93-1.24,7.8-2.87,11.72-4.29,13.87-5,27.71-10.24,42-14,9.75-2.59,19.75-4,29.94-2.74,3.46.43,7,.76,10.36-.59a3.33,3.33,0,0,1,1.75-.25c5.31,1.1,10.73,1.05,16.08,1.39,7.35.46,14.61,2.15,22,1.65a8.16,8.16,0,0,1,4.06.9,38.59,38.59,0,0,0,12.39,3.27c3.49.45,6.59,2.35,10.13,2.51,5.62.25,11,1.8,16.52,2.75a7.84,7.84,0,0,1,1.73.44,54.58,54.58,0,0,0,11.46,3.29c-1.11.76-2.27.37-3.44.19a41.62,41.62,0,0,0-6.78-1q-11.09,0-22.18,0a21,21,0,0,0-3.54.45c-2,.34-3.73,1.37-5.79,1.39-3.38,0-6.61,1.34-10,1.37a3.82,3.82,0,0,0-2,.68c-2,1.35-4.37,1.16-6.57,1.21-1.38,0-2.66.11-3.57,1-2.37,2.34-5.63,2.92-8.48,3.25-4,.47-7.23,2.4-10.49,4.08a82.59,82.59,0,0,0-10.78,6.2c-.77.56-1.6,1.08-2.44.47a2.37,2.37,0,0,1-.82-2.66c.37-1.72-.28-2.3-1.81-1.6-2.33,1.06-4.86,1.78-6.58,4a22.81,22.81,0,0,1-5.78,4.68c-1.65,1.07-3.58,1.75-4.56,3.72-.38.76-1.48.91-2.34,1.19a23.53,23.53,0,0,0-8.65,4.55,9.71,9.71,0,0,1-5,2.51,10.28,10.28,0,0,0-4.59,2c-1.32.9-2.59,1.82-4.33,1.81a4.21,4.21,0,0,0-1.94.73c-2.32,1.3-5.3,1.14-7.28,3.22a.81.81,0,0,1-.57.14c-3.36-.24-5.75,1.76-8.31,3.45-1.29.85-2.45,2-4,2.4a1.82,1.82,0,0,1-.21-2.09c.49-1.12-.21-1.8-1-2.19a4.45,4.45,0,0,0-3.12-.57c-3.57.8-7.19,1.35-10.77,2.09-1.35.28-2.88.48-3.63,1.83-1.37,2.45-3.43,4.3-5.2,6.41-3.5,4.2-7.63,7.82-11.07,12.08a29.41,29.41,0,0,0-2.63,3.61,28.19,28.19,0,0,1-4.69,6.16c-.63.63-1.36,1.21-1.36,2.23a2.16,2.16,0,0,0-1.19,1.2c-.71.54-1.39,1.11-2.14,1.61a.77.77,0,0,1-1.08-.14c-.28-.37-.09-.74.19-1a4.27,4.27,0,0,1,.41-.44c4.52-4,7.38-9.34,11.12-14s6.85-9.27,10.05-14.06c1.11-1.66,2.27-3.28,3.29-5,.72-1.2.28-2.42-.75-2.24-2.52.44-5.32.42-7.33,2.19a68.39,68.39,0,0,0-7.5,7.63c-1.62,2-3.79,3.19-5.51,5a2.59,2.59,0,0,1-1.36.58c-.73.13-1.2-.29-1-1a8.71,8.71,0,0,1,.81-1.92,93.12,93.12,0,0,1,5.7-10.48,2.17,2.17,0,0,0,.06-2.76,1.82,1.82,0,0,0-2.34-.68,7.74,7.74,0,0,1-2.37.19,62.08,62.08,0,0,1-10-.51,2.32,2.32,0,0,0-1.45.2c-2,1.09-4.28.91-6.27,1.85a3.58,3.58,0,0,1-2.33,0,20.76,20.76,0,0,0-8.31,0,39.9,39.9,0,0,1-12.17.79,11.52,11.52,0,0,0-6.06.8,5.68,5.68,0,0,1-3.79.27,11.77,11.77,0,0,0-10.58,2.44c-1.57,1.28-3,3-5.45,2.64-.63-.09-1.07.45-1.54.82a6,6,0,0,0-2.17,3.75c-2.59-2.13-2.8-2.14-4.4.38a1.71,1.71,0,0,1-1.32,1A4.17,4.17,0,0,0,334,181.6a7.41,7.41,0,0,1-4.52,2c-1.84.2-2.19,1.06-1.59,3,.44,1.43,1.08,2.8,1.48,4.23C329.92,193,331.53,194.69,331.51,197Z"/><path class="cls-2" d="M413.21,201.5c0-1,.73-1.6,1.36-2.23a28.19,28.19,0,0,0,4.69-6.16,29.41,29.41,0,0,1,2.63-3.61c3.44-4.26,7.57-7.88,11.07-12.08,1.77-2.11,3.83-4,5.2-6.41.75-1.35,2.28-1.55,3.63-1.83,3.58-.74,7.2-1.29,10.77-2.09a4.45,4.45,0,0,1,3.12.57c.79.39,1.49,1.07,1,2.19a1.82,1.82,0,0,0,.21,2.09c1.53-.39,2.69-1.55,4-2.4,2.56-1.69,4.95-3.69,8.31-3.45a.81.81,0,0,0,.57-.14c2-2.08,5-1.92,7.28-3.22A4.21,4.21,0,0,1,479,162c1.74,0,3-.91,4.33-1.81a10.28,10.28,0,0,1,4.59-2,9.71,9.71,0,0,0,5-2.51,23.53,23.53,0,0,1,8.65-4.55c.86-.28,2-.43,2.34-1.19,1-2,2.91-2.65,4.56-3.72a22.81,22.81,0,0,0,5.78-4.68c1.72-2.17,4.25-2.89,6.58-4,1.53-.7,2.18-.12,1.81,1.6a2.37,2.37,0,0,0,.82,2.66c.84.61,1.67.09,2.44-.47a82.59,82.59,0,0,1,10.78-6.2c3.26-1.68,6.5-3.61,10.49-4.08,2.85-.33,6.11-.91,8.48-3.25.91-.91,2.19-1,3.57-1,2.2,0,4.54.14,6.57-1.21a3.82,3.82,0,0,1,2-.68c3.41,0,6.64-1.34,10-1.37,2.06,0,3.82-1,5.79-1.39a21,21,0,0,1,3.54-.45q11.08,0,22.18,0a41.62,41.62,0,0,1,6.78,1c1.17.18,2.33.57,3.44-.19a2.49,2.49,0,0,1,1.83.32c.48.88,1.08.92,1.79.26a8,8,0,0,1,3.61,1c.86,1,2.12.93,3.22,1.31,3,1,6.23,1.46,8.81,3.52-.69.87-1.62.65-2.49.49-3.86-.75-7.68-1.83-11.69-1.09-2.41.44-4.72-.58-7.11-.6s-5,.18-7.44-.5a7.32,7.32,0,0,0-3.83.24,18.43,18.43,0,0,1-4.38.9c-3,.07-6.1-.1-8.89,1.53-1,.61-2.4,0-3.49.64-.44.26-.91.48-.94,1.05a1.08,1.08,0,0,0,.85,1.1c2.57.77,5.12,2,7.72,2.13,3.5.2,6.73,1.56,10.24,1.65,1.53,0,3.27-.18,4.71.5,2.62,1.24,5.48,1.21,8.18,1.44,7.46.62,14.61,2.79,22,3.82a2.41,2.41,0,0,1,2.4,1.94c-2.82,1.12-5.39,3.14-8.33,3.15s-4.42,1.89-6.5,3a1.8,1.8,0,0,0-1,2.26c.72,2,2.39,3.18,3.82,4.54a3.32,3.32,0,0,0,3.42.38c1.26-.39,2-.09,2.12,1.19s.95,1.87,2,2.37c1.53.74,3,1.5,4.56,2.27.62.31,1.29.59,1.32,1.46-3-1.18-5.72-2.79-8.71-3.92a40.2,40.2,0,0,0-18.84-2.27c-9.33,1-18.65,2-27.94,3.36a16.07,16.07,0,0,0-8.25,3.91,5.76,5.76,0,0,0-1.45,1.88c-1.7,3.44-4.26,6.23-6.82,9-.22-1.87,1.39-2.84,2.23-4.08,2-2.9,3.22-6.23,6.36-8.44,2.83-2,6-2.9,9-4.2,1.71-.72,3.36.47,5,0,2.8-.87,5.74-.81,8.56-1,4.18-.24,8.25-1.28,12.43-1.38a1.27,1.27,0,0,0,1.18-2,4.56,4.56,0,0,0-1.61-1.73,24,24,0,0,0-7.45-2.83,49.53,49.53,0,0,0-18.56.86,3.65,3.65,0,0,1-2.31,0c-1.51-.62-2.48.05-3.07,1.46a5.81,5.81,0,0,1-4.18,3.51,21.17,21.17,0,0,0-2.51,1c-.56.23-1.14.6-1.66.1a1.51,1.51,0,0,1-.08-1.94c.36-.67,1.18-1.25.3-2.07a2.57,2.57,0,0,0-2.28-.42,15.93,15.93,0,0,0-7.91,3.26,8,8,0,0,1-3.17,1.56,29.45,29.45,0,0,0-9.56,4.1,15.31,15.31,0,0,1-4.79,2.3,26.29,26.29,0,0,0-5.68,2.59c-3.22,1.78-6.34,3.72-9.42,5.75a82,82,0,0,1-14.22,7.54c-2.72,1.1-5.27,2.9-8.4,2.87a2,2,0,0,0-1.69,1.06c-.56.82-1.18,1.6-1.82,2.37a9.27,9.27,0,0,1-3.7,2.39c-1.1.46-1.64-.91-2.49-1.35-.53-.26-1.14-.37-1.68-.63-1.43-.67-2.89-1.25-3.27-3.13a1.34,1.34,0,0,0-2.28-.9c-2,1.4-4.23,2.19-6.31,3.34a5.37,5.37,0,0,0-2.45,2.12c-.86,1.67-2,2-3.95,1.59a10.47,10.47,0,0,0-9.32,1.87,6.26,6.26,0,0,1-2.14.93c-2.69.9-5.58.23-8.24,1.24a10.9,10.9,0,0,1-6.47.14,8.7,8.7,0,0,0-4.72,0,3.16,3.16,0,0,1-2.89-.07c-2.32-1.65-4.17-.7-5.81,1a11,11,0,0,1-4.79,2.94,7.3,7.3,0,0,0-4.41,3.32c-.81,1.48-2.16,2-3.38,2.77s-1.88.34-2-1.08c-.17-1.59-.9-3.07-.7-4.71a1.1,1.1,0,0,0-.84-1.38,1.3,1.3,0,0,0-1.36.38c-1.19,1.35-2.48,2.62-3.55,4-1.21,1.61-1.77,1.71-2.92.14-1.46-2-1.54-2-3.75-1.14A4.88,4.88,0,0,1,413.21,201.5Z"/><path class="cls-2" d="M505,234.5c-.43,2.24-.75,4.51-2.37,6.32a1.69,1.69,0,0,0-.53,1c.17,2-1.19,2.93-2.61,4-1.75,1.3-1.43,2.58.71,3.66a8.53,8.53,0,0,1-1.23,3c-1.06.13-2.17-.25-3.31.4.08,1.19.6,2.43-.1,3.66-.38.68.19,1.32.45,1.95-.41,1.2-.36,2.55-1.21,3.59-1.63.16-1,2.11-2.05,2.62-1.8.9-2.24,2-1.64,4,.45,1.46-.36,1.95-1.86,1.37a6.42,6.42,0,0,0-2.83-.78c-2.94.25-5.66-.67-8.43-1.46-1.12-.32-2.3-1.28-3.58-.34-1,0-1.85-.81-2.9-.65l-.05,0c-.24-1.29-1-2.26-2.3-2.17a2.23,2.23,0,0,0-2,2.2c-.88,1.6-3,2.2-3.35,4.24-1.45,1.3-1,2.74-.32,4.19a26.19,26.19,0,0,1-.38,6,1.22,1.22,0,0,0-.71,1.16c0,2.23,0,4.46,0,6.69a1.29,1.29,0,0,0,.67,1.2c.5,6.19.22,12.4.41,18.6-.7.55-.44.91.23,1.19a9.17,9.17,0,0,1,.58,6c-1.23.85-.53,2.11-.68,3.19s.3,2.36-1,3.06l-6.18-2.4c-.47-1.09-1.09-1.05-1.81-.23a15.38,15.38,0,0,1-6.64-3c-1-.76-2-1.62-3-2.43-.1-1-.71-1.22-1.58-1.07l-6.21-3.38c-1.42-1.69-3.1-2.7-5.4-2.17l-6-1.45c-.22-.82-.56-1.16-1.21-.31a6.76,6.76,0,0,1-3-.36c-.42-1.09-1-1.08-1.79-.31a2.37,2.37,0,0,1-1.8-.27c-.24-.8-.59-1.1-1.21-.29a1.44,1.44,0,0,1-1.2-.13c-1-1.3-1.64-1.38-3.59-.49a2.75,2.75,0,0,1-1.81-.11c-1.2-1.32-2-1.4-4.2-.46a4.75,4.75,0,0,1-2.39-.27c-.85-1.49-1.9-1.14-3-.34a4.9,4.9,0,0,1-2.66-.05c-6.28-1.95-12.46-4.1-17.59-8.44-2-1.66-4.35-2.78-6.16-4.65a1.63,1.63,0,0,0-2.06-1.74,15,15,0,0,1-4-3.6c.13-.73-.08-1.23-.88-1.34l-.28-.53a1,1,0,0,0-.81-1.28,6.78,6.78,0,0,1-1.63-2.91l.29-.05c1.52-.3.49-2.36,1.86-2.7,1.14-.28,1.8,1.2,3,.92a7.26,7.26,0,0,0,1.15-.19,18.22,18.22,0,0,0,5.15-4c1.73-.37,2-2.46,3.6-3a2.88,2.88,0,0,0,2.49-1.26c1.95-2.15,3.41-4.64,5.17-6.91,1.89-2.42,3.56-5.05,6.48-6.43a.63.63,0,0,0,.25-.16c2.24-3.41,6-5.05,8.85-7.81a2.19,2.19,0,0,1,2.38-.73c3.51,1.26,6.88-.26,10.31-.45,1.48-.09,3-.17,4.46-.23a2.24,2.24,0,0,1,1.39.41c2.19,1.53,2.55,1.51,4.44-.17.44-.4.82-.87,1.28-1.25,1.31-1.09,2.1-1.13,3.4.06a10.65,10.65,0,0,0,3.19,2.18c.45.19,1,.59,1.38.45,2.09-.9,2.87.5,3.7,1.92a4.64,4.64,0,0,0,.59.67c2.67,2.94,2.83,2.94,5.27,0,1.58-1.94,1.58-1.93,3.72-.78a13.3,13.3,0,0,0,1.64.71c1.45.54,2.43,1.22,1.92,3.09-.31,1.11,1.42,2.87,2.89,3.27,1.14.31,1.54-.7,2.15-1.28s.42-.91-.06-1.52c-1.63-2-1.56-2.2.26-4.07a16.55,16.55,0,0,0,1.09-1.41c1.25-1.65,1.25-1.65,3.22-.48.26.15.56.48.76.42,3.24-.84,5.55,1.72,8.41,2.27a7.92,7.92,0,0,0,2.93.25c.88-.17,1.82-.44,1.94-1.56A2.27,2.27,0,0,0,474,246.1a11,11,0,0,0-1.45-.33c-.61-.19-1.24-.71-1-1.28.77-2,.27-4.75,2.89-5.78,1-.38,1.15-2.33,2.54-1.46.9.56.24,1.89.57,2.82a12.76,12.76,0,0,1,.25,6.2c-.2,1.56.09,2,1.67,2,2.72.07,4.35-1.78,5.75-3.68,1.81-2.48,3.22-5.24,5.28-7.58,1-1.1,1.6-2.36,3.35-1.54.16.08.49.11.57,0,1.95-2.25,4.46-.65,6.69-.95A29.66,29.66,0,0,1,505,234.5Z"/><path class="cls-2" d="M413.21,201.5a4.88,4.88,0,0,0,2-.65c2.21-.89,2.29-.86,3.75,1.14,1.15,1.57,1.71,1.47,2.92-.14,1.07-1.43,2.36-2.7,3.55-4a1.3,1.3,0,0,1,1.36-.38,1.1,1.1,0,0,1,.84,1.38c-.2,1.64.53,3.12.7,4.71.16,1.42.89,1.8,2,1.08s2.57-1.29,3.38-2.77a7.3,7.3,0,0,1,4.41-3.32,11,11,0,0,0,4.79-2.94c1.64-1.7,3.49-2.65,5.81-1a3.16,3.16,0,0,0,2.89.07,8.7,8.7,0,0,1,4.72,0,10.9,10.9,0,0,0,6.47-.14c2.66-1,5.55-.34,8.24-1.24a6.26,6.26,0,0,0,2.14-.93,10.47,10.47,0,0,1,9.32-1.87c1.92.42,3.09.08,3.95-1.59a5.37,5.37,0,0,1,2.45-2.12c2.08-1.15,4.35-1.94,6.31-3.34a1.34,1.34,0,0,1,2.28.9c.38,1.88,1.84,2.46,3.27,3.13.54.26,1.15.37,1.68.63.85.44,1.39,1.81,2.49,1.35a9.27,9.27,0,0,0,3.7-2.39c.64-.77,1.26-1.55,1.82-2.37a2,2,0,0,1,1.69-1.06c3.13,0,5.68-1.77,8.4-2.87a82,82,0,0,0,14.22-7.54c3.08-2,6.2-4,9.42-5.75a26.29,26.29,0,0,1,5.68-2.59,15.31,15.31,0,0,0,4.79-2.3,29.45,29.45,0,0,1,9.56-4.1,8,8,0,0,0,3.17-1.56,15.93,15.93,0,0,1,7.91-3.26,2.57,2.57,0,0,1,2.28.42c.88.82.06,1.4-.3,2.07a1.51,1.51,0,0,0,.08,1.94c.52.5,1.1.13,1.66-.1a21.17,21.17,0,0,1,2.51-1,5.81,5.81,0,0,0,4.18-3.51c.59-1.41,1.56-2.08,3.07-1.46a3.65,3.65,0,0,0,2.31,0,49.53,49.53,0,0,1,18.56-.86,24,24,0,0,1,7.45,2.83,4.56,4.56,0,0,1,1.61,1.73,1.27,1.27,0,0,1-1.18,2c-4.18.1-8.25,1.14-12.43,1.38-2.82.17-5.76.11-8.56,1-1.62.5-3.27-.69-5,0-3.06,1.3-6.2,2.2-9,4.2-3.14,2.21-4.39,5.54-6.36,8.44-.84,1.24-2.45,2.21-2.23,4.08l-.06.09c-.91.14-1.14.73-1,1.55a1.93,1.93,0,0,1-.84,1.48,5.62,5.62,0,0,0-2.88,4.76.63.63,0,0,1-.61.64c-1.7,0-2.2,1.87-3.58,2.4-.23-1.82.63-3.32,1.55-4.74,1.1-1.69,2.19-3.32,2.08-5.47-.07-1.45,1.72-2.21,1.44-4.23a34.35,34.35,0,0,0-8.2,5.27c-1.15,1.09-2.1,2.43-3.54,3.2-.61.33-1.26.6-1.87.93-1.49.79-3-.75-4.33-.06a4.5,4.5,0,0,1-4.22.5,3.36,3.36,0,0,0-2.36,0,11.93,11.93,0,0,1-6.19.15,2.24,2.24,0,0,0-1.71.19c-.65.38-.89,1-.25,1.4,2.3,1.54,4,4,6.85,4.67a7.14,7.14,0,0,1,1.39.54c.53.26,1.19.53,1.06,1.25s-.95.65-1.48.6c-1.69-.16-2.65,1.28-4.05,1.75-.71.24-1.41,1-2.19.3-.59-.52-.36-1.3-.28-2,.06-.49.39-1,.29-1.44a2.43,2.43,0,0,0-1.51-2.07c-.94-.27-1.4.39-1.89,1.09-1.07,1.52-2.37,2.79-2.79,4.8-.45,2.2-2,3.41-4.48,3.66-3.74.36-7.46,1.07-11.24,1.1-3.18,0-6.09-.58-8.36-3.15-1.13-1.28-1.82-1.09-2.82.3a.76.76,0,0,0-.16.25c-.71,3.58-3.65,5.21-6.2,7.21-1.23,1-2.69,2-4.05,1.16a4.38,4.38,0,0,1-2.46-4.14,9.74,9.74,0,0,0,0-1.79,1.61,1.61,0,0,0-1.52-1.58c-3.14-.41-6.3-.61-9.44-1.11-1.21-.2-1.95.86-2.15,2.06-.94,5.52-4.09,6.8-8.2,6.77a4.59,4.59,0,0,0-3,1.1,5.16,5.16,0,0,1-5.29,1c-1.31-.48-2.42.05-3.78.74-2.13,1.09-4.4,2.18-7.22,1.89-3.69-.38-7.47-1.87-11.21-.08a1.88,1.88,0,0,1-1.74,0c-2.54-1.43-5.2-1.35-8-1-3.15.33-6.34,0-9.52.57-2,.37-4,.82-5.43,2.19-1.77,1.72-4.19,2.75-5.4,5.08a2.74,2.74,0,0,1-1.95,1.24,11.87,11.87,0,0,0-6,3.2,4,4,0,0,1-4.45.74c-1.54-.53-2.16-2-2.21-3.62-.07-2.19,0-4.39,0-6.59a13.57,13.57,0,0,0-.06-2.39c-.32-1.83-.83-3.52-3.22-3.56a6.09,6.09,0,0,1-2.3-.57,2.23,2.23,0,0,0-2.94.6,3.27,3.27,0,0,1-2.83,1.39,2,2,0,0,0-1.61.67c-4.22,4.3-8.82,3.33-13.32.72a13.36,13.36,0,0,0-5.34-1.49c-2.51-.32-4.9.39-7.26.37-3,0-5.92,1.92-9,.38a1.74,1.74,0,0,0-2,.38c-1.86,2-4.88,2.76-6.24,5.39,0,.07-.17.09-.26.14a131.5,131.5,0,0,1-6.1-11.87l0-1.29c.17-1.54,1.17-2.74,1.72-4.12.9-2.23,2.07-2.8,4.52-2.56a11.46,11.46,0,0,0,4.17-.11,16,16,0,0,1,6.78,0c4,.62,8.06,1.39,12.13.52a2.25,2.25,0,0,1,2,.38c1.93,1.59,4.17,1.43,6.25.83s3.51.23,4.9,1.37c2,1.61,2.48,1.83,4.24.18,2.72-2.55,6.29-2.62,9.54-3.62a3.78,3.78,0,0,1,2.64.14,4.92,4.92,0,0,0,5.78-.32c1.51-1,2.9.07,2.4,1.85-.68,2.4-.68,4.94-1.42,7.28a17.45,17.45,0,0,0,.31,11.11c.72,2.18,2,2.74,3.95,1.45.57-.38,1.06-1,1.68-1.2,2-.57,2.8-1.91,3.07-3.89A3.08,3.08,0,0,1,410,207c1.76-.93,2.09-2.53,2-4.32A2.16,2.16,0,0,1,413.21,201.5Z"/><path class="cls-2" d="M412,202.7c.1,1.79-.23,3.39-2,4.32a3.08,3.08,0,0,0-1.34,2.56c-.27,2-1.05,3.32-3.07,3.89-.62.18-1.11.82-1.68,1.2-1.91,1.29-3.23.73-3.95-1.45a17.45,17.45,0,0,1-.31-11.11c.74-2.34.74-4.88,1.42-7.28.5-1.78-.89-2.86-2.4-1.85a4.92,4.92,0,0,1-5.78.32,3.78,3.78,0,0,0-2.64-.14c-3.25,1-6.82,1.07-9.54,3.62-1.76,1.65-2.28,1.43-4.24-.18-1.39-1.14-2.83-2-4.9-1.37s-4.32.76-6.25-.83a2.25,2.25,0,0,0-2-.38c-4.07.87-8.12.1-12.13-.52a16,16,0,0,0-6.78,0,11.46,11.46,0,0,1-4.17.11c-2.45-.24-3.62.33-4.52,2.56-.55,1.38-1.55,2.58-1.72,4.12l-1.11-.62a6.57,6.57,0,0,1-1.44-2.72c0-2.3-1.59-4-2.18-6.12-.4-1.43-1-2.8-1.48-4.23-.6-1.94-.25-2.8,1.59-3a7.41,7.41,0,0,0,4.52-2,4.17,4.17,0,0,1,2.43-1.08,1.71,1.71,0,0,0,1.32-1c1.6-2.52,1.81-2.51,4.4-.38a6,6,0,0,1,2.17-3.75c.47-.37.91-.91,1.54-.82,2.42.33,3.88-1.36,5.45-2.64a11.77,11.77,0,0,1,10.58-2.44,5.68,5.68,0,0,0,3.79-.27,11.52,11.52,0,0,1,6.06-.8,39.9,39.9,0,0,0,12.17-.79,20.76,20.76,0,0,1,8.31,0,3.58,3.58,0,0,0,2.33,0c2-.94,4.31-.76,6.27-1.85a2.32,2.32,0,0,1,1.45-.2,62.08,62.08,0,0,0,10,.51,7.74,7.74,0,0,0,2.37-.19,1.82,1.82,0,0,1,2.34.68,2.17,2.17,0,0,1-.06,2.76,93.12,93.12,0,0,0-5.7,10.48,8.71,8.71,0,0,0-.81,1.92c-.17.73.3,1.15,1,1a2.59,2.59,0,0,0,1.36-.58c1.72-1.78,3.89-3,5.51-5a68.39,68.39,0,0,1,7.5-7.63c2-1.77,4.81-1.75,7.33-2.19,1-.18,1.47,1,.75,2.24-1,1.71-2.18,3.33-3.29,5-3.2,4.79-6.42,9.58-10.05,14.06s-6.6,10-11.12,14a4.27,4.27,0,0,0-.41.44c-.28.31-.47.68-.19,1a.77.77,0,0,0,1.08.14C410.63,203.81,411.31,203.24,412,202.7Z"/><path class="cls-2" d="M646,164.83c0-.87-.7-1.15-1.32-1.46-1.52-.77-3-1.53-4.56-2.27-1-.5-1.87-1-2-2.37s-.86-1.58-2.12-1.19a3.32,3.32,0,0,1-3.42-.38c-1.43-1.36-3.1-2.56-3.82-4.54a1.8,1.8,0,0,1,1-2.26c2.08-1.15,3.64-3,6.5-3s5.51-2,8.33-3.15a2.41,2.41,0,0,0-2.4-1.94c-7.36-1-14.51-3.2-22-3.82-2.7-.23-5.56-.2-8.18-1.44-1.44-.68-3.18-.46-4.71-.5-3.51-.09-6.74-1.45-10.24-1.65-2.6-.16-5.15-1.36-7.72-2.13a1.08,1.08,0,0,1-.85-1.1c0-.57.5-.79.94-1.05,1.09-.68,2.45,0,3.49-.64,2.79-1.63,5.86-1.46,8.89-1.53a18.43,18.43,0,0,0,4.38-.9,7.32,7.32,0,0,1,3.83-.24c2.48.68,5,.49,7.44.5s4.7,1,7.11.6c4-.74,7.83.34,11.69,1.09.87.16,1.8.38,2.49-.49.89,0,1.61.78,2.55.53a.34.34,0,0,1,.43.25c.06.81.53,1.08,1.29,1A30.31,30.31,0,0,1,651.79,141c-.35,1.5.21,2.92.42,4.36,0,.16.47.26.72.39a30.59,30.59,0,0,1,.17,5.41,2.08,2.08,0,0,0,0,3l0,1.8c-2.22,2.23-2.4,3.78-.71,6.17.43.61,1.34,1,1,2a3.28,3.28,0,0,1-4.43,1.82c-.89-.41-1.7-1-2.77-.87l-.24,0Zm2.18-21c-.17-.07-.37-.24-.5-.19s-.15.31-.22.47c.16.07.37.24.49.19S648.05,144,648.13,143.79Z"/><path class="cls-2" d="M474.41,267.49c1.28-.94,2.46,0,3.58.34,2.77.79,5.49,1.71,8.43,1.46a6.42,6.42,0,0,1,2.83.78c1.5.58,2.31.09,1.86-1.37-.6-2-.16-3.1,1.64-4,1-.51.42-2.46,2.05-2.62a16.37,16.37,0,0,1-1,4.94c-.16.6-.29,1.16.27,1.63a6.71,6.71,0,0,1-1.83,4.23c-1.71,1.29-3.38.82-5.17.07-3.08-1.31-6.22-2.46-9.34-3.66A8.75,8.75,0,0,1,474.41,267.49Z"/><path class="cls-2" d="M646.29,165c1.07-.18,1.88.46,2.77.87a3.28,3.28,0,0,0,4.43-1.82c.3-1-.61-1.36-1-2-1.69-2.39-1.51-3.94.71-6.17,1.47,4.39,2.13,8.81.74,13.66C651.15,168,648.53,166.84,646.29,165Z"/><path class="cls-2" d="M494.09,268.65c-.56-.47-.43-1-.27-1.63a16.37,16.37,0,0,0,1-4.94c.85-1,.8-2.39,1.21-3.59,1.63-1.68,1.82-4.08,3-6a8.53,8.53,0,0,0,1.23-3c1.34-2.07,2.66-4.14,4-6.2.69-1,1-2.4,2.45-2.8a7.43,7.43,0,0,1-1.52,2.87,150.16,150.16,0,0,0-7.26,13.38C496,260.56,495.54,264.74,494.09,268.65Z"/><path class="cls-2" d="M474.41,267.49a8.75,8.75,0,0,0,3.34,1.8c3.12,1.2,6.26,2.35,9.34,3.66,1.79.75,3.46,1.22,5.17-.07-1.07,2.49-1.08,2.53-3.29,1.68-5-1.93-9.94-3.9-14.91-5.86a4,4,0,0,1-2.55-1.86C472.56,266.68,473.4,267.46,474.41,267.49Z"/><path class="cls-2" d="M352.6,244.05a1.36,1.36,0,0,1,.72.9c1.72,5.27,3.45,10.53,5.15,15.8a3.11,3.11,0,0,1-.08,1.16C356.08,256.08,353.76,250.25,352.6,244.05Z"/><path class="cls-2" d="M641.3,129.46c-.94.25-1.66-.54-2.55-.53-2.58-2.06-5.82-2.49-8.81-3.52-1.1-.38-2.36-.33-3.22-1.31C631.91,125,636.91,126.41,641.3,129.46Z"/><path class="cls-2" d="M565,187.72c1.38-.53,1.88-2.36,3.58-2.4a69.19,69.19,0,0,1-9,9c0-1.16.9-1.71,1.56-2.43C562.41,190.47,563.69,189.1,565,187.72Z"/><path class="cls-2" d="M518.88,223.32a2.27,2.27,0,0,1,2.52-2.57,70,70,0,0,0,9.92-.67c-2,2-4.7,1.79-7.12,1.64C522.09,221.59,520.37,221.81,518.88,223.32Z"/><path class="cls-2" d="M508.7,237.16a15.18,15.18,0,0,1,5.75-8.66A79.27,79.27,0,0,1,508.7,237.16Z"/><path class="cls-2" d="M463.09,290.3a1.29,1.29,0,0,1-.67-1.2c0-2.23,0-4.46,0-6.69a1.22,1.22,0,0,1,.71-1.16A52.6,52.6,0,0,1,463.09,290.3Z"/><path class="cls-2" d="M542.16,209.23c1.38-2.44,2.92-4.72,5.93-5.36A44.31,44.31,0,0,1,542.16,209.23Z"/><path class="cls-2" d="M462.61,322.29c1.32-.7.88-2,1-3.06s-.55-2.34.68-3.19a21.44,21.44,0,0,1,0,5.77C464.29,323.35,463.4,322.85,462.61,322.29Z"/><path class="cls-2" d="M361.52,270.44a23.57,23.57,0,0,1,3.06,7.94C362.83,276,362.23,273.2,361.52,270.44Z"/><path class="cls-2" d="M467.19,266.82a2.23,2.23,0,0,1,2-2.2c1.34-.09,2.06.88,2.3,2.17C469.3,265.59,469.3,265.59,467.19,266.82Z"/><path class="cls-2" d="M431.84,307.64c2.3-.53,4,.48,5.4,2.17A29.73,29.73,0,0,1,431.84,307.64Z"/><path class="cls-2" d="M569.16,184.68a5.62,5.62,0,0,1,2.88-4.76A13.6,13.6,0,0,1,569.16,184.68Z"/><path class="cls-2" d="M345.76,225.46a6.82,6.82,0,0,1,2.55,5.16A15.86,15.86,0,0,1,345.76,225.46Z"/><path class="cls-2" d="M652.93,145.74c-.25-.13-.7-.23-.72-.39-.21-1.44-.77-2.86-.42-4.36A5.42,5.42,0,0,1,652.93,145.74Z"/><path class="cls-2" d="M350.27,235.66a9.16,9.16,0,0,1,1.61,5.79A18.31,18.31,0,0,1,350.27,235.66Z"/><path class="cls-2" d="M463.52,275.25c-.66-1.45-1.13-2.89.32-4.19A11.17,11.17,0,0,1,463.52,275.25Z"/><path class="cls-2" d="M406,303.46c2.22-.94,3-.86,4.2.46A7.83,7.83,0,0,1,406,303.46Z"/><path class="cls-2" d="M412.05,304c1.95-.89,2.55-.81,3.59.49A8.76,8.76,0,0,1,412.05,304Z"/><path class="cls-2" d="M548.15,203.83a2.41,2.41,0,0,1,2.69-2.22A6.33,6.33,0,0,1,548.15,203.83Z"/><path class="cls-2" d="M653.13,154.13a2.08,2.08,0,0,1,0-3A4.75,4.75,0,0,1,653.13,154.13Z"/><path class="cls-2" d="M400.65,302.85c1.1-.8,2.15-1.15,3,.34A7.61,7.61,0,0,1,400.65,302.85Z"/><path class="cls-2" d="M359.13,263.84a3.6,3.6,0,0,1,1.22,3.26A5.62,5.62,0,0,1,359.13,263.84Z"/><path class="cls-2" d="M506.88,240.1c0-1.19.2-2.28,1.62-2.6A4.36,4.36,0,0,1,506.88,240.1Z"/><path class="cls-2" d="M554.17,199.07c.1-1.46,1.05-1.81,2.31-1.79A4.55,4.55,0,0,1,554.17,199.07Z"/><path class="cls-2" d="M514.69,228.14a1.64,1.64,0,0,1,1.65-2.06A4.1,4.1,0,0,1,514.69,228.14Z"/><path class="cls-2" d="M372.18,288a1.63,1.63,0,0,1,2.06,1.74A3.83,3.83,0,0,1,372.18,288Z"/><path class="cls-2" d="M454.62,319.66c.72-.82,1.34-.86,1.81.23A2.14,2.14,0,0,1,454.62,319.66Z"/><path class="cls-2" d="M419.85,305.21c.75-.77,1.37-.78,1.79.31A2,2,0,0,1,419.85,305.21Z"/><path class="cls-2" d="M623.11,123.1c-.71.66-1.31.62-1.79-.26A2.25,2.25,0,0,1,623.11,123.1Z"/><path class="cls-2" d="M333,199.71l1.11.62c0,.43,0,.86,0,1.29A2.57,2.57,0,0,1,333,199.71Z"/><path class="cls-2" d="M344.15,221.85a1,1,0,0,1,.63,1.43A1.31,1.31,0,0,1,344.15,221.85Z"/><path class="cls-2" d="M572.88,178.44c-.14-.82.09-1.41,1-1.55A2.37,2.37,0,0,1,572.88,178.44Z"/><path class="cls-2" d="M367.33,283c.8.11,1,.61.88,1.34A1.42,1.42,0,0,1,367.33,283Z"/><path class="cls-2" d="M366.24,281.22a1,1,0,0,1,.81,1.28A1.26,1.26,0,0,1,366.24,281.22Z"/><path class="cls-2" d="M424.63,305.88c.65-.85,1-.51,1.21.31A1.09,1.09,0,0,1,424.63,305.88Z"/><path class="cls-2" d="M643,130.7c-.76.09-1.23-.18-1.29-1A1.44,1.44,0,0,1,643,130.7Z"/><path class="cls-2" d="M463.73,310.09c-.67-.28-.93-.64-.23-1.19A1.16,1.16,0,0,1,463.73,310.09Z"/><path class="cls-2" d="M443.45,313.19c.87-.15,1.48.08,1.58,1.07A2.12,2.12,0,0,1,443.45,313.19Z"/><path class="cls-2" d="M416.84,304.65c.62-.81,1-.51,1.21.29A1.12,1.12,0,0,1,416.84,304.65Z"/><path class="cls-2" d="M379.65,269.29c-1.58.54-1.87,2.63-3.6,3-.45-.32-.73-.79-.46-1.28a35.21,35.21,0,0,1,3-5.1,6.19,6.19,0,0,0,1.6-4.94,8.05,8.05,0,0,1,2.18-6.6,10.82,10.82,0,0,0,2.11-4.51,10.85,10.85,0,0,1,2.06-4.56c.49-.56,1.06-1.47,2-.84s2.08,1.35,1.76,2.84a1.28,1.28,0,0,1-.25.54c-1.88,2.13-2.1,4.89-2.79,7.44-1,3.82-3.6,6.77-5.41,10.15C381.15,266.73,380.39,268,379.65,269.29Z"/><path class="cls-2" d="M505.05,235.07c-.21-2.46,1.06-3.23,2.46-3.91C507.49,232.9,506.11,233.6,505.05,235.07Z"/><path class="cls-2" d="M499,252.48c-1.14,1.93-1.33,4.33-3,6-.26-.63-.83-1.27-.45-1.95.7-1.23.18-2.47.1-3.66C496.8,252.23,497.91,252.61,499,252.48Z"/><path class="cls-2" d="M648.13,143.79c-.08.16-.11.42-.23.47s-.33-.12-.49-.19c.07-.16.11-.42.22-.47S648,143.72,648.13,143.79Z"/><path class="cls-1" d="M0,704.1V0H758.1V704.1ZM397,631c.21.33.35.75.65.95,3,2.1,6.41,1.63,9.77,1.38a1.44,1.44,0,0,0,1.39-1c.58-2.62,2.6-2.52,4.46-2.19,4.21.73,6.73-.58,8.09-4.94.66-2.09,1.57-4.21,4-4.95,1.35.16,2.45-.64,3.67-1a2.44,2.44,0,0,0,1.76-1.84c.48-1.93,1.64-3.57,2.36-5.39a1.41,1.41,0,0,0,.61-1.52,1.36,1.36,0,0,0,.37-1.17,9.55,9.55,0,0,0,0-4.75c.11-2.76-1.56-4.47-3.53-6a6.48,6.48,0,0,0-3-2.91,14.28,14.28,0,0,0-3.4-3.18c-1.2-1.21-2.19-2.66-3.8-3.42a7.75,7.75,0,0,0-2.88-2.54,4.5,4.5,0,0,0-2.5-2.25l-.69-.68a20.08,20.08,0,0,0-4-4.37,3.78,3.78,0,0,0-1.33-1.63,3.91,3.91,0,0,0-1.69-1.92A3.59,3.59,0,0,0,406,574a3,3,0,0,0-1.71-1.9c-2.59-3.47-6-6-9.55-8.36a1.8,1.8,0,0,0-1.32-1,4,4,0,0,0-1.7-1.38,1.48,1.48,0,0,0-1.3-1,.39.39,0,0,0-.43-.27,1.64,1.64,0,0,0-1.36-1,.35.35,0,0,0-.4-.25,12.84,12.84,0,0,0-3.79-2.87l-.62-.62a1.63,1.63,0,0,0-1.11-1.32c-2.17-2.3-4.29-4.65-6.52-6.89-5.66-5.67-11.38-11.3-17.07-16.94a4.26,4.26,0,0,0-2.29-2.26,7.49,7.49,0,0,0-2.19-2.08,50.68,50.68,0,0,0-6.08-6.09,37.37,37.37,0,0,0-6.6-6.46,2,2,0,0,0-1.33-1,2.92,2.92,0,0,0-1.63-1.38,6.8,6.8,0,0,0-3.15-2.8,5.22,5.22,0,0,0-2.28-2l-1.81-1.92a.34.34,0,0,0-.27-.4,5.3,5.3,0,0,0-2.12-2.8,53,53,0,0,0-8.52-4.83.42.42,0,0,0-.45-.26,5.52,5.52,0,0,0-2.55-1.57.36.36,0,0,0-.43-.24,1.72,1.72,0,0,0-1.36-1,.27.27,0,0,0-.33-.25,33.86,33.86,0,0,0-8.07-4.53.32.32,0,0,0-.41-.22,24.48,24.48,0,0,0-5-3.38.32.32,0,0,0-.41-.22,63.59,63.59,0,0,0-9.78-6.37.39.39,0,0,0-.43-.22,1.52,1.52,0,0,0-1.37-1,.28.28,0,0,0-.37-.21,32.74,32.74,0,0,0-10.46-4.9l-1-.46a10,10,0,0,0-4.35-2.21.35.35,0,0,0-.43-.2,1.43,1.43,0,0,0-.95-.63q-11.47-4.12-23.24-7.34l-1.18-.23a84.51,84.51,0,0,0-18.6-4.05,2.92,2.92,0,0,0-1.8-.09c-2.24-.54-4.37.06-6.52.58a1.39,1.39,0,0,0-1.18.28,2.42,2.42,0,0,0-1.82.3l-1.19.19a3.71,3.71,0,0,0-2.4.43c-4.2.05-8.4-.25-12.59.17A7.58,7.58,0,0,0,198,459a1.43,1.43,0,0,0-1.19.16,1.27,1.27,0,0,0-1.22.38,1.54,1.54,0,0,0-1.17.31,54.74,54.74,0,0,0-13.41,4.9l-1,.36a2.36,2.36,0,0,0-2,.86,58.51,58.51,0,0,0-8.85,4.43,1.59,1.59,0,0,0-1.37,1,11.66,11.66,0,0,0-3.44,2.56,1.82,1.82,0,0,0-1.41,1,.3.3,0,0,0-.38.22L158.38,477l-1.2.11a3.85,3.85,0,0,0-2.39.51,2.73,2.73,0,0,0-1.8.18l-24,.16a5.31,5.31,0,0,0-3.87,1.17l-1,.42a1.43,1.43,0,0,0-1.38.81.37.37,0,0,0-.44.25,1.64,1.64,0,0,0-1.37.94,4.55,4.55,0,0,0-2.3,2.39,7.74,7.74,0,0,0-1.28,4.94,1.51,1.51,0,0,0-.34,1.17,1.08,1.08,0,0,0-.17,1.22l-2.1,8.51a5.12,5.12,0,0,0-.15,4l-.22,1.63a3.92,3.92,0,0,0-1.56,2,4.35,4.35,0,0,0-1.44,2.17,18.21,18.21,0,0,0-2.74,5,15.69,15.69,0,0,0-2,4.06,2.78,2.78,0,0,0-1,1.94c-1.34,1.3-1.48,3.41-3.09,4.53-1.51.3-3.09.36-4.38,1.36a2.57,2.57,0,0,0-.37,3,1.49,1.49,0,0,0,.29,1.17,1.36,1.36,0,0,0,.33,1.22,1.53,1.53,0,0,0,.37,1.18,5.9,5.9,0,0,0,.84,3.62,1.56,1.56,0,0,0,.39,1.18c.11,3.13,1.13,6.05,2,9a4.71,4.71,0,0,0,.31,2.38c-.08,1.58-.31,3.17.53,4.64l.59,2.56a1.89,1.89,0,0,0,.63,1.6,18,18,0,0,0,3.43,6.21,1.45,1.45,0,0,0,.94,1.31l.76,1.1a6.92,6.92,0,0,0,3.5,3.49.34.34,0,0,0,.4.23c.95,1.27,2.47,1.64,3.8,2.23,8,3.58,16.53,5.81,25,8a10.71,10.71,0,0,0,3.8.66,1.51,1.51,0,0,0,1.18.29,11.65,11.65,0,0,0,2.83.89c6.79,1.74,13.78,2.24,20.66,3.42,1.93.32,4.06.1,5.7,1.47a13.23,13.23,0,0,0,5.37,3.07,5.54,5.54,0,0,1,1.76,1.09c4.06,3,7.9,6.38,12.37,8.84a16,16,0,0,1,2.84,2.15,12.08,12.08,0,0,0,5.34,3.14,6.75,6.75,0,0,1,3.79,2.22,3.15,3.15,0,0,0,2.84,1.39,2.68,2.68,0,0,1,1.92.71c3,2.12,6.32,3.71,9.27,6,2.75,2.1,5.87,3.71,8.66,5.75a19.16,19.16,0,0,0,5.41,3.09c2.44,2.5,5.69,3.91,8.3,6.19a3,3,0,0,0,1.87,1.16l.44.51c-.2.81.28.81.84.7a1.72,1.72,0,0,0,1.11.59c1.27,2.05,3.64,1.72,5.48,2.52l4.59,1.75a3.05,3.05,0,0,0,2.29,1.18,121,121,0,0,0,19.15,2.51c.58,0,1.38.08,1.72-.25,1.07-1,2.19-.72,3.35-.44a100.92,100.92,0,0,0,10.33,2.4c2.18.29,4.43.33,6.63.67.1,0,.25-.27.37-.42l1.41-.18a2.24,2.24,0,0,0,2.76.1l6,.52a1.58,1.58,0,0,0,1.25-.26l1,.23c1.4,1.18,3.06.47,4.59.59,2.6.22,5-.16,6.57-2.57a3.55,3.55,0,0,1,2.33-1.25c3.26-.72,5.73-3.91,9.5-3,.3.07.69-.41,1.06-.5,1.63-.35.85-2.49,2.16-2.93s2.66.16,3.49-1.21,1.91-1.14,3.15-1.08c4,.19,7.6,2,11.54,2.52,3.32.4,6.44,1.87,9.94,1.65,2.35-.14,4.67-.73,7.06-.48a7,7,0,0,0,4.44-1.3c1.85-1.15,3.77-2.19,5.61-3.39,3-2,6.23-3.33,9.79-1.15Z"/><path class="cls-2" d="M391.71,561.33a4,4,0,0,1,1.7,1.38c.08.81.57,1.08,1.32,1,3.53,2.39,7,4.89,9.55,8.36A1.71,1.71,0,0,0,406,574a3.59,3.59,0,0,1,1.3,1.68,1.68,1.68,0,0,0,1.69,1.92,3.78,3.78,0,0,1,1.33,1.63,6.45,6.45,0,0,0,4,4.37l.69.68a2.55,2.55,0,0,0,2.5,2.25,7.75,7.75,0,0,1,2.88,2.54c.75,1.71,1.73,3.17,3.8,3.42a14.28,14.28,0,0,1,3.4,3.18,4,4,0,0,0,3,2.91c2,1.54,3.64,3.25,3.53,6a5.14,5.14,0,0,0,0,4.75,1.36,1.36,0,0,1-.37,1.17,1.1,1.1,0,0,0-.61,1.52c-.72,1.82-1.88,3.46-2.36,5.39a2.44,2.44,0,0,1-1.76,1.84c-1.22.34-2.32,1.14-3.67,1-1.72-.52-3.28.48-4.94.52-3.47-1.5-3.52-1.54-5.81.91-1.48,1.58-3.22,3-5.27,3.14-3.25.24-6.52.38-9.77.73a2.63,2.63,0,0,1-1.19-.08,11.26,11.26,0,0,0-4.71-.49,4.07,4.07,0,0,1-3.53-1.17,1.39,1.39,0,0,0-2.12-.22c-2,1.92-4.22,3.6-5.35,6.24a7.45,7.45,0,0,1-1.63,2.06c-3.34,3.06-7.7,2.68-11.66,3.54a7.83,7.83,0,0,1-4.11.2c-4.42-1.47-9-2.16-13.52-3.45-4.09-1.17-8.19-2.41-12.47-.81a1.27,1.27,0,0,1-.86,0c-1.11-.47-1.72.23-2.22,1-1.5,2.24-4.48,2.93-5.69,5.46-.07.15-.33.22-.51.29a12.73,12.73,0,0,0-5.72,4.53,3.39,3.39,0,0,1-3.08,1.47c-2.18,0-4.37.13-6.56.2l-1-.23c-.6-.8-1-.51-1.25.26l-6-.52a2.66,2.66,0,0,0-2.76-.1l-1.41.18a29.3,29.3,0,0,0-5.73-1.1c-3-.43-6.11-.68-9-1.79a18.66,18.66,0,0,0-6.06-1.24c-.25-.43-.59-1.06-1.08-.83-1.6.74-3.08.07-4.63-.07a28.46,28.46,0,0,0-4.7.13c-.39,0-.47.58-.56,1-4-.64-8.15-.58-12.11-1.72l-4.59-1.75c-1.46-1.65-3.55-1.89-5.48-2.52a1.72,1.72,0,0,1-1.11-.59c-.05-.51-.3-.77-.84-.7l-.44-.51c-.22-1-.91-1.32-1.87-1.16-2.61-2.28-5.86-3.69-8.3-6.19-2-2.35-4.65-4-7.12-5.62a166,166,0,0,1-14-10,15.82,15.82,0,0,0-3.64-2.57,38.12,38.12,0,0,1-9.77-6.19c-2.83-2.53-7-3.5-8.67-7.39,0-.08-.15-.13-.23-.19-2.43-1.64-4.26-4.06-7.39-4.83a11.86,11.86,0,0,0-3.67-.78,10.05,10.05,0,0,1-6-1.45,6.76,6.76,0,0,0-3.4-1,108.12,108.12,0,0,1-20.32-2.71c-1.45-.32-2.94-1.32-4.54-.46a1.51,1.51,0,0,1-1.18-.29c-.26-.68-.88-.66-1.46-.82-10.2-2.68-20.5-5.06-30-9.87a3.62,3.62,0,0,0-1.16-.17.34.34,0,0,1-.4-.23,5.76,5.76,0,0,0-3.5-3.49l-.76-1.1c.07-.72-.17-1.2-.94-1.31a18,18,0,0,1-3.43-6.21,1.08,1.08,0,0,0-.63-1.6c-.2-.85-.39-1.71-.59-2.56.08-1.58.86-3.23-.53-4.64a4.71,4.71,0,0,1-.31-2.38c.24-3.21-.78-6.13-2-9a1.56,1.56,0,0,1-.39-1.18,3.8,3.8,0,0,0-.84-3.62,1.53,1.53,0,0,1-.37-1.18c.71-.62.33-1-.33-1.22a1.49,1.49,0,0,1-.29-1.17c.72-.65.36-1-.34-1.23a1.18,1.18,0,0,1,.71-1.82c1.63.12,3.21,0,4.38-1.36,1.61-1.12,1.75-3.23,3.09-4.53,1.16-.22,1.11-1.07,1-1.94a15.69,15.69,0,0,1,2-4.06c1.87-1.16,2.37-3.06,2.74-5a4.35,4.35,0,0,1,1.44-2.17,1.63,1.63,0,0,0,1.56-2l.22-1.63c.82-1.31.48-2.66.15-4l2.1-8.51c.53-.34.85-.71.17-1.22a1.51,1.51,0,0,1,.34-1.17,7.64,7.64,0,0,0,1.28-4.94,4.55,4.55,0,0,1,2.3-2.39c.74.1,1.27-.12,1.37-.94a.37.37,0,0,1,.44-.25c.69.12,1.2-.06,1.38-.81l1-.42a59.24,59.24,0,0,1,7.66-.49c5.85.06,11.7,0,17.54-.06.92,0,2,.44,2.63-.78a2.73,2.73,0,0,1,1.8-.18c1,.65,1.82.73,2.39-.51l1.2-.11c2,.69,3.18-.36,4.18-1.85a.3.3,0,0,1,.38-.22c.81.13,1.32-.15,1.41-1a11.66,11.66,0,0,1,3.44-2.56c.75.1,1.26-.14,1.37-1a58.51,58.51,0,0,1,8.85-4.43c.83.11,1.65.22,2-.86l1-.36a2.81,2.81,0,0,0,1.74-.16,96.91,96.91,0,0,1,10.84-4,1.23,1.23,0,0,0,.83-.77,1.54,1.54,0,0,1,1.17-.31c.67.72,1,.33,1.22-.38A1.43,1.43,0,0,1,198,459c1.47.5,2.94,1,4.21-.44,4.19-.42,8.39-.12,12.59-.17,1,.69,1.79.76,2.4-.43l1.19-.19c.73.66,1.34.59,1.82-.3a1.39,1.39,0,0,1,1.18-.28c2.28,1,4.4.18,6.52-.58a2.92,2.92,0,0,1,1.8.09c.16.72.71.83,1.33.92,4.78.72,9.51,1.68,14.21,2.83,1,.23,2,1,3.06.3l1.18.23c.4,1.19,1.6,1.07,2.46,1.36,6.46,2.13,13,4.16,19.43,6.25a4.07,4.07,0,0,0,2.3.36.35.35,0,0,1,.43.2c1.15,1.33,2.46,2.35,4.35,2.21l1,.46a1.64,1.64,0,0,0,1.29,1.08,58.64,58.64,0,0,1,6.7,3.06c.78.36,1.51,1,2.47.76a.28.28,0,0,1,.37.21c.08.84.57,1.13,1.37,1a.39.39,0,0,1,.43.22,1.19,1.19,0,0,0,.57,1q3.76,2.5,7.56,5a2,2,0,0,0,1.65.41.32.32,0,0,1,.41.22,6.21,6.21,0,0,0,5,3.38.32.32,0,0,1,.41.22,16.72,16.72,0,0,0,8.07,4.53.27.27,0,0,1,.33.25c.08.84.58,1.12,1.36,1a.36.36,0,0,1,.43.24c.34,1.34,1.43,1.48,2.55,1.57a.42.42,0,0,1,.45.26c.48,1.36,1.8,1.76,2.88,2.35a33.74,33.74,0,0,1,5,3.15c.91.72,1.43,1.95,2.75,2.13a.34.34,0,0,1,.27.4,1.6,1.6,0,0,0,1.81,1.92,5.22,5.22,0,0,1,2.28,2c.54,1.51,1.4,2.66,3.15,2.8a2.92,2.92,0,0,1,1.63,1.38c.07.83.54,1.14,1.33,1a37.37,37.37,0,0,1,6.6,6.46,10.23,10.23,0,0,0,6.08,6.09,7.49,7.49,0,0,1,2.19,2.08,2.78,2.78,0,0,0,2.29,2.26c5.69,5.64,11.41,11.27,17.07,16.94,2.23,2.24,4.35,4.59,6.52,6.89-.06.8.27,1.27,1.11,1.32l.62.62c.51,2,2.12,2.45,3.79,2.87a.35.35,0,0,1,.4.25c.09.82.6,1.07,1.36,1a.39.39,0,0,1,.43.27C390.5,561.13,391,561.4,391.71,561.33Z"/><path class="cls-2" d="M147,581.6c1.6-.86,3.09.14,4.54.46a108.12,108.12,0,0,0,20.32,2.71,6.76,6.76,0,0,1,3.4,1,10.05,10.05,0,0,0,6,1.45,11.86,11.86,0,0,1,3.67.78c3.13.77,5,3.19,7.39,4.83.08.06.19.11.23.19,1.68,3.89,5.84,4.86,8.67,7.39a38.12,38.12,0,0,0,9.77,6.19,15.82,15.82,0,0,1,3.64,2.57,166,166,0,0,0,14,10c2.47,1.66,5.13,3.27,7.12,5.62a19.16,19.16,0,0,1-5.41-3.09c-2.79-2-5.91-3.65-8.66-5.75-2.95-2.24-6.27-3.83-9.27-6a2.68,2.68,0,0,0-1.92-.71,3.15,3.15,0,0,1-2.84-1.39,6.75,6.75,0,0,0-3.79-2.22,12.08,12.08,0,0,1-5.34-3.14,16,16,0,0,0-2.84-2.15c-4.47-2.46-8.31-5.8-12.37-8.84a5.54,5.54,0,0,0-1.76-1.09,13.23,13.23,0,0,1-5.37-3.07c-1.64-1.37-3.77-1.15-5.7-1.47-6.88-1.18-13.87-1.68-20.66-3.42A11.65,11.65,0,0,1,147,581.6Z"/><path class="cls-2" d="M314.65,644.26c2.19-.07,4.38-.19,6.56-.2a3.39,3.39,0,0,0,3.08-1.47,12.73,12.73,0,0,1,5.72-4.53c.18-.07.44-.14.51-.29,1.21-2.53,4.19-3.22,5.69-5.46.5-.75,1.11-1.45,2.22-1a1.27,1.27,0,0,0,.86,0c4.28-1.6,8.38-.36,12.47.81,4.47,1.29,9.1,2,13.52,3.45a7.83,7.83,0,0,0,4.11-.2c4-.86,8.32-.48,11.66-3.54a7.45,7.45,0,0,0,1.63-2.06,2.21,2.21,0,0,0,1.84-.75,4.65,4.65,0,0,1,4.26-1.62c1,.07,1.68.12,2-1,.09-.38.66-.67.94-.32,1.23,1.53,3.44,2,4.2,4-3.56-2.18-6.8-.81-9.79,1.15-1.84,1.2-3.76,2.24-5.61,3.39A7,7,0,0,1,376,636c-2.39-.25-4.71.34-7.06.48-3.5.22-6.62-1.25-9.94-1.65-3.94-.48-7.55-2.33-11.54-2.52-1.24-.06-2.39-.16-3.15,1.08s-2.32.82-3.49,1.21-.53,2.58-2.16,2.93c-.37.09-.76.57-1.06.5-3.77-.86-6.24,2.33-9.5,3a3.55,3.55,0,0,0-2.33,1.25c-1.6,2.41-4,2.79-6.57,2.57C317.71,644.73,316.05,645.44,314.65,644.26Z"/><path class="cls-2" d="M395.88,630.11c-.76-2-3-2.51-4.2-4-.28-.35-.85-.06-.94.32-.28,1.16-.94,1.11-2,1a4.65,4.65,0,0,0-4.26,1.62,2.21,2.21,0,0,1-1.84.75c1.13-2.64,3.38-4.32,5.35-6.24a1.39,1.39,0,0,1,2.12.22,4.07,4.07,0,0,0,3.53,1.17,11.26,11.26,0,0,1,4.71.49,2.63,2.63,0,0,0,1.19.08c3.25-.35,6.52-.49,9.77-.73,2-.15,3.79-1.56,5.27-3.14,2.29-2.45,2.34-2.41,5.81-.91.07,1.33-.65,2.61-.12,4,.28.73-.23,1.3-1.08,1.4-1-.88-1.09-.18-1.15.62l-.61,0c-.85.19-1.68.44-2.54.55-1.1.14-1,1-1.16,1.72a12,12,0,0,1-3.76-.36c-2.13-.61-2.56-.17-2.77,2.24-.48,0-.95.07-1.2.58h-2.38c-1.64-2-1.64-2-3-.56-1.22,1-2.45,0-3.67,0Z"/><path class="cls-2" d="M403.66,631.5H406c.1.42,0,1.11.73.89s.43-.93.47-1.47c.21-2.41.64-2.85,2.77-2.24a12,12,0,0,0,3.76.36c1,.25,1.49-1,2.65-.67s.93-.89,1.05-1.6l.61,0a1.19,1.19,0,0,0,1.15-.62c.85-.1,1.36-.67,1.08-1.4-.53-1.39.19-2.67.12-4,1.66,0,3.22-1,4.94-.52-2.46.74-3.37,2.86-4,4.95-1.36,4.36-3.88,5.67-8.09,4.94-1.86-.33-3.88-.43-4.46,2.19a1.44,1.44,0,0,1-1.39,1c-3.36.25-6.76.72-9.77-1.38-.3-.2-.44-.62-.65-.95,1.22,0,2.45,1,3.67,0C401.69,630.94,402.57,631.76,403.66,631.5Z"/><path class="cls-2" d="M281.45,639.72a18.66,18.66,0,0,1,6.06,1.24c2.86,1.11,6,1.36,9,1.79a29.3,29.3,0,0,1,5.73,1.1c-.12.15-.27.44-.37.42-2.2-.34-4.45-.38-6.63-.67a100.92,100.92,0,0,1-10.33-2.4c-1.16-.28-2.28-.59-3.35.44-.34.33-1.14.28-1.72.25a121,121,0,0,1-19.15-2.51,3.05,3.05,0,0,1-2.29-1.18c4,1.14,8.08,1.08,12.11,1.72a3.1,3.1,0,0,0,.8.35c2.4.28,4.81.45,7.19.82A3.06,3.06,0,0,0,281.45,639.72Z"/><path class="cls-2" d="M113.18,570.45a3.62,3.62,0,0,1,1.16.17c9.5,4.81,19.8,7.19,30,9.87.58.16,1.2.14,1.46.82a10.71,10.71,0,0,1-3.8-.66c-8.49-2.16-17-4.39-25-8C115.65,572.09,114.13,571.72,113.18,570.45Z"/><path class="cls-2" d="M153,477.77c-.58,1.22-1.71.78-2.63.78-5.84.06-11.69.12-17.54.06a59.24,59.24,0,0,0-7.66.49,5.31,5.31,0,0,1,3.87-1.17Z"/><path class="cls-2" d="M273.64,468.92a4.07,4.07,0,0,1-2.3-.36c-6.48-2.09-13-4.12-19.43-6.25-.86-.29-2.06-.17-2.46-1.36q11.78,3.19,23.24,7.34A1.43,1.43,0,0,1,273.64,468.92Z"/><path class="cls-2" d="M248.27,460.72c-1.09.74-2.1-.07-3.06-.3-4.7-1.15-9.43-2.11-14.21-2.83-.62-.09-1.17-.2-1.33-.92A84.51,84.51,0,0,1,248.27,460.72Z"/><path class="cls-2" d="M331.48,503.82c-1.32-.18-1.84-1.41-2.75-2.13a33.74,33.74,0,0,0-5-3.15c-1.08-.59-2.4-1-2.88-2.35a53,53,0,0,1,8.52,4.83A5.3,5.3,0,0,1,331.48,503.82Z"/><path class="cls-2" d="M194.38,459.82a1.23,1.23,0,0,1-.83.77,96.91,96.91,0,0,0-10.84,4,2.81,2.81,0,0,1-1.74.16A54.74,54.74,0,0,1,194.38,459.82Z"/><path class="cls-2" d="M301.84,484.51a2,2,0,0,1-1.65-.41q-3.79-2.48-7.56-5a1.19,1.19,0,0,1-.57-1A63.59,63.59,0,0,1,301.84,484.51Z"/><path class="cls-2" d="M289.89,476.69c-1,.21-1.69-.4-2.47-.76a58.64,58.64,0,0,0-6.7-3.06,1.64,1.64,0,0,1-1.29-1.08A32.74,32.74,0,0,1,289.89,476.69Z"/><path class="cls-2" d="M354.63,525.89a10.23,10.23,0,0,1-6.08-6.09A50.68,50.68,0,0,1,354.63,525.89Z"/><path class="cls-2" d="M315.72,492.86a16.72,16.72,0,0,1-8.07-4.53A33.86,33.86,0,0,1,315.72,492.86Z"/><path class="cls-2" d="M100.08,537.92c1.23,2.88,2.25,5.8,2,9C101.21,544,100.19,541.05,100.08,537.92Z"/><path class="cls-2" d="M227.87,456.58c-2.12.76-4.24,1.55-6.52.58C223.5,456.64,225.63,456,227.87,456.58Z"/><path class="cls-2" d="M248.3,633.93c1.93.63,4,.87,5.48,2.52C251.94,635.65,249.57,636,248.3,633.93Z"/><path class="cls-2" d="M414.32,583.58a6.45,6.45,0,0,1-4-4.37A20.08,20.08,0,0,1,414.32,583.58Z"/><path class="cls-2" d="M307.24,488.11a6.21,6.21,0,0,1-5-3.38A24.48,24.48,0,0,1,307.24,488.11Z"/><path class="cls-2" d="M434.14,609.32a5.14,5.14,0,0,1,0-4.75A9.55,9.55,0,0,1,434.14,609.32Z"/><path class="cls-2" d="M424.19,592.47c-2.07-.25-3.05-1.71-3.8-3.42C422,589.81,423,591.26,424.19,592.47Z"/><path class="cls-2" d="M111.45,509.58c-.37,2-.87,3.87-2.74,5A18.21,18.21,0,0,1,111.45,509.58Z"/><path class="cls-2" d="M109.28,566.73a5.76,5.76,0,0,1,3.5,3.49A6.92,6.92,0,0,1,109.28,566.73Z"/><path class="cls-2" d="M388.22,558.87c-1.67-.42-3.28-.92-3.79-2.87A12.84,12.84,0,0,1,388.22,558.87Z"/><path class="cls-2" d="M202.17,458.53c-1.27,1.48-2.74.94-4.21.44A7.58,7.58,0,0,1,202.17,458.53Z"/><path class="cls-2" d="M102.4,549.31c1.39,1.41.61,3.06.53,4.64C102.09,552.48,102.32,550.89,102.4,549.31Z"/><path class="cls-2" d="M278.42,471.33c-1.89.14-3.2-.88-4.35-2.21A10,10,0,0,1,278.42,471.33Z"/><path class="cls-2" d="M118.71,483.91a7.64,7.64,0,0,1-1.28,4.94A7.74,7.74,0,0,1,118.71,483.91Z"/><path class="cls-2" d="M162.56,475.12c-1,1.49-2.2,2.54-4.18,1.85Z"/><path class="cls-2" d="M430.6,598.56a4,4,0,0,1-3-2.91A6.48,6.48,0,0,1,430.6,598.56Z"/><path class="cls-2" d="M339,510.92c-1.75-.14-2.61-1.29-3.15-2.8A6.8,6.8,0,0,1,339,510.92Z"/><path class="cls-2" d="M102.61,525.14c-1.17,1.41-2.75,1.48-4.38,1.36C99.52,525.5,101.1,525.44,102.61,525.14Z"/><path class="cls-2" d="M114.82,499.75c.33,1.35.67,2.7-.15,4A5.12,5.12,0,0,1,114.82,499.75Z"/><path class="cls-2" d="M98.85,533.12a3.8,3.8,0,0,1,.84,3.62A5.9,5.9,0,0,1,98.85,533.12Z"/><path class="cls-2" d="M417.51,586.51a2.55,2.55,0,0,1-2.5-2.25A4.5,4.5,0,0,1,417.51,586.51Z"/><path class="cls-2" d="M303.62,643.67a2.66,2.66,0,0,1,2.76.1A2.24,2.24,0,0,1,303.62,643.67Z"/><path class="cls-2" d="M359.11,530.23a2.78,2.78,0,0,1-2.29-2.26A4.26,4.26,0,0,1,359.11,530.23Z"/><path class="cls-2" d="M217.16,457.93c-.61,1.19-1.45,1.12-2.4.43A3.71,3.71,0,0,1,217.16,457.93Z"/><path class="cls-2" d="M320.39,495.93c-1.12-.09-2.21-.23-2.55-1.57A5.52,5.52,0,0,1,320.39,495.93Z"/><path class="cls-2" d="M157.18,477.08c-.57,1.24-1.42,1.16-2.39.51A3.85,3.85,0,0,1,157.18,477.08Z"/><path class="cls-2" d="M409,577.58a1.68,1.68,0,0,1-1.69-1.92A3.91,3.91,0,0,1,409,577.58Z"/><path class="cls-2" d="M333.56,506.14a1.6,1.6,0,0,1-1.81-1.92Z"/><path class="cls-2" d="M114.45,505.39a1.63,1.63,0,0,1-1.56,2A3.92,3.92,0,0,1,114.45,505.39Z"/><path class="cls-2" d="M406,574a1.71,1.71,0,0,1-1.71-1.9A3,3,0,0,1,406,574Z"/><path class="cls-2" d="M220.17,457.44c-.48.89-1.09,1-1.82.3A2.42,2.42,0,0,1,220.17,457.44Z"/><path class="cls-2" d="M106.7,518.67c.11.87.16,1.72-1,1.94A2.78,2.78,0,0,1,106.7,518.67Z"/><path class="cls-2" d="M244,631c1-.16,1.65.12,1.87,1.16A3,3,0,0,1,244,631Z"/><path class="cls-2" d="M180,465.08c-.31,1.08-1.13,1-2,.86A2.36,2.36,0,0,1,180,465.08Z"/><path class="cls-2" d="M196.77,459.13c-.23.71-.55,1.1-1.22.38A1.27,1.27,0,0,1,196.77,459.13Z"/><path class="cls-2" d="M98.15,530.72c.66.26,1,.6.33,1.22A1.36,1.36,0,0,1,98.15,530.72Z"/><path class="cls-2" d="M383.81,555.38c-.84,0-1.17-.52-1.11-1.32A1.63,1.63,0,0,1,383.81,555.38Z"/><path class="cls-2" d="M103.52,556.51a1.08,1.08,0,0,1,.63,1.6A1.89,1.89,0,0,1,103.52,556.51Z"/><path class="cls-2" d="M390,560.09c-.76.1-1.27-.15-1.36-1A1.64,1.64,0,0,1,390,560.09Z"/><path class="cls-2" d="M391.71,561.33c-.73.07-1.21-.2-1.3-1A1.48,1.48,0,0,1,391.71,561.33Z"/><path class="cls-2" d="M394.73,563.72c-.75.07-1.24-.2-1.32-1A1.8,1.8,0,0,1,394.73,563.72Z"/><path class="cls-2" d="M107.58,564.32c.77.11,1,.59.94,1.31A1.45,1.45,0,0,1,107.58,564.32Z"/><path class="cls-2" d="M342,513.34c-.79.1-1.26-.21-1.33-1A2,2,0,0,1,342,513.34Z"/><path class="cls-2" d="M124.2,479.52c-.18.75-.69.93-1.38.81A1.43,1.43,0,0,1,124.2,479.52Z"/><path class="cls-2" d="M291.63,477.92c-.8.11-1.29-.18-1.37-1A1.52,1.52,0,0,1,291.63,477.92Z"/><path class="cls-2" d="M117.09,490c.68.51.36.88-.17,1.22A1.08,1.08,0,0,1,117.09,490Z"/><path class="cls-2" d="M97.52,528.32c.7.25,1.06.58.34,1.23A1.18,1.18,0,0,1,97.52,528.32Z"/><path class="cls-2" d="M122.38,480.58c-.1.82-.63,1-1.37.94A1.64,1.64,0,0,1,122.38,480.58Z"/><path class="cls-2" d="M246.35,632.64c.54-.07.79.19.84.7C246.63,633.45,246.15,633.45,246.35,632.64Z"/><path class="cls-2" d="M164.35,473.89c-.09.86-.6,1.14-1.41,1A1.82,1.82,0,0,1,164.35,473.89Z"/><path class="cls-2" d="M169.16,470.37c-.11.82-.62,1.06-1.37,1A1.59,1.59,0,0,1,169.16,470.37Z"/><path class="cls-2" d="M317.41,494.12c-.78.11-1.28-.17-1.36-1A1.72,1.72,0,0,1,317.41,494.12Z"/><path class="cls-2" d="M312.4,644.29c.28-.77.65-1.06,1.25-.26A1.58,1.58,0,0,1,312.4,644.29Z"/><path class="cls-2" d="M433.16,612a1.1,1.1,0,0,1,.61-1.52A1.41,1.41,0,0,1,433.16,612Z"/><path class="cls-2" d="M281.45,639.72a3.06,3.06,0,0,1-3,1.37c-2.38-.37-4.79-.54-7.19-.82a3.1,3.1,0,0,1-.8-.35c.09-.39.17-.94.56-1a28.46,28.46,0,0,1,4.7-.13c1.55.14,3,.81,4.63.07C280.86,638.66,281.2,639.29,281.45,639.72Z"/><path class="cls-2" d="M417.47,626.78c-.12.71,0,1.92-1.05,1.6s-1.67.92-2.65.67c.13-.75.06-1.58,1.16-1.72C415.79,627.22,416.62,627,417.47,626.78Z"/><path class="cls-2" d="M403.66,631.5c-1.09.26-2-.56-3-.56C402,629.52,402,629.52,403.66,631.5Z"/><path class="cls-2" d="M407.24,630.93c0,.54.19,1.26-.47,1.47s-.63-.47-.73-.89C406.29,631,406.76,631,407.24,630.93Z"/><path class="cls-2" d="M419.23,626.14a1.19,1.19,0,0,1-1.15.62C418.14,626,418.26,625.26,419.23,626.14Z"/></g></g></svg>