<svg xmlns="http://www.w3.org/2000/svg" viewBox="0 0 136.2 105.3"><defs><style>.cls-1,.cls-2{fill:none;}.cls-2{stroke:#ca2e55;stroke-miterlimit:10;}</style></defs><g id="Layer_2" data-name="Layer 2"><g id="Layer_1-2" data-name="Layer 1"><path class="cls-1" d="M68.1,105.27q-33.43,0-66.87,0c-1,0-1.23-.2-1.23-1.22Q0,52.65,0,1.22C0,.2.2,0,1.23,0Q68.1,0,135,0c1,0,1.23.2,1.23,1.22q0,51.44,0,102.86c0,1-.2,1.22-1.23,1.22Q101.54,105.24,68.1,105.27ZM85.9,52.35c-1.43-.21-2.73.44-4.1.65a85.06,85.06,0,0,0-17.52,4.69C57.72,60.23,51.8,64,45.72,67.44c-4.4,2.52-7.78,6.14-11.3,9.63-2.26,2.23-5,4-5.74,7.52-.25,1.28-1.64,2.4.23,3.5.14.08.1.46.13.71a1.2,1.2,0,0,0,.93,1c3.18,1,6.37,1.9,9.55,2.85a1.87,1.87,0,0,0,1.19.35,8.78,8.78,0,0,0,2.41.81,1.24,1.24,0,0,1,.92,1c.55,4,3.63,5.3,6.94,6.3a17.8,17.8,0,0,0,7.65-.39,8.87,8.87,0,0,1,3.55-.21,36.11,36.11,0,0,1,4.94,1c2.65.67,5.13.83,7.64-1,2.09-1.48,4.24-3.19,7-3.32,3.6-.16,6.71-1.87,9.84-3.36,2-1,3.93-2,5.89-3a11.89,11.89,0,0,0,6.06-6.17,9.26,9.26,0,0,0,2.5-8.2,17.6,17.6,0,0,1,0-7.37c1.22-4.6.27-8.77-3.77-11.8-.76-.57-.78-1-.09-1.63,2-1.8,3.93-3.67,6-5.43,5.81-5,11.3-10.35,16.89-15.59a5.47,5.47,0,0,0,1.44-4.83c-.17-1.87-1.63-2.71-3.49-2.56a6.34,6.34,0,0,0-3.59,1.55q-3.54,2.74-6.83,5.8c-6,5.6-12.31,10.87-18.8,15.91a6.33,6.33,0,0,1-5,1.5A5.83,5.83,0,0,0,85.9,52.35Z"/><path class="cls-2" d="M51,101.19c-3.31-1-6.39-2.26-6.94-6.3a1.24,1.24,0,0,0-.92-1,1.53,1.53,0,0,0-2.41-.81,1.87,1.87,0,0,1-1.19-.35c0-.45-.36-.5-.68-.66A49.3,49.3,0,0,0,32,89.72,2.65,2.65,0,0,1,30.11,87a2.74,2.74,0,0,1,3-1.93,8.56,8.56,0,0,1,3.49,1.18c1.68.89,3.58,1.08,5.37,1.6.5.15,1.66,0,1.32-.61-.74-1.36-.56-3.14-2-4.18a2.29,2.29,0,0,1-.45-3.24c.54-.93,1.48-1.48,2-2.39,1.35-.2,2.4-1.42,3.89-1.2.47-.06,1.1.2,1.19-.6l1.5-.6a2.58,2.58,0,0,1,.31,1.28c0,1,.52,1.43,1.48,1.42a.62.62,0,0,0,.3.59c0,.27-.07.69.24.72.51,0,.29-.44.36-.72l.44-.58c.22-.29.08-.89.66-.84s.35.54.57.79c.7.82.34,1.8.41,2.72-.86.07-.41,1-.93,1.35s-1.23,1.1-.65,1.68,1.11-.34,1.61-.66c1.83-1.16,2-1.15,3.23.53.49.68,1,1.66,1.94,1.15A2.63,2.63,0,0,0,61.09,82c-.06-.9-.42-1.24-1.28-1.23-.54,0-1.21.25-1.58-.19-.85-1-2-1-3.11-1,0-.74,0-1.48,0-2.22,0-.49.13-.88.66-1s1.26.11,1.28-.66-.74-.86-1.22-1.17a1.87,1.87,0,0,0-2.4.26c-2.2,1.72-2.53,1.57-3.11-1.17a1.51,1.51,0,0,1,0-.3,2.78,2.78,0,0,1,2.44-1.17,5.87,5.87,0,0,0,3.54-.92c.45.87.93,1.62,2,.59a.91.91,0,0,1,1.23-.14c.78.65,1,.11,1.49-.42.72-.81,1.88-1.94,2.63-1.65a5.65,5.65,0,0,1,2.81,1.87c.15.22.42.52.13.79s-.53,0-.8-.11-.46-1.18-1.07-.67a2.41,2.41,0,0,0-.61,1.94c0,.93.58,1.39,1.35.93A1,1,0,0,1,67,74.6a1.43,1.43,0,0,0,1.5.46,9.53,9.53,0,0,1,2.92,0,3.59,3.59,0,0,0,2.19-.28A1.39,1.39,0,0,1,74.53,76c-1.55.48-2,1.72-1,3.26a2.1,2.1,0,0,0-1.82.93c-.93,1.08-2.44,2.22-3.8,2-2.05-.39-2.64.95-3.17,2.1s-1.19,1.35-2.25.83c-.32-.15-.7-.56-1.06-.12a1.22,1.22,0,0,0-.23,1.39,20.47,20.47,0,0,1,.57,2.13c.38.93-.38,1.82,0,2.6.76,1.43.2,2.57-.58,3.7-.33.48-.62,1-.29,1.49A4.94,4.94,0,0,1,61.37,99a3.64,3.64,0,0,0-2.49.7,8.31,8.31,0,0,1-3,1C54.23,101,52.46,99.84,51,101.19ZM48.8,85.84h.6c1.33.22,2.24-.17,2.37-1.67a.77.77,0,0,0-.42-.87c-.33-.15-.57.1-.75.33-.31.4-.57.84-1.19.71l-.31-.59c0-.58-.07-1-.82-.62a2.68,2.68,0,0,0-1.57,3c-.86.14-1.43.43-1,1.48a1.39,1.39,0,0,1-.44,1.5,8,8,0,0,0-1,1.8,1.33,1.33,0,0,0,.32,1.84,2.66,2.66,0,0,0,2.57.8.52.52,0,0,0,.39-.69c-.48-1.17.22-1.87.81-2.74a12.1,12.1,0,0,0,1.22-3c.2-.62-.23-.9-.81-1ZM64.33,83a.75.75,0,0,0-.73-.76c-.39,0-.69.09-.72.54a.75.75,0,0,0,.61.88C64,83.78,64.22,83.5,64.33,83ZM47.73,95.5c-.35,0-.44.23-.42.5a1.14,1.14,0,0,0,.94,1.14.39.39,0,0,0,.5-.5A1.89,1.89,0,0,0,47.73,95.5Zm9.38-17.15a.63.63,0,0,0-.67-.53.38.38,0,0,0-.4.47.66.66,0,0,0,.68.62C57,78.91,57.15,78.73,57.11,78.35Z"/><path class="cls-2" d="M51,101.19c1.48-1.35,3.25-.15,4.88-.53a8.31,8.31,0,0,0,3-1,3.64,3.64,0,0,1,2.49-.7c2.7.54,5.32,1.49,8.08,1.8a3.75,3.75,0,0,0,2.39-.11c1-.2,1.26-1.23,1.42-2.08s-.55-.8-1.12-.8h-.3c-.1-.7-.65-.81-1.19-.9a5.88,5.88,0,0,1-2-.89c-1.13-.66-1.16-1.38-.14-2.23a2,2,0,0,0,.68-.94c.82-2.58,2.77-4.07,5.07-5.21h.6c.06.38.13.76.6.3,1.66.57,3.26,1.35,5.08,1.2a.55.55,0,0,0,.61.59H82a1.49,1.49,0,0,0,1.71-1.31c.1-2,1.6-3.15,2.77-4.4.72-.78,1.93-1.78,3.12-.3a.68.68,0,0,0,1.06,0c1.49-1.23,3.58-1.63,4.7-3.38.1-.16.25-.39.4-.41,1.1-.14,1.13-1,1.17-1.77s-.6-1.3-1.32-1.6c-.45-.19-.89-.4-1.34-.6V74.48a.91.91,0,0,0-.59-.9v-.9c.5-.42.23-1,.3-1.49,2-.88,4-.31,5.86.43,1.47.6,1.69.72,2.27-.91.24-.69.21-1.61,1.15-1.91a19.59,19.59,0,0,1-2.71,6.5c-1.84,2.57-3.84,5-5.68,7.57A7.3,7.3,0,0,1,93,85.18a14.85,14.85,0,0,0-3.22,3,6.73,6.73,0,0,0,3.69-2c2.94-2.65,5.81-5.39,8.72-8.08.35-.32.6-.93,1.17-.81s.42.92.67,1.37c.15.28,0,.6,0,.86.29,1.79-.42,3.49-.44,5.24a11.89,11.89,0,0,1-6.06,6.17c-2,1-3.91,2.09-5.89,3-3.13,1.49-6.24,3.2-9.84,3.36-2.81.13-5,1.84-7,3.32-2.51,1.79-5,1.63-7.64,1a36.11,36.11,0,0,0-4.94-1,8.87,8.87,0,0,0-3.55.21A17.8,17.8,0,0,1,51,101.19Zm36.44-9a3.65,3.65,0,0,1-.53.19c-2.23.5-4,1.91-5.94,3-.42.23-1.11.52-.82,1s1,.22,1.48,0a21.61,21.61,0,0,1,7-2.16c.62-.08,1.15-.44.61-1.07A2.52,2.52,0,0,0,87.42,92.15Z"/><path class="cls-2" d="M103.6,84.77c0-1.75.73-3.45.44-5.24,0-.26.12-.58,0-.86-.25-.45,0-1.22-.67-1.37s-.82.49-1.17.81c-2.91,2.69-5.78,5.43-8.72,8.08a6.73,6.73,0,0,1-3.69,2,14.85,14.85,0,0,1,3.22-3,7.3,7.3,0,0,0,1.89-2.31c1.84-2.56,3.84-5,5.68-7.57a19.59,19.59,0,0,0,2.71-6.5v-.6a.64.64,0,0,0,.3-.6c0-.75,0-1.49,0-2.24a11.68,11.68,0,0,0-3.09-7.68,4,4,0,0,0-2.28-1.52c-.71,0-.77,1.22-1.1,1.92l-.13.27c-.29.64-.75.49-1.25.3s-1.21-.27-1.09-1c.18-1,.73-2.31,1.61-2.28,1.75,0,1.88-1,2.29-2.17.14-.39.56-.68.86-1a37.6,37.6,0,0,1,5.05-4.38c2.49-2,5-4.07,7.3-6.28,1.61-1.54,3.54-2.71,5-4.43a7.72,7.72,0,0,1,3-2.69c.24-.11.41-.39.61-.6h0a2.56,2.56,0,0,0,1.8-1.49c.77-.62,1.56-1.21,2.29-1.87a1.38,1.38,0,0,0,.25-1.78c-.33-.56-1-.54-1.6-.43a5.73,5.73,0,0,0-2.74,1.39,14.77,14.77,0,0,0-4.21,3.13c-2,2.36-4.53,4.14-6.81,6.2-3,2.68-6.08,5.22-9.17,7.77-2.21,1.82-4.49,3.55-6.74,5.32h-.3A6.93,6.93,0,0,0,91,53h-.9c-.53-.53-1.2-.2-1.8-.3-.79-.13-1.66.3-2.39-.3a5.83,5.83,0,0,1,2.95-.23,6.33,6.33,0,0,0,5-1.5c6.49-5,12.78-10.31,18.8-15.91q3.3-3,6.83-5.8a6.34,6.34,0,0,1,3.59-1.55c1.86-.15,3.32.69,3.49,2.56a5.47,5.47,0,0,1-1.44,4.83C119.52,40,114,45.35,108.22,50.34c-2,1.76-4,3.63-6,5.43-.69.62-.67,1.06.09,1.63,4,3,5,7.2,3.77,11.8a17.6,17.6,0,0,0,0,7.37A9.26,9.26,0,0,1,103.6,84.77Z"/><path class="cls-2" d="M85.9,52.35c.73.6,1.6.17,2.39.3.6.1,1.27-.23,1.8.3a2.73,2.73,0,0,1-.65.3c-3.17.6-6.41.34-9.6,1.37a33.22,33.22,0,0,1-7.91,1.57c-2.13.14-4.2,1.38-6.27,2.19a33,33,0,0,0-4.91,2.15c-1.17.7-2.61.65-3.63,1.58a13.05,13.05,0,0,1-3.36,1.83A7,7,0,0,0,51.82,65a21.55,21.55,0,0,1-6.56,4.42,4.7,4.7,0,0,0-2.9,3.06c-.27.76-.43,1.14.39,1.48.31.13.7.28.6.73a.69.69,0,0,1-.32.46c-.56.22-.41-.39-.64-.58-.62-.52-1.29-.94-2.13-.47a1,1,0,0,0-.35,1.45,1.68,1.68,0,0,0,1.88.91c1.09-.31,1.06.25,1,1-.53.91-1.47,1.46-2,2.39a2.29,2.29,0,0,0,.45,3.24c1.42,1,1.24,2.82,2,4.18.34.64-.82.76-1.32.61-1.79-.52-3.69-.71-5.37-1.6a8.56,8.56,0,0,0-3.49-1.18,2.74,2.74,0,0,0-3,1.93A2.65,2.65,0,0,0,32,89.72,49.3,49.3,0,0,1,38.84,92c.32.16.67.21.68.66-3.18-1-6.37-1.89-9.55-2.85a1.2,1.2,0,0,1-.93-1c0-.25,0-.63-.13-.71-1.87-1.1-.48-2.22-.23-3.5.71-3.51,3.48-5.29,5.74-7.52,3.52-3.49,6.9-7.11,11.3-9.63,6.08-3.47,12-7.21,18.56-9.75A85.06,85.06,0,0,1,81.8,53C83.17,52.79,84.47,52.14,85.9,52.35Z"/><path class="cls-2" d="M40.71,93.05a1.53,1.53,0,0,1,2.41.81A8.78,8.78,0,0,1,40.71,93.05Z"/><path class="cls-2" d="M42.82,77.47c0-.72.06-1.28-1-1a1.68,1.68,0,0,1-1.88-.91,1,1,0,0,1,.35-1.45c.84-.47,1.51,0,2.13.47.23.19.08.8.64.58a.69.69,0,0,0,.32-.46c.1-.45-.29-.6-.6-.73-.82-.34-.66-.72-.39-1.48a4.7,4.7,0,0,1,2.9-3.06A21.55,21.55,0,0,0,51.82,65a7,7,0,0,1,1.94-1.1,13.05,13.05,0,0,0,3.36-1.83c1-.93,2.46-.88,3.63-1.58a33,33,0,0,1,4.91-2.15c2.07-.81,4.14-2.05,6.27-2.19a33.22,33.22,0,0,0,7.91-1.57c3.19-1,6.43-.77,9.6-1.37a2.73,2.73,0,0,0,.65-.3H91a1.57,1.57,0,0,0,2.09-.9h.3a5.15,5.15,0,0,0,5-2.21,13.18,13.18,0,0,1,1.73-1.6c1.12-1.05,2.75-1.57,3.27-3.23.08-.23.45-.36.68-.54a32.89,32.89,0,0,0,5-4.21,23.39,23.39,0,0,1,3.41-3c1.2-.9,2.56-1.6,3.67-2.56a24,24,0,0,0,2.52-2.86c.56-.66,1.6-1.07,1.58-2.18a5.73,5.73,0,0,1,2.74-1.39c.65-.11,1.27-.13,1.6.43a1.38,1.38,0,0,1-.25,1.78c-.73.66-1.52,1.25-2.29,1.87-.86.19-1.64.47-1.8,1.49h0c-3.18.22-3.75.74-3.59,3.29-1.45,1.72-3.38,2.89-5,4.43-2.33,2.21-4.81,4.24-7.3,6.28a37.6,37.6,0,0,0-5.05,4.38c-.3.34-.72.63-.86,1-.41,1.13-.54,2.21-2.29,2.17-.88,0-1.43,1.29-1.61,2.28-.12.72.58.8,1.09,1s1,.34,1.25-.3l.13-.27c.33-.7.39-2,1.1-1.92a4,4,0,0,1,2.28,1.52,11.68,11.68,0,0,1,3.09,7.68c0,.75,0,1.49,0,2.24-.38.06-.76.12-.3.6v.6c-.94.3-.91,1.22-1.15,1.91-.58,1.63-.8,1.51-2.27.91C98,70.88,96,70.31,94,71.19c0-2.49.83-3,3.24-2.12.14.05.27.13.41.19a.73.73,0,0,0,1-.3c.2-.37,0-.66-.22-.94a2.61,2.61,0,0,0-.9-.48c-2.14-1-4.52-.94-6.76-1.45a8.51,8.51,0,0,0-6.62.84c-.44.26-.92.36-.94,1a1.43,1.43,0,0,0-2-.22,2.07,2.07,0,0,1-1.3.22,4,4,0,0,0-4.11,1c-.79.69-1.69,1.64-2.64.64a5,5,0,0,0-5.52-1.39c-.22-.55-.68-.63-1.19-.6,0-.54,0-1.09,0-1.63-.11-1.39-.51-1.59-1.8-1.12A10.24,10.24,0,0,0,62,66.47c-2,1.5-3.29,3.8-5.75,4.72a5.87,5.87,0,0,1-3.54.92,2.78,2.78,0,0,0-2.44,1.17H50a.56.56,0,0,0-.81-.53c-.44.13-.42.51-.33.83.14.51.36,1,.54,1.49l-1.5.6c-.29-.1-.36-.67-.81-.43s-.38.64-.38,1C45.22,76.05,44.17,77.27,42.82,77.47Zm3.24-4.64c-.06-.38-.34-.45-.65-.42s-.7.16-.68.59.34.57.72.52A.67.67,0,0,0,46.06,72.83Zm1.82-1c0-.27-.09-.52-.42-.45a.53.53,0,0,0-.4.55c0,.29.15.47.45.43S47.87,72,47.88,71.78Z"/><path class="cls-2" d="M82,89.72h-.9a.54.54,0,0,0-.61-.59c-1.82.15-3.42-.63-5.08-1.2a.63.63,0,0,0-.6-.3h-.6c-.49-.53-1.21-.29-1.8-.54-2.07-.87-3.87-.75-5.47,1.17a12.83,12.83,0,0,0-2.59,6c-.12.64.28,1,.81,1.27a35.59,35.59,0,0,0,6.66,2.27h.3c.63,1.33-.07,2-1.25,2.37a3.09,3.09,0,0,0-1.44.62c-2.76-.31-5.38-1.26-8.08-1.8a4.94,4.94,0,0,0-.45-2.75c-.33-.54,0-1,.29-1.49.78-1.13,1.34-2.27.58-3.7-.41-.78.35-1.67,0-2.6a20.47,20.47,0,0,0-.57-2.13,1.22,1.22,0,0,1,.23-1.39c.36-.44.74,0,1.06.12,1.06.52,1.67.46,2.25-.83s1.12-2.49,3.17-2.1c1.36.26,2.87-.88,3.8-2a2.1,2.1,0,0,1,1.82-.93c-1-1.54-.54-2.78,1-3.26.74,1.27,2.35.92,3.3,1.79l.88,0c.66.9,1,.36,1.21-.31l.9-.31a4.36,4.36,0,0,0,3-2.39V73.58a22.56,22.56,0,0,1-.29-4.79c.17-.08.43-.12.5-.25.26-.52.42-1.32,1.15-1.06.55.19,1.38.42,1.53,1,.19.79-.82.69-1.18,1.12a2.34,2.34,0,0,1-.32.31,1.45,1.45,0,0,0-.14,2.32,1.7,1.7,0,0,0,2.5.35,3.52,3.52,0,0,0,1.6-2.1c.18-1.1.82-.93,1.52-.65.38.16.79.7,1.11.1s-.12-1-.67-1.28a3.66,3.66,0,0,1-.77-.44c-.36-.29-.71-.64-.4-1.14s.82-.48,1.32-.27a4.23,4.23,0,0,1,2,3.8c-.11.7-.66,1.58.45,2v.9c-.23,0-.56.06-.47.39.14.55.63.49,1.06.51,0,.49,0,1,0,1.49-.73.64-1.39.21-2-.15-.3-.16-.6-.58-.91-.37-1.11.71-2.24.49-3.43.36a1.91,1.91,0,0,0-1.63.89,7.58,7.58,0,0,1-4.73,2.82c-2.06.44-2.74,1.61-1.94,3.6a12.51,12.51,0,0,0,1.82,3.7A3,3,0,0,1,82,89.72Z"/><path class="cls-2" d="M67.65,68.2a5,5,0,0,1,5.52,1.39c1,1,1.85,0,2.64-.64a4,4,0,0,1,4.11-1c-.64,1.27-2.18,1.65-2.87,2.93-.44.81-.42,1.25.45,1.57V73c-.12.16-.32.3-.34.46-.24,1.9-1.09,2-2.45.9-.4-.31-1-.29-1.08.45a3.59,3.59,0,0,1-2.19.28,9.53,9.53,0,0,0-2.92,0A1.43,1.43,0,0,1,67,74.6a1,1,0,0,0-1.62-.28c-.77.46-1.33,0-1.35-.93a2.41,2.41,0,0,1,.61-1.94c.61-.51.67.48,1.07.67s.53.37.8.11,0-.57-.13-.79a5.65,5.65,0,0,0-2.81-1.87c-.75-.29-1.91.84-2.63,1.65-.47.53-.71,1.07-1.49.42a.91.91,0,0,0-1.23.14c-1,1-1.52.28-2-.59,2.46-.92,3.77-3.22,5.75-4.72a10.24,10.24,0,0,1,2.62-1.62c1.29-.47,1.69-.27,1.8,1.12,0,.54,0,1.09,0,1.63s-.55,1.35.26,1.62C67.27,69.4,67.57,68.77,67.65,68.2Z"/><path class="cls-2" d="M48.8,86.14c.58.06,1,.34.81,1a12.1,12.1,0,0,1-1.22,3c-.59.87-1.29,1.57-.81,2.74a.52.52,0,0,1-.39.69,2.66,2.66,0,0,1-2.57-.8,1.33,1.33,0,0,1-.32-1.84,8,8,0,0,1,1-1.8,1.39,1.39,0,0,0,.44-1.5c-.46-1,.11-1.34,1-1.48C47.41,86.5,48.1,86.16,48.8,86.14Z"/><path class="cls-2" d="M55.12,79.55c1.13,0,2.26,0,3.11,1,.37.44,1,.2,1.58.19.86,0,1.22.33,1.28,1.23a2.63,2.63,0,0,1-1.72,2.53c-1,.51-1.45-.47-1.94-1.15-1.22-1.68-1.4-1.69-3.23-.53-.5.32-1.12,1.16-1.61.66s0-1.28.65-1.68.07-1.28.93-1.35c.13.4-.25,1.16.54,1.09.58-.06.32-.71.37-1.12A8.44,8.44,0,0,0,55.12,79.55Z"/><path class="cls-2" d="M55.12,79.55a8.44,8.44,0,0,1,0,.87c0,.41.21,1.06-.37,1.12-.79.07-.41-.69-.54-1.09-.07-.92.29-1.9-.41-2.72-.22-.25-.12-.76-.57-.79s-.44.55-.66.84l-.44.58h-.6a.62.62,0,0,1-.3-.59c-.5-1.15-1-2.31-1.51-3.44-.24-.51-.48-.9.32-1h.3a1.51,1.51,0,0,0,0,.3c.58,2.74.91,2.89,3.11,1.17a1.87,1.87,0,0,1,2.4-.26c.48.31,1.24.49,1.22,1.17s-.79.53-1.28.66-.67.52-.66,1C55.1,78.07,55.11,78.81,55.12,79.55Z"/><path class="cls-2" d="M73.64,74.78c.12-.74.68-.76,1.08-.45,1.36,1.07,2.21,1,2.45-.9,0-.16.22-.3.34-.46.88.88,1.31,1.86.49,3a1.87,1.87,0,0,0-.17,1.81c-1-.87-2.56-.52-3.3-1.79A1.39,1.39,0,0,0,73.64,74.78Z"/><path class="cls-2" d="M49.41,84.33c.62.13.88-.31,1.19-.71.18-.23.42-.48.75-.33a.77.77,0,0,1,.42.87c-.13,1.5-1,1.89-2.37,1.67C49.46,85.33,49.8,84.84,49.41,84.33Z"/><path class="cls-2" d="M48.8,86.14c-.7,0-1.39.36-2.09,0a2.68,2.68,0,0,1,1.57-3c.75-.42.83,0,.82.62a1.26,1.26,0,0,0-1.47,1.09c-.16.93.91.52,1.17,1Z"/><path class="cls-2" d="M50,73.28c-.8.15-.56.54-.32,1,.54,1.13,1,2.29,1.51,3.44-1,0-1.49-.45-1.48-1.42a2.58,2.58,0,0,0-.31-1.28c-.18-.49-.4-1-.54-1.49-.09-.32-.11-.7.33-.83A.56.56,0,0,1,50,73.28Z"/><path class="cls-2" d="M48.8,85.84c-.26-.49-1.33-.08-1.17-1a1.26,1.26,0,0,1,1.47-1.09l.31.59c.39.51.05,1,0,1.5Z"/><path class="cls-2" d="M64.33,83c-.11.47-.36.75-.84.66a.75.75,0,0,1-.61-.88c0-.45.33-.58.72-.54A.75.75,0,0,1,64.33,83Z"/><path class="cls-2" d="M47.73,95.5a1.89,1.89,0,0,1,1,1.14.39.39,0,0,1-.5.5A1.14,1.14,0,0,1,47.31,96C47.29,95.73,47.38,95.52,47.73,95.5Z"/><path class="cls-2" d="M57.11,78.35c0,.38-.12.56-.39.56a.66.66,0,0,1-.68-.62.38.38,0,0,1,.4-.47A.63.63,0,0,1,57.11,78.35Z"/><path class="cls-2" d="M46.71,76.27c0-.39,0-.82.38-1s.52.33.81.43C47.81,76.47,47.18,76.21,46.71,76.27Z"/><path class="cls-2" d="M51.49,78.36h.6c-.07.28.15.77-.36.72C51.42,79.05,51.52,78.63,51.49,78.36Z"/><path class="cls-2" d="M82,89.72a3,3,0,0,0-.59-2.9,12.51,12.51,0,0,1-1.82-3.7c-.8-2-.12-3.16,1.94-3.6a7.58,7.58,0,0,0,4.73-2.82,1.91,1.91,0,0,1,1.63-.89c1.19.13,2.32.35,3.43-.36.31-.21.61.21.91.37.65.36,1.31.79,2,.15.45.2.89.41,1.34.6.72.3,1.36.74,1.32,1.6s-.07,1.63-1.17,1.77c-.15,0-.3.25-.4.41-1.12,1.75-3.21,2.15-4.7,3.38a.68.68,0,0,1-1.06,0c-1.19-1.48-2.4-.48-3.12.3-1.17,1.25-2.67,2.36-2.77,4.4A1.49,1.49,0,0,1,82,89.72Z"/><path class="cls-2" d="M93.68,72.68c-1.11-.45-.56-1.33-.45-2a4.23,4.23,0,0,0-2-3.8c-.5-.21-1-.26-1.32.27s0,.85.4,1.14a3.66,3.66,0,0,0,.77.44c.55.27,1,.67.67,1.28s-.73.06-1.11-.1c-.7-.28-1.34-.45-1.52.65a3.52,3.52,0,0,1-1.6,2.1,1.7,1.7,0,0,1-2.5-.35A1.45,1.45,0,0,1,85.19,70a2.34,2.34,0,0,0,.32-.31c.36-.43,1.37-.33,1.18-1.12-.15-.63-1-.86-1.53-1-.73-.26-.89.54-1.15,1.06-.07.13-.33.17-.5.25-.35-.21-.29-.56-.3-.89,0-.61.5-.71.94-1a8.51,8.51,0,0,1,6.62-.84c2.24.51,4.62.41,6.76,1.45a2.61,2.61,0,0,1,.9.48c.25.28.42.57.22.94a.73.73,0,0,1-1,.3c-.14-.06-.27-.14-.41-.19-2.41-.9-3.23-.37-3.24,2.12C93.91,71.69,94.18,72.26,93.68,72.68Z"/><path class="cls-2" d="M71.84,97.8a35.59,35.59,0,0,1-6.66-2.27c-.53-.26-.93-.63-.81-1.27a12.83,12.83,0,0,1,2.59-6c1.6-1.92,3.4-2,5.47-1.17.59.25,1.31,0,1.8.54-2.3,1.14-4.25,2.63-5.07,5.21a2,2,0,0,1-.68.94c-1,.85-1,1.57.14,2.23a5.88,5.88,0,0,0,2,.89C71.19,97,71.74,97.1,71.84,97.8Z"/><path class="cls-2" d="M87.42,92.15a2.52,2.52,0,0,1,1.82,1c.54.63,0,1-.61,1.07a21.61,21.61,0,0,0-7,2.16c-.49.24-1.18.54-1.48,0s.4-.8.82-1c1.93-1.09,3.71-2.5,5.94-3A3.65,3.65,0,0,0,87.42,92.15Z"/><path class="cls-2" d="M69.45,100.79a3.09,3.09,0,0,1,1.44-.62c1.18-.4,1.88-1,1.25-2.37.57,0,1.26.07,1.12.8s-.47,1.88-1.42,2.08A3.75,3.75,0,0,1,69.45,100.79Z"/><path class="cls-2" d="M94.28,74.48c-.43,0-.92,0-1.06-.51-.09-.33.24-.34.47-.39A.91.91,0,0,1,94.28,74.48Z"/><path class="cls-2" d="M74.83,87.63a.63.63,0,0,1,.6.3C75,88.39,74.89,88,74.83,87.63Z"/><path class="cls-2" d="M80.51,89.13a.54.54,0,0,1,.61.59A.54.54,0,0,1,80.51,89.13Z"/><path class="cls-2" d="M120.31,29.63c0,1.11-1,1.52-1.58,2.18a24,24,0,0,1-2.52,2.86c-1.11,1-2.47,1.66-3.67,2.56a23.39,23.39,0,0,0-3.41,3,32.89,32.89,0,0,1-5,4.21c-.23.18-.6.31-.68.54-.52,1.66-2.15,2.18-3.27,3.23a13.18,13.18,0,0,0-1.73,1.6,5.15,5.15,0,0,1-5,2.21c2.25-1.77,4.53-3.5,6.74-5.32,3.09-2.55,6.19-5.09,9.17-7.77,2.28-2.06,4.83-3.84,6.81-6.2A14.77,14.77,0,0,1,120.31,29.63Z"/><path class="cls-2" d="M116.72,37.1c-.16-2.55.41-3.07,3.59-3.29-.2.21-.37.49-.61.6A7.72,7.72,0,0,0,116.72,37.1Z"/><path class="cls-2" d="M120.31,33.81c.16-1,.94-1.3,1.8-1.49A2.56,2.56,0,0,1,120.31,33.81Z"/><path class="cls-2" d="M93.08,52.05A1.57,1.57,0,0,1,91,53,6.93,6.93,0,0,1,93.08,52.05Z"/><path class="cls-2" d="M103.26,68.2c-.46-.48-.08-.54.3-.6A.64.64,0,0,1,103.26,68.2Z"/><path class="cls-2" d="M83.21,67.9c0,.33,0,.68.3.89a22.56,22.56,0,0,0,.29,4.79c-.86-.14-1.41-.43-1-1.47.18-.43-1.57-3.24-2-3.42-.16-.07-.45-.1-.54,0-1.1,1.11-2.94,1.67-2.76,3.72-.87-.32-.89-.76-.45-1.57.69-1.28,2.23-1.66,2.87-2.93a2.07,2.07,0,0,0,1.3-.22A1.43,1.43,0,0,1,83.21,67.9Z"/><path class="cls-2" d="M67.65,68.2c-.08.57-.38,1.2-.93,1-.81-.27-.35-1-.26-1.62C67,67.57,67.43,67.65,67.65,68.2Z"/><path class="cls-2" d="M46.06,72.83a.67.67,0,0,1-.61.69c-.38,0-.7-.11-.72-.52s.32-.56.68-.59S46,72.45,46.06,72.83Z"/><path class="cls-2" d="M47.88,71.78c0,.25-.07.5-.37.53s-.46-.14-.45-.43a.53.53,0,0,1,.4-.55C47.79,71.26,47.86,71.51,47.88,71.78Z"/><path class="cls-2" d="M77.5,72.4c-.18-2.05,1.66-2.61,2.76-3.72.09-.09.38-.06.54,0,.47.18,2.22,3,2,3.42-.45,1,.1,1.33,1,1.47v1.19c-1,.74-2.51.94-3,2.39l-.9.31a1.93,1.93,0,0,0-1.21.31l-.88,0A1.87,1.87,0,0,1,78,76c.82-1.12.39-2.1-.49-3C77.51,72.78,77.51,72.59,77.5,72.4Z"/><path class="cls-2" d="M80.82,77.16c.47-1.45,1.94-1.65,3-2.39A4.36,4.36,0,0,1,80.82,77.16Z"/><path class="cls-2" d="M78.71,77.78a1.93,1.93,0,0,1,1.21-.31C79.66,78.14,79.37,78.68,78.71,77.78Z"/><path class="cls-2" d="M60.24,81.33c-.77.17-1.34-.1-1.38-.91-.09-1.69-.6-3.36-.29-5,.5-2.67.15-5.37.09-8-.08-2.83-.12-5.66-.15-8.49,0-2.14.29-2.54,2.3-3.28a4.84,4.84,0,0,0,3.49-3.71A20.09,20.09,0,0,0,64.39,45a1.91,1.91,0,0,0-1-1.39c-2-1.23-2.14-1.65-.86-3.63a8.18,8.18,0,0,0,1.73-4.53c0-1.45-.75-2.74-1-4.13,1.15,2.84,2.34,5.67,2.37,8.82q.15,16.27.31,32.56c0,3.07-.47,6.14,0,9.22-.48.51-.36,1.22-.5,1.82a5.61,5.61,0,0,1-.9,2.76,9.78,9.78,0,0,1-6.08,3c.46-.19,1-.29,1.41-.46,3.44-1.31,5.26-4,5-7.31-.11-1.36-.68-1.77-2-1.38C61.92,80.7,61.12,81.13,60.24,81.33Z"/><path class="cls-2" d="M58.7,6.62c0,4.18,0,8.37,1,12.44.92,3.55,2,7.05,3.06,10.58a5.11,5.11,0,0,1,.15.87,3,3,0,0,0-1.85-1.57,11.71,11.71,0,0,0-3.8-.69c-1.13-.08-1.68-.58-1.53-1.84a29.35,29.35,0,0,0,0-5.22c-.07-1.09,0-1.69,1.4-1.46,1.55.25,2.28-.59,2-2.09a36.4,36.4,0,0,1-.58-9.19,5.69,5.69,0,0,0-.23-2.14s0,0,0-.07a1.23,1.23,0,0,0-.16-.43,8.33,8.33,0,0,0-1.59-2.44C58.24,3.94,58.69,4.65,58.7,6.62Z"/><path class="cls-1" d="M1.17,0Q68.08.05,135,0c1.11,0,1.18.34,1.18,1.27q0,51.42,0,102.82c0,1-.23,1.22-1.23,1.21q-33.42,0-66.85,0t-66.85,0c-1,0-1.27-.09-1.27-1.19q.06-51.48,0-103C0,.19.25,0,1.17,0ZM46.52,91.2c5.85.86,11.33-.5,16.64-2.81a3.74,3.74,0,0,0,2.35-2.89c.2-1.17.23-2.36.33-3.54-.43-3.08.06-6.15,0-9.22q-.13-16.27-.31-32.56c0-3.15-1.22-6-2.37-8.82a1,1,0,0,0-.28-.85,5.11,5.11,0,0,0-.15-.87c-1-3.53-2.14-7-3.06-10.58-1.05-4.07-1-8.26-1-12.44,0-2-.46-2.68-2.11-3.25-1.55-.75-3-.13-4.49.26s-2.72,1-2.63,2.68-1.15,3.56.2,5.28c.16.2,0,.68-.06,1a88.61,88.61,0,0,1-4.65,19,35.83,35.83,0,0,0-2.19,13.14A12.74,12.74,0,0,0,42.53,48c-.15,7,.21,14-.06,21.05-.22,5.76-.26,11.54-.21,17.31,0,1.31,0,3,1.72,3.64a.3.3,0,0,0,.1.07A4.88,4.88,0,0,0,46.52,91.2Z"/><path class="cls-1" d="M63.22,88c-1.48,1-3.27,1.31-4.93,1.94a.65.65,0,0,1-.56-.06,3.38,3.38,0,0,1,.62-.33h0a9.78,9.78,0,0,0,6.08-3,5.61,5.61,0,0,0,.9-2.76c.14-.6,0-1.31.5-1.82a12.14,12.14,0,0,0-.39,2.45A4.51,4.51,0,0,1,63.22,88Z"/><path class="cls-1" d="M58.34,6.24c-.05-.15-.1-.29-.16-.43A1.23,1.23,0,0,1,58.34,6.24Z"/><path class="cls-1" d="M58.35,89.59a3.38,3.38,0,0,0-.62.33,1.1,1.1,0,0,1-.25-.19Z"/><path class="cls-1" d="M56.59,3.37a8.33,8.33,0,0,1,1.59,2.44,1.09,1.09,0,0,0-.94-.45.56.56,0,0,1-.48-.87A1.15,1.15,0,0,0,56.59,3.37Z"/><path class="cls-1" d="M57.58,90A23.89,23.89,0,0,1,46.63,91a10.9,10.9,0,0,1-2.34-.86h0a.27.27,0,0,0,.1-.11c4.4,1.61,8.77,1.14,13.11-.25a1.1,1.1,0,0,0,.25.19Z"/><path class="cls-1" d="M44.29,90.1a10.9,10.9,0,0,0,2.34.86A23.89,23.89,0,0,0,57.58,90l.15-.12a.65.65,0,0,0,.56.06c1.66-.63,3.45-.91,4.93-1.94a4.51,4.51,0,0,0,2.23-3.63A12.14,12.14,0,0,1,65.84,82c-.1,1.18-.13,2.37-.33,3.54a3.74,3.74,0,0,1-2.35,2.89c-5.31,2.31-10.79,3.67-16.64,2.81a4.88,4.88,0,0,1-2.44-1.09.16.16,0,0,0,.19,0Z"/><path class="cls-2" d="M43,81.47c.52-.83,0-2.2,1.3-2.67.28.43.07.85.19,1.22a2.21,2.21,0,0,0,2,1.54,1.16,1.16,0,0,0,1.38-.88,11.36,11.36,0,0,0-.38-5.15c-.3-1.2-1.63-1.35-2.66-1.66a2,2,0,0,1-1.56-2.21c0-.5,0-1,0-1.49.57-5.11.16-10.24.28-15.36a4.62,4.62,0,0,0-.16-1.58c1.12,1.05,2.61,1,4.09,1.06,2,0,2.25.31,2.39,2.34.11,1.8-.24,3.56-.27,5.35-.07,5.9.22,11.81-.32,17.71-.2,2.25-.79,2.72-3.06,2.37a9.37,9.37,0,0,1-1.55-.51A2,2,0,0,0,43,81.47Z"/><path class="cls-1" d="M44.37,90a.27.27,0,0,1-.1.11.61.61,0,0,1-.14-.07Z"/><path class="cls-1" d="M44,90l.15,0a.61.61,0,0,0,.14.07.16.16,0,0,1-.19,0A.3.3,0,0,1,44,90Z"/><path class="cls-2" d="M43,87.88a58.51,58.51,0,0,1-.13-6.21,2.75,2.75,0,0,1,1.74.27,5.49,5.49,0,0,0,3.46.61c1,0,1.67-.53,1.65-1.54,0-1.79.38-3.53.35-5.33-.05-3.81.22-7.62,0-11.41-.12-2.64.32-5.22.23-7.84-.07-2.36-.25-2.62-2.55-2.56a6.52,6.52,0,0,1-4.63-1.21c.2-1.91-.34-3.78-.27-5.68a1.14,1.14,0,0,0,.26-1c-.18-5.24,1.2-10.22,2.69-15.13,1.34-4.42,2.84-8.78,3.49-13.37.36-2.58,1.31-5.18.15-7.81a1.41,1.41,0,0,1,.15-1A3.56,3.56,0,0,0,50,6.53a1.85,1.85,0,0,1,1.09-2.06c.38-.21.84-.36,1-.84,1.48-.39,2.94-1,4.49-.26a1.15,1.15,0,0,1,.17,1.12.56.56,0,0,0,.48.87,1.09,1.09,0,0,1,.94.45c.06.14.11.28.16.43s0,0,0,.07a6,6,0,0,1,0,.75,52.54,52.54,0,0,0,.44,10c.41,2.2-.2,2.82-2.32,2.11-1-.32-1.42.17-1.32,1a25.58,25.58,0,0,1,0,7.1A1,1,0,0,0,56,28.43a8.27,8.27,0,0,0,2,.32,7.35,7.35,0,0,1,4.92,1.76,1,1,0,0,1,.28.85c0,.3.06.59.08.88.09,1.12.74,2.06.62,3.3a10.88,10.88,0,0,1-2.1,4.84c-1,1.56-.57,3,1.21,3.56a1.25,1.25,0,0,1,1,1.38c0,1.28.25,2.52.21,3.81-.11,3.48-1.08,5.24-3.61,6.12s-2.59,1.06-2.56,3.62c0,4.38.06,8.77.18,13.16.08,2.75-.41,5.51.08,8.28.25,1.42.64,1.85,2,1.41.8-.26,1.58-.59,2.37-.88,1.35-.5,1.58-.35,1.62,1.06q.13,5.49-5.5,7.13c-.51.15-1.14,0-1.39.7-4.34,1.39-8.71,1.86-13.11.25A2.52,2.52,0,0,1,43,87.88Z"/><path class="cls-1" d="M43.13,52.66a2.12,2.12,0,0,1,.27.57c-.09-.09-.19-.19-.28-.3S43.13,52.75,43.13,52.66Z"/><path class="cls-1" d="M42.93,45.25A4.4,4.4,0,0,1,42.86,47l0-.81C42.86,45.86,42.89,45.55,42.93,45.25Z"/><path class="cls-1" d="M42.93,45.25c0,.3-.07.61-.1.92l-.06-1.39A2,2,0,0,1,42.93,45.25Z"/><path class="cls-1" d="M43,81.47a1,1,0,0,1-.15.2v-.1Z"/><path class="cls-1" d="M42.83,81.67A58.51,58.51,0,0,0,43,87.88,2.52,2.52,0,0,0,44.37,90l-.24,0a2.45,2.45,0,0,1-1.35-1.93,20.46,20.46,0,0,1-.07-6.44l.12-.08Z"/><path class="cls-1" d="M42.86,47c-.07,1.9.47,3.77.27,5.68,0,.09,0,.18,0,.27-.06-.08-.13-.16-.19-.25-.12-1.84-.22-3.68-.25-5.52.06-.33.1-.66.15-1Z"/><path class="cls-2" d="M43.34,78.65a5.09,5.09,0,0,0-.51,2.92l-.12.08a20.46,20.46,0,0,0,.07,6.44A2.45,2.45,0,0,0,44.13,90L44,90c-1.68-.68-1.7-2.33-1.72-3.64,0-5.77,0-11.55.21-17.31.27-7-.09-14,.06-21.05a12.74,12.74,0,0,1,.24-3.26l.06,1.39c0,.33-.09.66-.15,1,0,1.84.13,3.68.25,5.52.06.09.13.17.19.25-.15,5.67.12,11.35-.22,17-.27,4.25-.78,3.43,3.14,4.75.61.21,1.16.45,1.24,1.13.15,1.38.22,2.76.33,4.15,0,.52,0,1.05-.62,1.2a1.9,1.9,0,0,1-1.75-.57c-.37-.33-.79-.67-.3-1.24s.36-1-.25-1.21A1,1,0,0,0,43.34,78.65Z"/></g></g></svg>