<svg xmlns="http://www.w3.org/2000/svg" viewBox="0 0 705 417"><defs><style>.cls-1,.cls-2{fill:none;}.cls-2{stroke:#ca2e55;stroke-miterlimit:10;}</style></defs><g id="Layer_2" data-name="Layer 2"><g id="Layer_1-2" data-name="Layer 1"><path class="cls-1" d="M352.76.08Q526.51.08,700.26,0c3.54,0,4.66.41,4.66,4.24q-.21,204.38,0,408.76c0,3.56-.95,4-4.38,4q-348-.13-696,0c-3.41,0-4.39-.41-4.39-4Q.29,208.64.08,4.25C.08.45,1.15,0,4.73,0Q178.74.15,352.76.08ZM147.68,249.82c.45,1.55,1.82,1.74,3.18,2,.4,1.61,1.8,1.76,3.16,2,1.15,2.17,3.07,2.9,5.5,2.68h0c0,1.53.73,2.15,2.33,1.69a3.05,3.05,0,0,0,.78.35c3.09,4.39,7,7.73,12.59,9h0c.12,2,1.51,2.17,3.14,2h0c.11,2,1.54,2.13,3.15,2h0c.18,2,1.62,2.1,3.23,1.92l2,1.05c0,1.18.84,1.67,1.73,2.24,4.88,3.11,9.69,6.31,14.59,9.39,8.75,5.52,18.26,9.78,27.48,14.51,7.71,9.12,19.35,11.85,29.8,16.51,2.18-.06,3,2.1,4.74,2.68,8.08,7.32,18.58,9,28.88,11.16l5.84,2.55c.2,1.72,1.6,1.9,3,2.1a2.87,2.87,0,0,0,3.41,1.8l2.18-.09a.54.54,0,0,0,.6.35c.13.58.25,1.16.37,1.74.18,1.95,1.6,2.07,3.18,2l1.94,1.14c.35,1.78,1.69,2,3.26,1.89l2,1.11c.45,1.47,1.26,2.18,2.85,1.21a3.53,3.53,0,0,0,2.77,1.22c-.09,1.5.67,1.77,2,1.26a.58.58,0,0,0,.67.33c.61,1.77.78,4,3.84,3l1.45.9.22,1.89c.07,1.91,1.46,2.12,3,2.11l1.14.92a14.51,14.51,0,0,0,6.22,6.95l1.11,1.95c0,1.56-.15,3.2,2.38,2.79a2.77,2.77,0,0,0,.91.1c-.54,1.61.08,2.37,1.84,2.3,1.74,2,3,4.44,5.66,5.57-.6,1.67,1.32,2.12,1.77,3.29,3,3.82,7.09,4.72,11.77,4.11l2.28-.7a1,1,0,0,0-.3.49c0,1.62.54,2.31,2.18,1.18,1.14,0,2.38.37,3.34-.61a.93.93,0,0,0-.34.53c2,3.11,4.72,2.12,7.44,1.22l4.86.2c3.46,2.26,6.91,2.43,10.34-.05l2.78-.13c4.59.57,8.36-1.05,11.66-3.94l2.91-.59c4,0,7.37-1.35,9.71-4.6a5.2,5.2,0,0,0,.8-.34c3-.22,4.4-1.78,4.46-4.56l.22-.13c1.31-.34,2.18-.88,1.12-2.28l-.57-2a.67.67,0,0,0,.48.25c2.34-.61,2.67-2.54,2.69-4.3.05-6.28,1.3-12.43,2.25-18.6,1.67-10.74,6.07-19.05,17.21-21,1.69-.29,3.55-.21,5.08-.85,9.25-3.82,18.51-3.11,27.17,1s16.64,5.75,25.77,1.7c4-1.78,6.44-4.85,9.61-7.33a161.93,161.93,0,0,0,23.15-22.16c3.71-4.36,7.22-8.95,11.47-12.79,13.56-12.3,30.63-18.32,48.11-23.5,8.17-2.42,16.38-1.86,24.78-1.14,19.27,1.64,36.14-6.55,53.38-12.86,6.16-2.26,11.89-13.5,8.88-19.91-1.05-2.22-2.1-4.93-.84-7.25,5.87-10.84,2-21.77.5-32.65-.32-2.23-1.39-4.75-3.53-6-7.79-4.34-15.53-9.08-24.76-10-19.09-1.87-37.23-6.44-53.91-15.72a40.69,40.69,0,0,0-9.48-4.13,334.91,334.91,0,0,1-37.48-12.4c-10.65-4.13-21.14-8.6-32.46-10.91-1.61-.33-3.24-1.58-4.74.23l-5.36-1.52c-.11-1-.31-2.14-1.61-2.18-6.52-.2-13-2.45-19.55-.62-.8-.2-1.69-.57-1.78.75l-4-1.69c.15-1.6-.74-2.33-2.27-2.83a200.84,200.84,0,0,1-43.06-20c-4.35-2.69-9.24-5.65-14.93-6L424.58,90c-.25-1.79-1.26-2.46-3.1-1.87L419.4,87c-2.61-4.21-6.69-6.06-11.62-6.55-1.63-.57-2.88-2.1-4.88-1.71a.56.56,0,0,0-.58-.35,1.85,1.85,0,0,0-2.55-1.66.57.57,0,0,0-.57-.36c-.46-2.55-3.2-3-4.7-4.54-.08-2-1.49-2.17-3.11-2.07l-1.16-.85c.15-2-1.63-2.53-3-2.94-10.16-3.1-20.37-6.06-30.56-9.06a8.15,8.15,0,0,0-.83-.29c-.1-1.17-1-1.66-2-2.1-13.17-6.07-26.25-12.32-40.53-15.87-7.2-1.79-13.37-.7-18.56,4.69-6.63,6.89-15.24,10.82-24,14.62-10,4.3-20.69,6.91-30.16,12.38s-19,5.77-28.77.53A15.25,15.25,0,0,0,202.26,69C192.43,70.68,189,74.93,192,82.27c1.25,3,3.55,5.25,5.75,7.62,3.93,4.24,3.55,8.13-.24,12.28-5.91,6.49-14.33,9.32-21.82,13.21-6.52,3.39-13.58,5.83-19.16,10.73-4.42,3.89-9.15,5.47-15.26,3.64-6-1.79-12.2-3.32-18.46-2.81-19.09,1.57-36.14,9.52-53.28,16.74-6.38,2.69-10.22,7.51-5.22,15.91,2.39,4,3,8.42,2.86,12.95-2.13,5.47-8.08,5.72-12.38,8.23-1.69-.32-3.24-.44-3.11,1.91l0,0c-3.19-.44-4.9.91-5.23,3.92a33.64,33.64,0,0,0-3.86,4.62c-5.28,8.48-2.6,14,7.71,15.5.34,1.39,1.44,1.76,2.74,1.73,14.25-.4,28,2.68,41.65,5.83q12.46,9.12,24.95,18.22c.87,2.1,2.8,2.23,4.76,2.32a3.8,3.8,0,0,0,.53.61c0,2.1,1.5,2.17,3.13,2h0c0,2.07,1.5,2.15,3.11,2.06l1.11.89c0,1.55.69,2.21,2.34,1.66l2.83,1.4c1.14,3.22,4.35,3.36,7,4.26C145,249.29,146.3,249.57,147.68,249.82Z"/><path class="cls-2" d="M49.39,206.76c-10.13-1.5-12.76-7-7.57-15.5a34.65,34.65,0,0,1,3.79-4.62c2.66-.14,3.91-2,5.13-3.92l0,0a2.73,2.73,0,0,0,3.05-1.91c4.22-2.51,10.07-2.76,12.16-8.23,2.24-.58,2-2.35,2.12-4,.19-3.46-1.17-6.51-2.79-9.44-4.1-7.43-1.63-11,6.63-13.48,8.44-2.56,16.29-6.51,24.59-9.34,12.19-4.16,24.58-6.69,37.61-3.11,6.89,1.9,14,3.29,20.59-1.48a99.35,99.35,0,0,1,19.19-10.89c8-3.43,14.12-9.21,20.66-14.45s7.13-10.49,2.33-17.39c-1.53-2.19-3.29-4.23-4.83-6.41a7,7,0,0,1-.95-7.1c1.15-2.57,3.65-2.67,6.14-2.6,2.9.08,5.75-.09,8.49,1.37,11,5.88,21.47,4.88,32.14-1.48,6.15-3.68,13.1-6.15,20-8.46,11.26-3.76,22.18-8.08,31.23-16.13,3.69-3.28,7.2-7.71,13.5-7,9.59,1,18.81,3,27,8.28,2.91,1.89,7.12,1.15,9.49,4.24-2.48.92-5.51-2.71-7.66.88a7.88,7.88,0,0,0-4.85,2.43c-2-.08-2.94,1-3.36,2.76L320.5,62c-2.05,0-3.06,1-3.11,3h0c-3.11,1.19-6.22,2.38-7.24,5.95l-1,1C305.67,71.46,304,74.3,302,76c-3.72,3.37-9.15,4.91-11.39,9.84a8.07,8.07,0,0,1-4.2,3.21c-.45-.84-1.34-1.39-2-.79-4,3.43-8.67,5.38-13.62,7A2.14,2.14,0,0,0,269.26,98l-1.12.37c-1.43-.63-2.08.09-2.42,1.32l-13,4.72c-1.6-.62-2.93-.67-3.25,1.43l-4.17,1a6.84,6.84,0,0,0-7.21-.06l-7.21.06c-5.2.49-9.47-1-12.39-5.42-1-1.46-2.94-2.94-1.3-4.78,1.43-1.6,2.45-4.26,5.6-3.47,1.27.32,2.84,1.09,3.52-.68.49-1.28-.88-2-1.6-2.88-1.61-2-3.63-2.57-6.22-2.81-4.29-.4-8.38,2.13-12.7.49-1.23-.47-1.7.8-2.31,1.56-2.6,3.25-2.08,7.71,1.61,9.79,1.8,1,3.07,3.18,2.56,3.77-3.32,3.84-2.09,10-7.31,12.85-4.47,2.44-4.52,4.28-.49,7.33,2.41,1.82,2.89,3.24,1.89,6.56-1.86,6.2-6.89,5.73-11.25,6.39a56.82,56.82,0,0,0-9.46,1.9,2.07,2.07,0,0,0-1.33,3.21c1,1.59,2.39,1,3.3-.21,1.44-2,4.46-3.42,5.59-2.31,4.68,4.62,10.58,2.24,15.81,3.31,2.24.46,4.56.39,5.63,2.67,1.38,2.93-3,2.25-3.1,4.31l-2.81.22c-3.61-1.6-6.72-.66-9.56,1.73l-1.77.22c-.91-1.07-1.55-.78-2,.39l-1.93.17c-3.11,0-6.33-.46-8.66,2.27l-1.82.16c-2.8-.57-5.44-.57-7.42,1.88l-1.84.17c-1.53-1.48-2.57-.85-3.38.75l-2.8.23a2.28,2.28,0,0,0-2.31-.75,117.79,117.79,0,0,0-30.26,9.82c-9.38,4.58-18.08,10.39-27.79,14.39-4.4,1.81-11.46-1-13.3-5.35a2.14,2.14,0,0,1,.84-3c4.16-2.27,5.29-5.4,2.59-9.93,3.81.44,4.46,4.52,8.13,4.25,0-3.74-2.33-6.12-5.14-7.87-2.59-1.62-5.53.05-7,1.67-3.33,3.7-9.24,1.09-12.08,5.27-5.35-2.83-5.07,2-5.76,4.4-1.74,6-5,10.41-11.08,12.64-5,1.84-8.56,5.32-12.26,8.81-2.41,2.28-4.17,4.74-2.7,7.86s4.29,4.57,7.88,4.71c3.92.16,7.85.29,11.76.46,9.24.39,18.25,2,27.27,3.64h0c1.38,3.2,3.45,5.58,7.34,5.8l2.23,1.94c.09,2.49,1.82,3,3.93,3.08l3.23,2.93c.07,1.32.64,2,2.11,1.62l2,1.39c.13,2,1.55,2,3,2l.06,0c.13,1.91,1.51,2,3,2l1.19,1,.28,2.14-2.63,1.06L93,214.32c-.24-2.6-2.67-3.08-4.41-3.45C75.67,208.15,62.78,205.12,49.39,206.76Zm91.9-63.1c.3,1.79,1.09,3,3.39,2.77a3.69,3.69,0,0,0-3.43-2.73c-.18-1.43-1.14-1.82-2.5-2-6.32-.67-11.58,3.24-17.61,3.84-.49,0-1.31.9-1.28,1.34.28,4.63-2,2.41-3.73,1.3s-2.48-4.67-4.93-2.92c-1.6,1.15,1.77,3.12,1.66,5.13,0,.14.16.29.22.44.36,1.07,1.62,2.11.86,3.2s-2.2.66-3.36.39c-1.56-.37-2.07-1.47-2.24-3s.84-3.32-1-4.56c-1.83.6-1.11,5-4.64,2.85-3.28-2-3.46.44-3.48,2.55,0,3.36,2.57,5.28,4.7,7.41,1.89,1.91,3.84,5.82,5.62-.13.36-1.2,1.59-1,2.62-.72,2.44.65,4.26-.39,6-1.91a17,17,0,0,1,8.68-3.76c4-.73,7.62-3.77,11.38-5.84.82-.44.48-1.07.2-1.7C136.48,141.23,140,143.84,141.29,143.66Zm155-80.23c-6-2-12.82.89-14.94,5.75-.49,1.12-1.13,1.91-2.17,1.45-2.38-1.08-4.67,1-7-.11-1.53-.74-2.43.08-1.86,1.64s-.82,2-1.63,2.64C267.21,76,265,76.73,266,79.05a4,4,0,0,0,5,2.53c-.25-1.49-3.23-2.19-1.65-3.92s3.43-.3,5,.6c.71.39,1.73,1.33,2,1.14,3.63-2.19,6.35-5.47,9.64-8.09,1.29-1,1.4-2.79,3.78-2,1.76.6,3-.87,3.89-1.9,1.49-1.74-2.29-1.13-1.48-3.13Zm7.06-13c3.73,3.72,7.53,4.1,11.71,1.37,1.87-1.23,3.27-3.21,2.74-4.81-.66-2-3.2-.92-4.94-.7-.8.11-2,.52-2.21,1.09C309.21,50.71,306.49,50.87,303.3,50.43Zm-8.21,7.76c3.11-.21,6.19,3.68,8.57.51,1.35-1.79-1.43-3.93-2.83-4.69C296.74,51.78,298.3,58.16,295.09,58.19Z"/><path class="cls-2" d="M322.09,349.48a.55.55,0,0,1-.65-.33c.14-1.58.11-2.89-1.95-1.26a3.42,3.42,0,0,1-2.72-1.22c-.1-.65-.19-1.31-.28-2-.67-2.43-2.8-2.62-4.84-2.94a5,5,0,0,0-5.15-2.8l-.2-.34c-.53-1.5-1.44-1.95-2.87-1a.53.53,0,0,1-.59-.36c.56-2.22-.88-2.37-2.53-2.3l-.19-.31c-.33-1.6-1.58-1.79-2.94-1.79l-.25-.13c-1.5-3.25-5-4.17-7.82-4.87-13.27-3.25-24.74-9.79-36-16.95-3.77-2.39-8-4.87-13-4.27l-6-3.64c-.09-.48,0-1.17-.3-1.42-9.31-7.91-20-13.44-31.63-17.47L187.87,275a49.32,49.32,0,0,0-18.62-11.75l-7.1-5.22c-.91-2.83-3.13-3.73-5.94-3.74a.55.55,0,0,0-.2-.55c-.95-2-2.83-2.4-4.78-2.69l-.38-.28c-.4-1.41-1.55-1.64-2.82-1.69l-.28-.22c-.35-1.44-1.51-1.7-2.8-1.78l-.3-.22c-.37-1.41-1.5-1.71-2.79-1.77l-.42-.13c-.79-3.19-5.66-2.13-6.19-5.58,11.21,4.23,20.85,11.09,30.73,17.48,9.44,6.11,18.35,12.79,29.13,17,11.76,4.58,22.48,11.41,34,16.68,12.34,5.64,25,10.64,37,17.12,10,5.42,20.26,10.54,30.4,15.69,9.39,4.77,19.49,8.18,28.45,13.77,5.65,3.52,12.06,6,17.31,10,5.65,4.28,10.31,9.76,18.19,10.23.74,0,1.45.79,2.16,1.25,9.86,6.36,10.62,6,21.45.5,11.43-5.82,22.33-12.64,33.47-19,3.36-1.91,6.49-4.6,7.29-8,1.79-7.68,7.42-10.88,14.18-12.72,9.66-2.64,19.47-4.79,29.26-7,3-.68,6.07-.08,9.17-.74,8-1.72,16-3.34,24.09-4.3,9.76-1.15,12.29-4.36,9.43-13.5-2-6.4-1.78-7.77,4.59-10.54a131.12,131.12,0,0,1,20-7.07c6.32-1.59,13-3.27,18.38-6.6,7.48-4.61,15.58-7.3,23.64-10.39,4.52-1.73,9.52-3.23,13.07-6.21,8-6.71,16.57-9.67,27.06-8.31,3.62.47,8.07.74,11-.86A125.24,125.24,0,0,1,650.88,234c7.7-2.44,15.09-5.67,21.53-10.6,4.09,8,.2,18.16-8.51,21.59-14.16,5.57-28.59,10.28-43.95,11.65l-2.92-.24c-1.55-1.88-3.48-1-5.34-.7l-7.82.07a27.75,27.75,0,0,0-12.41,1.6,287.15,287.15,0,0,0-31.92,12.93c-7.07,3.38-14,7.26-19.25,13.23-11.55,13.1-22.37,26.84-38.39,35.56-4.38,2.38-8.06,2.22-12.62,1.8-6.18-.56-11.92-4.51-18.41-2.26l-11.44.12c-24.46-.67-35.7,6.73-33.38,31.33-.18,1.68-.37,3.36-.55,5-1.56,1.19-1.41,2.53-.39,3.95l-.24,4.68c-1.48.83-2,1.87-.78,3.31l.82,2.25a.67.67,0,0,1-.47-.25c-3.05.29-2.88,2.71-3.31,4.72l-.05.09c-3.33.31-5.42,2.35-7.15,4.87l-3.77,1.45c-2.19,0-4.29.21-5.58,2.27-1.68,1.31-3.79,1.3-5.75,1.74a1.86,1.86,0,0,0-2.53,1.17l-1.69.15a54.55,54.55,0,0,0-17.53,0c-2.42.59-5.05-.72-7.37.77a1,1,0,0,1,.33-.53c-.35-2.2-1.65-2.09-3.26-1.27l-2.16.7a1,1,0,0,1,.3-.49c-4.63-3.44-10.22-4.77-15.54-6.7-2.62-1.13-3.85-3.57-5.55-5.57.66-1.7.15-2.54-1.82-2.3a2.68,2.68,0,0,1-.89-.1c0-.78.08-1.55.11-2.33-.22-2.83-1.09-5.33-3.75-6.92-.85-.93-1.69-1.87-2.53-2.8-1-1.94-2.42-3.23-4.84-3.05l-.14-.22c-.38-1.44-1.17-2.09-2.69-1.29l-1.42-.89C325.79,350.1,325,348.56,322.09,349.48Z"/><path class="cls-2" d="M603.87,255.75l7.82-.08c1.48,2.37,3.32,2.18,5.34.71l2.92.24c1.31,2.76,4,1.82,5.86,1.5,14.6-2.55,29-5.85,42.26-12.63,6.2-3.17,10.81-11.71,9.1-16.89a29.83,29.83,0,0,1-1.49-10.18l-.09-1.14c2.83-.65,2.66-3.19,3.21-5.1,1.82-6.31,0-12.47-1.35-18.57-.71-3.11-1-6.64-4.42-8.5l-1.34-1.57c-.3-1.52-1.61-2.12-2.8-2.69-7.84-3.79-15.75-7.32-24.82-7.18a44.93,44.93,0,0,1-12.18-1.6c-23.24-6.09-44.42-17.43-67.21-24.62-.42-1.3-1.21-1.84-2.58-1.18l-2.64-.73c-.36-1.34-1.12-1.9-2.52-1.22l-2.61-.79c-.37-1.34-1.16-1.86-2.54-1.21l-4.69-1.76c-.38-1.34-1.15-1.86-2.53-1.16l-4.66-1.86c-.37-1.33-1.16-1.85-2.54-1.21l-2.56-.84c-.45-1.27-1.24-1.8-2.59-1.13a114.53,114.53,0,0,0-16-3.86l-.15-1.75c1.47-1.81,3.07-.56,4.65-.23,11.12,2.31,21.42,6.78,31.88,10.91a324.81,324.81,0,0,0,36.81,12.4,39.49,39.49,0,0,1,9.31,4.13c16.39,9.28,34.2,13.85,53,15.72,9.06.9,16.67,5.64,24.31,10,2.11,1.2,3.16,3.72,3.47,6,1.51,10.88,5.28,21.81-.49,32.65-1.23,2.32-.2,5,.82,7.25,3,6.41-2.66,17.65-8.72,19.91-16.92,6.31-33.5,14.5-52.42,12.86-8.25-.72-16.32-1.28-24.34,1.14-17.17,5.18-33.93,11.2-47.25,23.5-4.17,3.84-7.62,8.43-11.26,12.79a160,160,0,0,1-22.74,22.16c-3.11,2.48-5.5,5.55-9.44,7.33-9,4.05-16.9,2.32-25.3-1.7s-17.6-4.78-26.69-1c-1.51.64-3.33.56-5,.85-10.94,1.95-15.26,10.26-16.9,21-.94,6.17-2.17,12.32-2.21,18.6,0,1.76-.34,3.69-2.65,4.3l-.82-2.25c1.67-.79,1.39-2,.78-3.31l.24-4.68c1.8-1.16,1.8-2.49.39-3.95.18-1.68.37-3.36.55-5,1.87-.81,1.22-2.51,1.45-3.89,3.23-19.16,5.14-21.64,24-25.06,2.68-.48,5.8,0,7.92-2.38l11.44-.12c4.72,2.58,10.23,2.83,15.12,4.93,7.27,3.13,13.95,1.68,20.39-2.4,11.61-7.34,20.62-17.2,29.17-27.59,5.34-6.48,11.21-12.5,18.41-17.15,14.39-9.32,30.28-15.17,47-19C602.17,257.08,603.4,257.13,603.87,255.75Z"/><path class="cls-2" d="M339.16,53.63c-2.37-3.09-6.58-2.35-9.49-4.24-8.18-5.32-17.4-7.24-27-8.28-6.3-.68-9.81,3.75-13.5,7-9.05,8-20,12.37-31.23,16.13-6.93,2.31-13.88,4.78-20,8.46-10.67,6.36-21.15,7.36-32.14,1.48-2.74-1.46-5.59-1.29-8.49-1.37-2.49-.07-5,0-6.14,2.6a7,7,0,0,0,.95,7.1c1.54,2.18,3.3,4.22,4.83,6.41,4.8,6.9,4.27,12.09-2.33,17.39s-12.62,11-20.66,14.45a99.35,99.35,0,0,0-19.19,10.89c-6.6,4.77-13.7,3.38-20.59,1.48-13-3.58-25.42-1-37.61,3.11-8.3,2.83-16.15,6.78-24.59,9.34-8.26,2.52-10.73,6-6.63,13.48,1.62,2.93,3,6,2.79,9.44-.09,1.66.12,3.43-2.12,4,.11-4.53-.46-8.94-2.81-12.95-4.91-8.4-1.13-13.22,5.13-15.91,16.84-7.22,33.58-15.17,52.33-16.74,6.14-.51,12.28,1,18.12,2.81,6,1.83,10.65.25,15-3.64,5.47-4.9,12.4-7.34,18.81-10.73,7.36-3.89,15.62-6.72,21.43-13.21,3.73-4.15,4.1-8,.23-12.28-2.15-2.37-4.42-4.64-5.65-7.62-3-7.34.4-11.59,10-13.27a14.79,14.79,0,0,1,9.43,1.87c9.59,5.24,19.06,4.87,28.25-.53S256.14,62.26,265.94,58c8.64-3.8,17.09-7.73,23.6-14.62,5.1-5.39,11.16-6.48,18.23-4.69,14,3.55,26.87,9.8,39.8,15.87.94.44,1.84.93,1.94,2.1l-2.43.52C344.86,55.09,341.48,55.49,339.16,53.63Z"/><path class="cls-2" d="M339.16,53.63c2.32,1.86,5.7,1.46,7.92,3.51.9,1.57,2.4,2,4.09,2l2.93,1.34c1,1.83,2.92,2.07,4.66,2.66,8.72,3,18.07,4.36,26.14,9.13,1.73,2.45,3.71,4.49,7.16,4.14a.55.55,0,0,1,.56.36c-.08,1.84.8,2.34,2.51,1.66a.56.56,0,0,1,.57.35c4.62,5.88,11.37,8.61,18.06,11.43,3.56,2.81,7.17,5.53,11.77,6.6h0c0,.66,0,1.31,0,2-2.71-.09-4.85-1.62-7-2.87C408,89.75,397,84.43,387.22,77.1a57.82,57.82,0,0,0-23.51-10.47c-3.46-.71-6.71-2.4-10.07-3.61-7.44-2.69-13.83-7.94-22.14-8.51C333.65,50.92,336.68,54.55,339.16,53.63Z"/><path class="cls-2" d="M484.35,123.49l4,1.69c0,1.55.72,1.78,2,1l1.75.27c.94,1.41,2.23,1.47,3.68.91l4.93.44c1.93,1.53,4.14.94,6.29.77l1.93.22-.09,1.22a50.2,50.2,0,0,1-24-2.44c-14.44-4.85-28.68-10.47-41.56-18.55-4.21-2.65-9.5-3.75-12.74-7.85,4-.28,6.58,3.42,10.44,3.59a171.2,171.2,0,0,0,32.58,15.54,2,2,0,0,0,2.56,1.22l2.59.8a2,2,0,0,0,2.55,1.21C482.28,123.75,483.32,124.24,484.35,123.49Z"/><path class="cls-2" d="M473.54,120.32A171.2,171.2,0,0,1,441,104.78c-4.08-4.59-10.12-5.64-15.42-8h0c-.12-.72-.25-1.45-.37-2.17,5.59.39,10.39,3.35,14.66,6a195.94,195.94,0,0,0,42.3,20c1.5.5,2.38,1.23,2.23,2.83-1,.75-2.07.26-3.11.06-.39-1.31-1.19-1.82-2.55-1.21l-2.59-.8C475.71,120.23,474.9,119.73,473.54,120.32Z"/><path class="cls-2" d="M240.09,306.65c5-.6,9.22,1.88,13,4.27,11.29,7.16,22.76,13.7,36,16.95,2.82.7,6.32,1.62,7.82,4.88l-2.51.71-5.73-2.55c-.64-2.54-3.14-2.32-4.92-2.77a87.33,87.33,0,0,1-16.14-5.91c-2.33-1.11-4.2-3.51-7.31-2.48-1.75-.58-2.52-2.74-4.65-2.68-.94-3.78-4.52-4.48-7.44-5.87S242.07,309.41,240.09,306.65Z"/><path class="cls-2" d="M187.87,275l14.33,9.17c1.76,3.37,5.12,4.71,8.41,6,6.08,2.35,11.74,5.29,16.38,9.85-.19.21-.39.41-.59.61-9.06-4.73-18.39-9-27-14.51-4.81-3.08-9.54-6.28-14.33-9.39-.87-.57-1.73-1.06-1.7-2.24Z"/><path class="cls-2" d="M49.39,206.76c13.39-1.64,26.28,1.39,39.18,4.11,1.74.37,4.17.85,4.41,3.45-13.44-3.15-26.9-6.23-40.89-5.83C50.81,208.52,49.73,208.15,49.39,206.76Z"/><path class="cls-2" d="M240.09,306.65c2,2.76,5.32,3.2,8.14,4.55s6.5,2.09,7.44,5.87c-10.27-4.66-21.69-7.39-29.27-16.51.2-.2.4-.4.59-.61,2.59.56,4.15,3.37,7.14,3.06Z"/><path class="cls-2" d="M354.1,60.44l-2.93-1.34c-.28-.73-.56-1.46-.85-2.19,10,3,20,6,30,9.06,1.33.41,3.07.92,2.92,2.94-1-.27-1.95-.46-2.88-.81C371.81,64.9,363,62.7,354.1,60.44Z"/><path class="cls-2" d="M492.05,126.47l-1.75-.27-.24-1.77c6.47-1.83,12.8.42,19.2.62,1.28,0,1.47,1.17,1.59,2.18l-2,1.58-1.93-.22c-1.78-2.68-4-2-6.29-.77l-4.93-.44C494.88,125.68,493.57,125.68,492.05,126.47Z"/><path class="cls-2" d="M354.1,60.44c8.85,2.26,17.71,4.46,26.27,7.66.93.35,1.92.54,2.88.81l1.15.85c.31.7.63,1.4.94,2.11l-.44.36c-8.07-4.77-17.42-6.12-26.14-9.13C357,62.51,355.08,62.27,354.1,60.44Z"/><path class="cls-2" d="M260.32,319.75c3.11-1,5,1.37,7.31,2.48a87.33,87.33,0,0,0,16.14,5.91c1.78.45,4.28.23,4.92,2.77C278.57,328.76,268.26,327.07,260.32,319.75Z"/><path class="cls-2" d="M187.87,275l-4.49-.53-2-1.05a2.49,2.49,0,0,0-3.17-1.92h0a2.39,2.39,0,0,0-3.09-2h0a2.4,2.4,0,0,0-3.09-2h0l-2.82-4.24A49.32,49.32,0,0,1,187.87,275Z"/><path class="cls-2" d="M135.25,239.32c.53,3.46,5.4,2.4,6.19,5.59-2.46.89-4-2.13-6.47-1.4l-2.78-1.4c-.14-1.36-.91-1.9-2.29-1.66l-1.09-.89c-.28-1.72-1.38-2.29-3.06-2.06h0c-.33-1.66-1.4-2.27-3.07-2a3.3,3.3,0,0,1-.52-.61l.9-1.67c3.4.55,5.2,4.36,9,4.13l0,0c.15,1.94,1.53,2,3.06,1.92Z"/><path class="cls-2" d="M413.76,90.17c-6.69-2.82-13.44-5.55-18.06-11.43,2-.39,3.19,1.14,4.8,1.71A23.43,23.43,0,0,0,411.91,87l2,1.16.27,1.62Z"/><path class="cls-2" d="M377.08,385.49a54.55,54.55,0,0,1,17.53,0l.06,2c-.9.05-1.81.09-2.72.12a17.09,17.09,0,0,0-10.16.06l-4.78-.2C377,386.81,377.06,386.15,377.08,385.49Z"/><path class="cls-2" d="M169.25,263.2l2.82,4.24c-5.47-1.25-9.32-4.59-12.36-9l2.44-.48Z"/><path class="cls-2" d="M425.16,94.6c.12.72.25,1.45.37,2.17-4.6-1.07-8.21-3.79-11.77-6.6l.46-.39L417,90Z"/><path class="cls-2" d="M349.38,378c5.32,1.93,10.91,3.26,15.54,6.7l-2.24.7c-3.49-2.33-7.54-3.17-11.56-4.11C350.68,380.09,348.79,379.64,349.38,378Z"/><path class="cls-2" d="M411.91,87a23.43,23.43,0,0,1-11.41-6.55C405.34,80.94,409.35,82.79,411.91,87Z"/><path class="cls-2" d="M394.67,387.5l-.06-2,1.69-.15c1.42.79,2.22.3,2.53-1.17,2-.44,4.07-.43,5.75-1.74l1.55,1.12C402.89,386.45,399.18,388.07,394.67,387.5Z"/><path class="cls-2" d="M351.12,381.26c4,.94,8.07,1.78,11.56,4.11C358.08,386,354,385.08,351.12,381.26Z"/><path class="cls-2" d="M410.16,380.17l3.77-1.44,4.59-.36c-2.29,3.25-5.58,4.57-9.53,4.6Z"/><path class="cls-2" d="M335,358c.84.93,1.68,1.87,2.53,2.8-1,1.55,1.06,3,.21,4.51a14.42,14.42,0,0,1-6.1-6.95Z"/><path class="cls-2" d="M381.79,387.68a17.09,17.09,0,0,1,10.16-.06C388.58,390.11,385.19,389.94,381.79,387.68Z"/><path class="cls-2" d="M418.52,378.37l-4.59.36c1.73-2.53,3.82-4.57,7.15-4.88.18,1.7-2.28,2.35-1.77,4.18A5.08,5.08,0,0,1,418.52,378.37Z"/><path class="cls-2" d="M392.06,76.37c-3.45.35-5.43-1.69-7.16-4.14l.44-.36,2.11,0C388.92,73.41,391.61,73.82,392.06,76.37Z"/><path class="cls-2" d="M508.88,128.81l2-1.58,5.26,1.52.15,1.75c-1.86.57-3.61-1.23-5.49-.24l-2-.23Z"/><path class="cls-2" d="M377.08,385.49c0,.66,0,1.32-.07,2-2.66.9-5.34,1.89-7.3-1.22C372,384.77,374.66,386.08,377.08,385.49Z"/><path class="cls-2" d="M337.69,365.26c.85-1.54-1.21-3-.21-4.51,2.66,1.59,3.53,4.09,3.75,6.92l-2.44-.46Z"/><path class="cls-2" d="M162.15,258l-2.44.48a3.54,3.54,0,0,1-.77-.34c-.1-1.39-.86-1.95-2.28-1.7h0c-.15-.73-.31-1.45-.46-2.18C159,254.25,161.24,255.15,162.15,258Z"/><path class="cls-2" d="M135,243.51c2.44-.73,4,2.29,6.47,1.4l.41.13c-.42.89.27,1.44.69,2.06-.21.23-.42.46-.65.68C139.24,246.87,136.1,246.73,135,243.51Z"/><path class="cls-2" d="M419.31,378c-.51-1.83,1.95-2.48,1.77-4.18l.05-.09,2.56-.29C423.63,376.25,422.22,377.81,419.31,378Z"/><path class="cls-2" d="M410.16,380.17,409,383l-2.86.59-1.55-1.12C405.87,380.38,408,380.16,410.16,380.17Z"/><path class="cls-2" d="M50.74,182.72c-1.22,1.9-2.47,3.78-5.13,3.92C45.94,183.63,47.61,182.28,50.74,182.72Z"/><path class="cls-2" d="M311.65,341.75c2,.33,4.17.52,4.84,2.95l-2.52.76c-.65-.37-1.3-.74-1.94-1.12-.29-.73-.57-1.47-.85-2.2Z"/><path class="cls-2" d="M306.5,339a5,5,0,0,1,5.15,2.8l-.47.38-2.36.32-1.9-1.14Z"/><path class="cls-2" d="M322.09,349.48c2.9-.92,3.7.62,3.77,3C322.86,353.53,322.69,351.25,322.09,349.48Z"/><path class="cls-2" d="M156.21,254.24c.15.73.31,1.45.46,2.18-2.39.22-4.28-.51-5.4-2.68l.61-.74c1.38.22,2.54,1.66,4.13.68A.57.57,0,0,1,156.21,254.24Z"/><path class="cls-2" d="M423.69,373.47l-2.56.29c.43-2,.26-4.43,3.31-4.72l.57,2c-1.35.31-1.63,1.11-1.11,2.28Z"/><path class="cls-2" d="M335,358l-3.36.36-1.12-.92-.36-2.49C332.53,354.72,334,356,335,358Z"/><path class="cls-2" d="M123.07,233.19l-.9,1.67c-1.93-.09-3.82-.22-4.67-2.32l2.62-1.06A4.9,4.9,0,0,0,123.07,233.19Z"/><path class="cls-2" d="M350.32,56.91c.29.73.57,1.46.85,2.19-1.69,0-3.19-.39-4.09-2l2.43-.52A7.06,7.06,0,0,1,350.32,56.91Z"/><path class="cls-2" d="M490.06,124.43l.24,1.77c-1.27.76-2,.53-2-1C488.4,123.86,489.27,124.23,490.06,124.43Z"/><path class="cls-2" d="M366.78,384.46c1.61-.82,2.91-.93,3.26,1.27-.94,1-2.15.57-3.28.61C366.77,385.71,366.78,385.09,366.78,384.46Z"/><path class="cls-2" d="M387.45,71.83l-2.11,0c-.31-.71-.63-1.41-.94-2.11C386,69.66,387.37,69.84,387.45,71.83Z"/><path class="cls-2" d="M417,90l-2.78-.25L414,88.16C415.76,87.57,416.74,88.24,417,90Z"/><path class="cls-2" d="M125.75,237.5c1.68-.23,2.78.34,3.06,2.06C127.23,239.65,125.77,239.57,125.75,237.5Z"/><path class="cls-2" d="M122.69,235.47c1.67-.24,2.74.37,3.07,2C124.16,237.64,122.71,237.57,122.69,235.47Z"/><path class="cls-2" d="M172.07,267.44a2.4,2.4,0,0,1,3.09,2C173.55,269.61,172.18,269.43,172.07,267.44Z"/><path class="cls-2" d="M175.15,269.45a2.39,2.39,0,0,1,3.09,2C176.66,271.58,175.25,271.45,175.15,269.45Z"/><path class="cls-2" d="M178.23,271.45a2.49,2.49,0,0,1,3.17,1.92C179.82,273.55,178.41,273.46,178.23,271.45Z"/><path class="cls-2" d="M53.84,180.77a2.73,2.73,0,0,1-3.05,1.91C50.66,180.33,52.18,180.45,53.84,180.77Z"/><path class="cls-2" d="M294.42,333.46l2.51-.71.24.13c.27.68.54,1.37.8,2.05-.2.22-.41.43-.62.63C296,335.36,294.62,335.18,294.42,333.46Z"/><path class="cls-2" d="M151.27,253.74c-1.34-.2-2.71-.35-3.11-2l.6-.75,2.09-.32.37.29c-.52.9.19,1.41.66,2Z"/><path class="cls-2" d="M300.31,335c1.65-.07,3.09.08,2.53,2.3l-2.14.09Z"/><path class="cls-2" d="M306.5,339l.42,2.36c-1.56.11-2.95,0-3.13-2l2.51-.74Z"/><path class="cls-2" d="M308.82,342.46l2.36-.32c.28.73.56,1.47.85,2.2C310.48,344.48,309.17,344.24,308.82,342.46Z"/><path class="cls-2" d="M330.11,354.9l.36,2.49c-1.54,0-2.9-.2-3-2.11l2.47-.6Z"/><path class="cls-2" d="M148.16,251.78c-1.33-.22-2.68-.41-3.12-2l.59-.73,2.12-.28.28.22c-.43.9.26,1.41.73,2Z"/><path class="cls-2" d="M300.31,335l.39,2.39a2.8,2.8,0,0,1-3.35-1.8c.21-.2.42-.41.62-.63l2.15-.27Z"/><path class="cls-2" d="M338.79,367.21l2.44.46c0,.78-.07,1.55-.11,2.33C338.64,370.41,338.77,368.77,338.79,367.21Z"/><path class="cls-2" d="M145,249.82c-1.35-.25-2.68-.53-3.15-2,.23-.21.44-.44.65-.67l2.11-.29.3.22c-.43.9.27,1.43.68,2.06Z"/><path class="cls-2" d="M395.13,78.39c-1.71.68-2.59.18-2.51-1.66A1.82,1.82,0,0,1,395.13,78.39Z"/><path class="cls-2" d="M319.49,347.89c2.06-1.63,2.09-.32,1.95,1.26C320.14,349.66,319.39,349.39,319.49,347.89Z"/><path class="cls-2" d="M342,370.1c2-.24,2.48.6,1.82,2.3C342.09,372.47,341.48,371.71,342,370.1Z"/><path class="cls-2" d="M423.9,373.34c-.52-1.17-.24-2,1.11-2.28C426.05,372.46,425.2,373,423.9,373.34Z"/><path class="cls-2" d="M156.66,256.42c1.42-.25,2.18.31,2.28,1.7C157.38,258.57,156.66,258,156.66,256.42Z"/><path class="cls-2" d="M306.3,338.62l-2.51.74-.36-1.73C304.86,336.67,305.77,337.12,306.3,338.62Z"/><path class="cls-2" d="M129.9,240.45c1.38-.24,2.15.3,2.29,1.66C130.58,242.66,129.89,242,129.9,240.45Z"/><path class="cls-2" d="M366.78,384.46c0,.63,0,1.25,0,1.88-1.61,1.13-2.15.44-2.14-1.18Z"/><path class="cls-2" d="M314,345.46l2.52-.76c.09.66.18,1.32.28,2C315.2,347.64,314.41,346.93,314,345.46Z"/><path class="cls-2" d="M330,354.68l-2.47.6c-.07-.63-.15-1.26-.22-1.89C328.8,352.59,329.59,353.24,330,354.68Z"/><path class="cls-2" d="M508.79,130l2,.23c1.16,2.05,3.43,1.92,5.33,2.45,4.59,1.27,9.36,2.08,13.8,3.73,17.86,6.66,35.6,13.62,53.42,20.36,22.31,8.44,43.7,19.69,68.61,20.19a17.44,17.44,0,0,1,12.62,5.5c-7,0-12.51,4-16.83,8.34-3.57,3.59-7.68,6.52-11.27,10-1.29,1.25-3.68,3.2-5.28-.32-.6-1.34-2-.89-3.17-.79-5.8.48-8.43-2-8.13-7.19.15-2.53-1.55-2.19-3-1.21-2.83,1.87-3.66.4-3.91-2.07-.39-3.8-2.32-5.49-6.22-4.16a5.41,5.41,0,0,1-5.34-.74c-2.36-1.89-5-2-7.76-1.79C575,184,556.84,180.55,539,176a192,192,0,0,1-44.57-17.17c-5.24-2.85-11.6-6.23-17.45-4.83-8.81,2.13-17.8.45-26.41,2.69-2.74.72-7-.22-8,2-1.36,3.15,3.24,4.42,4.86,6.79.09.14.26.23.36.36.83,1.11,2.93,1.9,1.64,3.65s-2.86.71-4.42-.21A61.15,61.15,0,0,0,407,160.87c-5.19.49-10.41,2.68-15.52,1.58-8.51-1.84-16.22,1-24,3-7.22,1.85-14.48,1.22-21.7,1.41-8.84.24-17.38-2.29-25.9-4.34-6.43-1.55-13.31-.4-19.52-3.45-2.33-1.15-3.82.81-4.48,2.85-1.15,3.59,1,6.67,5.36,7.59,9.94,2.12,19.69,5,29.73,6.72,14,2.43,27.88,3.86,42,1.27,5.33-1,10.45-3.13,16-2.88l22.33,1c7.5.34,15.09.13,22.48,1.2,7.1,1,13.55,1.73,18.79-4.22.58-.67,1.89-.69,2.8-1.13,4.56-2.22,8.6.77,12.89,1.06,17.11,1.18,33,6.85,48.61,12.9,13.25,5.15,26.05,11.54,39.17,17.14,2.36,1,5.26.18,7.16,2.29,3.46,3.85,8.06,6.41,11.79,10.06,4,3.91,10.42,3.72,15.4,7.07a30.7,30.7,0,0,0,13.85,4.65c2.61.21,4.77,3,3,5.11-4.75,5.73-1.15,5.85,3.53,5.9a20.44,20.44,0,0,1,3,.76c7.34,1.14,14.49,1.14,21.75-1.28,7.44-2.48,14.39-6,21.79-8.51,5.83-2,11.69-3.71,14.08-10.21.45-1.21,1.27-2.83,3.19-2.91l1,1.81.09,1.14c-2.89.54-1.58,3.68-3.27,5-6.44,4.93-13.83,8.16-21.53,10.6a125.24,125.24,0,0,0-22.15,9.81c-2.93,1.6-7.38,1.33-11,.86-10.49-1.36-19.1,1.6-27.06,8.31-3.55,3-8.55,4.48-13.07,6.21-8.06,3.09-16.16,5.78-23.64,10.39-5.4,3.33-12.06,5-18.38,6.6a131.12,131.12,0,0,0-20,7.07c-6.37,2.77-6.6,4.14-4.59,10.54,2.86,9.14.33,12.35-9.43,13.5-8.09,1-16.12,2.58-24.09,4.3-3.1.66-6.2.06-9.17.74-9.79,2.21-19.6,4.36-29.26,7-6.76,1.84-12.39,5-14.18,12.72-.8,3.4-3.93,6.09-7.29,8-11.14,6.36-22,13.18-33.47,19-10.83,5.52-11.59,5.86-21.45-.5-.71-.46-1.42-1.21-2.16-1.25-7.88-.47-12.54-5.95-18.19-10.23-5.25-4-11.66-6.47-17.31-10-9-5.59-19.06-9-28.45-13.77-10.14-5.15-20.4-10.27-30.4-15.69-12-6.48-24.64-11.48-37-17.12-11.53-5.27-22.25-12.1-34-16.68-10.78-4.2-19.69-10.88-29.13-17-9.88-6.39-19.52-13.25-30.73-17.48l-.09-.06a3,3,0,0,0-3.06-1.92l0,0c-3.73-3.16-7.39-6.41-12.22-8l-1.19-1a3,3,0,0,0-3-2l-.06,0a3.06,3.06,0,0,0-3-2l-2-1.39a1.93,1.93,0,0,0-2.11-1.62l-3.23-2.92a4.85,4.85,0,0,0-3.93-3.09l-2.23-1.94c-2.4-2-2.77-6.37-7.34-5.8h0c-2.75-6.28-6.54-11.58-13.4-14.37a14.11,14.11,0,0,1-6.44-4.79c-1.36-2-2.9-4.56-.9-6.35,2.66-2.37,3.4-4.65,2.42-7.84-.27-.88-.1-2.39,1.15-2.34a10.71,10.71,0,0,1,5.29,1.34c1.37.93.07,1.84-1.1,2.45-2.16,1.13-1.5,2.94-.47,4.24,3,3.79,6.18,7.43,9.37,11.07.89,1,2.25,2.13,3.42.6,5.47-7.16,14-9.66,21.59-13.68,9.12-4.85,18.14-9.85,27.64-14.07,7.34-3.26,15.25-4.4,22.63-7.27l2.81-.23c1.26.32,2.49.54,3.37-.75l1.84-.17a8.86,8.86,0,0,0,7.42-1.88l1.82-.16c3.21.39,6.19,0,8.66-2.27l1.93-.18c.87.88,1.52.6,2-.38l1.77-.22c3.29-.06,6.56-.16,9.56-1.73l2.81-.22c8.63-1.19,17.49-1.61,25-6.77-2.17,5.13.07,8,5.13,9.52,1.61.5,3.06,1.5,4.63,2.15,11.43,4.74,16.36,14.57,19.89,25,1.36,4,2.63,5.95,6.87,4.93,2.42-.58,3,.24,2.14,2.19-2,4.87,1.8,7.6,4.51,10.15s5.45-.84,7.58-2.09c7.87-4.64,9.53-5.41,16.05.84,7,6.69,13.47,5.65,21.45,2.54,8.68-3.37,17.43-.82,25.85,2.16a2.91,2.91,0,0,1,1.48,1.35c2.76,5.76,8.22,9.7,11,15.55A27.14,27.14,0,0,0,365.78,226c1.69,1.35,3,1.93,4.79.08,5.59-5.79,8.71-6.41,14.42-1.22,6.36,5.78,12.4,9.43,20.67,3.6.68-.47,2.23-1.61,3,.07.58,1.18-.69,1.62-1.41,2.3-3.89,3.65-8.7,6.42-11.25,11.37a4.66,4.66,0,0,1-3.95,2.07c-6.34.34-12.43,2-18.64,3-5.31.87-9.5-.94-12.4-5.23-2.52-3.73-5.86-6.89-7.89-11a6.89,6.89,0,0,0-6.94-3.48c-9.6.83-15.32-5.17-21.37-10.68-3.91-3.55-7.35-7.7-11.63-10.75-5-3.56-10.05-.8-15,1.27s-5.92,4.21-3.09,8.75c4.8,7.7,6.22,16.74,10.47,24.66.51.95.32,2.27.4,3.42.23,3.4-1.84,4.92-4.79,3.89-7-2.43-14.63-3.78-19.55-10.05a8.11,8.11,0,0,0-2.62-2.26c-9-4.45-18.16-7.88-28.48-8.67-5.38-.42-11,.16-16.24-1.53a43.8,43.8,0,0,0-15.63-2.25,32.1,32.1,0,0,1-14-2.55,67.46,67.46,0,0,0-20.74-5.1c-7.25-.53-12.47-3.69-17.92-7.53-5.09-3.59-10.81-7.34-17.36-5.41-6.3,1.87-12.51,1.57-18.8,1.64a31.55,31.55,0,0,0-8.11,1c-1.64.45-3.73.5-4,2.48s1.81,2.52,3,3.69c2.7,2.72,7.12,2.75,9.47,5.72,6.44,8.15,16,12.61,24.53,17.67,14.2,8.41,28.44,17.45,44.87,21.57,12.34,3.09,23.81,10.29,37.41,7.87a3.94,3.94,0,0,1,2.35.78C245.54,269,252.16,269.4,259,268c1.35-.27,2.56-.7,4-.13,10.08,4.08,20.79,3.92,31.43,4.53,9.23.52,11.59,3.46,11.66,12.84a5.43,5.43,0,0,0,.52,2.89c3.58,5.38,6.59,11.7,11.94,15.18,6.93,4.51,11,12.34,19.33,15,.3.1.42.74,1,1.78-4.92.21-9.19-.8-13.44-1.51-14.31-2.39-26.75-9.75-40.1-14.68-13.52-5-27-10.53-38.91-18.88a15.77,15.77,0,0,0-2.84-1.09c-1.7-.73-3.32-.27-3.9,1.2s1,2.37,2.22,2.94c2.45,1.18,5.1,2,7.5,3.23,15.78,8.23,31.44,16.68,47.29,24.79,13.26,6.79,27.37,11.93,40.26,19.49,8.46,5,17.5,9,25.77,14.26,7.54,4.75,14.72,7.1,23.4,3,10.22-4.85,19.16-11.54,27.89-18.34,4.34-3.38,8.43-7.71,10.14-13.44,1-3.27,3.1-5.32,7-6.4,3.74-1,8.17-1.26,11.1-3.05,5.91-3.64,12.24-2.71,18.26-3.16,11.61-.86,22.75-3.94,34.18-5.53,1.75-.25,5.73.18,5.23-2.54-.48-2.54-3.42.68-5.26-.14-.14-.06-.36,0-.5,0-8.93-3.87-18.06.25-27.15-.22-8.35-.43-16.95-.75-25.45-.71a4.43,4.43,0,0,1-4.44-2.78c-.75-1.77.34-3.05,1.45-4.45,3.49-4.38,10.8-6.19,17.23-3.08,1.4.67,4.12,2.74,4.44-.28.75-7.18,4.64-3.92,8.29-3.09,3.8.87,6.86,5.19,10.86,3.49,6.24-2.65,12.84-1.26,19.16-2.61,3.12-.66,4.7-1.94,5.09-4.59,1.28-8.76,7-14,14.74-17.53,4.24-1.92,9,.38,13.46-.89,1.91-.54,4.55.06,5.44-2,1-2.27-1-4-2.56-5.53-4.26-4.33-13.78-5.08-21.71-1.5-2.7,1.22-5.31,2.21-8.35,1.93-10.07-.91-19.6-3.09-28.59-8.11-12.55-7-25.71-13-38.46-19.67-13.74-7.2-26.78-15.27-42.31-19.43-17.28-4.63-35.44-7.43-51.06-17-.81-.49-2-.39-3-.65-5.05-1.33-10.26-1.48-15.35-3.4-5.42-2.05-10.29-5.27-16-6.73-1.4-.36-3-1.63-3.84.61-1.51,4.14-4.36,1.88-6.16.86a51,51,0,0,1-12.37-9.52c-6.89-7.41-14.34-14.35-23.82-18.56a63.63,63.63,0,0,1-9.46-5.47c-6.44-4.26-12.48-10-21.42-8.63-.55-5.37-1.83-10.35-7-13.45a6.43,6.43,0,0,1-3.06-4.41c-1.14-6.29,2-12.38,8.06-16l7.21-.06a6.12,6.12,0,0,0,7.21.06l4.17-1c1.36.12,2.65.09,3.25-1.43l13-4.72a1.88,1.88,0,0,0,2.42-1.32l1.12-.37c6.26-2,12.64-3.77,17.19-8.89a8.07,8.07,0,0,0,4.2-3.21c7.56-2.93,13.37-8,18.49-14l1-1c3.52-.73,6.24-2.36,7.24-5.95h0a2.86,2.86,0,0,0,3.11-3l2.79-2.27c2.18.28,3.17-.78,3.36-2.76a7.88,7.88,0,0,1,4.85-2.43c8.31.57,14.7,5.82,22.14,8.51,3.36,1.21,6.61,2.9,10.07,3.61A57.82,57.82,0,0,1,387.22,77.1C397,84.43,408,89.75,418.57,95.86c2.16,1.25,4.3,2.78,7,2.87,1.27,1.53,3.76.77,4.94,2.46,3.24,4.1,8.53,5.2,12.74,7.85,12.88,8.08,27.12,13.7,41.56,18.55A50.2,50.2,0,0,0,508.79,130Zm-269.52,58.8c-2.47,3.16-.92,6.81-.81,10.07.14,4.24.86,9.49,4.68,12.15,6.67,4.64,13.95,8.53,22.51,9.22,3.79.31,6.17-1.38,7.76-4.49s.69-5.62-2.08-7.36c-10.61-6.71-15.5-18.52-25.08-26.17-3.5-2.79-4-8-7.91-10.71-1.22-.87-2.53-1.39-3.71-.36s-.36,2.18.51,3C239.47,178.3,237.05,184.08,239.27,188.83Zm-28,81.51c-.87.58-2.86-.94-3.59,1.08-.3.82.63,1.45,1.41,1.81,5.69,2.6,11.39,5.19,17.12,7.72a2.1,2.1,0,0,0,1.84-.21c.8-.77.15-1.7-.53-2.05C222.25,276,218.43,270.56,211.3,270.34Z"/><path class="cls-2" d="M231.88,141.66c-7.48,5.16-16.34,5.58-25,6.77.14-2.06,4.48-1.38,3.1-4.31-1.07-2.28-3.39-2.21-5.63-2.67-5.23-1.07-11.13,1.31-15.81-3.31-1.13-1.11-4.15.31-5.59,2.31-.91,1.24-2.33,1.8-3.3.21a2.07,2.07,0,0,1,1.33-3.21,56.82,56.82,0,0,1,9.46-1.9c4.36-.66,9.39-.19,11.25-6.39,1-3.32.52-4.74-1.89-6.56-4-3-4-4.89.49-7.33,5.22-2.86,4-9,7.31-12.85.51-.59-.76-2.75-2.56-3.77-3.69-2.08-4.21-6.54-1.61-9.79.61-.76,1.08-2,2.31-1.56,4.32,1.64,8.41-.89,12.7-.49,2.59.24,4.61.85,6.22,2.81.72.89,2.09,1.6,1.6,2.88-.68,1.77-2.25,1-3.52.68-3.15-.79-4.17,1.87-5.6,3.47-1.64,1.84.33,3.32,1.3,4.78,2.92,4.39,7.19,5.91,12.39,5.42-6,3.59-9.2,9.68-8.06,16a6.43,6.43,0,0,0,3.06,4.41c5.2,3.1,6.48,8.08,7,13.45Z"/><path class="cls-2" d="M162.91,156.62c-7.38,2.87-15.29,4-22.63,7.27-9.5,4.22-18.52,9.22-27.64,14.07-7.54,4-16.12,6.52-21.59,13.68-1.17,1.53-2.53.42-3.42-.6-3.19-3.64-6.38-7.28-9.37-11.07-1-1.3-1.69-3.11.47-4.24,1.17-.61,2.47-1.52,1.1-2.45a10.71,10.71,0,0,0-5.29-1.34c-1.25-.05-1.42,1.46-1.15,2.34,1,3.19.24,5.47-2.42,7.84-2,1.79-.46,4.39.9,6.35a14.11,14.11,0,0,0,6.44,4.79c6.86,2.79,10.65,8.09,13.4,14.37-9-1.64-18-3.25-27.27-3.64-3.91-.17-7.84-.3-11.76-.46-3.59-.14-6.45-1.66-7.88-4.71s.29-5.58,2.7-7.86c3.7-3.49,7.29-7,12.26-8.81,6-2.23,9.34-6.68,11.08-12.64.69-2.37.41-7.23,5.76-4.4,2.84-4.18,8.75-1.57,12.08-5.27,1.46-1.62,4.4-3.29,7-1.67,2.81,1.75,5.18,4.13,5.14,7.87-3.67.27-4.32-3.81-8.13-4.25,2.7,4.53,1.57,7.66-2.59,9.93a2.14,2.14,0,0,0-.84,3c1.84,4.35,8.9,7.16,13.3,5.35,9.71-4,18.41-9.81,27.79-14.39a117.79,117.79,0,0,1,30.26-9.82A2.28,2.28,0,0,1,162.91,156.62Z"/><path class="cls-2" d="M141.29,143.66c-1.33.18-4.81-2.43-2.85,2,.28.63.62,1.26-.2,1.7-3.76,2.07-7.35,5.11-11.38,5.84a17,17,0,0,0-8.68,3.76c-1.73,1.52-3.55,2.56-6,1.91-1-.28-2.26-.48-2.62.72-1.78,6-3.73,2-5.62.13-2.13-2.13-4.73-4-4.7-7.41,0-2.11.2-4.51,3.48-2.55,3.53,2.1,2.81-2.25,4.64-2.85,1.81,1.24.81,3.05,1,4.56s.68,2.58,2.24,3c1.16.27,2.61.67,3.36-.39s-.5-2.13-.86-3.2c-.06-.15-.23-.3-.22-.44.11-2-3.26-4-1.66-5.13,2.45-1.75,3.27,1.82,4.93,2.92s4,3.33,3.73-1.3c0-.44.79-1.29,1.28-1.34,6-.6,11.29-4.51,17.61-3.84,1.36.14,2.32.53,2.5,2Z"/><path class="cls-2" d="M296.24,63.43l-3.92.87c-.81,2,3,1.39,1.48,3.13-.89,1-2.13,2.5-3.89,1.9-2.38-.81-2.49,1-3.78,2-3.29,2.62-6,5.9-9.64,8.09-.31.19-1.33-.75-2-1.14-1.6-.9-3.39-2.4-5-.6s1.4,2.43,1.65,3.92a4,4,0,0,1-5-2.53c-1-2.32,1.18-3.1,2.57-4.25.81-.67,2.25-.94,1.63-2.64s.33-2.38,1.86-1.64c2.37,1.15,4.66-1,7,.11,1,.46,1.68-.33,2.17-1.45C283.42,64.32,290.23,61.39,296.24,63.43Z"/><path class="cls-2" d="M303.3,50.43c3.19.44,5.91.28,7.3-3,.24-.57,1.41-1,2.21-1.09,1.74-.22,4.28-1.27,4.94.7.53,1.6-.87,3.58-2.74,4.81C310.83,54.53,307,54.15,303.3,50.43Z"/><path class="cls-2" d="M309.14,71.91c-5.12,6-10.93,11-18.49,14C292.89,81,298.32,79.41,302,76,304,74.3,305.67,71.46,309.14,71.91Z"/><path class="cls-2" d="M286.45,89.09C281.9,94.21,275.52,96,269.26,98a2.14,2.14,0,0,1,1.54-2.72c4.95-1.58,9.66-3.53,13.62-7C285.11,87.7,286,88.25,286.45,89.09Z"/><path class="cls-2" d="M295.09,58.19c3.21,0,1.65-6.41,5.74-4.18,1.4.76,4.18,2.9,2.83,4.69C301.28,61.87,298.2,58,295.09,58.19Z"/><path class="cls-2" d="M119.84,229.34c4.83,1.57,8.49,4.82,12.22,8-3.79.23-5.59-3.58-9-4.13a4.9,4.9,0,0,1-2.95-1.71C120,230.76,119.93,230.05,119.84,229.34Z"/><path class="cls-2" d="M91.74,207.63c4.57-.57,4.94,3.81,7.34,5.8C95.19,213.21,93.12,210.83,91.74,207.63Z"/><path class="cls-2" d="M317.39,64.93c-1,3.59-3.72,5.22-7.24,5.95C311.17,67.31,314.28,66.12,317.39,64.93Z"/><path class="cls-2" d="M204.1,148.65c-3,1.57-6.27,1.67-9.56,1.73C197.38,148,200.49,147.05,204.1,148.65Z"/><path class="cls-2" d="M188.83,151.16c-2.47,2.26-5.45,2.66-8.66,2.27C182.5,150.7,185.72,151.12,188.83,151.16Z"/><path class="cls-2" d="M245.28,106.85a6.12,6.12,0,0,1-7.21-.06A6.84,6.84,0,0,1,245.28,106.85Z"/><path class="cls-2" d="M178.35,153.59a8.86,8.86,0,0,1-7.42,1.88C172.91,153,175.55,153,178.35,153.59Z"/><path class="cls-2" d="M101.31,215.37a4.85,4.85,0,0,1,3.93,3.09C103.13,218.38,101.4,217.86,101.31,215.37Z"/><path class="cls-2" d="M141.25,143.7a3.69,3.69,0,0,1,3.43,2.73c-2.3.21-3.09-1-3.39-2.77Z"/><path class="cls-2" d="M326.65,56.94c-.19,2-1.18,3-3.36,2.76C323.71,58,324.65,56.86,326.65,56.94Z"/><path class="cls-2" d="M320.5,62a2.86,2.86,0,0,1-3.11,3C317.44,63,318.45,62,320.5,62Z"/><path class="cls-2" d="M252.7,104.39c-.6,1.52-1.89,1.55-3.25,1.43C249.77,103.72,251.1,103.77,252.7,104.39Z"/><path class="cls-2" d="M169.09,155.64c-.88,1.29-2.11,1.07-3.37.75C166.52,154.79,167.56,154.16,169.09,155.64Z"/><path class="cls-2" d="M112.54,224.39a3.06,3.06,0,0,1,3,2C114.09,226.4,112.67,226.34,112.54,224.39Z"/><path class="cls-2" d="M115.64,226.37a3,3,0,0,1,3,2C117.15,228.4,115.77,228.28,115.64,226.37Z"/><path class="cls-2" d="M268.14,98.35a1.88,1.88,0,0,1-2.42,1.32C266.06,98.44,266.71,97.72,268.14,98.35Z"/><path class="cls-2" d="M108.47,221.38a1.93,1.93,0,0,1,2.11,1.62C109.11,223.4,108.54,222.7,108.47,221.38Z"/><path class="cls-2" d="M192.77,150.6c-.49,1-1.14,1.26-2,.38C191.22,149.82,191.86,149.53,192.77,150.6Z"/><path class="cls-2" d="M603.87,255.75c-.47,1.38-1.7,1.33-2.88,1.61-16.75,3.87-32.64,9.72-47,19-7.2,4.65-13.07,10.67-18.41,17.15C527,303.94,518,313.8,506.38,321.14c-6.44,4.08-13.12,5.53-20.39,2.4-4.89-2.1-10.4-2.35-15.12-4.93,6.49-2.25,12.23,1.7,18.41,2.26,4.56.42,8.24.58,12.62-1.8,16-8.72,26.84-22.46,38.39-35.56,5.26-6,12.18-9.85,19.25-13.23a287.15,287.15,0,0,1,31.92-12.93A27.75,27.75,0,0,1,603.87,255.75Z"/><path class="cls-2" d="M672.41,223.38c1.69-1.28.38-4.42,3.27-5a29.83,29.83,0,0,0,1.49,10.18c1.71,5.18-2.9,13.72-9.1,16.89-13.24,6.78-27.66,10.08-42.26,12.63-1.86.32-4.55,1.26-5.86-1.5,15.36-1.37,29.79-6.08,43.95-11.65C672.61,241.54,676.5,231.36,672.41,223.38Z"/><path class="cls-2" d="M459.43,318.73c-2.12,2.37-5.24,1.9-7.92,2.38-18.87,3.42-20.78,5.9-24,25.06-.23,1.38.42,3.08-1.45,3.89C423.73,325.46,435,318.06,459.43,318.73Z"/><path class="cls-2" d="M234.13,303c-3,.31-4.55-2.5-7.14-3.06-4.64-4.56-10.3-7.5-16.38-9.85-3.29-1.27-6.65-2.61-8.41-6,11.6,4,22.32,9.56,31.63,17.47C234.13,301.84,234,302.53,234.13,303Z"/><path class="cls-2" d="M617,256.38c-2,1.47-3.86,1.66-5.34-.71C613.55,255.33,615.48,254.5,617,256.38Z"/><path class="cls-2" d="M151.88,253c-.47-.59-1.18-1.1-.66-2,2,.29,3.84.72,4.79,2.69C154.42,254.66,153.26,253.22,151.88,253Z"/><path class="cls-2" d="M425.5,355.1c1.41,1.46,1.41,2.79-.39,3.95C424.09,357.63,423.94,356.29,425.5,355.1Z"/><path class="cls-2" d="M424.87,363.73c.61,1.3.89,2.52-.78,3.31C422.87,365.6,423.39,364.56,424.87,363.73Z"/><path class="cls-2" d="M144.65,246.81l-2.11.29c-.42-.62-1.11-1.17-.69-2.06C143.15,245.1,144.28,245.4,144.65,246.81Z"/><path class="cls-2" d="M300.12,334.66l-2.15.27c-.26-.68-.53-1.37-.8-2.05C298.54,332.87,299.79,333.06,300.12,334.66Z"/><path class="cls-2" d="M148.76,251c-.47-.59-1.16-1.1-.73-2,1.27.05,2.42.28,2.82,1.69Z"/><path class="cls-2" d="M145.63,249.09c-.41-.63-1.11-1.16-.68-2.06,1.29.08,2.45.34,2.8,1.78Z"/><path class="cls-2" d="M398.83,384.18c-.31,1.47-1.11,2-2.53,1.17A1.86,1.86,0,0,1,398.83,384.18Z"/><path class="cls-2" d="M664.55,182.49a17.44,17.44,0,0,0-12.62-5.5c-24.91-.5-46.3-11.75-68.61-20.19-17.82-6.74-35.56-13.7-53.42-20.36-4.44-1.65-9.21-2.46-13.8-3.73-1.9-.53-4.17-.4-5.33-2.45,1.88-1,3.63.81,5.49.24a114.53,114.53,0,0,1,16,3.86,2,2,0,0,0,2.59,1.13l2.56.84a2.06,2.06,0,0,0,2.54,1.21l4.66,1.86a2.14,2.14,0,0,0,2.53,1.16l4.69,1.76a2.06,2.06,0,0,0,2.54,1.21l2.61.79a2,2,0,0,0,2.52,1.22l2.64.72a2,2,0,0,0,2.58,1.19c22.79,7.19,44,18.53,67.21,24.62a44.93,44.93,0,0,0,12.18,1.6c9.07-.14,17,3.39,24.82,7.18,1.19.57,2.5,1.17,2.8,2.69l-3.18,0C667.5,182.18,665.94,182.62,664.55,182.49Z"/><path class="cls-2" d="M675.59,217.28l-1-1.81c2.91-4.7,2.28-9.84,1.95-14.93.17-1.12.35-2.25-.87-3l-.14-3c.18-1.32-.54-1.94-1.79-2.15-.2-1.65.56-3.52-1.17-4.83.15-.82.3-1.64.46-2.46,3.46,1.86,3.71,5.39,4.42,8.5,1.38,6.1,3.17,12.26,1.35,18.57C678.25,214.09,678.42,216.63,675.59,217.28Z"/><path class="cls-2" d="M673,185.11c-.16.82-.31,1.64-.46,2.46a4.28,4.28,0,0,1-4.06-4l3.18,0Z"/><path class="cls-2" d="M559.46,145.54a2,2,0,0,1-2.52-1.22C558.34,143.64,559.1,144.2,559.46,145.54Z"/><path class="cls-2" d="M554.33,143.53a2.06,2.06,0,0,1-2.54-1.21C553.17,141.67,554,142.19,554.33,143.53Z"/><path class="cls-2" d="M547.1,140.56a2.14,2.14,0,0,1-2.53-1.16C546,138.7,546.72,139.22,547.1,140.56Z"/><path class="cls-2" d="M564.68,147.45a2,2,0,0,1-2.58-1.19C563.47,145.61,564.26,146.15,564.68,147.45Z"/><path class="cls-2" d="M539.91,137.54a2.06,2.06,0,0,1-2.54-1.21C538.75,135.69,539.54,136.21,539.91,137.54Z"/><path class="cls-2" d="M534.81,135.49a2,2,0,0,1-2.59-1.13C533.57,133.69,534.36,134.22,534.81,135.49Z"/><path class="cls-2" d="M430.52,101.19c-1.18-1.69-3.67-.93-4.94-2.46,0-.65,0-1.3,0-2,5.3,2.37,11.34,3.42,15.42,8C437.1,104.61,434.54,100.91,430.52,101.19Z"/><path class="cls-2" d="M500.66,127.82c2.29-1.21,4.51-1.91,6.29.77C504.8,128.76,502.59,129.35,500.66,127.82Z"/><path class="cls-2" d="M492.05,126.47c1.52-.79,2.83-.79,3.68.91C494.28,127.94,493,127.88,492.05,126.47Z"/><path class="cls-2" d="M473.54,120.32c1.36-.59,2.17-.09,2.56,1.22A2,2,0,0,1,473.54,120.32Z"/><path class="cls-2" d="M478.69,122.34c1.36-.61,2.16-.1,2.55,1.21A2,2,0,0,1,478.69,122.34Z"/><path class="cls-2" d="M132.1,237.35a3,3,0,0,1,3.06,1.92C133.63,239.39,132.25,239.29,132.1,237.35Z"/><path class="cls-2" d="M231.88,141.66l1-1c8.94-1.38,15,4.37,21.42,8.63a63.63,63.63,0,0,0,9.46,5.47c9.48,4.21,16.93,11.15,23.82,18.56A51,51,0,0,0,300,182.86c1.8,1,4.65,3.28,6.16-.86.82-2.24,2.44-1,3.84-.61,5.66,1.46,10.53,4.68,16,6.73,5.09,1.92,10.3,2.07,15.35,3.4,1,.26,2.15.16,3,.65,15.62,9.56,33.78,12.36,51.06,17,15.53,4.16,28.57,12.23,42.31,19.43,12.75,6.67,25.91,12.66,38.46,19.67,9,5,18.52,7.2,28.59,8.11,3,.28,5.65-.71,8.35-1.93,7.93-3.58,17.45-2.83,21.71,1.5,1.53,1.55,3.55,3.26,2.56,5.53-.89,2-3.53,1.43-5.44,2-4.48,1.27-9.22-1-13.46.89-7.75,3.51-13.46,8.77-14.74,17.53-.39,2.65-2,3.93-5.09,4.59-6.32,1.35-12.92,0-19.16,2.61-4,1.7-7.06-2.62-10.86-3.49-3.65-.83-7.54-4.09-8.29,3.09-.32,3-3,.95-4.44.28-6.43-3.11-13.74-1.3-17.23,3.08-1.11,1.4-2.2,2.68-1.45,4.45a4.43,4.43,0,0,0,4.44,2.78c8.5,0,17.1.28,25.45.71,9.09.47,18.22-3.65,27.15.22.14.07.36,0,.5,0,1.84.82,4.78-2.4,5.26.14.5,2.72-3.48,2.29-5.23,2.54-11.43,1.59-22.57,4.67-34.18,5.53-6,.45-12.35-.48-18.26,3.16-2.93,1.79-7.36,2-11.1,3.05-3.91,1.08-6,3.13-7,6.4-1.71,5.73-5.8,10.06-10.14,13.44-8.73,6.8-17.67,13.49-27.89,18.34-8.68,4.11-15.86,1.76-23.4-3-8.27-5.22-17.31-9.29-25.77-14.26-12.89-7.56-27-12.7-40.26-19.49-15.85-8.11-31.51-16.56-47.29-24.79-2.4-1.26-5.05-2.05-7.5-3.23-1.18-.57-2.8-1.49-2.22-2.94s2.2-1.93,3.9-1.2a15.77,15.77,0,0,1,2.84,1.09c11.91,8.35,25.39,13.89,38.91,18.88,13.35,4.93,25.79,12.29,40.1,14.68,4.25.71,8.52,1.72,13.44,1.51-.56-1-.68-1.68-1-1.78-8.35-2.63-12.4-10.46-19.33-15-5.35-3.48-8.36-9.8-11.94-15.18a5.43,5.43,0,0,1-.52-2.89c-.07-9.38-2.43-12.32-11.66-12.84-10.64-.61-21.35-.45-31.43-4.53-1.4-.57-2.61-.14-4,.13-6.86,1.38-13.48,1-19.59-2.78a3.94,3.94,0,0,0-2.35-.78c-13.6,2.42-25.07-4.78-37.41-7.87C183.24,252.47,169,243.43,154.8,235c-8.54-5.06-18.09-9.52-24.53-17.67-2.35-3-6.77-3-9.47-5.72-1.16-1.17-3.23-1.81-3-3.69s2.36-2,4-2.48a31.55,31.55,0,0,1,8.11-1c6.29-.07,12.5.23,18.8-1.64,6.55-1.93,12.27,1.82,17.36,5.41,5.45,3.84,10.67,7,17.92,7.53a67.46,67.46,0,0,1,20.74,5.1,32.1,32.1,0,0,0,14,2.55,43.8,43.8,0,0,1,15.63,2.25c5.26,1.69,10.86,1.11,16.24,1.53,10.32.79,19.5,4.22,28.48,8.67a8.11,8.11,0,0,1,2.62,2.26c4.92,6.27,12.58,7.62,19.55,10.05,2.95,1,5-.49,4.79-3.89-.08-1.15.11-2.47-.4-3.42-4.25-7.92-5.67-17-10.47-24.66-2.83-4.54-1.91-6.64,3.09-8.75s10-4.83,15-1.27c4.28,3.05,7.72,7.2,11.63,10.75,6.05,5.51,11.77,11.51,21.37,10.68a6.89,6.89,0,0,1,6.94,3.48c2,4.09,5.37,7.25,7.89,11,2.9,4.29,7.09,6.1,12.4,5.23,6.21-1,12.3-2.7,18.64-3a4.66,4.66,0,0,0,3.95-2.07c2.55-4.95,7.36-7.72,11.25-11.37.72-.68,2-1.12,1.41-2.3-.82-1.68-2.37-.54-3-.07-8.27,5.83-14.31,2.18-20.67-3.6-5.71-5.19-8.83-4.57-14.42,1.22-1.8,1.85-3.1,1.27-4.79-.08a27.14,27.14,0,0,1-7.35-10.07c-2.75-5.85-8.21-9.79-11-15.55A2.91,2.91,0,0,0,346,199c-8.42-3-17.17-5.53-25.85-2.16-8,3.11-14.47,4.15-21.45-2.54-6.52-6.25-8.18-5.48-16.05-.84-2.13,1.25-4.82,4.69-7.58,2.09s-6.55-5.28-4.51-10.15c.81-2,.28-2.77-2.14-2.19-4.24,1-5.51-.92-6.87-4.93-3.53-10.41-8.46-20.24-19.89-25-1.57-.65-3-1.65-4.63-2.15C232,149.63,229.71,146.79,231.88,141.66Z"/><path class="cls-2" d="M668.51,183.58a4.28,4.28,0,0,0,4.06,4c1.73,1.31,1,3.18,1.17,4.84a1.76,1.76,0,0,0,1.79,2.14c0,1,.09,2,.14,3-1.52,1.49-1.19,2.47.87,3,.33,5.09,1,10.23-1.95,14.93-1.92.08-2.74,1.7-3.19,2.91-2.39,6.5-8.25,8.25-14.08,10.21-7.4,2.49-14.35,6-21.79,8.51-7.26,2.42-14.41,2.42-21.75,1.28a20.44,20.44,0,0,0-3-.76c-4.68-.05-8.28-.17-3.53-5.9,1.76-2.13-.4-4.9-3-5.11A30.7,30.7,0,0,1,590.43,222c-5-3.35-11.41-3.16-15.4-7.07-3.73-3.65-8.33-6.21-11.79-10.06-1.9-2.11-4.8-1.28-7.16-2.29-13.12-5.6-25.92-12-39.17-17.14-15.57-6.05-31.5-11.72-48.61-12.9-4.29-.29-8.33-3.28-12.89-1.06-.91.44-2.22.46-2.8,1.13-5.24,6-11.69,5.26-18.79,4.22-7.39-1.07-15-.86-22.48-1.2l-22.33-1c-5.57-.25-10.69,1.89-16,2.88-14.13,2.59-28.05,1.16-42-1.27-10-1.74-19.79-4.6-29.73-6.72-4.33-.92-6.51-4-5.36-7.59.66-2,2.15-4,4.48-2.85,6.21,3.05,13.09,1.9,19.52,3.45,8.52,2.05,17.06,4.58,25.9,4.34,7.22-.19,14.48.44,21.7-1.41,7.79-2,15.5-4.83,24-3,5.11,1.1,10.33-1.09,15.52-1.58a61.15,61.15,0,0,1,38.06,8.41c1.56.92,3,2.09,4.42.21s-.81-2.54-1.64-3.65c-.1-.13-.27-.22-.36-.36-1.62-2.37-6.22-3.64-4.86-6.79.95-2.21,5.22-1.27,8-2,8.61-2.24,17.6-.56,26.41-2.69,5.85-1.4,12.21,2,17.45,4.83A192,192,0,0,0,539,176c17.81,4.54,35.92,8,54.58,6.58,2.75-.22,5.4-.1,7.76,1.79a5.41,5.41,0,0,0,5.34.74c3.9-1.33,5.83.36,6.22,4.16.25,2.47,1.08,3.94,3.91,2.07,1.48-1,3.18-1.32,3,1.21-.3,5.22,2.33,7.67,8.13,7.19,1.21-.1,2.57-.55,3.17.79,1.6,3.52,4,1.57,5.28.32,3.59-3.51,7.7-6.44,11.27-10,4.32-4.34,9.78-8.3,16.83-8.34C665.94,182.62,667.5,182.18,668.51,183.58Z"/><path class="cls-2" d="M239.27,188.83c-2.22-4.75.2-10.53-4.13-14.64-.87-.83-1.69-2-.51-3s2.49-.51,3.71.36c3.88,2.74,4.41,7.92,7.91,10.71,9.58,7.65,14.47,19.46,25.08,26.17,2.77,1.74,3.64,4.32,2.08,7.36s-4,4.8-7.76,4.49c-8.56-.69-15.84-4.58-22.51-9.22-3.82-2.66-4.54-7.91-4.68-12.15C238.35,195.64,236.8,192,239.27,188.83Z"/><path class="cls-2" d="M211.3,270.34c7.13.22,10.95,5.61,16.25,8.35.68.35,1.33,1.28.53,2.05a2.1,2.1,0,0,1-1.84.21c-5.73-2.53-11.43-5.12-17.12-7.72-.78-.36-1.71-1-1.41-1.81C208.44,269.4,210.43,270.92,211.3,270.34Z"/><path class="cls-2" d="M676.54,200.54c-2.06-.52-2.39-1.5-.87-3C676.89,198.29,676.71,199.42,676.54,200.54Z"/><path class="cls-2" d="M675.53,194.55a1.76,1.76,0,0,1-1.79-2.14C675,192.61,675.71,193.23,675.53,194.55Z"/><path class="cls-1" d="M352.38.2Q526.55.2,700.72.08c3.72,0,4.28,1,4.28,5q-.16,203.51,0,407c0,3.94-.59,4.95-4.29,4.95q-348.09-.19-696.18,0C.68,417,0,415.89,0,411.76q.17-203.51,0-407C0,1,.55.09,4,.09Q178.22.3,352.38.2Zm209,335c2-.63,4.15-.92,5.84-2.54l4.85-.71,2.08.34c2.55,1.18,5.07,2.48,7.89,2.67,1.73,1.19,3.45,1.39,5.13-.11l3.08-.94c2.22.24,3-1.56,3.15-3.42.25-2.55-1.54-3.42-3.36-4l-3.47-5.23a2.33,2.33,0,0,0,0-2.44c3.74-4.37,10.7-4.63,16.33-.6,1.1.78,1.92,2.49,3.36,2.16,6.22-1.41,12.63.56,18.81-1.35,7.86,1.23,14.46-3,21.3-6.22,5.61-2.59,8.82-7.4,9.9-14.08a10.89,10.89,0,0,0,0-5.83,9.66,9.66,0,0,0-3.8-8.6,3.74,3.74,0,0,0-2-2.88,9.62,9.62,0,0,0-4.89-6.22l-.2-.43c-1.48-4.19-4-7.11-7.85-8.59l-5.12-8.32a2,2,0,0,0-1.08-2.13,8.78,8.78,0,0,0-2.93-4.62c-.23-1.59-.76-2.95-2.25-3.52a105.08,105.08,0,0,0-23.15-22.48,23.92,23.92,0,0,1-8.77-12.17c-.21-2.09-1.54-2.52-3.08-2.64a10.12,10.12,0,0,0-6.53-7.74c-.43-1.37-1.19-2.17-2.58-1.89l-.17-.32-.34,0c-.37-1.41-1.1-2.2-2.5-1.89l-.19-.34h-.36a16,16,0,0,0-8.44-6.41l-5-5.69a8.7,8.7,0,0,0-3.13-5.59c0-1.57-.05-3.13-.08-4.7a6.43,6.43,0,0,0,2.61-5.13l.18-.23c4.71-3.59,5.85-7,3.5-10.32-1.46-2-3.58-1.83-5.47-1.84-6.75-.06-12.72,2.92-18.5,6.49-2.8-.35-5.7.09-8.3-1.56l-.53-1.92.63-2,4.53-4.07c5.32-2.84,10.55-5.81,14-11.53a4.6,4.6,0,0,0,1.22-3.79c.7-2.5-.37-3.45-2.43-3.53l-.93-1.11c-1-7.84-5.07-14.06-8.52-20.63-2-3.77-4.63-5.6-8.54-5.54-2.79,0-6,1.06-8.31-.89-6.28-5.29-13.39-4.86-20.54-4.73-4.79.08-8.45-1.93-11.41-6.54-3.18-5-5-11-9.56-14.87-3.17-2.68-7.09-4.65-9.47-8-5.44-7.7-11.36-6.74-17.67-2.76a13.33,13.33,0,0,1-8.93,2c-5.73-.53-11.7-1.44-17.32.57-2.73,1-4.41.75-6.72-1.16-6.33-5.23-18.05-4.33-21.59,6.72a20.19,20.19,0,0,1-2.11,4.45c-2.05,3.3-3.69,8.07-8.11,6.94s-3.51-6.11-3.91-9.89c-.48-4.57-1.61-8.93-6.28-9.51-11.6-1.43-23.28-2.1-34.43,2.78-3.44,1.51-4.92,1-5.65-2.91C342,64.38,338,61.3,332.08,60.36c-4.11-.66-8.15-1.81-12.21-2.81-9.14-2.24-12-.43-14.64,9.72-.87,3.41-2.14,5.81-5.25,7.51a14.89,14.89,0,0,0-6.83,9.3c-.51,1.84-.84,5.21-2.92,4.36-2.79-1.15-7.18,1.07-8.31-4.26-.83-3.84-3.54-4.17-5.86-2.79-5.77,3.44-12.09,3.7-18.23,5.16-9.75,2.33-12.27,6.08-12.59,16.83a15.94,15.94,0,0,1-.54,2.7c-.58.56-1.27,1-1.07,2.11l-.77.49c-2.32.64-2.86,3-3.31,5-.94,4.26-1.48,8.63-2.19,13l-.63.87c-1.51.25-1.62,1.17-.92,2.47l-1.16,3a6.53,6.53,0,0,0-3.27,6,3.53,3.53,0,0,0-1.27,2.84c-2.25,1.56-3.49,4-4.53,6.61a53.47,53.47,0,0,0-12,13.71c-6.52,7-11.91,15.06-14.94,24.63a155.3,155.3,0,0,0-7.27,41.58c-.13,3.86-1.2,8.2.88,11.52,1.81,2.9,2.08,5.76,2.08,9,0,12.29-.7,24.64.19,36.84.81,11.19,1.45,21.81-3.48,32.21-2.05,4.31,1.14,6.55,4.76,6.93a67.31,67.31,0,0,1,13.76,2.57c9.14,2.94,13.18,9.41,12.25,20-.84,9.54-2.33,19-6,27.73-1.54,3.69-1.68,7.64-1.66,11.55,0,4.91,4.92,12.91,7.93,13.26,17.48,2,35,3.26,52.59,2.57,9.45-.37,10.83-2.05,12.94-12.12,3.62-17.3,7.44-34.54,13.07-51.21,1-3,2.53-4.29,5.13-4.13,4,.24,7.92.54,11.86,1.05,12.1,1.56,23.37-4.06,35.26-5.21,21.36-2.08,43-1.86,64.08-7.29,5.61-1.45,11.11,0,16.68-.44,6.42-.49,11.92-4.26,18.21-4.4,1.4,0,3.16-1.39,3.79.91.55,2-1.39,2.22-2.48,2.81-1.67.9-2.76,2-2.31,4.33a4,4,0,0,0,3.56,3.39c1.63.3,3.33.07,5,.31,6.23.92,7.67,2.64,7.53,9.75-.13,6.14,1.09,11.43,5.5,15.53,3.33,3.1,3.39,7.13,1.5,11.19-1.07,2.31-2.56,4.38-3.73,6.64-5.33,10.19-12.89,18.38-19.26,27.64-2.64,3.84-2.11,7.56,1.53,10.27a11.15,11.15,0,0,0,6.07,2.24c11.64.73,18.86-5.65,23.46-17.29,4.31-10.89,8.44-22.08,18.14-28.76,1-.68,2.69-1.78,1.67-4l-5.59,2.46,6-9.1c2.26-.23,3.27-1.79,3.53-4.17a.48.48,0,0,0,.07-.67c1.16-1.17,1.9-2.46.92-4.23,1.55-3.42,1.1-8.33,5.42-10.13.7,2.29-.35,4.3,1.07,5.86,1.66-.37,2-2.28,3-3.31,1.45.16,2.9.32,4-1.09h1.85c.61,1,1.35.95,2.14.3,1.92,1.09,4,1.18,6.09,1.4.59,1.3,1.46,2,2.79,1.56.62.88,1.29,1.72,1.84,2.65,5,8.47,10,9.35,17.23,3,2.5-3,5-6,6.46-9.88Zm18-182.22c-3.35.06-6.48-.32-6.12,3.86.33,3.76,3.36,3.44,5.86,3.34a3.19,3.19,0,0,0,1.9-.55c3.23-2.7,6.19-.86,9.2.54a35.35,35.35,0,0,0,4.61,2c2.52.77,4.07-.26,4.6-3.37,1-5.51-2.79-10.1-7.1-7.65C587.65,153.84,583.57,156.56,579.36,153Zm26.81,34.67c3.72,0,6.92-1.13,8.52-5.39,1-2.79.81-5.67-1.89-6.54-4.44-1.44-9-1.05-12.67,2.63-2.79,2.78-2.41,5.57.81,7.59A10,10,0,0,0,606.17,187.68Zm-25.58-2.39c4,.34,6.14-.91,6-4.88-.17-4.65-3.12-5.86-6.52-5.91-3,0-6.14.88-6.19,4.86C573.81,184.84,578.17,184.52,580.59,185.29Zm34.5-31.17c-2.14.22-4.88.64-5,4.26-.08,2.49,1,5,3.92,4.35,2.5-.51,5.77-.53,5.85-4.51C619.91,155.55,618.15,153.89,615.09,154.12ZM509.42,357.06c-.37-1.74-1.4-1.43-2.37-1.16-1.92.53-3.43,1.54-3.25,4.16.08,1,.65,2,1.58,1.51A7.38,7.38,0,0,0,509.42,357.06Z"/><path class="cls-2" d="M225.58,148.47c1-2.61,2.28-5.05,4.53-6.61,3.83.53,7.95,1.07,10.32-3.11s-.25-8-1.7-11.83l.1-.46c1.18-.33,2.13-.8,1.07-2.4l.18-4.07c.87-.67,1.88-1.28.81-2.7.12-1.16-.13-2.44.83-3.34,5.13,3.73,5.85,7,2.58,11.81-1,1.41-.36,2.46.61,3.35,3.15,2.92,6.55,2,8.51-2.14,1.44-3,1.64-6.45,2-9.7.22-1.89-.41-5.84-2.43-5.21-4.35,1.36-6.5-2-9.39-3.87-.2-1.06.49-1.55,1.07-2.11,2.41-.18,2.21-2.18,2.22-4,0-7.34,1.67-9.52,8.24-10.92,2.39.68,5.31-.66,7.22,1.38a71.58,71.58,0,0,0,17.69,13.89c.85.48,1.92,1.77.71,2.56-4.73,3.1-.68,5.6.39,8.09.82,1.92,2.62,3.38,4.51,2,1.63-1.16,1.21-3.41.29-5-1.86-3.26-2-4.64,2.13-3.69,2.06.48,5.3,1.44,6-1.81a7.35,7.35,0,0,0-3.56-7.84,30.44,30.44,0,0,1-4-3.08c-3.3-2.72-2.82-5.17.13-7.66,4.79,2,7.85,1.24,8.2-5.58A7.92,7.92,0,0,1,299.27,78c5.32-2.65,7.76-7.67,9.14-13.5.64-2.66,1.68-4.34,4.11-4.77,1.63,1.91,3.32,1.84,5,.16l4.95,1.51c.67,2.23,1.68,2.45,3.05.68,12.73.69,16.55,4.8,15.71,16.93-2.78,2-3.18,6.51-2.07,7.86,1.76,2.15,2.92-2.16,4.72-3a2.7,2.7,0,0,0,1.6-2.55c2.59-3.62,5.32-7,10-6.85,1.67,1.62,3.13,2,4-.87l2-.15c2.43,1.46,4.82,2.27,7-.52a28.55,28.55,0,0,1,10.9-.12c1.44,2.52,3.76,2.65,6.06,2.82,1.67,1.43,2,3.44,2,5.64-1.41,2.81-2.09,5.54.64,7.93l3.36,4.41c.05,1.86.84,3.59,2.49,3.2,2.2-.52,4.84-1,5.45-4.31a50.73,50.73,0,0,0,6.36-11.22c3.47-8.64,5.94-10.21,14.61-8.87.29,1.63.75,2.69,2.07.77,2.82,2.84,5.95,4.55,9.84,3.45,2.76.44,5.53,0,8.34.59,2,.44,4.62.47,5.92-2.4,3.23-.55,6.39,1.93,9.66.31.14,2.37,1.69,4.49.74,7.1-.66,1.83-1.58,4.27.59,5.42,2,1.06,3.9-.42,5.25-2.15,1.08-1.38,1.62-3.36,3.8-2.84,2.9.71,5.81,1.38,8.72,2,2.73.56,3.83,2.4,4,5.45.5,8,.69,8.08,7.62,8.07,1.83,0,3.66-.09,5.48-.14h0c-.57,2.61-6.94,6.93-9.2,6-1-.41-1.83-1.76-3-.47a1.88,1.88,0,0,0-.18,2.49c.81,1.23,1.94,2.62,3.26,2.06,3.8-1.6,7.48.92,11.18.11,2-.44,4.84,1.69,5.82-2.21l10.95.3c2.76,4.1,6.84,5.38,11,6.34,1.38.32,1.94-1,2.06-2.44a35.29,35.29,0,0,0,6.16,1.61c7,.68,12.82,3.56,15.57,11.59a29.69,29.69,0,0,0,2,5.05c1.33,2.33,1.44,5.74,4.43,6.66l.93,1.11c-.48,2.31.42,3.41,2.43,3.53a4.6,4.6,0,0,1-1.22,3.79,1.94,1.94,0,0,0-2.65.25c-3.88,3.19-7.8,6.31-11.71,9.45-1.9.07-3.29,1.51-4.91,2.33a9.57,9.57,0,0,0-3,0c-9.19,3.13-18.13,1.8-27.27-.84-4.09-1.17-9.31-2.05-12.61,2.55-4.16,5.8-9.8,9.24-15,13.38-15,11.91-31.78,19.73-48.74,27.23-1.86.82-4.76,1.14-5.34,4.4-3.08-.5-6.14-1.05-8.89-2.84-.22-.6-.51-.82-1-.25l-3.07-.22L400,195.4c-4.74-.37-9-2.8-13.51-4.11-2.17-2.12-4.3-4.79-7-.79l.19,2.32a.71.71,0,0,0-.57-.14c-.6.23-1.39.49-1.14,1.33.14.47.93.7,1.42,1l0,2.21c-3,2.84-2.81,6.42-1.87,10.17-.06.74-.11,1.48-.16,2.21-2.8,2.73-3.33,6.27-2.89,10.16l-.13,2.22c-4.55,4.11-3.78,10.67-5.76,16a7.81,7.81,0,0,1-1.18,4.31c-5.55,4.55-11.48,7.11-18.42,4.57a2.1,2.1,0,0,0-1.48,0c-6.5,2.82-8.5-6.07-13.67-6.67-2-8.17-9.24-10.63-13.89-15.92-1.49-1.7-3.41-1.58-4.88.14-2.15,2.52-4.55,5-4.43,9,0,.34,0,.69-.08,1-1.18.23-2.45.39-1.12,2.22,0,.72,0,1.44-.05,2.16l-1.88,1.24c-2.31.45-2.62,2.5-2.88,4.59a5.75,5.75,0,0,1-.2,1,41.6,41.6,0,0,0-11.83,21.41l-2,3.4c-2.56.19-3.09,2.09-3,4.52h0c-1.84,0-4.38.1-4.39,2.39,0,2.5,2.54,2.95,4.59,3.07l2.81.13c.34,3.84-.72,4.42-4.25,3.74-6.72-1.27-12.42-5.7-19.08-6.86-1.53-1.29-2.52-3.41-4.65-3.74l-1-.92c-1.28-.76-2.26-2.22-3.92-2.1a10.21,10.21,0,0,1-.43-9.23c2.43-6.25,6.23-11.85,7.32-18.79.25-1.63,1.24-3-.16-4.57-5.62-6.39-3.75-16.8-9.71-23.13-1.35-1.43-2-3.84-2.69-5.89s-.53-3.91,1.42-4.71c1.77-.73,2.69.62,3.24,2.46s1.36,3.81,2,5.74c.35,1.07.73,2.41,1.89,2.11,1.65-.43,1-2.06.8-3.26-1.39-9.83-1.3-9.63,6.21-14.39,2.89-1.84,6.92-3.92,3.3-9.33-.67-1-.11-3.28.24-4.87s.1-2.9-1.12-3.26c-5.86-1.77-8-8-11.81-12.15-3.1-3.41-6.64-6.27-11.94-4.15-5,2-3.32,6.14-3.51,9.7-.16,3.13-.7,7.43-2.89,7.75-5.44.79-3.94,5.2-3.92,8.16,0,6.2-.51,7-5.65,5-3.57-1.41-4.68-5.52-3.51-9.86.7-2.59,4.28-7.49-2.58-7.24-1.64.06-1.49-1.59-.94-2.93a26.69,26.69,0,0,1,1.95-4.49C229.77,162.44,231.47,155.57,225.58,148.47Zm81.65,39c-.15-2.17-1.67-2.94-2.59-4.19s-2.41-2.29-1.76-4.3,2.29-1.67,3.74-2.05a30.8,30.8,0,0,1,12.84-.93c5.14.85,10.21.33,14.3-2.63,4.44-3.21,7.45-2.43,11.26.8,2.3,1.95,12.61-3,12.74-6.11.31-8.1,3.84-3,6-2.08,4.1,1.79,7.39,8.63,12.64,2.11.38-.47,1.61-.2,2.43-.08,4.24.63,7.05-1.56,9.8-5.1,3.64-4.7,7.44-8.95,13.73-10.07a16.21,16.21,0,0,0,10.85-8.29c.79-1.47,3-3.12,1.68-4.78s-3.52-.05-4.82,1.14c-3.48,3.17-6,1.85-8.43-1.58a17,17,0,0,0-2.52-2.64c-2.46-2.31-5.47-3.74-8.26-1.82-3.18,2.18-.41,5.36,0,8.1.08.54.38,1,.49,1.58.48,2.37,2.35,5-1.21,6.51-3,1.27-5.79,2.13-7.32-2.43-1.15-3.44-3.27-3.72-6-2.26-1.63.87-3.48,1.18-5.18,1.88s-3.87.63-1.92,4c1.42,2.42-.42,3.45-2.35,3.11-1.43-.25-2.21-.61-3.08,1.34-1.59,3.55-3.82,3.15-5.71.12-1.09-1.74-2.15-3.61-4.24-3.34-3.37.43-5.71-1.19-7.77-3.94s-4.22-1.27-4.5,1c-.93,7.91-6.09,7.09-10.79,7.32-8.88.44-16.92,4.2-25.19,7.37-5.28,2-10.32,10.63-16.83,2.19a1.2,1.2,0,0,0-2.1.36c-.46,1.25.53,2.09,1.31,2.73a131.9,131.9,0,0,1,16.69,16.65A1.47,1.47,0,0,0,307.23,187.48ZM267.57,114c.32-3.46-1.47-5-3.72-5.19s-2.17,2.29-2.18,4.14-.12,3.51-1.66,4.94c-2.26,2.1-1.76,5.26-.88,7.76.77,2.22,2,4.31,2.37,6.67.49,3.33,2,5.49,4.82,6.29,1.07.3,3.13.16,2.91-1.06-.63-3.55,3.38-6.34,1.14-9.83C267.63,123.42,266.44,118.86,267.57,114Zm64.91,32.67c-1.49.14-2.64.77-2.71,2.55s1.23,1.86,2.38,1.86c1.34,0,2.81-.21,2.93-2.06S333.78,146.78,332.48,146.66Zm6.66,3c-.28-.14-.61-.45-.81-.36s-.26.57-.38.88c.27.14.61.45.81.36S339,150,339.14,149.68Z"/><path class="cls-2" d="M535.88,163.18c2.6,1.65,5.5,1.21,8.3,1.56.16,2.46,2.57,5.68.1,7.23-5.56,3.48-5,8.68-5.52,14.63s-.15,7.43,5.57,4.18c-3.08,5.47-.47,12.15-5,16.64-1.24,1.23-1.71,2.65-.49,5.48,1.4,3.24,2.44,8.36.77,12.08a56.75,56.75,0,0,0-4.4,15.87c-.13.94-.17,2.14-1.18,2-.64-.07-1.31-1-1.77-1.7-.85-1.29-.43-2.72-.36-4.23.28-6.3.26-12.62.28-18.93,0-1.47-.11-3.41-1.94-3.13-1.55.25-1.08,2.19-1,3.32.87,7.83-3,15.64-.11,23.49a5.78,5.78,0,0,1,0,2.23c-.64,8-1.32,16-1.91,24-.15,2.06,0,3.66-2.76,2.86-8.14-2.38-16.16,1.35-24.36.87a166,166,0,0,0-18.65.24c-6.62.35-13.31-.67-20.08-.12-3.32.27-7.82,3.07-10.77-1.9-.2-.34-1.46-.38-1.79,0-2.24,2.3-5,1.73-7.6,1.92-5.51.41-7.36,4-6.83,9.64.42,4.37-.47,8.6-1.13,12.77-1.4,8.94.47,18.3-2.91,26.93-11.14-1-22,1.93-32.91,3.4.61-8.2-3-15.47-4.15-23.3-.38-2.53-3.94-2-5.71-1.84-2.07.24-.4,2.65-.23,4.09a17.66,17.66,0,0,1-2,9.64c-.18.38-.75.54-1.06.75-1.58-1.13-.1-3.48-1.91-4.59-1.41,1-2.27,3.2-4.87,2.15-2.19-.88-2.32,1.35-1.36,3.09,1.54,2.78,1.88,5.89,2.28,9-2.11-.52-4,.74-6,1.05-1.74-2.18-1.8-4.25-.57-7s.79-6.31-2.48-6.13c-6,.32-11,8-10.85,15.51l-6,2c.79-7.56-4.54-2.77-6.78-3.88-2.8-1.39-1.94,2.21-2.23,4-5.94.15-11.34,2.88-17,4.5.46-4.77.81-9.55,1.43-14.29.23-1.73-.49-3.19-1.5-2.36-2.71,2.21-6.3,1.51-8.65,3.31-2.19,1.67-3.89,2.52-6.2,1.51-3.41-1.5-4.95.56-5.84,3.76-.53,1.93-.77,4-1.14,5.95-3.34,1.95-6,4.52-6.59,9-.41,3.41-1.95,6.29-3.12,9.37a150.74,150.74,0,0,0-8.32,31c-3.42.88-5.05,3.9-6.62,7-4.5,8.93-8.81,10.67-17.49,7.14-2-.83-4.73.66-6.14-2.29-.49,5.34-6.39,2.3-7.71,6.34l-1-.1c-.29-3.68-2.1-5.81-5.34-5.55-3,.24-2.53,3.15-2.59,5.48-4.74.79-9.4.08-14-1.06-1.48-4.75-4-9.17-3.47-14.55a18.28,18.28,0,0,0-2.58-11.44q2.44-13.92,4.88-27.84c1.19-6.76-3.27-14.77-9-17.25-5.3-2.31-10.72-3-16.29-3.42-4.65-.33-6.14-3.13-4.48-7.84a42.84,42.84,0,0,0,2.35-19c-.63-6.38-2-12.87-1.07-19.41.62.55,1.78,1.1,1.79,1.66.07,4.34,4,7,2.72,12.59-1.07,4.57,1.88,10.18,1.93,15.57,0,1.86,1.31,2.65,2.78,3.45A16.53,16.53,0,0,1,213.55,321c.6,2.26,1.3,2.85,3.73,3,5.39.28,11.62-.08,13.43,8.26.25,1.15,1.29,2.13,2.08,3.08,2.67,3.23,5.61,6,6.83,10.68.63,2.43,2,6.75,5.94,5,6.76-3,12.61-.78,18.14,3.5,4.2,3.26,8.71,5.52,13.71,3.6,4-1.53,7.41-4.62,11.92-5,1.55-.12,2.79-2.5,3.52-4.47s1.14-4,2.18-5.62c1.89-3,1.17-4-1.78-3.72-5.57.6-9.63-3.59-14.26-5.81-4.36-2.09-2.67-8.31-5-12-.37-.57.64-1.12,1.29-1.33,3.91-1.26,2.13-3.33.36-4.89-3-2.63-6.19-5-9.35-7.4-1.27-1-2.78-3.28-4.15-1.44s.8,3.17,2,4.41c.45.48,1.22.77.79,1.87-1.74,1.45-5.64-.7-5.83,2.61-.51,8.84-5,4.79-8.14,3.36-4.38-2-9.94-3.36-9.33-11,.78-8.72,3.06-16.82,7.86-23.86,2.14,3,4.65,5.61,6.76,8.69,2.44,3.57,6,6.49,10.61,3.89a13.12,13.12,0,0,1,4.78,3.91c2.52,3.55,5.15,3.57,8,.56,1.63,4.09,3.87,8.07,1.58,12.82-.55,1.15.63,1.34,1.06,2,2.48,3.69,6.77,3.7,9.67,6.3,2.15,1.92,3.37,1.69,4.75-.76.87-1.56,2-3,3-4.44,3.07-.38,3,1.41,2.71,4.16-.43,3.67-3.25,6.82-1.74,12.39,3.54-7.57,5.23-14.49,7.17-21.3.37-1.33,1.49-3-.18-4a3.31,3.31,0,0,0-4.18.73c-.78.81-1.51,2.91-2.64,1.48-3.39-4.26-9.1-5.64-11.12-11.53,2.35.53,3.88-2.88,6-2.05,4.42,1.78,8.52-.31,12.67-.93,2.89-.42,4,.31,4.59,3.23.32,1.61.87,3.16,1.34,4.86,1.69.35,2.72-2.28,4.61-1.16,2.29,1.34,4.58,1.57,6.93-.36a3.12,3.12,0,0,1,3.29.23c2.73,2.57,5.1,1.32,7.84.08a18,18,0,0,1,6.22-1.18c3.38-.23,7.64.54,9.34-4.41a108,108,0,0,0,3.08-10.5c1.91-8.21,6.91-14.07,12.44-18.92,2.18-1.91,6.11-4,9.95-.19,2,1.94,5.72,2,8.39-1.48,2.9-3.77,8.2-5.57,11.27-4,6.25,3.24,8.94-3.3,13.46-4.31,2.48-.56,4-3.92,2.59-7.84a84.72,84.72,0,0,0-10.8-20.18c-1.53-2.19-3.65-3.55.69-4.35,3.2-.59,4.74-5.13,8.67-4.6,1.39.19,1.61-2.43.39-2.73-4.7-1.17-2.61-4.34-2-7.16,2.76-.34,4.27.94,4.9,4.1,1,5.24,5.47,8.24,12,9,4.45.48,3.13-4.36,5-6.24,3.5,2.06,5.21.37,6-3.54.48-2.33.57-5.76,2.54-6.37,4.33-1.36,6.87-5.67,10.33-7.48,5.92-3.1,10.09-7.58,14.59-12.59C471,181.87,477,176.9,484.35,174.3c3.42-1.22,7.17-1.72,10.24-3.64,3.58-2.23,6.6-2,9.67.36s4.61,1.68,5-2.4c.18-2,.8-4.56,2.67-3.66,4.56,2.17,8.67-1.78,13.12-.47,1.93.57,3.66-1.26,5.25-2.69,1.38-1.24,1.69-3.84,4-3.91l1.77,1.32-.63,2c-.73.15-1.84,0-1.51,1.35C534.12,163.74,535.12,163.3,535.88,163.18Zm-60.8,36c-1.32-1.69,2.54-7.24-3.05-6.26-4.31.75-9.52.13-11.47,6.62-.3,1-1.64,1.9-2.67,2.35-2.9,1.26-4.54,4.35-7.19,6-1.56,1-1.63,2.87-1.21,4.51.66,2.62,1.7,0,2.53.11,6.5.69,12-3.6,18-4.6C475.26,207.06,475.85,204.22,475.08,199.23Z"/><path class="cls-2" d="M430.35,321.11c3.38-8.63,1.51-18,2.91-26.93.66-4.17,1.55-8.4,1.13-12.77-.53-5.65,1.32-9.23,6.83-9.64,2.58-.19,5.36.38,7.6-1.92.33-.34,1.59-.3,1.79,0,2.95,5,7.45,2.17,10.77,1.9,6.77-.55,13.46.47,20.08.12a166,166,0,0,1,18.65-.24c8.2.48,16.22-3.25,24.36-.87,2.72.8,2.61-.8,2.76-2.86.59-8,1.27-16,1.91-24a5.78,5.78,0,0,0,0-2.23c-2.86-7.85,1-15.66.11-23.49-.13-1.13-.6-3.07,1-3.32,1.83-.28,1.94,1.66,1.94,3.13,0,6.31,0,12.63-.28,18.93-.07,1.51-.49,2.94.36,4.23.46.71,1.13,1.63,1.77,1.7,1,.11,1-1.09,1.18-2a56.75,56.75,0,0,1,4.4-15.87c1.67-3.72.63-8.84-.77-12.08-1.22-2.83-.75-4.25.49-5.48,4.55-4.49,1.94-11.17,5-16.64-5.72,3.25-6.06,1.79-5.57-4.18s0-11.15,5.52-14.63c2.47-1.55.06-4.77-.1-7.23,5.78-3.57,11.75-6.55,18.5-6.49,1.89,0,4-.13,5.47,1.84-.63,2.92-.47,7.46-4.49,6.09-3.63-1.23-4.81,1.73-6.76,3.28-1.29,1-.71,3.55,1,2.81,3.71-1.66,2.81,2.2,4,3.5,0,1.57,0,3.13.08,4.7-1.85,3.92.74,4.68,3.13,5.59l5,5.69c1.5,4.33,4.62,5.95,8.44,6.41h.36l.19.34c.1,1.87,1,2.34,2.5,1.89l.34,0,.17.32c.1,2,1.07,2.39,2.58,1.89a10.09,10.09,0,0,1,6.52,7.75c.16,2.18,1.33,2.85,3.09,2.63a23.92,23.92,0,0,0,8.77,12.17,105.08,105.08,0,0,1,23.15,22.48c-.24,2-.31,3.83,2.25,3.52a8.78,8.78,0,0,1,2.93,4.62c-.53.31-1.18.62-.85,1.47s1.2.76,1.93.66l5.12,8.32c-.25,6.2,4.28,6.83,7.85,8.59l.2.43c-.51.93-.9,2.52-1.53,2.65-3.8.8-3,3.4-1.53,5.51,3.15,4.67,3.71,9.93,3.53,15.48l-13.18,9.63c-5.79-.06-7.87,2.72-7.87,10.56-6.18,1.91-12.59-.06-18.81,1.35-1.44.33-2.26-1.38-3.36-2.16-5.63-4-12.59-3.77-16.33.6-1.75.81-1.72,1.63,0,2.44l3.47,5.23c-6.61-.46-8.51-4.34-6-11.22.55-1.5,3.6-3.37,1.12-5-1.72-1.13-4.21.44-5.73,2.25a6.05,6.05,0,0,0-.43,7.67c3.37,4,4,11.29,10.48,11.83.3,0,.52,1.25.78,1.92l-3.08.94c-1.75-2-3.46-2-5.13.11-2.82-.19-5.34-1.49-7.89-2.67,0-.77-.13-1.55-.89-1.69s-1.1.55-1.19,1.35l-4.85.71c-1.58-2.91-3.39.06-5.06-.26l0,0c-.27-1.41,1.64-2.88.2-4.1s-2.89-.16-4.18.68c-4.43,2.87-7.63,7.1-10,12.14-1.33,2.83-4.66,6.9,2.29,5.1,1.37-.35,1.54,1,1.8,2.11-7.19,6.37-12.24,5.49-17.23-3-.55-.93-1.22-1.77-1.84-2.65-.15-2.31-1.19-2.58-2.79-1.56-2.08-.22-4.17-.31-6.09-1.4-.52-1.83-1.22-2.13-2.14-.3H520.3c-1.84-2-3.4-2.62-4,1.09-1.06,1-1.38,2.94-3,3.31-1.42-1.56-.37-3.57-1.07-5.86-4.32,1.8-3.87,6.71-5.42,10.13-2.14.9-1.53,2.56-.92,4.23a.48.48,0,0,1-.07.67c-3.1-.67-3.58,1.45-3.53,4.17l-6,9.1.05-.1h-1.45c-8.31,3-14.08,8.81-16.2,18.66q-3.1,6.48-6.22,12.95c-1.68,0-2.18,1-1.92,2.73,0,.58-.11,1.15-.17,1.73l-.86,1.57-.85,2.8c-3.71,4.74-8.1,6-13.38,3.68-4.25-1.89-4.88-4.21-2.22-8.37,6.39-10,15.71-17,21.33-28.05,4.25-8.35,5.35-13.48-.17-20.72-3.07-4-5.47-7.93-5-13.82.51-7.19-.84-8.58-7.2-10.34-1.76-.48-3.56-.74-5.35-1.07-1.09-.2-2.54.38-3-1.28-.51-1.92,1.2-1.76,2-2.48,1.51-1.27,4-2.34,3-5s-3.06-3.78-6.14-3.26C445,317.18,438,320.82,430.35,321.11Z"/><path class="cls-2" d="M225.58,148.47c5.89,7.1,4.19,14-.38,20.85a26.69,26.69,0,0,0-1.95,4.49c-.55,1.34-.7,3,.94,2.93,6.86-.25,3.28,4.65,2.58,7.24-1.17,4.34-.06,8.45,3.51,9.86,5.14,2,5.67,1.25,5.65-5,0-3-1.52-7.37,3.92-8.16,2.19-.32,2.73-4.62,2.89-7.75.19-3.56-1.52-7.68,3.51-9.7,5.3-2.12,8.84.74,11.94,4.15,3.82,4.2,5.95,10.38,11.81,12.15,1.22.36,1.46,1.7,1.12,3.26s-.91,3.87-.24,4.87c3.62,5.41-.41,7.49-3.3,9.33-7.51,4.76-7.6,4.56-6.21,14.39.17,1.2.85,2.83-.8,3.26-1.16.3-1.54-1-1.89-2.11-.64-1.93-1.42-3.79-2-5.74s-1.47-3.19-3.24-2.46c-1.95.8-2.1,2.81-1.42,4.71s1.34,4.46,2.69,5.89c6,6.33,4.09,16.74,9.71,23.13,1.4,1.6.41,2.94.16,4.57-1.09,6.94-4.89,12.54-7.32,18.79a10.21,10.21,0,0,0,.43,9.23q-2.46,2.83-4.93,5.66l-1-.23c-5.22-4.24-5.12-11.27-5.77-17.09-1.46-13.13.3-26.19,3.33-39.06.61-2.64,3.51-6.62-.15-9s-2.49-5.68-2-8.81c.54-3.44,1-7.32,5.45-7.17a2.7,2.7,0,0,0,3-3,11.7,11.7,0,0,0-3-7.48c-1.09-1.33-2.55-.68-3.49.58-1.76,2.32-3.21,1.85-4.93-.14-1-1.13-2.26-2.43-3.89-1.52-.37.2-.5,1.36-.43,2,.22,2.05,1.5,2.74,3.18,2.79s3,.55,2.29,3c-1.28,4.41-2.23,9-3.88,13.21-2.51,6.5-5.07,6.87-8.61,1.16-2.88-4.65-6.39-6.65-11.33-6.17-1.92.18-4.1.74-5.79-.82-2-1.84-4.09-3.91-6.55-1.62a6.39,6.39,0,0,0-1.25,8.49c.68,1.17,1,2.48-.29,3.46a2.93,2.93,0,0,1-3.74,0c-1.35-1-1.87-2.49-2.34-4.15-.69-2.4-1.74-4.57-4.54-4.15,2.18-11,5.28-21.44,12.29-30,1.88-2.3,4-4.94,4.35-8.49A53.47,53.47,0,0,1,225.58,148.47Zm-7.89,40.46c.27-3.45-1.91-5.2-4.19-6.83-.73-.53-1.78-.74-2.22.2-1.18,2.55-.49,5,.6,7.45.15.33.28.68.43,1,.68,1.54.49,4.37,2.82,3.73S217.93,191.54,217.69,188.93Z"/><path class="cls-2" d="M213.6,162.18c-.33,3.55-2.47,6.19-4.35,8.49-7,8.58-10.11,19-12.29,30A47.53,47.53,0,0,1,194.53,213c-.59,5.66-1.45,11.31-1.65,17-.11,3.08-1.48,6.84,1.78,9.23l1.17,3.15c.11,1.14.23,2.29.34,3.43.08.7.17,1.4.25,2.1-1.08,9.73-.1,19.48-.4,29.22-1,6.54.44,13,1.07,19.41a42.84,42.84,0,0,1-2.35,19c-1.66,4.71-.17,7.51,4.48,7.84,5.57.38,11,1.11,16.29,3.42,5.71,2.48,10.17,10.49,9,17.25q-2.44,13.9-4.88,27.84a88.1,88.1,0,0,0-3.39,9.15c-2,8,2.17,15.28,9.44,16.84,4.63,1.14,9.29,1.85,14,1.06l7.93.07c.35,0,.69.07,1,.09,9.78,1.8,19.58,1.47,29.35.14,3.19-.43,4.86-2.86,5.84-6.57,1-3.9,2-7.8,2.77-11.75a150.74,150.74,0,0,1,8.32-31c1.17-3.08,2.71-6,3.12-9.37.54-4.5,3.25-7.07,6.59-9,7.15,2.64,14.54,2.19,21.9,2.12,5.63-1.62,11-4.35,17-4.5l9-.08,6-2c4.78.28,9.67,1.43,13.9-2.39,2-.31,3.88-1.57,6-1.05,2.3,3,5.49,2.67,8.24,2,3.6-.93,7.15-.75,10.74-1,10.94-1.47,21.77-4.43,32.91-3.4,7.65-.29,14.68-3.93,22.16-5.21,3.08-.52,5.08.64,6.14,3.26s-1.46,3.73-3,5c-.84.72-2.55.56-2,2.48.44,1.66,1.89,1.08,3,1.28,1.79.33,3.59.59,5.35,1.07,6.36,1.76,7.71,3.15,7.2,10.34-.43,5.89,2,9.79,5,13.82,5.52,7.24,4.42,12.37.17,20.72-5.62,11-14.94,18-21.33,28.05-2.66,4.16-2,6.48,2.22,8.37,5.28,2.36,9.67,1.06,13.38-3.68,3.78.29,5.54-2.43,6.78-5.86,2.21-6.15,4.33-12.34,8.2-17.53,1.46-2,2.08-4.44,2.59-7.29-3.76,2.07-4,7.26-7.55,8.9,2.12-9.85,7.89-15.66,16.2-18.67l1.45,0-.05.1,5.59-2.46c1,2.18-.69,3.28-1.67,4-9.7,6.68-13.83,17.87-18.14,28.76-4.6,11.64-11.82,18-23.46,17.29a11.15,11.15,0,0,1-6.07-2.24c-3.64-2.71-4.17-6.43-1.53-10.27,6.37-9.26,13.93-17.45,19.26-27.64,1.17-2.26,2.66-4.33,3.73-6.64,1.89-4.06,1.83-8.09-1.5-11.19-4.41-4.1-5.63-9.39-5.5-15.53.14-7.11-1.3-8.83-7.53-9.75-1.64-.24-3.34,0-5-.31a4,4,0,0,1-3.56-3.39c-.45-2.32.64-3.43,2.31-4.33,1.09-.59,3-.81,2.48-2.81-.63-2.3-2.39-.94-3.79-.91-6.29.14-11.79,3.91-18.21,4.4-5.57.42-11.07-1-16.68.44-21,5.43-42.72,5.21-64.08,7.29-11.89,1.15-23.16,6.77-35.26,5.21-3.94-.51-7.9-.81-11.86-1.05-2.6-.16-4.11,1.12-5.13,4.13-5.63,16.67-9.45,33.91-13.07,51.21-2.11,10.07-3.49,11.75-12.94,12.12-17.58.69-35.11-.56-52.59-2.57-3-.35-7.9-8.35-7.93-13.26,0-3.91.12-7.86,1.66-11.55,3.67-8.78,5.16-18.19,6-27.73.93-10.63-3.11-17.1-12.25-20a67.31,67.31,0,0,0-13.76-2.57c-3.62-.38-6.81-2.62-4.76-6.93,4.93-10.4,4.29-21,3.48-32.21-.89-12.2-.21-24.55-.19-36.84,0-3.2-.27-6.06-2.08-9-2.08-3.32-1-7.66-.88-11.52a155.3,155.3,0,0,1,7.27-41.58C201.69,177.24,207.08,169.21,213.6,162.18Z"/><path class="cls-2" d="M361.51,73.46l-2,.15c-1.42-.18-2.85-.37-4,.87-4.64-.16-7.37,3.23-10,6.85-2,.51-4.16,1.54-4.25-2.32.84-12.13-3-16.24-15.71-16.93-.85-1.14-1.94-1-3.05-.68l-4.95-1.51a3.65,3.65,0,0,0-5-.16c-2.43.43-3.47,2.11-4.11,4.77-1.38,5.83-3.82,10.85-9.14,13.5a7.92,7.92,0,0,0-4.38,6.39c-.35,6.82-3.41,7.58-8.2,5.58-2.87-.91-6.17-.81-6.65-5.75-.23-2.29-2.43-1.35-3.67-.52-4.69,3.13-9.82,4-15.15,4.38-2.23.14-4.66.49-6.06,3-6.57,1.4-8.21,3.58-8.24,10.92,0,1.85.19,3.85-2.22,4a15.94,15.94,0,0,0,.54-2.7c.32-10.75,2.84-14.5,12.59-16.83,6.14-1.46,12.46-1.72,18.23-5.16,2.32-1.38,5-1,5.86,2.79,1.13,5.33,5.52,3.11,8.31,4.26,2.08.85,2.41-2.52,2.92-4.36a14.89,14.89,0,0,1,6.83-9.3c3.11-1.7,4.38-4.1,5.25-7.51,2.62-10.15,5.5-12,14.64-9.72,4.06,1,8.1,2.15,12.21,2.81,5.89.94,9.93,4,11.22,10.85.73,3.91,2.21,4.42,5.65,2.91,11.15-4.88,22.83-4.21,34.43-2.78,4.67.58,5.8,4.94,6.28,9.51.4,3.78-.48,8.77,3.91,9.89s6.06-3.64,8.11-6.94a20.19,20.19,0,0,0,2.11-4.45c3.54-11,15.26-11.95,21.59-6.72,2.31,1.91,4,2.14,6.72,1.16,5.62-2,11.59-1.1,17.32-.57a13.33,13.33,0,0,0,8.93-2c6.31-4,12.23-4.94,17.67,2.76,2.38,3.36,6.3,5.33,9.47,8,4.53,3.83,6.38,9.91,9.56,14.87,3,4.61,6.62,6.62,11.41,6.54,7.15-.13,14.26-.56,20.54,4.73,2.32,1.95,5.52.93,8.31.89,3.91-.06,6.56,1.77,8.54,5.54,3.45,6.57,7.51,12.79,8.52,20.63-3-.92-3.1-4.33-4.43-6.66a29.69,29.69,0,0,1-2-5.05c-2.75-8-8.61-10.91-15.57-11.59a36.17,36.17,0,0,1-6.16-1.6,14.91,14.91,0,0,0-13.06-3.91l-10.95-.3c-3.91-1.06-5-5.59-7.85-8h0c-3.1-6.29-6.19-12.52-11.95-16.41a36.06,36.06,0,0,1-6.13-5.56c-5.73-6.21-11.36-6.56-18.14-.92-3.27,1.62-6.43-.86-9.66-.31-3.11-.11-6.22-.36-9.33-.28-1.77,0-4.13-1.09-4.93,2.09-3.89,1.1-7-.61-9.84-3.44a1.92,1.92,0,0,0-2.07-.78c-8.67-1.34-11.14.23-14.61,8.87a50.73,50.73,0,0,1-6.36,11.22c-2.62.58-5,3.15-7.94,1.11l-3.36-4.41c0-2.67.72-5.41-.64-7.93,0-2.2-.32-4.21-2-5.64-1.39-2.67-3.71-2.77-6.06-2.82a28.75,28.75,0,0,0-10.9.11C366.14,72.53,363.76,71.86,361.51,73.46Z"/><path class="cls-2" d="M579.36,153c4.21,3.55,8.29.83,12.95-1.82,4.31-2.45,8.05,2.14,7.1,7.65-.53,3.11-2.08,4.14-4.6,3.37a35.35,35.35,0,0,1-4.61-2c-3-1.4-6-3.24-9.2-.54a3.19,3.19,0,0,1-1.9.55c-2.5.1-5.53.42-5.86-3.34C572.88,152.69,576,153.07,579.36,153Z"/><path class="cls-2" d="M625.07,319c0-7.84,2.08-10.62,7.87-10.56-.45,1-.91,1.91-1.75,3.68a56.57,56.57,0,0,0,19.65-11.42c2.32,1.08,3.36-2.22,5.43-2-1.08,6.68-4.29,11.49-9.9,14.08C639.53,316,632.93,320.25,625.07,319Z"/><path class="cls-2" d="M606.17,187.68a10,10,0,0,1-5.23-1.71c-3.22-2-3.6-4.81-.81-7.59,3.69-3.68,8.23-4.07,12.67-2.63,2.7.87,2.94,3.75,1.89,6.54C613.09,186.55,609.89,187.66,606.17,187.68Z"/><path class="cls-2" d="M243.63,108.19c2.89,1.9,5,5.23,9.39,3.87,2-.63,2.65,3.32,2.43,5.21-.39,3.25-.59,6.65-2,9.7-2,4.12-5.36,5.06-8.51,2.14-1-.89-1.56-1.94-.61-3.35,3.27-4.83,2.55-8.08-2.58-11.81l1.14-5.27Z"/><path class="cls-2" d="M580.59,185.29c-2.42-.77-6.78-.45-6.72-5.93,0-4,3.23-4.89,6.19-4.86,3.4.05,6.35,1.26,6.52,5.91C586.73,184.38,584.6,185.63,580.59,185.29Z"/><path class="cls-2" d="M552.24,348.34c-.26-1.07-.43-2.46-1.8-2.11-7,1.8-3.62-2.27-2.29-5.1,2.38-5,5.58-9.27,10-12.14,1.29-.84,2.81-1.84,4.18-.68s-.47,2.69-.2,4.1c-3.44.36-4.39,2.52-3.44,6C557.22,342.32,554.74,345.34,552.24,348.34Z"/><path class="cls-2" d="M590.25,333.94c-.26-.67-.48-1.89-.78-1.92-6.49-.54-7.11-7.8-10.48-11.83a6.05,6.05,0,0,1,.43-7.67c1.52-1.81,4-3.38,5.73-2.25,2.48,1.62-.57,3.49-1.12,5-2.5,6.88-.6,10.76,6,11.22,1.82.62,3.61,1.49,3.36,4C593.21,332.38,592.47,334.18,590.25,333.94Z"/><path class="cls-2" d="M238.73,126.92c1.45,3.8,4,7.72,1.7,11.83s-6.49,3.64-10.32,3.11a3.53,3.53,0,0,1,1.27-2.84,6.53,6.53,0,0,0,3.27-6l1.16-3c1.09-.45,1.31-1.32.92-2.47l.63-.87Z"/><path class="cls-2" d="M646.12,298.83c.18-5.55-.38-10.81-3.53-15.48-1.44-2.11-2.27-4.71,1.53-5.51.63-.13,1-1.72,1.53-2.65a9.62,9.62,0,0,1,4.89,6.22c-1.59,1.19-2.78-1.59-4.54-.72,1.4,5.73,5.5,10.46,4,16.81C648.79,298.21,647.69,299.4,646.12,298.83Z"/><path class="cls-2" d="M650,297.5c1.49-6.35-2.61-11.08-4-16.81,1.76-.87,3,1.91,4.54.72a3.71,3.71,0,0,1,2,2.88c0,3.61.31,7,3.81,8.6a10.89,10.89,0,0,1,0,5.83c-2.07-.22-3.11,3.08-5.43,2C650.63,299.63,651,298.36,650,297.5Z"/><path class="cls-2" d="M615.09,154.12c3.06-.23,4.82,1.43,4.76,4.1-.08,4-3.35,4-5.85,4.51-2.93.6-4-1.86-3.92-4.35C610.21,154.76,613,154.34,615.09,154.12Z"/><path class="cls-2" d="M561.86,175.77c-1.18-1.3-.28-5.16-4-3.5-1.68.74-2.26-1.78-1-2.81,2-1.55,3.13-4.51,6.76-3.28,4,1.37,3.86-3.17,4.49-6.09,2.35,3.35,1.21,6.73-3.51,10.32l-1.5-.66,1.33.89A6.43,6.43,0,0,1,561.86,175.77Z"/><path class="cls-2" d="M540.15,153.31c3.91-3.14,7.83-6.26,11.71-9.45a1.94,1.94,0,0,1,2.65-.25c-3.45,5.72-8.68,8.69-14,11.53Z"/><path class="cls-2" d="M238.73,126.92l-1.37-.26c.71-4.33,1.25-8.7,2.19-13,.45-2,1-4.38,3.31-5L241.72,114c-1,.9-.71,2.18-.83,3.34a2.22,2.22,0,0,0-.81,2.7l-.18,4.07a2.23,2.23,0,0,0-1.07,2.4Z"/><path class="cls-2" d="M645.45,274.76c-3.57-1.76-8.1-2.39-7.85-8.59C641.41,267.65,644,270.57,645.45,274.76Z"/><path class="cls-2" d="M578.55,198.16c-3.82-.46-6.94-2.08-8.44-6.41A16,16,0,0,1,578.55,198.16Z"/><path class="cls-2" d="M509.42,357.06a7.38,7.38,0,0,1-4,4.51c-.93.51-1.5-.47-1.58-1.51-.18-2.62,1.33-3.63,3.25-4.16C508,355.63,509.05,355.32,509.42,357.06Z"/><path class="cls-2" d="M540.15,153.31l.36,1.83L536,159.21l-1.77-1.32c.34-.75.68-1.5,1-2.25C536.86,154.82,538.25,153.38,540.15,153.31Z"/><path class="cls-2" d="M656.31,292.89c-3.5-1.61-3.85-5-3.81-8.6A9.65,9.65,0,0,1,656.31,292.89Z"/><path class="cls-2" d="M565.07,186.06c-2.39-.91-5-1.67-3.13-5.59A8.7,8.7,0,0,1,565.07,186.06Z"/><path class="cls-2" d="M558.7,338.46c-1-3.53,0-5.69,3.44-6l0,0-.78,2.8Z"/><path class="cls-2" d="M561.38,335.23l.78-2.8c1.67.32,3.48-2.65,5.06.26C565.53,334.31,563.4,334.6,561.38,335.23Z"/><path class="cls-2" d="M234.65,133a6.53,6.53,0,0,1-3.27,6A6.53,6.53,0,0,1,234.65,133Z"/><path class="cls-2" d="M582,335c1.67-2.11,3.38-2.13,5.13-.11C585.49,336.38,583.77,336.18,582,335Z"/><path class="cls-2" d="M516.28,340.53c.62-3.71,2.18-3.07,4-1.09C519.18,340.85,517.73,340.69,516.28,340.53Z"/><path class="cls-2" d="M502.23,357.18c-.05-2.72.43-4.84,3.53-4.17C505.5,355.39,504.49,357,502.23,357.18Z"/><path class="cls-2" d="M555.73,139.82c-2-.12-2.91-1.22-2.43-3.53C555.36,136.37,556.43,137.32,555.73,139.82Z"/><path class="cls-2" d="M628.47,251.1c-2.56.31-2.49-1.54-2.25-3.52C627.71,248.15,628.24,249.51,628.47,251.1Z"/><path class="cls-2" d="M594.3,212.93c-1.76.22-2.93-.45-3.09-2.63C592.76,210.41,594.09,210.84,594.3,212.93Z"/><path class="cls-2" d="M505.83,352.34c-.61-1.67-1.22-3.33.92-4.23C507.73,349.88,507,351.17,505.83,352.34Z"/><path class="cls-2" d="M586.57,321.25c-1.72-.81-1.75-1.63,0-2.44A2.33,2.33,0,0,1,586.57,321.25Z"/><path class="cls-2" d="M572.07,332c.09-.8.39-1.49,1.19-1.35s.9.92.89,1.69Z"/><path class="cls-2" d="M522.15,339.45c.92-1.83,1.62-1.53,2.14.3C523.5,340.4,522.76,340.47,522.15,339.45Z"/><path class="cls-2" d="M530.38,341.15c1.6-1,2.64-.75,2.79,1.56C531.84,343.1,531,342.45,530.38,341.15Z"/><path class="cls-2" d="M584.69,202.55c-1.51.5-2.48.06-2.58-1.89C583.5,200.38,584.26,201.18,584.69,202.55Z"/><path class="cls-2" d="M535.88,163.18c-.76.12-1.76.56-2-.57-.33-1.33.78-1.2,1.51-1.35C535.53,161.9,535.7,162.54,535.88,163.18Z"/><path class="cls-2" d="M632.48,257.85c-.73.1-1.55.33-1.93-.66s.32-1.16.85-1.47A2,2,0,0,1,632.48,257.85Z"/><path class="cls-2" d="M236.73,127.53c.39,1.15.17,2-.92,2.47C235.11,128.7,235.22,127.78,236.73,127.53Z"/><path class="cls-2" d="M581.6,200.38c-1.47.45-2.4,0-2.5-1.89C580.5,198.18,581.23,199,581.6,200.38Z"/><path class="cls-2" d="M410.49,210.75c-.58,2.82-2.67,6,2,7.16,1.22.3,1,2.92-.39,2.73-3.93-.53-5.47,4-8.67,4.6-4.34.8-2.22,2.16-.69,4.35a84.72,84.72,0,0,1,10.8,20.18c1.4,3.92-.11,7.28-2.59,7.84-4.52,1-7.21,7.55-13.46,4.31-3.07-1.59-8.37.21-11.27,4-2.67,3.49-6.43,3.42-8.39,1.48-3.84-3.78-7.77-1.72-9.95.19-5.53,4.85-10.53,10.71-12.44,18.92a108,108,0,0,1-3.08,10.5c-1.7,4.95-6,4.18-9.34,4.41a18,18,0,0,0-6.22,1.18c-2.74,1.24-5.11,2.49-7.84-.08a3.12,3.12,0,0,0-3.29-.23c-2.35,1.93-4.64,1.7-6.93.36-1.89-1.12-2.92,1.51-4.61,1.16-.47-1.7-1-3.25-1.34-4.86-.58-2.92-1.7-3.65-4.59-3.23-4.15.62-8.25,2.71-12.67.93-2.08-.83-3.61,2.58-6,2.05-2.92-.72-6.35-7.56-8.5.91l-1.54,1.2c-2.84,3-5.47,3-8-.55a13.12,13.12,0,0,0-4.78-3.91c-.4-2.6.88-3.41,2.89-3.43,1.82,1.27,3.64,2.57,5.48,3.81.9.61,1.83.89,2.7-.11s.92-2.28,0-2.9c-5-3.28-4.52-11.12-9.57-14.32-.49-.31-.66-1.26-1-1.92,6.66,1.16,12.36,5.59,19.08,6.86,3.53.68,4.59.1,4.25-3.74,4.95.8,8.92,4.67,13.81,5.62,10.69,2.06,21.35,4.3,31.66,8.11,7.36,2.73,9.24,2.49,13.5-8,.37-1.45.75-2.91,1.13-4.36q2.46-5.67,4.93-11.34c6.08-.35,5-6.78,7-10.55s.27-5.34-2.84-6.25c-6.44-1.89-13.28.62-19.64-2.24a1.35,1.35,0,0,0-1.24.59c-.69,4.21-6.47,5.16-5.3,10.52-1.38.71-2.37,2.32-4.1,2.18-.73-3.81-3.65-5.55-5.87-7.94-.49-4.54,3.16-7.86,2.87-12.34a3.56,3.56,0,0,0,2.05-3.42c.35-5.85-6.68-12.44-11.7-10.75a52.31,52.31,0,0,0-6.23,3c-.12-4,2.28-6.44,4.43-9,1.47-1.72,3.39-1.84,4.88-.14,4.65,5.29,11.85,7.75,13.89,15.92,5.17.6,7.17,9.49,13.67,6.67a2.1,2.1,0,0,1,1.48,0c6.94,2.54,12.87,0,18.42-4.57.45,2.69,2.05,2.55,3.77,1.89a76.94,76.94,0,0,1,11.47-3.3c2-.43,4.7-1.37,5.1-3.89.71-4.47,9.14-4.51,5.07-11.52a6.84,6.84,0,0,1,1.69-1.74,9.21,9.21,0,0,1,5.65-1.78c.81,0,1.75-.08,2-1.24.29-1.56-.75-1.83-1.76-2-2.34-.41-4.13-1.42-4-4.57,2.15-4.55,2.05-9.54,2.22-14.47.78-1.29,2.52-2.17,1.44-4.26l10.39,3.69,1,3.86C411.08,205.55,410.79,208.15,410.49,210.75Zm-5.69-11.31a4.7,4.7,0,0,0-3.32,4.73c-.05,2.24.36,4.18,2.81,4.27,2.83.1,3.68-2.33,3.92-4.72S406.89,200.12,404.8,199.44Z"/><path class="cls-2" d="M307.23,187.48a1.47,1.47,0,0,1-2.1-.34,131.9,131.9,0,0,0-16.69-16.65c-.78-.64-1.77-1.48-1.31-2.73a1.2,1.2,0,0,1,2.1-.36c6.51,8.44,11.55-.17,16.83-2.19,8.27-3.17,16.31-6.93,25.19-7.37,4.7-.23,9.86.59,10.79-7.32.28-2.29,2.53-3.67,4.5-1s4.4,4.37,7.77,3.94c2.09-.27,3.15,1.6,4.24,3.34,1.89,3,4.12,3.43,5.71-.12.87-1.95,1.65-1.59,3.08-1.34,1.93.34,3.77-.69,2.35-3.11-1.95-3.32.35-3.3,1.92-4s3.55-1,5.18-1.88c2.76-1.46,4.88-1.18,6,2.26,1.53,4.56,4.28,3.7,7.32,2.43,3.56-1.5,1.69-4.14,1.21-6.51-.11-.54-.41-1-.49-1.58-.38-2.74-3.15-5.92,0-8.1,2.79-1.92,5.8-.49,8.26,1.82a17,17,0,0,1,2.52,2.64c2.42,3.43,4.95,4.75,8.43,1.58,1.3-1.19,3.47-2.77,4.82-1.14s-.89,3.31-1.68,4.78a16.21,16.21,0,0,1-10.85,8.29c-6.29,1.12-10.09,5.37-13.73,10.07-2.75,3.54-5.56,5.73-9.8,5.1-.82-.12-2.05-.39-2.43.08-5.25,6.52-8.54-.32-12.64-2.11-2.19-1-5.72-6-6,2.08-.13,3.16-10.44,8.06-12.74,6.11-3.81-3.23-6.82-4-11.26-.8-4.09,3-9.16,3.48-14.3,2.63a30.8,30.8,0,0,0-12.84.93c-1.45.38-3.11.08-3.74,2.05s.81,3,1.76,4.3S307.08,185.31,307.23,187.48Z"/><path class="cls-2" d="M535.24,155.64c-.35.75-.69,1.5-1,2.25-2.26.07-2.57,2.67-4,3.91-1.59,1.43-3.32,3.26-5.25,2.69-4.45-1.31-8.56,2.64-13.12.47-1.87-.9-2.49,1.64-2.67,3.66-.35,4.08-2,4.7-5,2.4s-6.09-2.59-9.67-.36c-3.07,1.92-6.82,2.42-10.24,3.64-7.35,2.6-13.38,7.57-18.52,13.28-4.5,5-8.67,9.49-14.59,12.59-3.46,1.81-6,6.12-10.33,7.48-2,.61-2.06,4-2.54,6.37-.81,3.91-2.52,5.6-6,3.54,0-2.26,0-4.53,0-6.79.48-3.05-1.19-4.41-3.35-5.3-2-.83-4.14-1.23-5.7-3.07.58-3.26,3.48-3.58,5.34-4.4,17-7.5,33.73-15.32,48.74-27.23,5.22-4.14,10.86-7.58,15-13.38,3.3-4.6,8.52-3.72,12.61-2.55,9.14,2.64,18.08,4,27.27.84A9.57,9.57,0,0,1,535.24,155.64Z"/><path class="cls-2" d="M349.59,286.3c-4.26,10.5-6.14,10.74-13.5,8-10.31-3.81-21-6.05-31.66-8.11-4.89-.95-8.86-4.82-13.81-5.62l-2.81-.13c-.49-1.8-1.49-3.58-.2-5.46h0c1.61-1,2.92-2.23,3-4.52l2-3.4,1.9-1.2c3.92,2.38,9.22,2.94,11.25,7.86S311,278,314,277c2.19-.78,4.49-1,6.61-2l3,.1c.3,3,1.76,1.66,3,1h2c2.09,1.42,5.62,2.24,4.37,5.89-1.71,5,2.1,5.56,3.71,5.14C341,286,345.36,287.78,349.59,286.3Z"/><path class="cls-2" d="M396.31,214.13c-.1,3.15,1.69,4.16,4,4.57,1,.18,2.05.45,1.76,2-.21,1.16-1.15,1.26-2,1.24a9.21,9.21,0,0,0-5.65,1.78,6.84,6.84,0,0,0-1.69,1.74c4.07,7-4.36,7.05-5.07,11.52-.4,2.52-3.09,3.46-5.1,3.89a76.94,76.94,0,0,0-11.47,3.3c-1.72.66-3.32.8-3.77-1.89a7.81,7.81,0,0,0,1.18-4.31c4.1-4.32,4-10.56,5.76-16,0-.74.08-1.48.13-2.22l1.79-1a11.16,11.16,0,0,1,11.32-4.72C390.68,214.67,393.37,215,396.31,214.13Z"/><path class="cls-2" d="M255.16,91.13c1.4-2.56,3.83-2.91,6.06-3,5.33-.33,10.46-1.25,15.15-4.38,1.24-.83,3.44-1.77,3.67.52.48,4.94,3.78,4.84,6.65,5.75-2.95,2.49-3.43,4.94-.13,7.66a30.44,30.44,0,0,0,4,3.08,7.35,7.35,0,0,1,3.56,7.84c-.75,3.25-4,2.29-6,1.81-4.17-1-4,.43-2.13,3.69.92,1.62,1.34,3.87-.29,5-1.89,1.35-3.69-.11-4.51-2-1.07-2.49-5.12-5-.39-8.09,1.21-.79.14-2.08-.71-2.56a71.58,71.58,0,0,1-17.69-13.89C260.47,90.47,257.55,91.81,255.16,91.13Z"/><path class="cls-2" d="M326.5,244.57c.29,4.48-3.36,7.8-2.87,12.34-5.23,2.74-5.26,3-.68,7.17a5.28,5.28,0,0,1,.62.83c-1.88,1.83-3.73-.2-5.62-.17-6,.1-6.69-1.1-4.21-7.4,1.31-3.3.28-4.7-2.5-4.78-3-.09-5.94-.11-8.78-1.35-.24-2.25,2.37-3.22,2-5.55a5.75,5.75,0,0,0,.2-1c2.25-.49,2.68-2.45,2.88-4.59l1.89-1.24a6.43,6.43,0,0,0,4.57-1.2c3.8-2.49,8.17-.71,10.13,3.63C324.67,242.56,325.15,244,326.5,244.57Z"/><path class="cls-2" d="M456.2,75.14c6.78-5.64,12.41-5.29,18.14.92a36.06,36.06,0,0,0,6.13,5.56c5.76,3.89,8.85,10.12,11.95,16.41-1.82,0-3.65.14-5.48.14-6.93,0-7.12-.12-7.62-8.07-.19-3-1.29-4.89-4-5.45-2.91-.6-5.82-1.27-8.72-2-2.18-.52-2.72,1.46-3.8,2.84-1.35,1.73-3.24,3.21-5.25,2.15-2.17-1.15-1.25-3.59-.59-5.42C457.89,79.63,456.34,77.51,456.2,75.14Z"/><path class="cls-2" d="M396.31,214.13c-2.94.89-5.63.54-8.74-.08a11.16,11.16,0,0,0-11.32,4.72c-1-3.25,1.64-6,1.1-9.13,0-.73.1-1.47.16-2.21a19.22,19.22,0,0,0,1.87-10.17c0-.73,0-1.47,0-2.21s-.2-1.58-.29-2.37a.71.71,0,0,1,.57.14,48,48,0,0,0,18.89,6.84C398.36,204.59,398.46,209.58,396.31,214.13Z"/><path class="cls-2" d="M267.29,277.46c.31.66.48,1.61,1,1.92,5.05,3.2,4.59,11,9.57,14.32.95.62.89,1.91,0,2.9s-1.8.72-2.7.11c-1.84-1.24-3.66-2.54-5.48-3.81-.17-.52-.22-1.35-.54-1.51-5.18-2.64-8.74-7.94-13.83-10.75-1.43-.79-3-1.87-2.55-4.27l4.93-5.67c1.66-.12,2.64,1.34,3.92,2.09l1,.93C264.77,274.05,265.76,276.17,267.29,277.46Z"/><path class="cls-2" d="M267.57,114c-1.13,4.87.06,9.43,2.8,13.72,2.24,3.49-1.77,6.28-1.14,9.83.22,1.22-1.84,1.36-2.91,1.06-2.85-.8-4.33-3-4.82-6.29-.34-2.36-1.6-4.45-2.37-6.67-.88-2.5-1.38-5.66.88-7.76,1.54-1.43,1.65-3,1.66-4.94s-.11-4.32,2.18-4.14S267.89,110.53,267.57,114Z"/><path class="cls-2" d="M326.5,244.57c-1.35-.61-1.83-2-2.42-3.33-2-4.34-6.33-6.12-10.13-3.63a6.43,6.43,0,0,1-4.57,1.2c0-.72,0-1.44,0-2.16a2.11,2.11,0,0,0,1.12-2.22c0-.34.06-.69.08-1a52.31,52.31,0,0,1,6.23-3c5-1.69,12,4.9,11.7,10.75A3.56,3.56,0,0,1,326.5,244.57Z"/><path class="cls-2" d="M423.28,202.4c1.56,1.84,3.71,2.24,5.7,3.07,2.16.89,3.83,2.25,3.35,5.3-3.83.28-7.29-.82-11-2.27s-6-5.29-10-5.55l-1-3.86,3.07.22,1,.25C417.14,201.35,420.2,201.9,423.28,202.4Z"/><path class="cls-2" d="M492.4,98c2.81,2.44,3.94,7,7.85,8-1,3.9-3.82,1.77-5.82,2.21-3.7.81-7.38-1.71-11.18-.11-1.32.56-2.45-.83-3.26-2.06a1.88,1.88,0,0,1,.18-2.49c1.2-1.29,2,.06,3,.47C485.46,105,491.83,100.65,492.4,98Z"/><path class="cls-2" d="M398.53,199.66a48,48,0,0,1-18.89-6.84c-.07-.78-.13-1.55-.19-2.32l7,.79C391,192.6,395.23,195,400,195.4,401.05,197.49,399.31,198.37,398.53,199.66Z"/><path class="cls-2" d="M511.2,106.37a14.91,14.91,0,0,1,13.06,3.91c-.12,1.43-.68,2.75-2.06,2.43C518,111.75,514,110.47,511.2,106.37Z"/><path class="cls-2" d="M304.41,245.66c.42,2.33-2.19,3.3-2,5.55a13.6,13.6,0,0,0-4.12,7.79,16,16,0,0,0-3.86,6.87l-1.9,1.2A41.6,41.6,0,0,1,304.41,245.66Z"/><path class="cls-2" d="M432.28,76.64c.8-3.18,3.16-2,4.93-2.09,3.11-.08,6.22.17,9.33.28-1.3,2.87-4,2.84-5.92,2.4C437.81,76.61,435,77.08,432.28,76.64Z"/><path class="cls-2" d="M341.27,79c.09,3.86,2.28,2.83,4.25,2.32a2.7,2.7,0,0,1-1.6,2.55c-1.8.83-3,5.14-4.72,3C338.09,85.52,338.49,81,341.27,79Z"/><path class="cls-2" d="M374.33,222c-1.75,5.4-1.66,11.64-5.76,16C370.55,232.69,369.78,226.13,374.33,222Z"/><path class="cls-2" d="M332.48,146.66c1.3.12,2.74.41,2.6,2.35s-1.59,2.06-2.93,2.06c-1.15,0-2.46,0-2.38-1.86S331,146.8,332.48,146.66Z"/><path class="cls-2" d="M377.35,209.64c.54,3.18-2.08,5.88-1.1,9.13l-1.79,1C374,215.91,374.55,212.37,377.35,209.64Z"/><path class="cls-2" d="M287.61,275c-1.29,1.88-.29,3.66.2,5.46-2.05-.12-4.59-.57-4.59-3.07C283.23,275.09,285.77,275,287.61,275Z"/><path class="cls-2" d="M391.46,93.62c2.91,2,5.32-.53,7.94-1.11-.61,3.35-3.25,3.79-5.45,4.31C392.3,97.21,391.51,95.48,391.46,93.62Z"/><path class="cls-2" d="M379.38,197.26a19.22,19.22,0,0,1-1.87,10.17C376.57,203.68,376.38,200.1,379.38,197.26Z"/><path class="cls-2" d="M387.46,81.28c1.36,2.52.68,5.26.64,7.93C385.37,86.82,386.05,84.09,387.46,81.28Z"/><path class="cls-2" d="M361.51,73.46c2.25-1.6,4.63-.93,7-.53C366.33,75.73,363.94,74.92,361.51,73.46Z"/><path class="cls-2" d="M386.46,191.29l-7-.79C382.16,186.5,384.29,189.17,386.46,191.29Z"/><path class="cls-2" d="M379.41,72.82c2.35.05,4.67.15,6.06,2.82C383.17,75.47,380.85,75.34,379.41,72.82Z"/><path class="cls-2" d="M312.52,59.73a3.65,3.65,0,0,1,5,.16C315.84,61.57,314.15,61.64,312.52,59.73Z"/><path class="cls-2" d="M355.48,74.48c1.18-1.24,2.61-1,4-.87C358.61,76.53,357.15,76.1,355.48,74.48Z"/><path class="cls-2" d="M307.49,240.05c-.2,2.14-.63,4.1-2.88,4.59C304.87,242.55,305.18,240.5,307.49,240.05Z"/><path class="cls-2" d="M290.59,270.47c-.06,2.29-1.37,3.53-3,4.52C287.5,272.56,288,270.66,290.59,270.47Z"/><path class="cls-2" d="M322.51,61.4c1.11-.29,2.2-.46,3.05.68C324.19,63.85,323.18,63.63,322.51,61.4Z"/><path class="cls-2" d="M339.14,149.68c-.12.31-.18.79-.38.88s-.54-.22-.81-.36c.12-.31.18-.79.38-.88S338.86,149.54,339.14,149.68Z"/><path class="cls-2" d="M420.37,72.42a1.92,1.92,0,0,1,2.07.78C421.12,75.11,420.66,74.05,420.37,72.42Z"/><path class="cls-2" d="M379.07,192.68c.09.79.19,1.58.29,2.37-.5-.34-1.29-.57-1.43-1C377.68,193.17,378.47,192.91,379.07,192.68Z"/><path class="cls-2" d="M238.83,126.46a2.23,2.23,0,0,1,1.07-2.4C241,125.66,240,126.13,238.83,126.46Z"/><path class="cls-2" d="M240.08,120a2.22,2.22,0,0,1,.81-2.7C242,118.71,241,119.32,240.08,120Z"/><path class="cls-2" d="M310.54,234.43a2.11,2.11,0,0,1-1.12,2.22C308.09,234.82,309.36,234.66,310.54,234.43Z"/><path class="cls-2" d="M414.39,199.56l-1-.25C413.88,198.74,414.17,199,414.39,199.56Z"/><path class="cls-2" d="M262.64,273.72l-1-.93Z"/><path class="cls-2" d="M195.83,242.32l-1.17-3.15c1.1-4.28-2.64-11.18,5.43-11.68,3.26-.21,4.91-.63,2.37,3.5a3.75,3.75,0,0,0,.13,4.64c1.39,1.59,3,1.26,4.5.06a15.17,15.17,0,0,1,1.67-1.22c1-.57,2.13-1.56,3.23-.62s.68,2.33.37,3.63c-1.1,4.71-1.72,9.57-.26,14.22,2,6.29,4.31,12.46,6.75,18.55a89.21,89.21,0,0,0,4.89,9.72c.6,1.09,1.75,2.22,2.93,1.44,1.67-1.11,0-2.15-.43-3.17-.83-1.8-2.46-3.95-1.07-5.66,4.41-5.4,1.12-11.16-1-14.54-6.48-10.17-3.91-17.51-1.17-26.13.58-1.8,1.91-3.84,4.16-3.71,1.13,2-1.22,4,.65,5.51a1.49,1.49,0,0,0,2.24-.28c2.85-3.25,7.06-4.77,9.06-9.11.82-1.79,2.25-3.47.25-5.43-1.73-1.7-3.71-1.95-5.49-.61-1.63,1.23-2.89,3.07-4.37,4.58-1.05,1.07-1.81,2.72-3.73,2-3.27-1.16-5.66,1.09-8.12,2.95-1.35,1-2,4.4-4.18,2.51-1.58-1.37-.56-3.76.13-5.72s2.63-4.42-.65-6c-2.52-1.24-4.29-1.63-5.88,2.1-1.49,3.5-3.72,3.33-4.85-.93-.34-1.26-.56-3.89-2.17-3-4,2.17-3.93-2.1-5.49-3.8A47.53,47.53,0,0,0,197,200.69c2.8-.42,3.85,1.75,4.54,4.15.47,1.66,1,3.19,2.34,4.15a2.93,2.93,0,0,0,3.74,0c1.25-1,1-2.29.29-3.46a6.39,6.39,0,0,1,1.25-8.49c2.46-2.29,4.54-.22,6.55,1.62,1.69,1.56,3.87,1,5.79.82,4.94-.48,8.45,1.52,11.33,6.17,3.54,5.71,6.1,5.34,8.61-1.16,1.65-4.23,2.6-8.8,3.88-13.21.72-2.46-.54-3-2.29-3s-3-.74-3.18-2.79c-.07-.68.06-1.84.43-2,1.63-.91,2.91.39,3.89,1.52,1.72,2,3.17,2.46,4.93.14.94-1.26,2.4-1.91,3.49-.58a11.7,11.7,0,0,1,3,7.48,2.7,2.7,0,0,1-3,3c-4.48-.15-4.91,3.73-5.45,7.17-.5,3.13-1.7,6.38,2,8.81s.76,6.38.15,9c-3,12.87-4.79,25.93-3.33,39.06.65,5.82.55,12.85,5.77,17.09-.43,2.67-2.45,4.73-2.29,7.62-4.8,7-7.08,15.14-7.85,23.86a2.22,2.22,0,0,0-1.9,2.19c-.43,3-2.14,2.79-3.43,1.1-2.48-3.26-5.84-5.28-8.28-8.75-4.61-6.57-9.36-13.57-15.38-18.16-5.36-4.08-6.83-9.51-7.6-15.23-.92-6.86-4.43-12.38-5.89-18.85a2.56,2.56,0,0,0-2.67-2.06c-.08-.7-.17-1.4-.25-2.1.76-.24,1.45-.57,1.46-1.64C197.64,242.75,196.78,242.47,195.83,242.32Z"/><path class="cls-2" d="M196.42,247.85a2.56,2.56,0,0,1,2.67,2.06c1.46,6.47,5,12,5.89,18.85.77,5.72,2.24,11.15,7.6,15.23,6,4.59,10.77,11.59,15.38,18.16,2.44,3.47,5.8,5.49,8.28,8.75,1.29,1.69,3,1.93,3.43-1.1a2.22,2.22,0,0,1,1.9-2.19c-.62,7.64,4.94,9,9.32,11,3.11,1.43,7.63,5.48,8.14-3.36.19-3.31,4.09-1.16,5.83-2.61.43-1.1-.34-1.39-.79-1.87-1.16-1.24-3.33-2.57-2-4.41s2.88.48,4.15,1.44c3.16,2.41,6.35,4.77,9.35,7.4,1.77,1.56,3.55,3.63-.36,4.89-.65.21-1.66.76-1.29,1.33,2.36,3.71.67,9.93,5,12,4.63,2.22,8.69,6.41,14.26,5.81,2.95-.32,3.67.74,1.78,3.72-1,1.62-1.47,3.73-2.18,5.62s-2,4.35-3.52,4.47c-4.51.37-7.93,3.46-11.92,5-5,1.92-9.51-.34-13.71-3.6-5.53-4.28-11.38-6.52-18.14-3.5-3.95,1.76-5.31-2.56-5.94-5-1.22-4.68-4.16-7.45-6.83-10.68-.79-.95-1.83-1.93-2.08-3.08-1.81-8.34-8-8-13.43-8.26-2.43-.12-3.13-.71-3.73-3a16.53,16.53,0,0,0-8.31-10.63c-1.47-.8-2.76-1.59-2.78-3.45-.05-5.39-3-11-1.93-15.57,1.31-5.55-2.65-8.25-2.72-12.59,0-.56-1.17-1.11-1.79-1.66C196.32,267.33,195.34,257.58,196.42,247.85Z"/><path class="cls-2" d="M397.44,324.51c-3.59.21-7.14,0-10.74,1-2.75.7-5.94,1-8.24-2-.4-3.11-.74-6.22-2.28-9-1-1.74-.83-4,1.36-3.09,2.6,1,3.46-1.18,4.87-2.15,1.81,1.11.33,3.46,1.91,4.59.31-.21.88-.37,1.06-.75a17.66,17.66,0,0,0,2-9.64c-.17-1.44-1.84-3.85.23-4.09,1.77-.2,5.33-.69,5.71,1.84C394.45,309,398.05,316.31,397.44,324.51Z"/><path class="cls-2" d="M475.08,199.23c.77,5,.18,7.83-5,8.7-6,1-11.52,5.29-18,4.6-.83-.09-1.87,2.51-2.53-.11-.42-1.64-.35-3.55,1.21-4.51,2.65-1.62,4.29-4.71,7.19-6,1-.45,2.37-1.33,2.67-2.35,1.95-6.49,7.16-5.87,11.47-6.62C477.62,192,473.76,197.54,475.08,199.23Z"/><path class="cls-2" d="M326.55,333.54c-7.36.07-14.75.52-21.9-2.12.37-2,.61-4,1.14-5.95.89-3.2,2.43-5.26,5.84-3.76,2.31,1,4,.16,6.2-1.51,2.35-1.8,5.94-1.1,8.65-3.31,1-.83,1.73.63,1.5,2.36C327.36,324,327,328.77,326.55,333.54Z"/><path class="cls-2" d="M281.1,299.59c2.15-8.47,5.58-1.63,8.5-.91,2,5.89,7.73,7.27,11.12,11.53,1.13,1.43,1.86-.67,2.64-1.48a3.31,3.31,0,0,1,4.18-.73c1.67,1,.55,2.63.18,4-1.94,6.81-3.63,13.73-7.17,21.3-1.51-5.57,1.31-8.72,1.74-12.39.32-2.75.36-4.54-2.71-4.16-4.19-3.29-9.08-5.23-12.73-9.75C284.9,304.55,283.85,301.17,281.1,299.59Z"/><path class="cls-2" d="M411.38,203c4,.26,6.36,4.13,10,5.55s7.13,2.55,11,2.27c0,2.26,0,4.53,0,6.79-1.83,1.88-.51,6.72-5,6.24-6.53-.71-11-3.71-12-9-.63-3.16-2.14-4.44-4.9-4.1C410.79,208.15,411.08,205.55,411.38,203Z"/><path class="cls-2" d="M286.62,380.85c-.81,3.95-1.75,7.85-2.77,11.75-1,3.71-2.65,6.14-5.84,6.57-9.77,1.33-19.57,1.66-29.35-.14,1.32-4,7.22-1,7.71-6.33,1.41,2.95,4.11,1.46,6.14,2.29,8.68,3.53,13,1.79,17.49-7.14C281.57,384.75,283.2,381.73,286.62,380.85Z"/><path class="cls-2" d="M281.1,299.59c2.75,1.58,3.8,5,5.75,7.37,3.65,4.52,8.54,6.46,12.73,9.75-1,1.48-2.09,2.88-3,4.44-1.38,2.45-2.6,2.68-4.75.76-2.9-2.6-7.19-2.61-9.67-6.3-.43-.65-1.61-.84-1.06-2,2.29-4.75.05-8.73-1.58-12.82Z"/><path class="cls-2" d="M249.42,283.75c-.16-2.89,1.86-4.95,2.29-7.62l1,.23c-.46,2.41,1.12,3.49,2.55,4.28,5.09,2.81,8.65,8.11,13.83,10.75.32.16.37,1,.54,1.51-2,0-3.29.83-2.89,3.43-4.64,2.6-8.17-.32-10.61-3.89C254.07,289.36,251.56,286.75,249.42,283.75Z"/><path class="cls-2" d="M372.47,324.55c-4.23,3.82-9.12,2.67-13.9,2.39-.17-7.47,4.83-15.19,10.85-15.51,3.27-.18,3.69,3.46,2.48,6.13S370.73,322.37,372.47,324.55Z"/><path class="cls-2" d="M225.66,397.81c-7.27-1.56-11.47-8.86-9.44-16.84a88.1,88.1,0,0,1,3.39-9.15,18.28,18.28,0,0,1,2.58,11.44C221.61,388.64,224.18,393.06,225.66,397.81Z"/><path class="cls-2" d="M247.62,398.94l-7.93-.07c.06-2.33-.4-5.24,2.59-5.48C245.52,393.13,247.33,395.26,247.62,398.94Z"/><path class="cls-2" d="M352.53,329l-9,.08c.29-1.75-.57-5.35,2.23-4C348,326.19,353.32,321.4,352.53,329Z"/><path class="cls-2" d="M478.67,384.83c3.57-1.64,3.79-6.83,7.55-8.9-.51,2.85-1.13,5.34-2.59,7.29-3.87,5.19-6,11.38-8.2,17.53-1.24,3.43-3,6.15-6.78,5.86.28-.93.57-1.86.85-2.8.82-.16,1.13-.66.86-1.57.06-.58.12-1.15.17-1.73,1.58-.07,2.19-1,1.92-2.73Q475.57,391.3,478.67,384.83Z"/><path class="cls-2" d="M650,297.5c.94.86.62,2.13.83,3.22a56.57,56.57,0,0,1-19.65,11.42c.84-1.77,1.3-2.72,1.75-3.68l13.18-9.63C647.69,299.4,648.79,298.21,650,297.5Z"/><path class="cls-2" d="M472.45,397.78c.27,1.72-.34,2.66-1.92,2.73C470.27,398.79,470.77,397.76,472.45,397.78Z"/><path class="cls-2" d="M496.32,366.18l-1.45,0Z"/><path class="cls-2" d="M470.36,402.24c.27.91,0,1.41-.86,1.57Z"/><path class="cls-2" d="M217.69,188.93c.24,2.61-.38,5-2.56,5.56s-2.14-2.19-2.82-3.73c-.15-.33-.28-.68-.43-1-1.09-2.4-1.78-4.9-.6-7.45.44-.94,1.49-.73,2.22-.2C215.78,183.73,218,185.48,217.69,188.93Z"/><path class="cls-2" d="M194.53,213c1.56,1.7,1.48,6,5.49,3.8,1.61-.88,1.83,1.75,2.17,3,1.13,4.26,3.36,4.43,4.85.93,1.59-3.73,3.36-3.34,5.88-2.1,3.28,1.62,1.38,4,.65,6s-1.71,4.35-.13,5.72c2.18,1.89,2.83-1.48,4.18-2.51,2.46-1.86,4.85-4.11,8.12-2.95,1.92.68,2.68-1,3.73-2,1.48-1.51,2.74-3.35,4.37-4.58,1.78-1.34,3.76-1.09,5.49.61,2,2,.57,3.64-.25,5.43-2,4.34-6.21,5.86-9.06,9.11a1.49,1.49,0,0,1-2.24.28c-1.87-1.5.48-3.53-.65-5.51-2.25-.13-3.58,1.91-4.16,3.71-2.74,8.62-5.31,16,1.17,26.13,2.15,3.38,5.44,9.14,1,14.54-1.39,1.71.24,3.86,1.07,5.66.47,1,2.1,2.06.43,3.17-1.18.78-2.33-.35-2.93-1.44a89.21,89.21,0,0,1-4.89-9.72c-2.44-6.09-4.77-12.26-6.75-18.55-1.46-4.65-.84-9.51.26-14.22.31-1.3.71-2.71-.37-3.63s-2.22.05-3.23.62a15.17,15.17,0,0,0-1.67,1.22c-1.52,1.2-3.11,1.53-4.5-.06a3.75,3.75,0,0,1-.13-4.64c2.54-4.13.89-3.71-2.37-3.5-8.07.5-4.33,7.4-5.43,11.68-3.26-2.39-1.89-6.15-1.78-9.23C193.08,224.27,193.94,218.62,194.53,213Z"/><path class="cls-2" d="M195.83,242.32c.95.15,1.81.43,1.8,1.79,0,1.07-.7,1.4-1.46,1.64C196.06,244.61,195.94,243.46,195.83,242.32Z"/><path class="cls-2" d="M564.47,170.64l-1.33-.89,1.5.66Z"/><path class="cls-2" d="M298.34,259a13.6,13.6,0,0,1,4.12-7.79c2.84,1.24,5.79,1.26,8.78,1.35,2.78.08,3.81,1.48,2.5,4.78-2.48,6.3-1.83,7.5,4.21,7.4,1.89,0,3.74,2,5.62.17l5.93-.06c1.73.14,2.72-1.47,4.1-2.18,5.34-.05,10.4,1.86,15.45,3.35,2.31.67,6.09.06,6.6,4.58l-4.94,11.34c-5.46-.87-11.12-1.62-15.82-4.79-2.37-1.61-4-2.36-6.35-1.07h-2c-.31-3-1.74-1.74-3-1l-3-.1c-1-3.25-2.51-5.07-5.81-3-1.84,1.17-3.06,1.16-2.6-2.16.35-2.58-1.08-4.24-3.67-3.64C303.08,267.4,300.3,263.94,298.34,259Z"/><path class="cls-2" d="M355.65,270.6c-.51-4.52-4.29-3.91-6.6-4.58-5.05-1.49-10.11-3.4-15.45-3.35-1.17-5.36,4.61-6.31,5.3-10.52a1.35,1.35,0,0,1,1.24-.59c6.36,2.86,13.2.35,19.64,2.24,3.11.91,4.85,2.48,2.84,6.25S361.73,270.25,355.65,270.6Z"/><path class="cls-2" d="M328.54,276.08c2.36-1.29,4-.54,6.35,1.07,4.7,3.17,10.36,3.92,15.82,4.79l-1.12,4.36c-4.23,1.48-8.61-.34-13,.81-1.61.42-5.42-.12-3.71-5.14C334.16,278.32,330.63,277.5,328.54,276.08Z"/><path class="cls-2" d="M404.8,199.44c2.09.68,3.64,2,3.41,4.28s-1.09,4.82-3.92,4.72c-2.45-.09-2.86-2-2.81-4.27A4.7,4.7,0,0,1,404.8,199.44Z"/><path class="cls-2" d="M329.5,264.85l-5.93.06a5.28,5.28,0,0,0-.62-.83c-4.58-4.12-4.55-4.43.68-7.17C325.85,259.3,328.77,261,329.5,264.85Z"/><path class="cls-2" d="M298.34,259c2,4.94,4.74,8.4,10.15,7.16,2.59-.6,4,1.06,3.67,3.64-.46,3.32.76,3.33,2.6,2.16,3.3-2.09,4.79-.27,5.81,3-2.12,1-4.42,1.26-6.61,2-3,1.06-6.21,1.68-8.23-3.25s-7.33-5.48-11.25-7.86A16,16,0,0,1,298.34,259Z"/><path class="cls-2" d="M323.54,275c1.29-.71,2.72-1.94,3,1C325.3,276.7,323.84,278,323.54,275Z"/></g></g></svg>